<?xml version="1.0" encoding="utf-8"?>
<!-- Generator: Adobe Illustrator 27.5.0, SVG Export Plug-In . SVG Version: 6.00 Build 0)  -->
<svg version="1.1" id="Ebene_1" xmlns="http://www.w3.org/2000/svg" xmlns:xlink="http://www.w3.org/1999/xlink" x="0px" y="0px"
	 viewBox="0 0 24 24" style="enable-background:new 0 0 24 24;" xml:space="preserve">
<g>
	<path d="M6.5,17C7.9,17,9,15.9,9,14.5C9,13.1,7.9,12,6.5,12C5.1,12,4,13.1,4,14.5C4,15.9,5.1,17,6.5,17z M6.5,13
		C7.3,13,8,13.7,8,14.5C8,15.3,7.3,16,6.5,16C5.7,16,5,15.3,5,14.5C5,13.7,5.7,13,6.5,13z"/>
	<path d="M6.5,17.5C4,17.5,2,19.6,2,22h1c0-1.9,1.6-3.5,3.5-3.5c1.9,0,3.5,1.6,3.5,3.5h1C11,19.6,9,17.5,6.5,17.5z"/>
	<path d="M15,14.5c0,1.4,1.1,2.5,2.5,2.5c1.4,0,2.5-1.1,2.5-2.5c0-1.4-1.1-2.5-2.5-2.5C16.1,12,15,13.1,15,14.5z M19,14.5
		c0,0.8-0.7,1.5-1.5,1.5c-0.8,0-1.5-0.7-1.5-1.5c0-0.8,0.7-1.5,1.5-1.5C18.3,13,19,13.7,19,14.5z"/>
	<path d="M17.5,17.5c-2.5,0-4.5,2-4.5,4.5h1c0-1.9,1.6-3.5,3.5-3.5c1.9,0,3.5,1.6,3.5,3.5h1C22,19.6,20,17.5,17.5,17.5z"/>
	<path d="M12,2.3c-3.3,0-6,1.8-6,4c0,2,2.1,3.6,5,3.9l1.3,3.2l1.3-3.3c2.6-0.5,4.4-2,4.4-3.9C18,4.1,15.3,2.3,12,2.3z M13,9.2
		l-0.8,2l-0.8-1.9C9.1,9,7.1,7.8,7.1,6.2c0-1.7,2.3-2.8,4.9-2.8s4.9,1.1,4.9,2.8C16.9,7.7,15.2,8.9,13,9.2z"/>
</g>
</svg>
