<?xml version="1.0" encoding="utf-8"?>
<!-- Generator: Adobe Illustrator 27.5.0, SVG Export Plug-In . SVG Version: 6.00 Build 0)  -->
<svg version="1.1" id="Ebene_1" xmlns="http://www.w3.org/2000/svg" xmlns:xlink="http://www.w3.org/1999/xlink" x="0px" y="0px"
	 viewBox="0 0 24 24" style="enable-background:new 0 0 24 24;" xml:space="preserve">
<style type="text/css">
	.st0{fill-rule:evenodd;clip-rule:evenodd;}
	.st1{fill:none;}
</style>
<g id="Topic-Icons_x2F_33_x5F_a">
	<g id="Group-10" transform="translate(1, 2)">
		<path class="st0" d="M10.9,0c-1.1,0-2,0.9-2,2c0,1.1,0.9,2,2,2s2-0.9,2-2C12.9,0.9,12,0,10.9,0z M10.9,3c-0.6,0-1-0.4-1-1
			s0.4-1,1-1s1,0.4,1,1S11.4,3,10.9,3z"/>
		<g>
			<rect x="9.3" y="6" class="st1" width="3" height="6"/>
			<path d="M21,6V5h-8.4v0H9.1v0H1v1h7.3v6H3.9v0.6V13v5h1v-5h3.5H9h3.7l7.1,5.3l0.6-0.8l-7-5.2V6H21z M12.3,12h-3V6h3V12z"/>
		</g>
	</g>
</g>
</svg>
