<svg xmlns="http://www.w3.org/2000/svg" width="24" height="24" viewBox="0 0 24 24">
  <g fill="none" fill-rule="evenodd" transform="translate(3 2)">
    <path fill="#000000" d="M13.7868,14.0069 C13.7868,14.2819 13.5628,14.5069 13.2868,14.5069 C13.0108,14.5069 12.7868,14.2819 12.7868,14.0069 C12.7868,13.7309 13.0108,13.5069 13.2868,13.5069 C13.5628,13.5069 13.7868,13.7309 13.7868,14.0069"/>
    <path fill="#000000" d="M11.2331,15 C11.5431,13.851 12.3541,13 13.2871,13 C14.2191,13 15.0311,13.851 15.3401,15 L11.2331,15 Z M13.2871,19 C12.0981,19 11.0941,17.626 11.0941,16 L15.4801,16 C15.4801,17.626 14.4761,19 13.2871,19 L13.2871,19 Z M13.8381,12.069 C13.3461,11.649 13.0121,10.946 13.0071,10.314 C13.0031,9.647 13.3021,9.21 13.6111,8.817 C13.7461,8.647 14.0011,8.417 14.2961,8.151 C15.3641,7.187 16.9801,5.99 16.9801,3.772 C16.9801,1.822 15.4611,0.165 13.5211,0 L13.4861,0.408 L13.4861,1.006 C14.8881,1.152 15.9801,2.355 15.9801,3.772 C15.9801,5.546 14.6191,6.513 13.6261,7.409 C13.2961,7.706 13.0121,7.962 12.8261,8.199 C12.5371,8.566 11.9991,9.249 12.0071,10.322 C12.0121,10.936 12.2341,11.566 12.5821,12.105 C11.1591,12.509 10.0941,14.096 10.0941,16 C10.0941,18.209 11.5231,20 13.2871,20 C15.0501,20 16.4801,18.209 16.4801,16 C16.4801,14.027 15.3371,12.398 13.8381,12.069 L13.8381,12.069 Z"/>
    <path d="M11.2331 15C11.5431 13.851 12.3541 13 13.2871 13 14.2191 13 15.0311 13.851 15.3401 15L11.2331 15zM13.2871 19C12.0981 19 11.0941 17.626 11.0941 16L15.4801 16C15.4801 17.626 14.4761 19 13.2871 19L13.2871 19z"/>
    <path d="M13.8381,12.069 C13.3461,11.649 13.0121,10.946 13.0071,10.314 C13.0031,9.647 13.3021,9.21 13.6111,8.817 C13.7461,8.647 14.0011,8.417 14.2961,8.151 C15.3641,7.187 16.9801,5.99 16.9801,3.772 C16.9801,1.822 15.4611,0.165 13.5211,0 L13.4861,0.408 L13.4861,1.006 C14.8881,1.152 15.9801,2.355 15.9801,3.772 C15.9801,5.546 14.6191,6.513 13.6261,7.409 C13.2961,7.706 13.0121,7.962 12.8261,8.199 C12.5371,8.566 11.9991,9.249 12.0071,10.322 C12.0121,10.936 12.2341,11.566 12.5821,12.105 C11.1591,12.509 10.0941,14.096 10.0941,16 C10.0941,18.209 11.5231,20 13.2871,20 C15.0501,20 16.4801,18.209 16.4801,16 C16.4801,14.027 15.3371,12.398 13.8381,12.069 L13.8381,12.069 Z"/>
    <path fill="#000000" d="M4.9304,19.0098 C4.6164,19.0098 4.4094,18.8688 4.2904,18.7508 C4.1034,18.5628 3.9994,18.2998 3.9994,18.0098 L3.9994,6.8098 L3.5024,6.5208 C3.2734,6.3858 3.0614,6.2228 2.8724,6.0348 C2.3104,5.4718 1.9994,4.7278 1.9994,3.9398 C1.9994,3.0698 2.3794,2.2698 2.9994,1.7158 L2.9994,4.0098 L6.9994,4.0098 L6.9994,1.7168 C7.0434,1.7558 7.0864,1.7958 7.1284,1.8378 C7.6904,2.3998 7.9994,3.1458 7.9994,3.9398 C7.9994,5.0078 7.4384,5.9728 6.4974,6.5198 L6.0004,6.8098 L6.0004,11.5098 L5.9994,11.5098 L5.9994,12.5098 L6.0004,12.5098 L5.9994,18.0098 C5.9994,18.5428 5.5004,19.0098 4.9304,19.0098 L4.9304,19.0098 Z M7.0004,7.3838 C8.1914,6.6918 8.9994,5.4158 8.9994,3.9398 C8.9994,2.8408 8.5544,1.8498 7.8354,1.1308 C7.3364,0.6318 6.7054,0.2638 5.9994,0.0808 L5.9994,3.0098 L3.9994,3.0098 L3.9994,0.0798 C2.2784,0.5268 0.9994,2.0768 0.9994,3.9398 C0.9994,5.0368 1.4474,6.0238 2.1654,6.7418 C2.4134,6.9898 2.6944,7.2058 2.9994,7.3848 L2.9994,18.0098 C2.9994,18.5788 3.2194,19.0938 3.5834,19.4578 C3.9264,19.7998 4.3954,20.0098 4.9304,20.0098 C6.0344,20.0098 6.9994,19.1138 6.9994,18.0098 L7.0004,7.3838 Z"/>
  </g>
</svg>
