<?xml version="1.0" encoding="utf-8"?>
<!-- Generator: Adobe Illustrator 27.5.0, SVG Export Plug-In . SVG Version: 6.00 Build 0)  -->
<svg version="1.1" id="Ebene_1" xmlns="http://www.w3.org/2000/svg" xmlns:xlink="http://www.w3.org/1999/xlink" x="0px" y="0px"
	 viewBox="0 0 24 24" style="enable-background:new 0 0 24 24;" xml:space="preserve">
<style type="text/css">
	.st0{fill-rule:evenodd;clip-rule:evenodd;}
	.st1{fill:none;}
</style>
<g id="Topic-Icons_x2F_07_x5F_a">
	<g id="Group" transform="translate(3, 2)">
		<path id="Fill-4" class="st0" d="M13.8,14c0,0.3-0.2,0.5-0.5,0.5s-0.5-0.2-0.5-0.5c0-0.3,0.2-0.5,0.5-0.5S13.8,13.7,13.8,14"/>
		<path class="st0" d="M13.8,12.1c-0.5-0.4-0.8-1.1-0.8-1.8c0-0.7,0.3-1.1,0.6-1.5c0.1-0.2,0.4-0.4,0.7-0.7C15.4,7.2,17,6,17,3.8
			c0-1.9-1.5-3.6-3.5-3.8l0,0.4V1C14.9,1.2,16,2.4,16,3.8c0,1.8-1.4,2.7-2.4,3.6C13.3,7.7,13,8,12.8,8.2C12.5,8.6,12,9.2,12,10.3
			c0,0.6,0.2,1.2,0.6,1.8c-1.4,0.4-2.5,2-2.5,3.9c0,2.2,1.4,4,3.2,4c1.8,0,3.2-1.8,3.2-4C16.5,14,15.3,12.4,13.8,12.1z M13.3,19
			c-1.2,0-2.2-1.4-2.2-3h4.4C15.5,17.6,14.5,19,13.3,19z M11.2,15c0.3-1.1,1.1-2,2.1-2c0.9,0,1.7,0.9,2.1,2H11.2z"/>
		<path id="Path" class="st1" d="M11.2,15c0.3-1.1,1.1-2,2.1-2c0.9,0,1.7,0.9,2.1,2H11.2z"/>
		<path id="Fill-1" class="st0" d="M4.9,19c-0.3,0-0.5-0.1-0.6-0.3C4.1,18.6,4,18.3,4,18V6.8L3.5,6.5C3.3,6.4,3.1,6.2,2.9,6
			C2.3,5.5,2,4.7,2,3.9c0-0.9,0.4-1.7,1-2.2V4h4V1.7c0,0,0.1,0.1,0.1,0.1C7.7,2.4,8,3.1,8,3.9C8,5,7.4,6,6.5,6.5L6,6.8v4.7h0v1h0
			L6,18C6,18.5,5.5,19,4.9,19L4.9,19z M7,7.4c1.2-0.7,2-2,2-3.4c0-1.1-0.4-2.1-1.2-2.8C7.3,0.6,6.7,0.3,6,0.1V3H4V0.1
			c-1.7,0.4-3,2-3,3.9C1,5,1.4,6,2.2,6.7C2.4,7,2.7,7.2,3,7.4V18c0,0.6,0.2,1.1,0.6,1.4C3.9,19.8,4.4,20,4.9,20C6,20,7,19.1,7,18
			L7,7.4z"/>
	</g>
</g>
</svg>
