<svg xmlns="http://www.w3.org/2000/svg" width="24" height="24" viewBox="0 0 24 24">
  <g fill="#000000" fill-rule="evenodd" transform="translate(2 2.272)">
    <path d="M4.4951 9.75535C3.1181 9.75535 2.0031 10.87135 2.0031 12.24735 2.0031 13.62335 3.1181 14.73935 4.4951 14.73935 5.8711 14.73935 6.9871 13.62335 6.9871 12.24735 6.9871 10.87135 5.8711 9.75535 4.4951 9.75535M4.4951 10.75535C5.3171 10.75535 5.9871 11.42435 5.9871 12.24735 5.9871 13.06935 5.3171 13.73935 4.4951 13.73935 3.6721 13.73935 3.0031 13.06935 3.0031 12.24735 3.0031 11.42435 3.6721 10.75535 4.4951 10.75535M1 19.77095L-.12638804e-13 19.77095C.001 17.29295 2.018 15.27795 4.494 15.27795 6.973 15.27795 8.988 17.29295 8.988 19.77095L7.988 19.77095C7.988 17.84495 6.421 16.27795 4.494 16.27795 2.568 16.27795 1.001 17.84495 1 19.77095M15.4951 9.75535C14.1181 9.75535 13.0031 10.87135 13.0031 12.24735 13.0031 13.62335 14.1181 14.73935 15.4951 14.73935 16.8711 14.73935 17.9871 13.62335 17.9871 12.24735 17.9871 10.87135 16.8711 9.75535 15.4951 9.75535M15.4951 10.75535C16.3171 10.75535 16.9871 11.42435 16.9871 12.24735 16.9871 13.06935 16.3171 13.73935 15.4951 13.73935 14.6721 13.73935 14.0031 13.06935 14.0031 12.24735 14.0031 11.42435 14.6721 10.75535 15.4951 10.75535M12 19.77095L11 19.77095C11.001 17.29295 13.018 15.27795 15.494 15.27795 17.973 15.27795 19.988 17.29295 19.988 19.77095L18.988 19.77095C18.988 17.84495 17.421 16.27795 15.494 16.27795 13.568 16.27795 12.001 17.84495 12 19.77095"/>
    <path fill-rule="nonzero" d="M8.61620583,8.39886453 C5.68496399,7.96380959 3.5004,6.17989691 3.5004,4 C3.5004,1.46184961 6.44317441,-0.5 10.0004,-0.5 C13.5576256,-0.5 16.5004,1.46184961 16.5004,4 C16.5004,6.03631737 14.5903279,7.73907594 11.9181632,8.30307673 L10.2475833,12.5106355 L8.61620583,8.39886453 Z M11.1923721,7.42118877 L11.4665614,7.37231269 C13.8563875,6.94631022 15.5004,5.53855656 15.5004,4 C15.5004,2.1198724 13.0705914,0.5 10.0004,0.5 C6.93020859,0.5 4.5004,2.1198724 4.5004,4 C4.5004,5.65440537 6.39773452,7.14194867 9.02983717,7.44482702 L9.32708808,7.47903194 L10.2479167,9.79991488 L11.1923721,7.42118877 Z"/>
  </g>
</svg>
