<?xml version="1.0" encoding="UTF-8"?>
<svg width="24px" height="24px" viewBox="0 0 24 24" version="1.1" xmlns="http://www.w3.org/2000/svg" xmlns:xlink="http://www.w3.org/1999/xlink">
    <title>Topic-Icons/02_a Copy</title>
    <g id="Topic-Icons/02_a-Copy" stroke="none" stroke-width="1" fill="none" fill-rule="evenodd">
        <path d="M6.4947,12.027 C5.1177,12.027 4.0027,13.143 4.0027,14.519 C4.0027,15.895 5.1177,17.011 6.4947,17.011 C7.8707,17.011 8.9867,15.895 8.9867,14.519 C8.9867,13.143 7.8707,12.027 6.4947,12.027 M6.4947,13.027 C7.3167,13.027 7.9867,13.696 7.9867,14.519 C7.9867,15.341 7.3167,16.011 6.4947,16.011 C5.6717,16.011 5.0027,15.341 5.0027,14.519 C5.0027,13.696 5.6717,13.027 6.4947,13.027" id="Fill-7" fill="#000000"></path>
        <path d="M2.9996,22.0426 L1.9996,22.0426 C2.0006,19.5646 4.0176,17.5496 6.4936,17.5496 C8.9726,17.5496 10.9876,19.5646 10.9876,22.0426 L9.9876,22.0426 C9.9876,20.1166 8.4206,18.5496 6.4936,18.5496 C4.5676,18.5496 3.0006,20.1166 2.9996,22.0426" id="Fill-9" fill="#000000"></path>
        <path d="M17.4947,12.027 C16.1177,12.027 15.0027,13.143 15.0027,14.519 C15.0027,15.895 16.1177,17.011 17.4947,17.011 C18.8707,17.011 19.9867,15.895 19.9867,14.519 C19.9867,13.143 18.8707,12.027 17.4947,12.027 M17.4947,13.027 C18.3167,13.027 18.9867,13.696 18.9867,14.519 C18.9867,15.341 18.3167,16.011 17.4947,16.011 C16.6717,16.011 16.0027,15.341 16.0027,14.519 C16.0027,13.696 16.6717,13.027 17.4947,13.027" id="Fill-12" fill="#000000"></path>
        <path d="M13.9996,22.0426 L12.9996,22.0426 C13.0006,19.5646 15.0176,17.5496 17.4936,17.5496 C19.9726,17.5496 21.9876,19.5646 21.9876,22.0426 L20.9876,22.0426 C20.9876,20.1166 19.4206,18.5496 17.4936,18.5496 C15.5676,18.5496 14.0006,20.1166 13.9996,22.0426" id="Fill-14" fill="#000000"></path>
        <path d="M12,2.27165 C15.3137085,2.27165 18,4.062511 18,6.27165 C18,8.12252407 16.1143513,9.6797869 13.5539066,10.1362033 L12.24735,13.4269252 L10.9722789,10.2131992 C8.14821668,9.88823191 6,8.24718858 6,6.27165 C6,4.062511 8.6862915,2.27165 12,2.27165 Z" id="Combined-Shape" stroke="#000000"></path>
    </g>
</svg>