<svg xmlns="http://www.w3.org/2000/svg" width="24" height="24" viewBox="0 0 24 24">
  <g fill="#000000" fill-rule="evenodd" transform="translate(2 2)">
    <polygon points="2 15 4 15 4 14 2 14"/>
    <polygon points="2 12 4 12 4 11 2 11"/>
    <polygon points="8 12 10 12 10 11 8 11"/>
    <polygon points="5 12 7 12 7 11 5 11"/>
    <polygon points="5 15 7 15 7 14 5 14"/>
    <polygon points="5 9 7 9 7 8 5 8"/>
    <polygon points="5 6 7 6 7 5 5 5"/>
    <polygon points="8 6 10 6 10 5 8 5"/>
    <polygon points="5.004 3 7.005 3 7.005 2 5.004 2"/>
    <polygon points="8 3 10 3 10 2 8 2"/>
    <polygon points="2 9 4 9 4 8 2 8"/>
    <polygon points="8 9 10 9 10 8 8 8"/>
    <polygon points="2 6 4 6 4 5 2 5"/>
    <polygon points="1.999 3 3.999 3 3.999 2 1.999 2"/>
    <polygon points="15 17 17 17 17 15 15 15"/>
    <polygon points="11 17 13 17 13 15 11 15"/>
    <path d="M0,0.0002 L0,19.0002 L8,19.0002 L8,20.0002 L20,20.0002 L20,13.9992 L13.999,10.0002 L12,11.3142 L12,0.0002 L0,0.0002 Z M1,0.9902 L11,0.9902 L11,11.9792 L8,13.9992 L8,18.0002 L1,18.0002 L1,0.9902 Z M9,14.4802 L11,13.1802 L11.554,12.8262 L13.999,11.2802 L19,14.4802 L19,19.0002 L9,19.0002 L9,14.4802 Z"/>
  </g>
</svg>
