<?xml version="1.0" encoding="utf-8"?>
<!-- Generator: Adobe Illustrator 27.5.0, SVG Export Plug-In . SVG Version: 6.00 Build 0)  -->
<svg version="1.1" id="Ebene_1" xmlns="http://www.w3.org/2000/svg" xmlns:xlink="http://www.w3.org/1999/xlink" x="0px" y="0px"
	 viewBox="0 0 24 24" style="enable-background:new 0 0 24 24;" xml:space="preserve">
<style type="text/css">
	.st0{fill-rule:evenodd;clip-rule:evenodd;}
</style>
<g id="Topic-Icons_x2F_31_x5F_a">
	<g id="Group" transform="translate(1.5, 2.5)">
		<path id="Fill-6" class="st0" d="M10.2,8.9c-1.4,0-2.5,1.1-2.5,2.5c0,1.4,1.1,2.5,2.5,2.5c1.4,0,2.5-1.1,2.5-2.5
			C12.7,10.1,11.6,8.9,10.2,8.9 M10.2,9.9c0.8,0,1.5,0.7,1.5,1.5c0,0.8-0.7,1.5-1.5,1.5c-0.8,0-1.5-0.7-1.5-1.5
			C8.8,10.6,9.4,9.9,10.2,9.9"/>
		<path id="Fill-8" class="st0" d="M6.7,19h-1c0-2.5,2-4.5,4.5-4.5c2.5,0,4.5,2,4.5,4.5h-1c0-1.9-1.6-3.5-3.5-3.5
			C8.3,15.5,6.7,17,6.7,19"/>
		<path id="Combined-Shape" class="st0" d="M0,15.2c0-2.5,2-4.5,4.5-4.5c0,0.2,0,0.7,0,1c-1.9,0-3.5,1.6-3.5,3.5"/>
		<path id="Combined-Shape-Copy" class="st0" d="M20.9,15.2c0-2.5-2-4.5-4.5-4.5c0,0.2,0,0.7,0,1c1.9,0,3.5,1.6,3.5,3.5"/>
		<path id="Fill-1" class="st0" d="M4.7,5C3.4,5,2.2,6.1,2.2,7.5c0,1.4,1.1,2.5,2.5,2.5c1.4,0,2.5-1.1,2.5-2.5C7.2,6.1,6.1,5,4.7,5
			 M4.7,6c0.8,0,1.5,0.7,1.5,1.5C6.2,8.3,5.6,9,4.7,9C3.9,9,3.2,8.3,3.2,7.5C3.2,6.7,3.9,6,4.7,6"/>
		<path id="Fill-1-Copy" class="st0" d="M15.7,5c-1.4,0-2.5,1.1-2.5,2.5c0,1.4,1.1,2.5,2.5,2.5c1.4,0,2.5-1.1,2.5-2.5
			C18.2,6.1,17.1,5,15.7,5 M15.7,6c0.8,0,1.5,0.7,1.5,1.5c0,0.8-0.7,1.5-1.5,1.5c-0.8,0-1.5-0.7-1.5-1.5C14.3,6.7,14.9,6,15.7,6"/>
		<path id="Fill-6_00000041262274911463416770000014556663243351301022_" class="st0" d="M10.2,0C8.9,0,7.8,1.1,7.8,2.5
			C7.8,3.9,8.9,5,10.2,5c1.4,0,2.5-1.1,2.5-2.5C12.7,1.1,11.6,0,10.2,0 M10.2,1c0.8,0,1.5,0.7,1.5,1.5c0,0.8-0.7,1.5-1.5,1.5
			C9.4,4,8.8,3.3,8.8,2.5C8.8,1.7,9.4,1,10.2,1"/>
	</g>
</g>
</svg>
