<?xml version="1.0" encoding="UTF-8"?>
<svg width="24px" height="24px" viewBox="0 0 24 24" version="1.1" xmlns="http://www.w3.org/2000/svg" xmlns:xlink="http://www.w3.org/1999/xlink">
    <title>Topic-Icons/02_a</title>
    <g id="Topic-Icons/02_a" stroke="none" stroke-width="1" fill="none" fill-rule="evenodd">
        <g id="Group" transform="translate(1.9996, 2.2716)">
            <path d="M4.4951,9.75535 C3.1181,9.75535 2.0031,10.87135 2.0031,12.24735 C2.0031,13.62335 3.1181,14.73935 4.4951,14.73935 C5.8711,14.73935 6.9871,13.62335 6.9871,12.24735 C6.9871,10.87135 5.8711,9.75535 4.4951,9.75535 M4.4951,10.75535 C5.3171,10.75535 5.9871,11.42435 5.9871,12.24735 C5.9871,13.06935 5.3171,13.73935 4.4951,13.73935 C3.6721,13.73935 3.0031,13.06935 3.0031,12.24735 C3.0031,11.42435 3.6721,10.75535 4.4951,10.75535" id="Fill-7" fill="#FFFFFF"></path>
            <path d="M1,19.77095 L-3.12638804e-13,19.77095 C0.001,17.29295 2.018,15.27795 4.494,15.27795 C6.973,15.27795 8.988,17.29295 8.988,19.77095 L7.988,19.77095 C7.988,17.84495 6.421,16.27795 4.494,16.27795 C2.568,16.27795 1.001,17.84495 1,19.77095" id="Fill-9" fill="#FFFFFF"></path>
            <path d="M15.4951,9.75535 C14.1181,9.75535 13.0031,10.87135 13.0031,12.24735 C13.0031,13.62335 14.1181,14.73935 15.4951,14.73935 C16.8711,14.73935 17.9871,13.62335 17.9871,12.24735 C17.9871,10.87135 16.8711,9.75535 15.4951,9.75535 M15.4951,10.75535 C16.3171,10.75535 16.9871,11.42435 16.9871,12.24735 C16.9871,13.06935 16.3171,13.73935 15.4951,13.73935 C14.6721,13.73935 14.0031,13.06935 14.0031,12.24735 C14.0031,11.42435 14.6721,10.75535 15.4951,10.75535" id="Fill-12" fill="#FFFFFF"></path>
            <path d="M12,19.77095 L11,19.77095 C11.001,17.29295 13.018,15.27795 15.494,15.27795 C17.973,15.27795 19.988,17.29295 19.988,19.77095 L18.988,19.77095 C18.988,17.84495 17.421,16.27795 15.494,16.27795 C13.568,16.27795 12.001,17.84495 12,19.77095" id="Fill-14" fill="#FFFFFF"></path>
            <path d="M10.0004,0 C13.3141085,0 16.0004,1.790861 16.0004,4 C16.0004,5.85087407 14.1147513,7.4081369 11.5543066,7.86455327 L10.24775,11.1552752 L8.97267891,7.94154921 C6.14861668,7.61658191 4.0004,5.97553858 4.0004,4 C4.0004,1.790861 6.6866915,0 10.0004,0 Z" id="Combined-Shape" stroke="#FFFFFF"></path>
        </g>
    </g>
</svg>