<?xml version="1.0" encoding="UTF-8"?>
<svg width="24px" height="24px" viewBox="0 0 24 24" version="1.1" xmlns="http://www.w3.org/2000/svg" xmlns:xlink="http://www.w3.org/1999/xlink">
    <title>Topic-Icons/04_a Copy</title>
    <g id="Topic-Icons/04_a-Copy" stroke="none" stroke-width="1" fill="none" fill-rule="evenodd">
        <path d="M2.90909091,18 L9.72727273,18 C10.4290909,18 11.0627273,18.3 11.5454545,18.778 L11.5454545,7 C11.5454545,5.896 10.7318182,5 9.72727273,5 L2.90909091,5 L2.90909091,18 Z M12.4545455,18.778 C12.9518182,18.279 13.6,18.002 14.2727273,18 L21.0909091,18 L21.0909091,5 L14.2727273,5 C13.2690909,5 12.4545455,5.896 12.4545455,7 L12.4545455,18.778 Z M2,19 L2,4 L9.72727273,4 C10.69,4 11.53,4.551 12.0163636,5.377 C12.5009091,4.558 13.3163636,4 14.2727273,4 L22,4 L22,19 L14.2727273,19 C13.2690909,19 12.4545455,19.896 12.4545455,21 L11.5454545,21 C11.5454545,19.896 10.7318182,19 9.72727273,19 L2,19 Z" id="Fill-1" fill="#000000"></path>
    </g>
</svg>