<svg xmlns="http://www.w3.org/2000/svg" width="24" height="24" viewBox="0 0 24 24" xmlns:xlink="http://www.w3.org/1999/xlink">
  <defs>
    <polygon id="a" points="0 .555 20.473 .555 20.473 19.999 0 19.999"/>
    <polygon id="c" points="0 20.445 20.473 20.445 20.473 1 0 1"/>
  </defs>
  <g fill="none" fill-rule="evenodd" transform="translate(2 1)">
    <g transform="translate(0 .445)">
      <mask id="b" fill="white">
        <use xlink:href="#a"/>
      </mask>
      <path fill="#000000" d="M10.4727,1.5543 C5.5097,1.5543 1.4727,5.1433 1.4727,9.5543 C1.4727,11.3043 2.1067,12.9723 3.3067,14.3783 L3.5117,14.6183 L1.9897,18.0113 L5.7147,16.3383 L5.9297,16.4503 C7.3117,17.1723 8.8817,17.5543 10.4727,17.5543 C15.4357,17.5543 19.4727,13.9653 19.4727,9.5543 C19.4727,5.1433 15.4357,1.5543 10.4727,1.5543 L10.4727,1.5543 Z M-0.0003,19.9993 L2.3427,14.7813 C1.1187,13.2443 0.4727,11.4443 0.4727,9.5543 C0.4727,4.5913 4.9577,0.5543 10.4727,0.5543 C15.9867,0.5543 20.4727,4.5913 20.4727,9.5543 C20.4727,14.5173 15.9867,18.5543 10.4727,18.5543 C8.8047,18.5543 7.1547,18.1723 5.6847,17.4483 L-0.0003,19.9993 Z" mask="url(#b)"/>
    </g>
    <mask id="d" fill="white">
      <use xlink:href="#c"/>
    </mask>
    <polygon fill="#000000" points="10.21 15.043 11.304 15.043 11.304 13.946 10.21 13.946" mask="url(#d)"/>
    <path fill="#000000" d="M11.2901,12.5875 L10.2131,12.5875 L10.2111,12.4895 C10.2011,12.0525 10.2261,11.6825 10.2831,11.3905 C10.3411,11.0905 10.4361,10.8175 10.5651,10.5785 C10.6931,10.3405 10.8681,10.1075 11.0851,9.8835 C11.2971,9.6675 11.5491,9.4285 11.8541,9.1515 C12.1041,8.9195 12.3161,8.6535 12.4851,8.3625 C12.6471,8.0815 12.7301,7.7645 12.7301,7.4195 C12.7301,7.1565 12.6801,6.9115 12.5781,6.6915 C12.4771,6.4725 12.3401,6.2825 12.1691,6.1285 C11.9981,5.9765 11.7941,5.8535 11.5621,5.7635 C11.3321,5.6745 11.0851,5.6295 10.8281,5.6295 C10.4711,5.6295 10.1501,5.6925 9.8761,5.8175 C9.6011,5.9415 9.3721,6.1125 9.1981,6.3275 C9.0191,6.5465 8.8851,6.8065 8.7961,7.0995 C8.7171,7.3655 8.6771,7.6675 8.6781,7.9965 L8.6781,8.0965 L7.5981,8.0965 L7.6001,7.9945 C7.6061,7.5155 7.6771,7.0775 7.8091,6.6935 C7.9521,6.2755 8.1701,5.9145 8.4531,5.6205 C8.7381,5.3265 9.0871,5.0955 9.4891,4.9345 C9.8901,4.7715 10.3541,4.6885 10.8701,4.6885 C11.2711,4.6885 11.6521,4.7485 12.0031,4.8685 C12.3561,4.9895 12.6711,5.1685 12.9361,5.3985 C13.2081,5.6295 13.4241,5.9135 13.5781,6.2425 C13.7331,6.5725 13.8121,6.9545 13.8121,7.3775 C13.8121,7.9165 13.6911,8.3815 13.4531,8.7605 C13.2231,9.1295 12.9231,9.4885 12.5621,9.8295 C12.3021,10.0935 12.0611,10.3285 11.8701,10.5095 C11.7071,10.6645 11.5841,10.8175 11.5051,10.9665 C11.4271,11.1145 11.3741,11.2985 11.3481,11.5125 C11.3201,11.7345 11.3021,12.0635 11.2921,12.4895 L11.2901,12.5875 Z" mask="url(#d)"/>
  </g>
</svg>
