<svg xmlns="http://www.w3.org/2000/svg" width="24" height="24" viewBox="0 0 24 24">
  <g fill="none" fill-rule="evenodd">
    <path fill="#000000" d="M9.4473 3.0004C8.9063 3.0004 8.3383 3.2794 7.9263 3.7484 7.4603 4.2804 7.2553 4.9774 7.3513 5.7074 7.5863 7.5054 10.6093 9.9034 12.0533 10.8874 13.4883 9.9584 16.4853 7.6504 16.7403 5.7074 16.8363 4.9774 16.6313 4.2804 16.1633 3.7474 15.7533 3.2794 15.1843 3.0004 14.6443 3.0004 13.2463 3.0004 12.4603 4.1814 12.4263 4.2304L12.0113 4.8664 11.5893 4.2334C11.5813 4.2224 10.7563 3.0004 9.4473 3.0004L9.4473 3.0004zM12.0383 12.0734L11.7743 11.9024C11.5683 11.7694 6.7213 8.6034 6.3593 5.8374 6.2253 4.8174 6.5153 3.8414 7.1763 3.0894 7.7733 2.4074 8.6233 2.0004 9.4473 2.0004 10.6513 2.0004 11.5273 2.6804 12.0073 3.1774 12.4893 2.6794 13.3803 2.0004 14.6443 2.0004 15.4683 2.0004 16.3173 2.4064 16.9153 3.0884 17.5753 3.8404 17.8653 4.8164 17.7323 5.8374 17.3423 8.8114 12.5113 11.7844 12.3053 11.9094L12.0383 12.0734zM15.0518 20.9652L18.0318 20.9652 18.0418 18.7762 20.3808 16.5412C20.6958 16.2852 20.9038 15.9822 21.0158 15.6342 21.0548 15.5132 21.0808 15.3882 21.0948 15.2622L21.0498 8.4822C21.0498 8.2102 20.8308 7.9912 20.5618 7.9912 20.2928 7.9912 20.0738 8.2102 20.0738 8.4792L20.0518 11.7892C20.0628 11.8002 20.0728 11.8112 20.0818 11.8212 20.3218 12.0892 20.4418 12.4342 20.4208 12.7922 20.4018 13.1512 20.2418 13.4802 19.9748 13.7192L17.6518 15.7332 16.9968 14.9772 19.3148 12.9682C19.4498 12.8472 19.4618 12.6292 19.3358 12.4872 19.2748 12.4192 19.1908 12.3782 19.0988 12.3732 19.0058 12.3722 18.9178 12.3992 18.8498 12.4602L15.9258 15.0132C15.4928 15.4012 15.2808 15.7022 15.1748 16.0822 15.1238 16.2622 15.0908 16.9022 15.0668 17.3682L15.0558 17.5642C15.0308 18.0192 15.0448 20.0222 15.0518 20.9652L15.0518 20.9652zM19.0288 21.9652L14.0618 21.9652 14.0568 21.4702C14.0558 21.3342 14.0238 18.1392 14.0578 17.5112L14.0678 17.3172C14.1078 16.5582 14.1368 16.0782 14.2118 15.8122 14.3728 15.2382 14.6778 14.7902 15.2628 14.2642L18.1878 11.7102C18.4358 11.4892 18.7438 11.3782 19.0548 11.3722L19.0738 8.4762C19.0738 7.6582 19.7408 6.9912 20.5618 6.9912 21.3818 6.9912 22.0498 7.6582 22.0498 8.4792L22.0918 15.3122C22.0688 15.5622 22.0278 15.7552 21.9668 15.9422 21.7958 16.4742 21.4758 16.9422 21.0398 17.2922L19.0398 19.2052 19.0288 21.9652zM6.0576 20.9652L9.0366 20.9652C9.0446 20.0222 9.0576 18.0202 9.0336 17.5652L9.0226 17.3662C8.9976 16.9002 8.9646 16.2602 8.9146 16.0822 8.8076 15.7022 8.5956 15.4012 8.1586 15.0082L5.2436 12.4642C5.1696 12.3992 5.0656 12.3722 4.9916 12.3732 4.8996 12.3782 4.8156 12.4192 4.7536 12.4872 4.6266 12.6292 4.6396 12.8472 4.7806 12.9732L7.0916 14.9772 6.4376 15.7332 4.1206 13.7242C3.8466 13.4802 3.6876 13.1512 3.6676 12.7922 3.6486 12.4342 3.7686 12.0892 4.0076 11.8212 4.0176 11.8112 4.0276 11.8002 4.0376 11.7892L4.0146 8.4832C4.0146 8.2102 3.7956 7.9912 3.5276 7.9912 3.2586 7.9912 3.0396 8.2102 3.0396 8.4792L2.9966 15.3182C3.0076 15.3842 3.0346 15.5112 3.0746 15.6362 3.1846 15.9812 3.3936 16.2852 3.6766 16.5132L6.0476 18.7762 6.0576 20.9652zM10.0276 21.9652L5.0616 21.9652 5.0496 19.2052 3.0176 17.2642C2.6136 16.9412 2.2926 16.4742 2.1216 15.9412 2.0616 15.7512 2.0216 15.5602 1.9996 15.3702L2.0396 8.4762C2.0396 7.6582 2.7066 6.9912 3.5276 6.9912 4.3476 6.9912 5.0146 7.6582 5.0146 8.4792L5.0356 11.3732C5.3456 11.3792 5.6566 11.4912 5.9056 11.7142L8.8216 14.2592C9.4116 14.7892 9.7156 15.2372 9.8776 15.8122 9.9526 16.0782 9.9816 16.5582 10.0216 17.3142L10.0316 17.5112C10.0666 18.1392 10.0336 21.3342 10.0326 21.4702L10.0276 21.9652z"/>
  </g>
</svg>
