<svg xmlns="http://www.w3.org/2000/svg" width="24" height="24" viewBox="0 0 24 24">
  <path fill="#000000" fill-rule="evenodd" d="M11.52,1 L11.52,3.006 L4,3.006 L4,7.985 L11.52,7.985 L11.52,9.983 L7.03,9.983 L4,12.471 L7.03,14.961 L11.52,14.961 L11.52,22.024 L12.52,22.024 L12.52,14.961 L20.039,14.961 L20.039,9.983 L12.52,9.983 L12.52,7.985 L17.01,7.985 L20.039,5.496 L17.01,3.006 L12.52,3.006 L12.52,1 L11.52,1 Z M5,4.007 L16.652,4.007 L18.464,5.496 L16.652,6.985 L5,6.985 L5,4.007 Z M5.575,12.471 L7.388,10.983 L19.04,10.983 L19.04,13.961 L7.388,13.961 L5.575,12.471 Z"/>
</svg>
