<?xml version="1.0" encoding="UTF-8"?>
<svg width="24px" height="24px" viewBox="0 0 24 24" version="1.1" xmlns="http://www.w3.org/2000/svg" xmlns:xlink="http://www.w3.org/1999/xlink">
    <title>Topic-Icons/32_a</title>
    <g id="Topic-Icons/32_a" stroke="none" stroke-width="1" fill="none" fill-rule="evenodd">
        <g id="Group" transform="translate(1.0003, 2)" fill="#FFFFFF">
            <polygon id="Fill-1" points="1.6117 10.5 16.2954 10.5 16.2954 9.5 1.6117 9.5"></polygon>
            <polygon id="Fill-2" points="10.4637 20 11.5354 20 11.5354 0 10.4637 0"></polygon>
            <polygon id="Fill-3" points="13.9947 10.5 20.3927 10.5 20.3927 9.5 13.9947 9.5"></polygon>
            <path d="M11,0 C5.477,0 1,4.478 1,10 C1,15.522 5.477,20 11,20 C16.522,20 21,15.522 21,10 C21,4.478 16.522,0 11,0 M11,1 C15.962,1 20,5.037 20,10 C20,14.963 15.962,19 11,19 C6.037,19 2,14.963 2,10 C2,5.037 6.037,1 11,1" id="Fill-10"></path>
            <path d="M4.9605,10 C4.9605,15.522 7.6565,20 10.9815,20 C14.3065,20 17.0025,15.522 17.0025,10 C17.0025,4.478 14.3065,0 10.9815,0 C7.6565,0 4.9605,4.478 4.9605,10 Z M10.9815,1 C13.7035,1 16.0025,5.121 16.0025,10 C16.0025,14.879 13.7035,19 10.9815,19 C8.2595,19 5.9605,14.879 5.9605,10 C5.9605,5.121 8.2595,1 10.9815,1" id="Fill-13"></path>
            <path d="M10.9815,0 C7.6565,0 4.9605,4.478 4.9605,10 C4.9605,15.522 7.6565,20 10.9815,20 C14.3065,20 17.0025,15.522 17.0025,10 C17.0025,4.478 14.3065,0 10.9815,0 M10.9815,1 C13.7035,1 16.0025,5.121 16.0025,10 C16.0025,14.879 13.7035,19 10.9815,19 C8.2595,19 5.9605,14.879 5.9605,10 C5.9605,5.121 8.2595,1 10.9815,1" id="Fill-13" transform="translate(10.9815, 10) rotate(-270) translate(-10.9815, -10)"></path>
        </g>
    </g>
</svg>