<?xml version="1.0" encoding="utf-8"?>
<!-- Generator: Adobe Illustrator 27.5.0, SVG Export Plug-In . SVG Version: 6.00 Build 0)  -->
<svg version="1.1" id="Ebene_1" xmlns="http://www.w3.org/2000/svg" xmlns:xlink="http://www.w3.org/1999/xlink" x="0px" y="0px"
	 viewBox="0 0 24 24" style="enable-background:new 0 0 24 24;" xml:space="preserve">
<style type="text/css">
	.st0{fill-rule:evenodd;clip-rule:evenodd;}
</style>
<g id="Topic-Icons_x2F_22_x5F_a">
	<g id="Group-5" transform="translate(1, 3.5)">
		<path id="Fill-1" class="st0" d="M17.4,8h-2h-1v1v1.9h-2h-1v1v2v1h1h2v2v1h1h2h1v-1v-2h2h1v-4h-1h-2V9V8H17.4z M12.4,11.9h3V9h2
			v2.9h3v2h-3v3h-2v-3h-3V11.9z"/>
		<path id="Fill-2" class="st0" d="M19.3,1.9c-1.1-1.2-2.5-1.9-4-1.9c-2.6,0-4.3,1.6-5,2.4C9.6,1.6,7.9,0,5.5,0C4,0,2.5,0.7,1.5,1.9
			C0.3,3.2-0.2,5,0.1,6.8c0.7,5,9.7,10.9,10.1,11.2l0.3,0.2l0.3-0.2c0.1-0.1,1.3-0.8,2.9-2h-1.7c-0.6,0.4-1.1,0.8-1.4,1
			c-1.5-1-8.8-6.2-9.4-10.3c-0.2-1.5,0.2-3,1.2-4.1C3.1,1.6,4.3,1,5.5,1c2.7,0,4.4,2.5,4.4,2.5l0.4,0.6l0.4-0.6c0,0,1.7-2.5,4.6-2.5
			c1.2,0,2.4,0.6,3.2,1.6c1,1.1,1.4,2.6,1.2,4.1C19.7,7.4,19.4,8,19.4,8l0,2.1c0,0,0.9-1,1.4-3.3C21.1,5,20.5,3.2,19.3,1.9"/>
	</g>
</g>
</svg>
