<?xml version="1.0" encoding="utf-8"?>
<!-- Generator: Adobe Illustrator 27.5.0, SVG Export Plug-In . SVG Version: 6.00 Build 0)  -->
<svg version="1.1" id="Ebene_1" xmlns="http://www.w3.org/2000/svg" xmlns:xlink="http://www.w3.org/1999/xlink" x="0px" y="0px"
	 viewBox="0 0 24 24" style="enable-background:new 0 0 24 24;" xml:space="preserve">
<style type="text/css">
	.st0{fill-rule:evenodd;clip-rule:evenodd;}
	.st1{filter:url(#Adobe_OpacityMaskFilter);}
	.st2{fill-rule:evenodd;clip-rule:evenodd;fill:#FFFFFF;}
	.st3{mask:url(#mask-2_00000059999929751844195320000007017949848204606095_);fill-rule:evenodd;clip-rule:evenodd;}
	.st4{filter:url(#Adobe_OpacityMaskFilter_00000014628348932274267800000007011661439853825408_);}
	.st5{mask:url(#mask-4_00000057835604476281121510000003401391035905093293_);fill-rule:evenodd;clip-rule:evenodd;}
</style>
<g id="Topic-Icons_x2F_12_x5F_a">
	<g id="Group-9" transform="translate(2, 2)">
		<path id="Fill-1" class="st0" d="M7.4,1C6.9,1,6.3,1.3,5.9,1.7C5.5,2.3,5.3,3,5.4,3.7c0.2,1.8,3.3,4.2,4.7,5.2
			c1.4-0.9,4.4-3.2,4.7-5.2c0.1-0.7-0.1-1.4-0.6-2c-0.4-0.5-1-0.7-1.5-0.7c-1.4,0-2.2,1.2-2.2,1.2L10,2.9L9.6,2.2
			C9.6,2.2,8.8,1,7.4,1L7.4,1z M10,10.1L9.8,9.9C9.6,9.8,4.7,6.6,4.4,3.8c-0.1-1,0.2-2,0.8-2.7C5.8,0.4,6.6,0,7.4,0
			C8.7,0,9.5,0.7,10,1.2C10.5,0.7,11.4,0,12.6,0c0.8,0,1.7,0.4,2.3,1.1c0.7,0.8,0.9,1.7,0.8,2.7c-0.4,3-5.2,5.9-5.4,6.1L10,10.1z"/>
		<g id="Group-5" transform="translate(12, 4.9648)">
			<g id="Clip-4">
			</g>
			<defs>
				<filter id="Adobe_OpacityMaskFilter" filterUnits="userSpaceOnUse" x="0" y="0" width="8" height="15">
					<feColorMatrix  type="matrix" values="1 0 0 0 0  0 1 0 0 0  0 0 1 0 0  0 0 0 1 0"/>
				</filter>
			</defs>
			
				<mask maskUnits="userSpaceOnUse" x="0" y="0" width="8" height="15" id="mask-2_00000059999929751844195320000007017949848204606095_">
				<g class="st1">
					<polygon id="path-1_00000028321616796617446470000016309329123063580063_" class="st2" points="0,0 8.1,0 8.1,15 0,15 					"/>
				</g>
			</mask>
			<path id="Fill-3" class="st3" d="M1.1,14h3l0-2.2l2.3-2.2C6.7,9.3,6.9,9,7,8.7c0-0.1,0.1-0.2,0.1-0.4l0-6.8C7,1.2,6.8,1,6.6,1
				S6.1,1.2,6.1,1.5l0,3.3c0,0,0,0,0,0c0.2,0.3,0.4,0.6,0.3,1c0,0.4-0.2,0.7-0.4,0.9l-2.3,2L3,8l2.3-2c0.1-0.1,0.1-0.3,0-0.5
				C5.3,5.5,5.2,5.4,5.1,5.4c-0.1,0-0.2,0-0.2,0.1L1.9,8C1.5,8.4,1.3,8.7,1.2,9.1c-0.1,0.2-0.1,0.8-0.1,1.3l0,0.2
				C1,11.1,1,13.1,1.1,14L1.1,14z M5,15h-5l0-0.5c0-0.1,0-3.3,0-4l0-0.2c0-0.8,0.1-1.2,0.1-1.5c0.2-0.6,0.5-1,1.1-1.5l2.9-2.6
				c0.2-0.2,0.6-0.3,0.9-0.3l0-2.9C5.1,0.7,5.7,0,6.6,0C7.4,0,8,0.7,8,1.5l0,6.8C8.1,8.6,8,8.8,8,9C7.8,9.5,7.5,10,7,10.3l-2,1.9
				L5,15z"/>
		</g>
		<g id="Group-8" transform="translate(0, 4.9648)">
			<g id="Clip-7">
			</g>
			<defs>
				
					<filter id="Adobe_OpacityMaskFilter_00000103243897325930440380000011960723456585745592_" filterUnits="userSpaceOnUse" x="0" y="0" width="8" height="15">
					<feColorMatrix  type="matrix" values="1 0 0 0 0  0 1 0 0 0  0 0 1 0 0  0 0 0 1 0"/>
				</filter>
			</defs>
			
				<mask maskUnits="userSpaceOnUse" x="0" y="0" width="8" height="15" id="mask-4_00000057835604476281121510000003401391035905093293_">
				<g style="filter:url(#Adobe_OpacityMaskFilter_00000103243897325930440380000011960723456585745592_);">
					<polygon id="path-3_00000001635016878328639470000008584587028139908773_" class="st2" points="0,0 8,0 8,15 0,15 					"/>
				</g>
			</mask>
			<path id="Fill-6" class="st5" d="M4.1,14h3c0-0.9,0-2.9,0-3.4l0-0.2C7,9.9,7,9.3,6.9,9.1C6.8,8.7,6.6,8.4,6.2,8L3.2,5.5
				C3.2,5.4,3.1,5.4,3,5.4c-0.1,0-0.2,0-0.2,0.1C2.6,5.7,2.6,5.9,2.8,6l2.3,2L4.4,8.8l-2.3-2C1.8,6.5,1.7,6.2,1.7,5.8
				c0-0.4,0.1-0.7,0.3-1c0,0,0,0,0,0l0-3.3C2,1.2,1.8,1,1.5,1C1.3,1,1,1.2,1,1.5l0,6.8c0,0.1,0,0.2,0.1,0.3C1.2,9,1.4,9.3,1.7,9.5
				L4,11.8L4.1,14z M8,15h-5l0-2.8l-2-1.9C0.6,10,0.3,9.5,0.1,9C0.1,8.8,0,8.6,0,8.4l0-6.9C0,0.7,0.7,0,1.5,0C2.3,0,3,0.7,3,1.5
				l0,2.9c0.3,0,0.6,0.1,0.9,0.3l2.9,2.5c0.6,0.5,0.9,1,1.1,1.6C8,9.1,8,9.6,8,10.3l0,0.2c0,0.6,0,3.8,0,4L8,15z"/>
		</g>
	</g>
</g>
</svg>
