<?xml version="1.0" encoding="utf-8"?>
<!-- Generator: Adobe Illustrator 27.5.0, SVG Export Plug-In . SVG Version: 6.00 Build 0)  -->
<svg version="1.1" id="Ebene_1" xmlns="http://www.w3.org/2000/svg" xmlns:xlink="http://www.w3.org/1999/xlink" x="0px" y="0px"
	 viewBox="0 0 24 24" style="enable-background:new 0 0 24 24;" xml:space="preserve">
<style type="text/css">
	.st0{filter:url(#Adobe_OpacityMaskFilter);}
	.st1{fill-rule:evenodd;clip-rule:evenodd;fill:#FFFFFF;}
	.st2{mask:url(#mask-2_00000024694908364358772200000003898505064028998834_);fill-rule:evenodd;clip-rule:evenodd;}
	.st3{filter:url(#Adobe_OpacityMaskFilter_00000112599520406333289720000016388913001183595178_);}
	.st4{mask:url(#mask-4_00000094607032486172682810000006861083822334706870_);fill-rule:evenodd;clip-rule:evenodd;}
	.st5{filter:url(#Adobe_OpacityMaskFilter_00000088846691814717465380000018424331955991336383_);}
	.st6{mask:url(#mask-4_00000062884070046002771520000009948569273920304010_);fill-rule:evenodd;clip-rule:evenodd;}
</style>
<g id="Topic-Icons_x2F_16_x5F_a">
	<g id="Group-7" transform="translate(2, 1)">
		<g id="Group-3" transform="translate(0, 0.4453)">
			<g id="Clip-2">
			</g>
			<defs>
				<filter id="Adobe_OpacityMaskFilter" filterUnits="userSpaceOnUse" x="0" y="0.6" width="20.5" height="19.4">
					<feColorMatrix  type="matrix" values="1 0 0 0 0  0 1 0 0 0  0 0 1 0 0  0 0 0 1 0"/>
				</filter>
			</defs>
			
				<mask maskUnits="userSpaceOnUse" x="0" y="0.6" width="20.5" height="19.4" id="mask-2_00000024694908364358772200000003898505064028998834_">
				<g class="st0">
					<polygon id="path-1_00000016066803952549535620000000789423525201957266_" class="st1" points="0,0.6 20.5,0.6 20.5,20 0,20 
											"/>
				</g>
			</mask>
			<path id="Fill-1" class="st2" d="M10.5,1.6c-5,0-9,3.6-9,8c0,1.8,0.6,3.4,1.8,4.8l0.2,0.2L2,18l3.7-1.7l0.2,0.1
				c1.4,0.7,3,1.1,4.5,1.1c5,0,9-3.6,9-8S15.4,1.6,10.5,1.6L10.5,1.6z M0,20l2.3-5.2c-1.2-1.5-1.9-3.3-1.9-5.2c0-5,4.5-9,10-9
				c5.5,0,10,4,10,9s-4.5,9-10,9c-1.7,0-3.3-0.4-4.8-1.1L0,20z"/>
		</g>
		<g id="Clip-5">
		</g>
		<defs>
			
				<filter id="Adobe_OpacityMaskFilter_00000180340634861262155440000006117401475370431880_" filterUnits="userSpaceOnUse" x="10.2" y="13.9" width="1.1" height="1.1">
				<feColorMatrix  type="matrix" values="1 0 0 0 0  0 1 0 0 0  0 0 1 0 0  0 0 0 1 0"/>
			</filter>
		</defs>
		
			<mask maskUnits="userSpaceOnUse" x="10.2" y="13.9" width="1.1" height="1.1" id="mask-4_00000094607032486172682810000006861083822334706870_">
			<g style="filter:url(#Adobe_OpacityMaskFilter_00000180340634861262155440000006117401475370431880_);">
				<polygon id="path-3_00000027588727443389981820000001783307166400842150_" class="st1" points="0,20.4 20.5,20.4 20.5,1 0,1 
									"/>
			</g>
		</mask>
		<polygon id="Fill-4" class="st4" points="10.2,15 11.3,15 11.3,13.9 10.2,13.9 		"/>
		<defs>
			
				<filter id="Adobe_OpacityMaskFilter_00000176006541370717642070000004532224057521084816_" filterUnits="userSpaceOnUse" x="7.6" y="4.7" width="6.2" height="7.9">
				<feColorMatrix  type="matrix" values="1 0 0 0 0  0 1 0 0 0  0 0 1 0 0  0 0 0 1 0"/>
			</filter>
		</defs>
		
			<mask maskUnits="userSpaceOnUse" x="7.6" y="4.7" width="6.2" height="7.9" id="mask-4_00000062884070046002771520000009948569273920304010_">
			<g style="filter:url(#Adobe_OpacityMaskFilter_00000176006541370717642070000004532224057521084816_);">
				<polygon id="path-3_00000079458127410635852460000016784419543671155072_" class="st1" points="0,20.4 20.5,20.4 20.5,1 0,1 
									"/>
			</g>
		</mask>
		<path id="Fill-6" class="st6" d="M11.3,12.6h-1.1l0-0.1c0-0.4,0-0.8,0.1-1.1c0.1-0.3,0.2-0.6,0.3-0.8c0.1-0.2,0.3-0.5,0.5-0.7
			c0.2-0.2,0.5-0.5,0.8-0.7c0.2-0.2,0.5-0.5,0.6-0.8c0.2-0.3,0.2-0.6,0.2-0.9c0-0.3,0-0.5-0.2-0.7c-0.1-0.2-0.2-0.4-0.4-0.6
			C12,6,11.8,5.9,11.6,5.8c-0.2-0.1-0.5-0.1-0.7-0.1c-0.4,0-0.7,0.1-1,0.2C9.6,5.9,9.4,6.1,9.2,6.3C9,6.5,8.9,6.8,8.8,7.1
			C8.7,7.4,8.7,7.7,8.7,8v0.1H7.6l0-0.1c0-0.5,0.1-0.9,0.2-1.3C8,6.3,8.2,5.9,8.5,5.6c0.3-0.3,0.6-0.5,1-0.7
			c0.4-0.2,0.9-0.2,1.4-0.2c0.4,0,0.8,0.1,1.1,0.2c0.4,0.1,0.7,0.3,0.9,0.5c0.3,0.2,0.5,0.5,0.6,0.8c0.2,0.3,0.2,0.7,0.2,1.1
			c0,0.5-0.1,1-0.4,1.4c-0.2,0.4-0.5,0.7-0.9,1.1c-0.3,0.3-0.5,0.5-0.7,0.7c-0.2,0.2-0.3,0.3-0.4,0.5c-0.1,0.1-0.1,0.3-0.2,0.5
			C11.3,11.7,11.3,12.1,11.3,12.6L11.3,12.6z"/>
	</g>
</g>
</svg>
