<svg xmlns="http://www.w3.org/2000/svg" width="24" height="24" viewBox="0 0 24 24">
  <g fill="#000000" fill-rule="evenodd" transform="translate(1 3.5)">
    <path d="M17.3745,7.9922 L15.3545,7.9922 L14.3545,7.9922 L14.3545,8.9922 L14.3545,10.9402 L12.3765,10.9402 L11.3765,10.9402 L11.3765,11.9392 L11.3765,13.9402 L11.3765,14.9402 L12.3765,14.9402 L14.3545,14.9402 L14.3545,16.9692 L14.3545,17.9692 L15.3545,17.9692 L17.3745,17.9692 L18.3745,17.9692 L18.3745,16.9692 L18.3745,14.9402 L20.3535,14.9402 L21.3535,14.9402 L21.3535,10.9402 L20.3535,10.9402 L18.3745,10.9402 L18.3745,8.9922 L18.3745,7.9922 L17.3745,7.9922 Z M12.3765,11.9392 L15.3545,11.9392 L15.3545,8.9922 L17.3745,8.9922 L17.3745,11.9392 L20.3535,11.9392 L20.3535,13.9402 L17.3745,13.9402 L17.3745,16.9692 L15.3545,16.9692 L15.3545,13.9402 L12.3765,13.9402 L12.3765,11.9392 Z"/>
    <path d="M19.3083,1.9131 C18.2573,0.7151 16.7723,0.0001 15.3353,0.0001 C12.7673,0.0001 11.0683,1.5811 10.3293,2.4491 C9.5903,1.5831 7.9093,0.0001 5.4713,0.0001 C4.0353,0.0001 2.5493,0.7151 1.4983,1.9131 C0.3313,3.2431 -0.1797,4.9701 0.0563,6.7771 C0.7173,11.8211 9.7473,17.7211 10.1323,17.9701 L10.3963,18.1411 L10.6633,17.9761 C10.7983,17.8941 12.0013,17.1501 13.5273,15.9951 L11.8273,15.9951 C11.2023,16.4381 10.6993,16.7691 10.4123,16.9541 C8.9173,15.9421 1.5903,10.7861 1.0483,6.6461 C0.8493,5.1301 1.2763,3.6831 2.2493,2.5721 C3.1143,1.5881 4.3183,1.0001 5.4713,1.0001 C8.2063,1.0001 9.8963,3.5191 9.9123,3.5451 L10.3353,4.1841 L10.7513,3.5411 C10.7673,3.5161 12.4263,1.0001 15.3353,1.0001 C16.4893,1.0001 17.6933,1.5881 18.5573,2.5721 C19.5313,3.6831 19.9583,5.1301 19.7593,6.6461 C19.6583,7.4191 19.3873,7.9921 19.3873,7.9921 L19.3993,10.0771 C19.3993,10.0771 20.2533,9.0701 20.7513,6.7761 C21.1383,4.9961 20.4753,3.2421 19.3083,1.9131"/>
  </g>
</svg>
