<svg xmlns="http://www.w3.org/2000/svg" width="24" height="24" viewBox="0 0 24 24">
  <g fill="#000000" fill-rule="evenodd" transform="translate(1 2)">
    <polygon points="1.612 10.5 16.295 10.5 16.295 9.5 1.612 9.5"/>
    <polygon points="10.464 20 11.535 20 11.535 0 10.464 0"/>
    <polygon points="13.995 10.5 20.393 10.5 20.393 9.5 13.995 9.5"/>
    <path d="M11,0 C5.477,0 1,4.478 1,10 C1,15.522 5.477,20 11,20 C16.522,20 21,15.522 21,10 C21,4.478 16.522,0 11,0 M11,1 C15.962,1 20,5.037 20,10 C20,14.963 15.962,19 11,19 C6.037,19 2,14.963 2,10 C2,5.037 6.037,1 11,1"/>
    <path d="M4.9605,10 C4.9605,15.522 7.6565,20 10.9815,20 C14.3065,20 17.0025,15.522 17.0025,10 C17.0025,4.478 14.3065,0 10.9815,0 C7.6565,0 4.9605,4.478 4.9605,10 Z M10.9815,1 C13.7035,1 16.0025,5.121 16.0025,10 C16.0025,14.879 13.7035,19 10.9815,19 C8.2595,19 5.9605,14.879 5.9605,10 C5.9605,5.121 8.2595,1 10.9815,1"/>
    <path d="M10.9815,0 C7.6565,0 4.9605,4.478 4.9605,10 C4.9605,15.522 7.6565,20 10.9815,20 C14.3065,20 17.0025,15.522 17.0025,10 C17.0025,4.478 14.3065,0 10.9815,0 M10.9815,1 C13.7035,1 16.0025,5.121 16.0025,10 C16.0025,14.879 13.7035,19 10.9815,19 C8.2595,19 5.9605,14.879 5.9605,10 C5.9605,5.121 8.2595,1 10.9815,1" transform="rotate(90 10.982 10)"/>
  </g>
</svg>
