<?xml version="1.0" encoding="UTF-8"?>
<svg width="24px" height="24px" viewBox="0 0 24 24" version="1.1" xmlns="http://www.w3.org/2000/svg" xmlns:xlink="http://www.w3.org/1999/xlink">
    <title>Topic-Icons/31_a Copy</title>
    <g id="Topic-Icons/31_a-Copy" stroke="none" stroke-width="1" fill="none" fill-rule="evenodd">
        <g id="Group" transform="translate(1.5, 2.5)" fill="#000000">
            <path d="M10.2421027,8.94957262 C8.8651027,8.94957262 7.7501027,10.0645726 7.7501027,11.4415726 C7.7501027,12.8175726 8.8651027,13.9335726 10.2421027,13.9335726 C11.6181027,13.9335726 12.7341027,12.8175726 12.7341027,11.4415726 C12.7341027,10.0645726 11.6181027,8.94957262 10.2421027,8.94957262 M10.2421027,9.94957262 C11.0641027,9.94957262 11.7341027,10.6185726 11.7341027,11.4415726 C11.7341027,12.2635726 11.0641027,12.9335726 10.2421027,12.9335726 C9.4191027,12.9335726 8.7501027,12.2635726 8.7501027,11.4415726 C8.7501027,10.6185726 9.4191027,9.94957262 10.2421027,9.94957262" id="Fill-6"></path>
            <path d="M6.7480027,18.9641726 L5.7480027,18.9641726 C5.7490027,16.4861726 7.7660027,14.4711726 10.2420027,14.4711726 C12.7210027,14.4711726 14.7360027,16.4861726 14.7360027,18.9641726 L13.7360027,18.9641726 C13.7360027,17.0381726 12.1690027,15.4711726 10.2420027,15.4711726 C8.3160027,15.4711726 6.7490027,17.0381726 6.7480027,18.9641726" id="Fill-8"></path>
            <path d="M-4.04121181e-13,15.1960726 C0.00100236936,12.7180726 2.01800237,10.7030726 4.49400237,10.7030726 C4.5,10.9495726 4.5,11.4495726 4.49400237,11.7030726 C2.56800237,11.7030726 1.00100237,13.2700726 1,15.1960726" id="Combined-Shape"></path>
            <path d="M16.424388,15.1960726 C16.4253904,12.7180726 18.4423904,10.7030726 20.9183904,10.7030726 C20.924388,10.9495726 20.924388,11.4495726 20.9183904,11.7030726 C18.9923904,11.7030726 17.4253904,13.2700726 17.424388,15.1960726" id="Combined-Shape-Copy" transform="translate(18.6736, 12.9496) scale(-1, 1) translate(-18.6736, -12.9496)"></path>
            <path d="M4.7412503,4.984 C3.3652503,4.984 2.2492503,6.1 2.2492503,7.476 C2.2492503,8.853 3.3652503,9.968 4.7412503,9.968 C6.1182503,9.968 7.2332503,8.853 7.2332503,7.476 C7.2332503,6.1 6.1182503,4.984 4.7412503,4.984 M4.7412503,5.984 C5.5642503,5.984 6.2332503,6.654 6.2332503,7.476 C6.2332503,8.299 5.5642503,8.968 4.7412503,8.968 C3.9192503,8.968 3.2492503,8.299 3.2492503,7.476 C3.2492503,6.654 3.9192503,5.984 4.7412503,5.984" id="Fill-1"></path>
            <path d="M15.7429551,4.984 C14.3669551,4.984 13.2509551,6.1 13.2509551,7.476 C13.2509551,8.853 14.3669551,9.968 15.7429551,9.968 C17.1199551,9.968 18.2349551,8.853 18.2349551,7.476 C18.2349551,6.1 17.1199551,4.984 15.7429551,4.984 M15.7429551,5.984 C16.5659551,5.984 17.2349551,6.654 17.2349551,7.476 C17.2349551,8.299 16.5659551,8.968 15.7429551,8.968 C14.9209551,8.968 14.2509551,8.299 14.2509551,7.476 C14.2509551,6.654 14.9209551,5.984 15.7429551,5.984" id="Fill-1-Copy"></path>
            <path d="M10.2421027,-3.8191672e-14 C8.8651027,-3.8191672e-14 7.7501027,1.115 7.7501027,2.492 C7.7501027,3.868 8.8651027,4.984 10.2421027,4.984 C11.6181027,4.984 12.7341027,3.868 12.7341027,2.492 C12.7341027,1.115 11.6181027,-3.8191672e-14 10.2421027,-3.8191672e-14 M10.2421027,1 C11.0641027,1 11.7341027,1.669 11.7341027,2.492 C11.7341027,3.314 11.0641027,3.984 10.2421027,3.984 C9.4191027,3.984 8.7501027,3.314 8.7501027,2.492 C8.7501027,1.669 9.4191027,1 10.2421027,1" id="Fill-6"></path>
        </g>
    </g>
</svg>