<svg xmlns="http://www.w3.org/2000/svg" width="24" height="24" viewBox="0 0 24 24">
  <g fill="#000000" fill-rule="evenodd" transform="translate(1 2)">
    <path d="M10.8847,1.0265 C10.3317,1.0265 9.8827,1.4755 9.8827,2.0285 C9.8827,2.5815 10.3317,3.0305 10.8847,3.0305 C11.4377,3.0305 11.8867,2.5815 11.8867,2.0285 C11.8867,1.4755 11.4377,1.0265 10.8847,1.0265 M10.8847,4.0305 C9.7807,4.0305 8.8827,3.1315 8.8827,2.0285 C8.8827,0.9245 9.7807,0.0265 10.8847,0.0265 C11.9887,0.0265 12.8867,0.9245 12.8867,2.0285 C12.8867,3.1315 11.9887,4.0305 10.8847,4.0305"/>
    <polygon points="19.777 18.281 12.569 12.929 13.165 12.127 20.373 17.478"/>
    <path d="M9.331,12.025 L12.331,12.025 L12.331,6.037 L9.331,6.037 L9.331,12.025 Z M21.006,5.037 L12.568,5.037 L12.568,5.038 L9.138,5.038 L9.138,5.037 L0.998,5.037 L0.998,6.037 L8.331,6.037 L8.331,12.024 L3.872,12.024 L3.872,12.579 L3.872,13.024 L3.872,18.036 L4.872,18.036 L4.872,13.024 L8.331,13.024 L9.012,13.024 L13.332,13.024 L13.332,6.037 L21.006,6.037 L21.006,5.037 Z"/>
  </g>
</svg>
