<svg xmlns="http://www.w3.org/2000/svg" width="32" height="32" fill="none" viewBox="0 0 32 32">
  <circle cx="16" cy="16" r="11.25" stroke="#000" stroke-width="1.5"/>
  <path stroke="#000" stroke-width="1.5" d="M16.25 4.75c1.555 0 3.102 1.086 4.302 3.143C21.74 9.93 22.5 12.795 22.5 16c0 3.205-.76 6.07-1.948 8.107-1.2 2.057-2.747 3.143-4.302 3.143-1.556 0-3.102-1.086-4.302-3.143C10.76 22.07 10 19.205 10 16c0-3.205.76-6.07 1.948-8.107 1.2-2.057 2.746-3.143 4.302-3.143Z"/>
  <path stroke="#000" stroke-width="1.5" d="M8.25 24.752a12.944 12.944 0 0 1 8-2.752c2.793 0 5.38.881 7.5 2.38M8.25 8a12.944 12.944 0 0 0 8 2.752c2.793 0 5.38-.881 7.5-2.38M4.25 16.25h23M16 5v23"/>
</svg>
