<?xml version="1.0" encoding="UTF-8" standalone="no"?>
<svg
   width="32"
   height="32"
   viewBox="0 0 32 32"
   fill="none"
   version="1.1"
   id="svg1"
   sodipodi:docname="interface-calendar.svg"
   inkscape:version="1.4.2 (2aeb623e1d, 2025-05-12)"
   xmlns:inkscape="http://www.inkscape.org/namespaces/inkscape"
   xmlns:sodipodi="http://sodipodi.sourceforge.net/DTD/sodipodi-0.dtd"
   xmlns="http://www.w3.org/2000/svg"
   xmlns:svg="http://www.w3.org/2000/svg">
  <defs
     id="defs1" />
  <sodipodi:namedview
     id="namedview1"
     pagecolor="#ffffff"
     bordercolor="#000000"
     borderopacity="0.25"
     inkscape:showpageshadow="2"
     inkscape:pageopacity="0.0"
     inkscape:pagecheckerboard="0"
     inkscape:deskcolor="#d1d1d1"
     showgrid="false"
     inkscape:zoom="23.32"
     inkscape:cx="12.264151"
     inkscape:cy="10.334477"
     inkscape:window-width="2560"
     inkscape:window-height="1371"
     inkscape:window-x="2560"
     inkscape:window-y="32"
     inkscape:window-maximized="1"
     inkscape:current-layer="svg1" />
  <path
     d="m 20.610384,5.7396527 c 0.203846,0 0.399296,0.083154 0.543371,0.2311678 0.144075,0.1480143 0.225087,0.3487648 0.225087,0.5580883 v 0.7892595 h 2.305213 c 0.611375,0 1.197723,0.2494614 1.630033,0.6935028 0.432308,0.4440412 0.67518,1.0462917 0.67518,1.6742665 V 23.892577 c 0,0.627966 -0.242872,1.230226 -0.67518,1.674267 -0.43231,0.444041 -1.018658,0.693503 -1.630033,0.693503 H 8.3159444 C 7.704561,26.260347 7.118222,26.010885 6.685913,25.566844 6.2536018,25.122803 6.010732,24.520543 6.010732,23.892577 V 9.6859376 c 0,-0.6279748 0.2428698,-1.2302253 0.675181,-1.6742665 C 7.118222,7.5676297 7.704561,7.3181684 8.3159444,7.3181684 H 10.621156 V 6.5289089 c 0,-0.2093235 0.08095,-0.410074 0.225064,-0.5580883 0.1441,-0.1480143 0.33955,-0.2311678 0.543338,-0.2311678 0.203798,0 0.399246,0.083154 0.543348,0.2311678 0.1441,0.1480143 0.225062,0.3487648 0.225062,0.5580883 v 0.7892595 h 7.684038 V 6.5289089 c 0,-0.2093235 0.08094,-0.410074 0.225088,-0.5580883 0.144076,-0.1480144 0.339526,-0.2311679 0.54329,-0.2311679 z M 7.547543,23.892577 l 0.015362,0.157796 c 0.061475,0.309416 0.2981463,0.552536 0.5993552,0.61562 l 0.1536836,0.01581 H 23.684055 l 0.153625,-0.01581 c 0.1477,-0.03087 0.283212,-0.105788 0.389828,-0.215214 0.106534,-0.109509 0.179478,-0.2487 0.209528,-0.400406 l 0.0154,-0.157796 V 13.632214 H 7.547543 Z m 2.3052125,-2.367769 c 0.2037895,0 0.3992385,0.08313 0.5433385,0.231112 0.144109,0.148071 0.225062,0.348823 0.225062,0.558117 0,0.209294 -0.08095,0.410046 -0.225062,0.558117 -0.1441,0.147985 -0.339549,0.231111 -0.5433385,0.231111 -0.2037973,0 -0.3992463,-0.08313 -0.5433468,-0.231111 -0.1441005,-0.148071 -0.2250629,-0.348823 -0.2250629,-0.558117 0,-0.209294 0.080962,-0.410046 0.2250629,-0.558117 0.1441005,-0.147987 0.3395495,-0.231112 0.5433468,-0.231112 z m 3.0736145,0 c 0.203796,0 0.399238,0.08313 0.543346,0.231112 0.1441,0.148071 0.225054,0.348823 0.225054,0.558117 0,0.209294 -0.08095,0.410046 -0.225054,0.558117 -0.144108,0.147985 -0.33955,0.231111 -0.543346,0.231111 -0.203798,0 -0.399238,-0.08313 -0.543348,-0.231111 -0.1441,-0.148071 -0.225054,-0.348823 -0.225054,-0.558117 0,-0.209294 0.08095,-0.410046 0.225054,-0.558117 0.14411,-0.147987 0.33955,-0.231112 0.543348,-0.231112 z m 3.073588,0 c 0.203848,0 0.399296,0.08313 0.543372,0.231112 0.144076,0.148071 0.225088,0.348823 0.225088,0.558117 0,0.209294 -0.08102,0.410046 -0.225088,0.558117 -0.144076,0.147985 -0.339524,0.231111 -0.543372,0.231111 -0.203764,0 -0.399212,-0.08313 -0.543288,-0.231111 -0.144158,-0.148071 -0.225088,-0.348823 -0.225088,-0.558117 0,-0.209294 0.08092,-0.410046 0.225088,-0.558117 0.144076,-0.147987 0.339524,-0.231112 0.543288,-0.231112 z m 3.073672,0 c 0.203764,0 0.399214,0.08313 0.54329,0.231112 0.144158,0.148071 0.225086,0.348823 0.225086,0.558117 0,0.209294 -0.08093,0.410046 -0.225086,0.558117 -0.144076,0.147985 -0.339526,0.231111 -0.54329,0.231111 -0.203846,0 -0.399296,-0.08313 -0.543372,-0.231111 -0.144076,-0.148071 -0.225087,-0.348823 -0.225087,-0.558117 0,-0.209294 0.08102,-0.410046 0.225087,-0.558117 0.144076,-0.147987 0.339526,-0.231112 0.543372,-0.231112 z M 9.8527555,18.367726 c 0.2037895,0 0.3992385,0.08321 0.5433385,0.231197 0.144109,0.147985 0.225062,0.348738 0.225062,0.558117 0,0.209293 -0.08095,0.410047 -0.225062,0.558032 -0.1441,0.14807 -0.339549,0.231196 -0.5433385,0.231196 -0.2037973,0 -0.3992463,-0.08313 -0.5433468,-0.231196 -0.1441005,-0.147985 -0.2250629,-0.348739 -0.2250629,-0.558032 0,-0.209379 0.080962,-0.410132 0.2250629,-0.558117 0.1441005,-0.147987 0.3395495,-0.231197 0.5433468,-0.231197 z m 3.0736145,0 c 0.203796,0 0.399238,0.08321 0.543346,0.231197 0.1441,0.147985 0.225054,0.348738 0.225054,0.558117 0,0.209293 -0.08095,0.410047 -0.225054,0.558032 -0.144108,0.14807 -0.33955,0.231196 -0.543346,0.231196 -0.203798,0 -0.399238,-0.08313 -0.543348,-0.231196 -0.1441,-0.147985 -0.225054,-0.348739 -0.225054,-0.558032 0,-0.209379 0.08095,-0.410132 0.225054,-0.558117 0.14411,-0.147987 0.33955,-0.231197 0.543348,-0.231197 z m 3.073588,0 c 0.203848,0 0.399296,0.08321 0.543372,0.231197 0.144076,0.147985 0.225088,0.348738 0.225088,0.558117 0,0.209293 -0.08102,0.410047 -0.225088,0.558032 -0.144076,0.14807 -0.339524,0.231196 -0.543372,0.231196 -0.203764,0 -0.399212,-0.08313 -0.543288,-0.231196 -0.144158,-0.147985 -0.225088,-0.348739 -0.225088,-0.558032 0,-0.209379 0.08092,-0.410132 0.225088,-0.558117 0.144076,-0.147987 0.339524,-0.231197 0.543288,-0.231197 z m 3.073672,0 c 0.203764,0 0.399214,0.08321 0.54329,0.231197 0.144158,0.147985 0.225086,0.348738 0.225086,0.558117 0,0.209293 -0.08093,0.410047 -0.225086,0.558032 -0.144076,0.14807 -0.339526,0.231196 -0.54329,0.231196 -0.203846,0 -0.399296,-0.08313 -0.543372,-0.231196 -0.144076,-0.147985 -0.225087,-0.348739 -0.225087,-0.558032 0,-0.209379 0.08102,-0.410132 0.225087,-0.558117 0.144076,-0.147987 0.339526,-0.231197 0.543372,-0.231197 z m 3.07359,0 c 0.203764,0 0.399212,0.08321 0.54337,0.231197 0.144076,0.147985 0.225006,0.348738 0.225006,0.558117 0,0.209293 -0.08092,0.410047 -0.225006,0.558032 -0.144158,0.14807 -0.339606,0.231196 -0.54337,0.231196 -0.203766,0 -0.399214,-0.08313 -0.543372,-0.231196 -0.144076,-0.147985 -0.225006,-0.348739 -0.225006,-0.558032 0,-0.209379 0.08093,-0.410132 0.225006,-0.558117 0.144158,-0.147987 0.339606,-0.231197 0.543372,-0.231197 z M 15.999958,15.21073 c 0.203848,0 0.399296,0.08313 0.543372,0.231195 0.144076,0.147986 0.225088,0.348739 0.225088,0.558033 0,0.209378 -0.08102,0.410131 -0.225088,0.558117 -0.144076,0.147986 -0.339524,0.231196 -0.543372,0.231196 -0.203764,0 -0.399212,-0.08321 -0.543288,-0.231196 -0.144158,-0.147986 -0.225088,-0.348739 -0.225088,-0.558117 0,-0.209294 0.08092,-0.410047 0.225088,-0.558033 0.144076,-0.148069 0.339524,-0.231195 0.543288,-0.231195 z m 3.073672,0 c 0.203764,0 0.399214,0.08313 0.54329,0.231195 0.144158,0.147986 0.225086,0.348739 0.225086,0.558033 0,0.209378 -0.08093,0.410131 -0.225086,0.558117 -0.144076,0.147986 -0.339526,0.231196 -0.54329,0.231196 -0.203846,0 -0.399296,-0.08321 -0.543372,-0.231196 -0.144076,-0.147986 -0.225087,-0.348739 -0.225087,-0.558117 0,-0.209294 0.08102,-0.410047 0.225087,-0.558033 0.144076,-0.148069 0.339526,-0.231195 0.543372,-0.231195 z m 3.07359,0 c 0.203764,0 0.399212,0.08313 0.54337,0.231195 0.144076,0.147986 0.225006,0.348739 0.225006,0.558033 0,0.209378 -0.08092,0.410131 -0.225006,0.558117 -0.144158,0.147986 -0.339606,0.231196 -0.54337,0.231196 -0.203766,0 -0.399214,-0.08321 -0.543372,-0.231196 -0.144076,-0.147986 -0.225006,-0.348739 -0.225006,-0.558117 0,-0.209294 0.08093,-0.410047 0.225006,-0.558033 0.144158,-0.148069 0.339606,-0.231195 0.543372,-0.231195 z M 8.1622608,8.9124635 C 7.988703,8.948851 7.8327143,9.0457181 7.7206892,9.1866681 7.6086724,9.327618 7.5475018,9.5039829 7.547543,9.6859376 V 12.053707 H 24.452432 V 9.6859376 c 0,-0.1819547 -0.06117,-0.3583196 -0.173138,-0.4992695 C 24.167244,9.0457181 24.01123,8.948851 23.83768,8.9124635 l -0.153625,-0.015788 h -2.305213 v 0.7892621 c 0,0.2093192 -0.08102,0.4100724 -0.225087,0.5580834 -0.144075,0.148019 -0.339525,0.23117 -0.543371,0.23117 -0.203764,0 -0.399214,-0.08315 -0.54329,-0.23117 C 19.922936,10.09601 19.842006,9.8952568 19.842006,9.6859376 V 8.8966755 h -7.684038 v 0.7892621 c 0,0.2093192 -0.08096,0.4100724 -0.225062,0.5580834 -0.144102,0.148019 -0.33955,0.23117 -0.543348,0.23117 -0.203788,0 -0.399238,-0.08315 -0.543338,-0.23117 C 10.702111,10.09601 10.621156,9.8952568 10.621156,9.6859376 V 8.8966755 H 8.3159444 Z"
     fill="#000000"
     id="path1"
     sodipodi:nodetypes="ssscsssssssssscscscsssccscsccccccccccccscscscscsscscscscsscscsssssssssscscsscscscsssscscscscsssscscscsscscscsssscssssscsscssscscsscscssscsssscscssscccccsccccscscsccscscsccc"
     style="stroke-width:0.834386" />
</svg>
