<?xml version="1.0" encoding="UTF-8" standalone="no"?>
<svg
   width="30"
   height="30"
   viewBox="0 0 30 30"
   fill="none"
   version="1.1"
   id="svg1"
   sodipodi:docname="interface-filter.svg"
   inkscape:version="1.4.3 (fcd0343856, 2026-01-01)"
   xmlns:inkscape="http://www.inkscape.org/namespaces/inkscape"
   xmlns:sodipodi="http://sodipodi.sourceforge.net/DTD/sodipodi-0.dtd"
   xmlns="http://www.w3.org/2000/svg"
   xmlns:svg="http://www.w3.org/2000/svg">
  <defs
     id="defs1" />
  <sodipodi:namedview
     id="namedview1"
     pagecolor="#ffffff"
     bordercolor="#000000"
     borderopacity="0.25"
     inkscape:showpageshadow="2"
     inkscape:pageopacity="0.0"
     inkscape:pagecheckerboard="0"
     inkscape:deskcolor="#d1d1d1"
     inkscape:zoom="7.2875"
     inkscape:cx="-28.06175"
     inkscape:cy="29.090909"
     inkscape:window-width="2560"
     inkscape:window-height="1371"
     inkscape:window-x="2560"
     inkscape:window-y="32"
     inkscape:window-maximized="1"
     inkscape:current-layer="svg1" />
  <path
     d="m 17.423785,25 h -4.84764 c -0.24009,-0.003 -0.46946,-0.097 -0.63925,-0.2618 -0.16978,-0.1648 -0.26655,-0.3875 -0.26969,-0.6206 V 15 L 5.1834327,6.4 C 5.0809546,6.27067 5.0185506,6.11567 5.0035264,5.953154 4.9885024,5.79064 5.0214798,5.627333 5.0985984,5.482353 5.1758567,5.33779 5.2923217,5.216455 5.4354217,5.131448 5.5785207,5.0464411 5.7428207,5.0009896 5.9105847,5 H 24.089385 c 0.1678,9.896e-4 0.3321,0.046441 0.4752,0.131448 0.1431,0.085007 0.2595,0.206342 0.3368,0.350905 0.0771,0.14498 0.1101,0.308287 0.0951,0.470801 -0.0151,0.162516 -0.0775,0.317516 -0.1799,0.446846 l -6.4838,8.6 v 9.1176 c -0.0032,0.2331 -0.0999,0.4558 -0.2697,0.6206 -0.1698,0.1648 -0.3992,0.2588 -0.6393,0.2618 z m -3.9387,-1.7647 h 3.0298 v -8.52942 c -0.0019,-0.18761 0.0622,-0.37024 0.1818,-0.51764 l 5.5748,-7.42353 H 7.7284647 l 5.5990703,7.42353 c 0.11957,0.1474 0.18371,0.33003 0.18179,0.51764 z"
     fill="#000000"
     id="path1" />
</svg>
