<svg xmlns="http://www.w3.org/2000/svg" width="30" height="30" fill="none" viewBox="0 0 30 30">
  <path fill="#000" d="M20.983 3a.933.933 0 0 1 .934.933v.934h2.8a2.8 2.8 0 0 1 2.8 2.8v16.8a2.8 2.8 0 0 1-2.8 2.8H6.05a2.8 2.8 0 0 1-2.8-2.8v-16.8a2.8 2.8 0 0 1 2.8-2.8h2.8v-.934a.933.933 0 1 1 1.867 0v.934h9.333v-.934A.933.933 0 0 1 20.983 3ZM5.117 24.467l.018.186a.935.935 0 0 0 .728.728l.187.019h18.667l.186-.019a.933.933 0 0 0 .728-.728l.019-.186V12.333H5.117v12.134Zm2.8-2.8a.933.933 0 1 1 0 1.866.933.933 0 0 1 0-1.866Zm3.733 0a.934.934 0 1 1 0 1.867.934.934 0 0 1 0-1.867Zm3.733 0a.933.933 0 1 1 0 1.866.933.933 0 0 1 0-1.866Zm3.734 0a.933.933 0 1 1 0 1.866.933.933 0 0 1 0-1.866Zm-11.2-3.734a.933.933 0 1 1 0 1.867.933.933 0 0 1 0-1.867Zm3.733 0a.934.934 0 1 1 0 1.868.934.934 0 0 1 0-1.868Zm3.733 0a.933.933 0 1 1 0 1.867.933.933 0 0 1 0-1.867Zm3.734 0a.933.933 0 1 1 0 1.867.933.933 0 0 1 0-1.867Zm3.733 0a.934.934 0 1 1 0 1.868.934.934 0 0 1 0-1.868ZM15.383 14.2a.933.933 0 1 1 0 1.866.933.933 0 0 1 0-1.866Zm3.734 0a.933.933 0 1 1 0 1.866.933.933 0 0 1 0-1.866Zm3.733 0a.933.933 0 1 1 0 1.867.933.933 0 0 1 0-1.867ZM5.863 6.752a.933.933 0 0 0-.746.915v2.8H25.65v-2.8a.934.934 0 0 0-.747-.915l-.186-.019h-2.8v.934a.933.933 0 0 1-1.867 0v-.934h-9.333v.934a.933.933 0 0 1-1.867 0v-.934h-2.8l-.187.019Z"/>
</svg>
