<?xml version="1.0" encoding="UTF-8" standalone="no"?>
<svg
   width="32"
   height="32"
   viewBox="0 0 32 32"
   fill="none"
   version="1.1"
   id="svg1"
   sodipodi:docname="interface-accessibility.svg"
   inkscape:version="1.4.2 (2aeb623e1d, 2025-05-12)"
   xmlns:inkscape="http://www.inkscape.org/namespaces/inkscape"
   xmlns:sodipodi="http://sodipodi.sourceforge.net/DTD/sodipodi-0.dtd"
   xmlns="http://www.w3.org/2000/svg"
   xmlns:svg="http://www.w3.org/2000/svg">
  <defs
     id="defs1">
    <clipPath
       id="clip0_8927_1157">
      <rect
         width="33"
         height="28"
         fill="#ffffff"
         id="rect2"
         x="0"
         y="0" />
    </clipPath>
  </defs>
  <sodipodi:namedview
     id="namedview1"
     pagecolor="#ffffff"
     bordercolor="#000000"
     borderopacity="0.25"
     inkscape:showpageshadow="2"
     inkscape:pageopacity="0.0"
     inkscape:pagecheckerboard="0"
     inkscape:deskcolor="#d1d1d1"
     showgrid="false"
     inkscape:zoom="23.32"
     inkscape:cx="12.264151"
     inkscape:cy="10.334477"
     inkscape:window-width="2560"
     inkscape:window-height="1371"
     inkscape:window-x="2560"
     inkscape:window-y="32"
     inkscape:window-maximized="1"
     inkscape:current-layer="svg1" />
  <g
     clip-path="url(#clip0_8927_1157)"
     id="g2"
     transform="matrix(0.89417897,0,0,0.89417897,1.246047,3.4803454)">
    <path
       d="m 1.375,14.0013 c 0,0 5.5,-9.33333 15.125,-9.33333 9.625,0 15.125,9.33333 15.125,9.33333 0,0 -5.5,9.3333 -15.125,9.3333 -9.625,0 -15.125,-9.3333 -15.125,-9.3333 z"
       stroke="#000000"
       stroke-width="2"
       stroke-linecap="round"
       stroke-linejoin="round"
       id="path1" />
    <path
       d="m 16.5,17.5013 c 2.2782,0 4.125,-1.567 4.125,-3.5 0,-1.933 -1.8468,-3.5 -4.125,-3.5 -2.2782,0 -4.125,1.567 -4.125,3.5 0,1.933 1.8468,3.5 4.125,3.5 z"
       stroke="#000000"
       stroke-width="2"
       stroke-linecap="round"
       stroke-linejoin="round"
       id="path2" />
  </g>
</svg>
