<svg xmlns="http://www.w3.org/2000/svg" width="30" height="30" fill="none" viewBox="0 0 30 30">
  <path fill="#000" d="m26.675 26.131-8.116-8.44c1.26-1.693 1.94-3.764 1.94-5.941 0-2.607-.977-5.05-2.746-6.893C15.984 3.014 13.628 2 11.125 2s-4.86 1.017-6.628 2.857C2.725 6.697 1.75 9.143 1.75 11.75c0 2.603.978 5.054 2.747 6.893 1.769 1.843 4.122 2.857 6.628 2.857a9.07 9.07 0 0 0 5.71-2.015l8.115 8.437a.256.256 0 0 0 .181.078.248.248 0 0 0 .181-.078l1.363-1.414a.267.267 0 0 0 .075-.188.276.276 0 0 0-.075-.189Zm-10.6-9.233c-1.325 1.375-3.081 2.132-4.95 2.132-1.869 0-3.625-.757-4.95-2.132a7.39 7.39 0 0 1-2.05-5.148c0-1.944.728-3.773 2.05-5.148C7.5 5.227 9.256 4.47 11.125 4.47c1.869 0 3.628.754 4.95 2.132a7.39 7.39 0 0 1 2.05 5.148c0 1.943-.728 3.773-2.05 5.148Z"/>
</svg>
