<svg xmlns="http://www.w3.org/2000/svg" width="24" height="24" viewBox="0 0 24 24">
  <g fill="#000000" fill-rule="evenodd" transform="translate(3 3)">
    <path d="M18.9 9.45C18.3 3.15 15.15 0 9.45 0 3.75 0 .6 3.15 0 9.45 1.8 7.95 3.75 7.95 5.85 9.45 8.55 7.2 10.8498754 8.19991099 12.6 9.45 15 7.95 17.1 7.95 18.9 9.45zM8.1 10.9467662C8.1 9.94892208 8.55 9.45 9.45 9.45 10.35 9.45 10.8 9.94892208 10.8 10.9467662L10.8 17.9316754C10.4 18.2772251 9.96666667 18.45 9.5 18.45 9.03333333 18.45 8.56666667 18.2772251 8.1 17.9316754L8.1 10.9467662z"/>
  </g>
</svg>
