<svg xmlns="http://www.w3.org/2000/svg" width="24" height="24" viewBox="0 0 24 24" xmlns:xlink="http://www.w3.org/1999/xlink">
  <defs>
    <path id="a" d="M12,2.0014 L12.2654375,2.00523668 C17.1146081,2.1455926 21.001,6.11913214 21.001,10.9994 L21.001,10.9994 L20.9971624,11.2648384 C20.8567714,16.1140435 16.8822321,20.0014 12,20.0014 L12,20.0014 L11.7347195,19.9975624 C6.88835651,19.857171 3.001,15.8826143 3.001,10.9994 C3.001,6.0304 7.031,2.0014 12,2.0014 L12,2.0014 Z M12.751,9.5004 L11.251,9.5004 L11.251,15.5004 L12.751,15.5004 L12.751,9.5004 Z M12.751,6.5004 L11.251,6.5004 L11.251,8.0004 L12.751,8.0004 L12.751,6.5004 Z"/>
  </defs>
  <g fill="none" fill-rule="evenodd">
    <use fill="#000000" xlink:href="#a"/>
  </g>
</svg>
