<svg xmlns="http://www.w3.org/2000/svg" width="24" height="24" viewBox="0 0 24 24">
  <path fill="#1D1D1B" fill-rule="evenodd" d="M6.882,0.0002 C10.676,0.0002 13.764,3.0872 13.764,6.8822 C13.764,10.5132 7.564,20.0272 7.3,20.4302 L6.882,21.0702 L6.464,20.4302 C6.2,20.0272 -3.9346304e-13,10.5132 -3.9346304e-13,6.8822 C-3.9346304e-13,3.0872 3.088,0.0002 6.882,0.0002 Z M6.882,3.3519 C5.228,3.3519 3.882,4.6979 3.882,6.3519 C3.882,8.0059 5.228,9.3519 6.882,9.3519 C8.536,9.3519 9.882,8.0059 9.882,6.3519 C9.882,4.6979 8.536,3.3519 6.882,3.3519 Z" transform="translate(5 1)"/>
</svg>
