<svg xmlns="http://www.w3.org/2000/svg" width="24" height="24" viewBox="0 0 24 24">
  <g fill="#FFFFFF" fill-rule="evenodd" transform="translate(4.85 3.51)">
    <path d="M10.16708,-1.28785871e-14 C8.80385,-1.28785871e-14 7.7,1.10385 7.7,2.46708 C7.7,3.82932 8.80385,4.93317 10.16708,4.93317 C11.52932,4.93317 12.63416,3.82932 12.63416,2.46708 C12.63416,1.10385 11.52932,-1.28785871e-14 10.16708,-1.28785871e-14 M10.16708,0.99 C10.98086,0.99 11.64416,1.65231 11.64416,2.46708 C11.64416,3.28086 10.98086,3.94317 10.16708,3.94317 C9.35231,3.94317 8.69,3.28086 8.69,2.46708 C8.69,1.65231 9.35231,0.99 10.16708,0.99"/>
    <path fill-rule="nonzero" d="M4.06123872 6.28754209C6.08929464 6.39817699 7.7 8.09226069 7.7 10.1658749L7.691 16.2165421 6.59410372 16.2170596C6.5980142 16.1565218 6.6 16.0954545 6.6 16.0339193L6.6 10.1658749C6.6 8.69493673 5.46531047 7.49136547 4.03081326 7.39743328L3.85 7.39153205 3.66918674 7.39743328C3.1752141 7.42977906 2.71679223 7.59370431 2.32801174 7.85481666 2.22211901 7.92593623 2.1213927 8.00426575 2.02652167 8.08911027 1.8316476 8.26338895 1.66147872 8.46515643 1.52198512 8.68838976 1.25466672 9.11618272 1.1 9.62280674 1.1 10.1658749L1.1 16.0339193C1.1 16.0954545 1.1019858 16.1565218 1.10589628 16.2170596L.00419702823 16.2169028C.00140930453 16.1562612 0 16.0952563 0 16.0339193L0 10.1658749C0 9.29850525.281817927 8.49754037.758116764 7.85109037.921653586 7.62913228 1.1081175 7.42538975 1.31397338 7.2434292 1.38759685 7.17835179 1.46370075 7.11606053 1.54212337 7.05671856 2.13257027 6.60993059 2.85445671 6.33032763 3.63876128 6.28754209L4.06123872 6.28754209zM7.37712266 7.14959484C8.00507515 6.59454712 8.81345047 6.242176 9.70192565 6.19370773L10.1244031 6.19370773C12.152459 6.30434263 13.7631644 7.99842632 13.7631644 10.0720405L13.7543644 16.1234077 12.6572433 16.1237073C12.6611702 16.0629452 12.6631644 16.00175 12.6631644 15.9400849L12.6631644 10.0720405C12.6631644 8.60110237 11.5284748 7.39753111 10.0939776 7.30359891L9.91316437 7.29769768 9.73235111 7.30359891C9.10383438 7.34475477 8.50438923 7.62276033 8.06120342 8.01910776L7.37712266 7.14959484z"/>
    <path d="M3.71912817,-1.28785871e-14 C2.35589817,-1.28785871e-14 1.25204817,1.10385 1.25204817,2.46708 C1.25204817,3.82932 2.35589817,4.93317 3.71912817,4.93317 C5.08136817,4.93317 6.18620817,3.82932 6.18620817,2.46708 C6.18620817,1.10385 5.08136817,-1.28785871e-14 3.71912817,-1.28785871e-14 M3.71912817,0.99 C4.53290817,0.99 5.19620817,1.65231 5.19620817,2.46708 C5.19620817,3.28086 4.53290817,3.94317 3.71912817,3.94317 C2.90435817,3.94317 2.24204817,3.28086 2.24204817,2.46708 C2.24204817,1.65231 2.90435817,0.99 3.71912817,0.99"/>
  </g>
</svg>
