<svg xmlns="http://www.w3.org/2000/svg" width="48" height="48" viewBox="0 0 48 48">
  <path fill="#000000" fill-rule="evenodd" d="M29.2586,36.966 C29.9306,36.102 30.5346,35.082 31.0486,33.928 C31.5986,34.252 32.1186,34.618 32.6186,35.01 C31.6006,35.808 30.4746,36.472 29.2586,36.966 L29.2586,36.966 Z M16.9506,33.928 C17.4646,35.082 18.0686,36.102 18.7406,36.966 C17.5266,36.472 16.3986,35.808 15.3826,35.01 C15.8806,34.618 16.4006,34.252 16.9506,33.928 L16.9506,33.928 Z M10.0506,25 L15.0286,25 C15.1166,27.552 15.5386,29.94 16.2246,32.028 C15.3906,32.496 14.6106,33.042 13.8786,33.644 C11.6986,31.358 10.2886,28.342 10.0506,25 L10.0506,25 Z M16.2246,15.972 C15.5386,18.06 15.1166,20.448 15.0286,23 L10.0506,23 C10.2886,19.658 11.6986,16.642 13.8786,14.354 C14.6106,14.958 15.3906,15.504 16.2246,15.972 L16.2246,15.972 Z M18.7406,11.034 C18.0686,11.898 17.4646,12.918 16.9506,14.072 C16.4006,13.748 15.8806,13.382 15.3826,12.99 C16.3986,12.192 17.5266,11.528 18.7406,11.034 L18.7406,11.034 Z M31.0486,14.072 C30.5346,12.918 29.9306,11.898 29.2586,11.034 C30.4746,11.528 31.6006,12.192 32.6186,12.99 C32.1186,13.382 31.5986,13.748 31.0486,14.072 L31.0486,14.072 Z M37.9486,23 L32.9706,23 C32.8826,20.448 32.4606,18.06 31.7766,15.972 C32.6086,15.504 33.3886,14.958 34.1226,14.354 C36.3026,16.642 37.7106,19.658 37.9486,23 L37.9486,23 Z M25.0006,30.052 L25.0006,25 L30.9726,25 C30.8866,27.298 30.5186,29.378 29.9546,31.17 C28.4066,30.546 26.7426,30.162 25.0006,30.052 L25.0006,30.052 Z M25.0006,37.816 L25.0006,32.052 C26.4966,32.16 27.9246,32.5 29.2546,33.044 C28.1186,35.602 26.5626,37.294 25.0006,37.816 L25.0006,37.816 Z M23.0006,32.052 L23.0006,37.816 C21.4366,37.294 19.8826,35.602 18.7466,33.044 C20.0746,32.5 21.5046,32.16 23.0006,32.052 L23.0006,32.052 Z M23.0006,25 L23.0006,30.052 C21.2566,30.162 19.5926,30.546 18.0466,31.17 C17.4806,29.378 17.1126,27.298 17.0286,25 L23.0006,25 Z M23.0006,17.948 L23.0006,23 L17.0286,23 C17.1126,20.702 17.4806,18.622 18.0466,16.83 C19.5926,17.454 21.2566,17.838 23.0006,17.948 L23.0006,17.948 Z M23.0006,10.184 L23.0006,15.948 C21.5046,15.84 20.0746,15.5 18.7466,14.956 C19.8826,12.398 21.4366,10.706 23.0006,10.184 L23.0006,10.184 Z M25.0006,15.948 L25.0006,10.184 C26.5626,10.706 28.1186,12.398 29.2546,14.956 C27.9246,15.5 26.4966,15.84 25.0006,15.948 L25.0006,15.948 Z M25.0006,17.948 C26.7426,17.838 28.4066,17.454 29.9546,16.83 C30.5186,18.622 30.8866,20.702 30.9726,23 L25.0006,23 L25.0006,17.948 Z M31.7766,32.028 C32.4606,29.94 32.8826,27.552 32.9706,25 L37.9486,25 C37.7106,28.342 36.3026,31.358 34.1226,33.644 C33.3886,33.042 32.6086,32.496 31.7766,32.028 L31.7766,32.028 Z M35.5986,35 C38.3206,32.132 40.0006,28.266 40.0006,24 C40.0006,19.734 38.3206,15.868 35.5986,13 L35.5986,13 C35.1386,12.514 34.6586,12.05 34.1406,11.626 C34.1406,11.626 34.1406,11.626 34.1406,11.626 C31.6206,9.56 28.4566,8.264 25.0006,8.05 L25.0006,8 L23.0006,8 L23.0006,8.05 C19.5426,8.264 16.3786,9.56 13.8606,11.626 C13.8606,11.626 13.8606,11.626 13.8586,11.626 C13.3426,12.05 12.8606,12.514 12.4006,13 L12.4006,13 C9.6806,15.868 8.0006,19.734 8.0006,24 C8.0006,28.266 9.6806,32.132 12.4006,35 L12.4006,35 C12.8606,35.486 13.3426,35.95 13.8586,36.374 C13.8606,36.374 13.8606,36.374 13.8606,36.374 C16.6206,38.64 20.1506,40 24.0006,40 C27.8486,40 31.3786,38.64 34.1406,36.374 C34.1406,36.374 34.1406,36.374 34.1406,36.374 C34.6586,35.95 35.1386,35.486 35.5986,35 Z"/>
</svg>
