<svg xmlns="http://www.w3.org/2000/svg" width="24" height="24" viewBox="0 0 24 24">
  <g fill="none" fill-rule="evenodd">
    <path fill="#000000" d="M12.2267 2.0004C11.1217 2.0004 10.2247 2.8964 10.2247 4.0024 10.2247 5.1074 11.1217 6.0034 12.2267 6.0034 13.3317 6.0034 14.2287 5.1074 14.2287 4.0024 14.2287 2.8964 13.3317 2.0004 12.2267 2.0004M12.2267 3.0004C12.7797 3.0004 13.2287 3.4494 13.2287 4.0024 13.2287 4.5544 12.7797 5.0034 12.2267 5.0034 11.6737 5.0034 11.2247 4.5544 11.2247 4.0024 11.2247 3.4494 11.6737 3.0004 12.2267 3.0004M16.9845 12.5014L15.0055 12.4994 15.0055 7.9954C15.0055 7.1674 14.3325 6.4954 13.5055 6.4954L10.9975 6.4954C10.1705 6.4954 9.4975 7.1674 9.4975 7.9954L9.4975 15.5014 10.4975 15.5014 10.4975 7.9954C10.4975 7.7204 10.7215 7.4954 10.9975 7.4954L13.5055 7.4954C13.7805 7.4954 14.0055 7.7204 14.0055 7.9954L13.9995 13.5044 16.9845 13.5014C17.2595 13.5014 17.4845 13.7264 17.4845 14.0014L17.4845 19.5084 18.4845 19.5084 18.4845 14.0014C18.4845 13.1744 17.8115 12.5014 16.9845 12.5014"/>
    <path fill="#000000" d="M11.0265,11.9438 L11.0265,13.0788 C12.1985,13.7758 12.9935,15.0428 12.9935,16.5028 C12.9935,18.7058 11.2005,20.4988 8.9965,20.4988 C6.7935,20.4988 5.0005,18.7058 5.0005,16.5028 C5.0005,14.2978 6.7935,12.5058 8.9965,12.5058 C9.0065,12.5058 9.0155,12.5078 9.0265,12.5078 L9.0265,11.5078 C9.0155,11.5078 9.0065,11.5058 8.9965,11.5058 C6.2375,11.5058 4.0005,13.7428 4.0005,16.5028 C4.0005,19.2608 6.2375,21.4988 8.9965,21.4988 C11.7555,21.4988 13.9935,19.2608 13.9935,16.5028 C13.9935,14.4658 12.7715,12.7228 11.0265,11.9438"/>
  </g>
</svg>
