<svg xmlns="http://www.w3.org/2000/svg" width="48" height="48" viewBox="0 0 48 48">
  <g fill="none" fill-rule="evenodd">
    <path fill="#000000" d="M36.6000005,31.6000003 L36.6000005,37.2000005 L11.3999995,37.2000005 L11.3999995,31.6000003 L36.6000005,31.6000003 Z M14.9999996,29.7999995 L32.9999996,29.7999995 L32.9999996,11.7999995 L14.9999996,11.7999995 L14.9999996,29.7999995 Z M9.59999943,38.9999995 L38.4000006,38.9999995 L38.4000006,29.8000003 L34.8000004,29.8000003 L34.8000004,9.99999946 L13.1999996,9.99999946 L13.1999996,29.8000003 L9.59999943,29.8000003 L9.59999943,38.9999995 Z"/>
    <polygon fill="#000000" points="16.8 15.4 31.2 15.4 31.2 13.6 16.8 13.6"/>
    <polygon fill="#000000" points="16.8 19 29.4 19 29.4 17.2 16.8 17.2"/>
    <polygon fill="#000000" points="16.8 22.6 31.2 22.6 31.2 20.8 16.8 20.8"/>
    <polygon fill="#000000" points="16.8 26.2 27.6 26.2 27.6 24.4 16.8 24.4"/>
    <circle cx="33.5" cy="34.5" r="1.5" fill="#000000"/>
  </g>
</svg>
