<svg xmlns="http://www.w3.org/2000/svg" width="24" height="24" viewBox="0 0 24 24">
  <g fill="none" fill-rule="evenodd">
    <g fill="#000000" transform="translate(7 8.994)">
      <polygon points="5.911 13.326 6.911 13.326 6.911 10.826 5.911 10.826"/>
      <polygon points="2.911 13.326 3.911 13.326 3.911 10.826 2.911 10.826"/>
      <path d="M4.8841-.28546088e-14C3.7811-.28546088e-14 2.8881.895 2.8881 1.997 2.8881 3.1 3.7811 3.994 4.8841 3.994 5.9881 3.994 6.8811 3.1 6.8811 1.997 6.8811.895 5.9881-.28546088e-14 4.8841-.28546088e-14M4.8841 1C5.4341 1 5.8811 1.447 5.8811 1.997 5.8811 2.547 5.4341 2.994 4.8841 2.994 4.3341 2.994 3.8881 2.547 3.8881 1.997 3.8881 1.447 4.3341 1 4.8841 1M2.9112 11.0441L6.9112 11.0441 6.9112 5.0671 2.9112 5.0671 2.9112 11.0441zM3.9112 10.0441L5.9112 10.0441 5.9112 6.0671 3.9112 6.0671 3.9112 10.0441z"/>
      <polygon points="6.933 5.063 6.345 5.063 5.92 5.34 8.986 10.024 9.822 9.476"/>
      <polygon points="2.889 5.063 3.477 5.063 3.902 5.34 1 10.006 0 9.476"/>
    </g>
    <path fill="#000000" d="M4.5078 4.0113C3.1308 4.0113 2.0158 5.1263 2.0158 6.5033 2.0158 7.8793 3.1308 8.9943 4.5078 8.9943 5.8838 8.9943 6.9998 7.8793 6.9998 6.5033 6.9998 5.1263 5.8838 4.0113 4.5078 4.0113M4.5078 5.0113C5.3298 5.0113 5.9998 5.6803 5.9998 6.5033 5.9998 7.3253 5.3298 7.9943 4.5078 7.9943 3.6848 7.9943 3.0158 7.3253 3.0158 6.5033 3.0158 5.6803 3.6848 5.0113 4.5078 5.0113M19.4918 2.98272699C18.1148 2.98272699 16.9998 4.09772699 16.9998 5.47472699 16.9998 6.85072699 18.1148 7.96572699 19.4918 7.96572699 20.8678 7.96572699 21.9838 6.85072699 21.9838 5.47472699 21.9838 4.09772699 20.8678 2.98272699 19.4918 2.98272699M19.4918 3.98272699C20.3138 3.98272699 20.9838 4.65172699 20.9838 5.47472699 20.9838 6.29672699 20.3138 6.96572699 19.4918 6.96572699 18.6688 6.96572699 17.9998 6.29672699 17.9998 5.47472699 17.9998 4.65172699 18.6688 3.98272699 19.4918 3.98272699"/>
    <path fill="#000000" fill-rule="nonzero" d="M4.5078 9.97117265L4.6998352 9.97639736C6.5435224 10.0769745 8.0078 11.6170506 8.0078 13.5021544L7.9998 19.0031727 7.00241721 19.0035799C7.0059871 18.9484314 7.0078 18.8927994 7.0078 18.8367403L7.0078 13.5021544C7.0078 12.1649379 5.97626406 11.0707822 4.67217569 10.9853893L4.5078 10.9800246 4.34342431 10.9853893C3.03933594 11.0707822 2.0078 12.1649379 2.0078 13.5021544L2.0078 18.8367403C2.0078 18.8927994 2.0096129 18.9484314 2.01318279 19.0035799L1.01164222 19.0036697C1.0090902 18.9483496 1.0078 18.892697 1.0078 18.8367403L1.0078 13.5021544C1.0078 11.6170506 2.4720776 10.0769745 4.3157648 9.97639736L4.5078 9.97117265zM20.5 9.07545086C21.8807119 9.07545086 23 10.221115 23 11.6343632L23 19.0204509 22 19.0204509 22 11.6343632C22 10.7864143 21.3284271 10.0990158 20.5 10.0990158L18.5 10.0990158C17.6715729 10.0990158 17 10.7864143 17 11.6343632L17 19.0204509 16 19.0204509 16 11.6343632C16 10.221115 17.1192881 9.07545086 18.5 9.07545086L20.5 9.07545086z"/>
  </g>
</svg>
