<svg xmlns="http://www.w3.org/2000/svg" width="48" height="48" viewBox="0 0 48 48">
  <g fill="none" fill-rule="evenodd">
    <polygon fill="#FFFEFE" points="22 28.586 18.708 25.294 17.292 26.708 22 31.414 30.708 22.708 29.292 21.294"/>
    <path fill="#FFFEFE" d="M34,38 L14,38 L14,28 L14,12 L16,12 L16,16 L32,16 L32,12 L34,12 L34,30 L34,38 Z M18,12 L22,12 L22,10 C22,8.898 22.898,8 24,8 C25.102,8 26,8.898 26,10 L26,12 L30,12 L30,14 L18,14 L18,12 Z M28,10 C28,7.79 26.21,6 24,6 C21.79,6 20,7.79 20,10 L12,10 L12,40 L36,40 L36,10 L28,10 Z"/>
  </g>
</svg>
