<svg xmlns="http://www.w3.org/2000/svg" width="48" height="48" viewBox="0 0 48 48">
  <g fill="none" fill-rule="evenodd">
    <path fill="#000000" d="M24,38 C16.28,38 10,31.718 10,24 C10,16.28 16.28,10 24,10 C31.718,10 38,16.28 38,24 C38,31.718 31.718,38 24,38 M24,8 C15.178,8 8,15.178 8,24 C8,32.822 15.178,40 24,40 C32.822,40 40,32.822 40,24 C40,15.178 32.822,8 24,8"/>
    <path fill="#000000" d="M24,30.5 C23.172,30.5 22.5,31.172 22.5,32 C22.5,32.828 23.172,33.5 24,33.5 C24.828,33.5 25.5,32.828 25.5,32 C25.5,31.172 24.828,30.5 24,30.5"/>
    <rect width="2" height="13" x="23" y="15" fill="#000000"/>
  </g>
</svg>
