<svg xmlns="http://www.w3.org/2000/svg" width="24" height="24" viewBox="0 0 24 24">
  <g fill="none" fill-rule="evenodd">
    <path fill="#000000" d="M5.8075,8.179 C5.8075,11.163 10.5465,18.879 11.9995,21.174 C13.4535,18.879 18.1925,11.163 18.1925,8.179 C18.1925,4.764 15.4145,1.986 11.9995,1.986 C8.5855,1.986 5.8075,4.764 5.8075,8.179 Z M11.9995,23.014 L11.5815,22.375 C11.3045,21.953 4.8075,11.981 4.8075,8.179 C4.8075,4.213 8.0335,0.986 11.9995,0.986 C15.9665,0.986 19.1925,4.213 19.1925,8.179 C19.1925,11.981 12.6945,21.953 12.4175,22.375 L11.9995,23.014 Z"/>
    <path fill="#000000" d="M11.9995,4.7028 C10.3895,4.7028 9.0785,6.0138 9.0785,7.6238 C9.0785,9.2338 10.3895,10.5448 11.9995,10.5448 C13.6095,10.5448 14.9205,9.2338 14.9205,7.6238 C14.9205,6.0138 13.6095,4.7028 11.9995,4.7028 M11.9995,11.5448 C9.8375,11.5448 8.0785,9.7858 8.0785,7.6238 C8.0785,5.4618 9.8375,3.7028 11.9995,3.7028 C14.1615,3.7028 15.9205,5.4618 15.9205,7.6238 C15.9205,9.7858 14.1615,11.5448 11.9995,11.5448"/>
  </g>
</svg>
