<svg xmlns="http://www.w3.org/2000/svg" width="24" height="24" viewBox="0 0 24 24">
  <g fill="#000000" fill-rule="evenodd" transform="translate(2 2.5)">
    <path d="M0,18.0273 L19.998,18.0273 L19.998,0.9993 L0,0.9993 L0,18.0273 Z M1,17.0273 L18.998,17.0273 L18.998,1.9993 L1,1.9993 L1,17.0273 Z"/>
    <polygon points="4.025 2.977 5.025 2.977 5.025 0 4.025 0"/>
    <polygon points="14.967 2.977 15.967 2.977 15.967 0 14.967 0"/>
    <polygon points="9.496 2.977 10.496 2.977 10.496 0 9.496 0"/>
    <polygon points=".369 5.01 19.44 5.01 19.44 4.01 .369 4.01"/>
    <polygon points="3.024 10.043 6.024 10.043 6.024 7.043 3.024 7.043"/>
    <polygon points="8.521 10.043 11.521 10.043 11.521 7.043 8.521 7.043"/>
    <polygon points="13.967 10.043 16.967 10.043 16.967 7.043 13.967 7.043"/>
    <polygon points="3.024 14.947 6.024 14.947 6.024 11.947 3.024 11.947"/>
    <polygon points="8.521 14.947 11.521 14.947 11.521 11.947 8.521 11.947"/>
    <polygon points="13.967 14.947 16.967 14.947 16.967 11.947 13.967 11.947"/>
  </g>
</svg>
