<?xml version="1.0" encoding="UTF-8"?>
<svg id="Ebene_2" data-name="Ebene 2" xmlns="http://www.w3.org/2000/svg" viewBox="0 0 148.35 144.91">
  <defs>
    <style>
      .cls-1 {
        fill: #80ffe0;
      }

      .cls-2 {
        fill: #f04e23;
      }
    </style>
  </defs>
  <g id="Layer_1" data-name="Layer 1">
    <g>
      <path class="cls-1" d="M70.16,140.32c38.75,0,70.16-31.41,70.16-70.16S108.9,0,70.16,0,0,31.41,0,70.16s31.41,70.16,70.16,70.16"/>
      <path class="cls-2" d="M57.98,78.35c-.09,2.34-.54,12.12-.7,14.21-.37,4.2-1.41,7.75-1.86,10.57-.38,2.37-.75,3.15-.9,3.38-.1-.02-.16-.06-.21-.13-.21-.23-.68-1.08-.44-4.04.18-3.42.29-7.64,1.56-12.55.3-1.27,2.2-10.12,2.56-11.45M148.35,67.86c0-5.13-.74-10.01-2.19-14.5-1.65-5.05-4.06-9.64-7.16-13.66-5.62-7.47-13.38-13.16-23.04-16.89-9.15-3.62-18.96-5.46-29.16-5.46h-1.6c-9.46.19-19.19,2.64-28.93,7.28-9.65,4.74-17.77,11.57-24.14,20.31-3.38,4.74-6.12,10.11-8.14,15.96-2.03,5.86-3.11,12.32-3.2,19.2v.55c0,9.85,2.49,19.69,7.4,29.24,4.92,9.85,11.96,18,20.93,24.22,4.83,3.35,10.22,5.99,16,7.85,5.81,1.96,12.08,2.95,18.65,2.95h.29c10.12-.09,18.78-1.7,25.75-4.78,6.83-3.06,12.6-6.59,17.14-10.49,2.41-2.04,4.56-4.11,6.4-6.16,1.73-1.94,3.23-3.72,4.48-5.29.2-.25.24-.58.12-.87-.21-.5-.52-1.05-.92-1.64-.54-1-1.33-1.15-1.75-1.15-.12,0-.25.01-.37.04-.22.04-.42.16-.55.33-1.22,1.53-2.79,3.27-4.68,5.19-1.87,1.98-4.06,3.95-6.5,5.85-4.6,3.71-10.27,7.05-16.85,9.95-6.54,2.88-13.98,4.34-22.12,4.34-10.46,0-19.93-2.83-28.14-8.41-8.16-5.52-14.67-12.62-19.35-21.11-2.44-4.52-4.34-9.38-5.66-14.46-1.31-4.97-1.98-10.1-1.98-15.25.19-12.21,3.27-22.75,9.16-31.32,5.92-8.6,12.96-15.3,20.93-19.91,4.31-2.53,8.77-4.5,13.25-5.85,4.48-1.26,8.79-1.95,12.79-2.04,9.86-.09,19.04,1.65,27.28,5.18,8.21,3.51,14.83,8.71,19.68,15.45,2.61,3.69,4.65,7.84,6.04,12.33,1.4,4.59,2.06,9.66,1.97,15.08-.15,6.86-1.18,13.43-3.07,19.48-.13.37-.28.79-.44,1.25-.72,2.07-1.71,4.91-3.21,7.86-2.07,3.9-3.71,6.38-6.41,8.31-1.15.77-2.41,1.33-3.73,1.67-.46.12-.83.19-1.38.19h0c-.61-.02-1.08-.15-1.63-.32-.69-.21-1.3-.76-1.82-1.64-.51-1.02-.89-2.27-1.15-3.74-.54-2.95-.73-6.74-.54-11.25.27-4.41.5-9.06.69-13.82.19-3.97.19-7.9,0-11.66-.09-3.73-.52-7.1-1.27-10.02-.78-2.81-2.01-5.07-3.68-6.74-1.57-1.56-3.68-2.36-6.27-2.36-.29,0-.6.01-.89.03-2.28.1-4.44,1.37-6.41,3.74-1.98,2.17-3.79,4.88-5.38,8.06-2.4,4.7-4.46,9.67-6.13,14.77-.39,1.21-.74,2.32-1.05,3.34.05-.76.1-1.58.16-2.46.37-5.35.37-10.83,0-16.27-.28-4.58-1.05-8.57-2.27-11.83-1.25-3.6-3.4-5.43-6.39-5.43h-.16c-3.68.1-7.22,2.21-10.52,6.26-1.47,1.79-2.85,3.77-4.14,5.9-.36-5.99-.63-9.77-.82-11.24-.04-.36-.31-.66-.66-.75-.95-.24-1.88-.06-2.71.53-.73.44-1.39,1.13-1.99,2.06-.05.08-.09.17-.11.27-1.64,6.65-3.67,13.21-6.04,19.5-.72,1.84-1.39,4.32-.48,5.65.33.48.82.75,1.39.75,1.34,0,2.79-1.51,3.78-3.94.91-2.23,1.7-4.3,2.37-6.17-.02,1.2-.05,2.51-.08,3.91,0,.18-.03.36-.08.53-.83,2.3-1.67,4.72-2.49,7.2-1.1,3.32-2.09,6.63-2.92,9.87-1.94,7.77-2.93,14.71-2.93,20.65,0,6.43,1.62,9.75,4.84,9.86,2.41,0,4.3-1.97,5.61-5.85,1.2-3.54,2.08-8.06,2.63-13.45.27-2.81.51-5.84.69-9.01.19-3.14.28-6.32.28-9.44v-7.42c1.81-4.39,3.83-8.48,6.01-12.17,3.47-6.24,5.95-7.55,7.43-7.55.02,0,.05,0,.07,0,.8-.06,1.43.26,1.98,1.01.59.83,1.1,2.04,1.54,3.59.81,2.96,1.27,6.88,1.36,11.66.09,4.83-.05,9.86-.41,14.99-.27,5.24-.6,10.29-.96,15.01-.46,4.78-.74,8.52-.83,11.1,0,.24.08.48.26.66.71.72,1.75.85,3.02.34.04-.01.07-.03.1-.05.94-.52,1.61-1.05,2.05-1.6.08-.11.14-.23.17-.36.64-2.83,1.49-6.35,2.61-10.74,1.09-4.29,2.43-8.78,3.97-13.35,2.08-6.64,4.47-12.83,7.11-18.39,3.01-6.48,5.17-8.03,6.43-8.19,1.66-.15,2.88.39,3.71,1.67,0,.02.02.03.03.05,1,1.34,1.69,3.3,2.03,5.8.36,2.7.5,5.86.41,9.39-.09,3.65-.23,7.5-.41,11.45-.18,4.66-.28,9.27-.28,13.7s.54,8.5,1.61,11.6c.6,1.86,1.48,3.4,2.61,4.6,1.04,1.23,2.35,2.06,3.92,2.48,1.03.24,2.01.38,2.93.42h0c.11,0,.14,0,.24,0,.79-.01,1.79-.19,2.62-.43,1.96-.54,4.92-1.71,6.82-3.23,3.77-2.97,6.43-6,8.36-9.55.63-1.23,1.18-2.24,1.67-3.13,1.09-1.98,1.95-3.55,2.79-6.11.03-.08.04-.16.04-.24,2.25-6.41,3.53-13.42,3.82-20.83.1-.86.14-1.67.14-2.41"/>
    </g>
  </g>
</svg>