<?xml version="1.0" encoding="UTF-8"?>
<svg width="31px" height="31px" viewBox="0 0 31 31" version="1.1" xmlns="http://www.w3.org/2000/svg" xmlns:xlink="http://www.w3.org/1999/xlink">
    <title>230919-logos-final_1 copy</title>
    <g id="Symbole" stroke="none" stroke-width="1" fill="none" fill-rule="evenodd">
        <path d="M30.2699834,15.9645 C30.2699834,7.68024203 23.5542414,0.9645 15.2699834,0.9645 C6.98572548,0.9645 0.269983446,7.68024203 0.269983446,15.9645 C0.269983446,24.248758 6.98572548,30.9645 15.2699834,30.9645 C23.5542414,30.9645 30.2699834,24.248758 30.2699834,15.9645 Z M29.5881594,15.9645 C29.5881594,23.8722474 23.1777309,30.282676 15.2699834,30.282676 C7.36236429,30.282676 0.951807459,23.8722474 0.951807459,15.9645 C0.951807459,8.05688085 7.36236429,1.64632401 15.2699834,1.64632401 C23.1777309,1.64632401 29.5881594,8.05688085 29.5881594,15.9645 Z M28.5758785,12.9848713 C28.4466975,12.4052889 28.2839064,11.8384064 28.0834001,11.289227 C27.2158224,9.8701607 25.3736789,8.82696355 24.0964936,8.82696355 C23.6906062,8.82696355 23.4876626,8.82696355 23.0817752,8.82696355 C24.4360586,11.2375289 24.7974317,12.6674993 24.89095,15.4462368 C25.266306,15.4462368 25.4542406,15.4462368 25.8294683,15.4462368 C27.1887547,15.4462368 28.5422683,14.4905286 28.5758785,12.9848713 Z M22.4678129,6.58893876 C23.3003694,6.58893876 24.5975669,6.74929248 25.73595,7.22522232 C23.234432,4.23289364 19.4752277,2.32814803 15.2699834,2.32814803 C11.3459355,2.32814803 7.81135471,3.98812972 5.32343469,6.64127822 C5.32741146,6.63819942 5.33100338,6.63499235 5.33498015,6.63191356 C6.08569212,6.63191356 6.50145725,6.63165699 7.25216922,6.63165699 C5.38334284,9.89286679 4.46445188,12.29612 5.65466133,16.6237462 C5.669927,16.6237462 5.67736741,16.6237462 5.69263309,16.6237462 C6.50209866,12.29612 7.67139798,9.89312335 11.5398994,6.63191356 C12.2983083,6.63191356 12.6766148,6.63191356 13.4350238,6.63191356 C9.3598585,13.8964502 11.9031968,22.3452952 16.0364742,29.5782742 C16.0453257,29.577761 16.0541773,29.5767348 16.0630288,29.5762216 C20.166288,22.3266942 23.6450658,13.834746 19.5371883,6.58893876 C20.7093099,6.58893876 21.2955631,6.58893876 22.4678129,6.58893876 Z M17.4128223,12.3647514 C17.4128223,12.7402357 17.2796645,13.0608149 17.0133491,13.3262323 C16.7470336,13.5917781 16.4255565,13.7244227 16.049046,13.7244227 C15.6779233,13.7244227 15.357729,13.590367 15.0888479,13.3222556 C14.8197102,13.0540159 14.6853979,12.7349761 14.6853979,12.3647514 C14.6853979,11.9892672 14.8185557,11.6675335 15.0847428,11.3992938 C15.3510583,11.1311823 15.6724071,10.9969984 16.049046,10.9969984 C16.4309444,10.9969984 16.7537043,11.1311823 17.0173259,11.3992938 C17.2809474,11.6675335 17.4128223,11.9892672 17.4128223,12.3647514 Z M18.4644861,20.6156558 C18.269496,21.2174313 18.0553917,21.817539 17.8239692,22.4150811 L14.1780388,22.4150811 C13.9762496,21.8176673 13.7938313,21.2174313 13.6320664,20.6156558 L14.8147072,20.6156558 L14.8147072,16.4034843 L13.6284745,16.4034843 L13.6284745,14.604059 L17.3080151,14.604059 L17.3080151,20.6156558 L18.4644861,20.6156558 Z M6.59587352,22.3673599 C4.30884464,19.2207068 3.66948229,17.2946662 3.39777895,13.8172996 C3.38225671,13.8172996 3.37430316,13.817043 3.35878092,13.817043 C2.69350541,18.5001413 2.11007444,21.3781698 4.93101707,24.8504051 C7.18328126,27.4685324 10.4108809,29.2212627 14.0515517,29.5438943 C10.7340257,25.8107315 7.56633422,18.7128345 8.26188451,13.8172996 C8.24649056,13.8172996 8.23892186,13.8172996 8.22339962,13.8172996 C6.9554507,17.2946662 6.82537176,19.2207068 7.57249181,22.3673599 C7.18187015,22.3673599 6.98649518,22.3673599 6.59587352,22.3673599 Z M24.7367539,18.1949561 C24.2909705,21.2112737 20.4878935,26.6894699 18.2928435,29.2605172 C24.0465915,27.9576753 28.4170642,23.0194222 28.8643869,16.985889 C28.0609506,17.7525081 26.7991593,18.1949561 25.7327429,18.1949561 C25.334296,18.1949561 25.1352008,18.1949561 24.7367539,18.1949561 L24.7367539,18.1949561 Z" id="230919-logos-final_1-copy" fill="#1E5A30"></path>
    </g>
</svg>