<svg xmlns="http://www.w3.org/2000/svg" width="94" height="94" viewBox="0 0 94 94">
  <g fill="#000000" fill-rule="evenodd">
    <path d="M55.632312,19.564632 C46.670472,11.922552 35.914392,7.191432 24.501672,5.713272 C20.512872,7.887672 16.879752,10.629432 13.704552,13.828392 C41.570712,12.216312 65.810952,33.224472 68.029992,61.172712 C68.858712,71.602632 66.456072,81.955512 61.334712,90.888552 C65.675592,89.460072 69.732792,87.413112 73.405512,84.847752 C76.079592,77.107032 77.186232,68.824152 76.525272,60.498792 C75.255912,44.509752 67.835592,29.972232 55.632312,19.564632"/>
    <path d="M51.546456,36.959976 C35.555976,36.959976 20.515896,29.452536 10.829016,16.997976 C8.947656,19.276776 7.280856,21.737736 5.854536,24.349896 C17.157816,37.577736 33.846696,45.481176 51.546456,45.481176 C66.024936,45.481176 79.838136,40.287096 90.651816,30.996936 C89.645976,28.175256 88.374456,25.481016 86.869656,22.940136 C77.354136,31.908456 64.772856,36.959976 51.546456,36.959976"/>
    <path d="M67.042944,15.795576 C67.042944,44.206776 43.928784,67.320936 15.517584,67.320936 C11.784384,67.320936 8.069184,66.890376 4.441104,66.094056 C6.008544,69.499656 7.974144,72.682056 10.280304,75.585096 C12.020544,75.737736 13.766544,75.842136 15.517584,75.842136 C48.627504,75.842136 75.564144,48.905496 75.564144,15.795576 C75.564144,13.780296 75.434544,11.774376 75.235824,9.779256 C72.306864,7.513416 69.102144,5.591736 65.677824,4.068216 C66.567744,7.892856 67.042944,11.827656 67.042944,15.795576"/>
    <path d="M93.107088,41.84244 C84.454848,59.03532 66.796128,70.155 47.094048,70.155 C26.921808,70.155 8.964288,58.4622 0.561888,40.78548 C0.321408,42.70428 0.183168,44.65548 0.183168,46.64052 C0.183168,50.47956 0.656928,54.20628 1.532448,57.7746 C12.667968,70.72092 29.130768,78.6762 47.094048,78.6762 C64.532448,78.6762 80.593488,71.19612 91.731888,58.8222 C92.781648,54.93852 93.351888,50.85684 93.351888,46.64052 C93.351888,45.02052 93.268368,43.41996 93.107088,41.84244"/>
    <path d="M49.107672,0.11484 C48.332232,0.07668 47.552472,0.0558 46.767672,0.0558 C41.483592,0.0558 36.411192,0.94788 31.676472,2.56932 C20.513592,13.58316 13.765032,28.83996 13.765032,45.3474 C13.765032,63.86796 22.146552,80.77788 35.863272,91.92852 C39.362472,92.76804 43.010712,93.22452 46.767672,93.22452 C49.068072,93.22452 51.328152,93.051 53.539272,92.72916 C34.666632,84.68676 22.286232,66.20652 22.286232,45.3474 C22.286232,26.18748 32.869512,8.98524 49.107672,0.11484"/>
    <path d="M13.167792,39.431448 C36.760752,39.431448 57.740112,25.843608 67.524912,4.936968 C64.990512,3.672648 62.325072,2.636568 59.553792,1.847448 C51.052032,19.481688 33.211152,30.910248 13.167792,30.910248 C9.827712,30.910248 6.517872,30.586248 3.272832,29.955528 C2.261232,32.590008 1.485072,35.338968 0.963792,38.178648 C4.961952,39.004488 9.046512,39.431448 13.167792,39.431448"/>
  </g>

  
</svg>
