<svg width="55" height="55" viewBox="0 0 55 55" fill="none" xmlns="http://www.w3.org/2000/svg">
<path d="M27.4998 27.4987C28.7603 27.4987 29.8392 27.0499 30.7368 26.1523C31.6344 25.2548 32.0832 24.1758 32.0832 22.9154C32.0832 21.6549 31.6344 20.576 30.7368 19.6784C29.8392 18.7808 28.7603 18.332 27.4998 18.332C26.2394 18.332 25.1604 18.7808 24.2629 19.6784C23.3653 20.576 22.9165 21.6549 22.9165 22.9154C22.9165 24.1758 23.3653 25.2548 24.2629 26.1523C25.1604 27.0499 26.2394 27.4987 27.4998 27.4987ZM27.4998 44.3424C32.1596 40.0647 35.6162 36.1784 37.8696 32.6836C40.1231 29.1888 41.2498 26.0855 41.2498 23.3737C41.2498 19.2105 39.9226 15.8016 37.2681 13.1471C34.6136 10.4926 31.3575 9.16536 27.4998 9.16536C23.6422 9.16536 20.3861 10.4926 17.7316 13.1471C15.0771 15.8016 13.7498 19.2105 13.7498 23.3737C13.7498 26.0855 14.8766 29.1888 17.13 32.6836C19.3835 36.1784 22.8401 40.0647 27.4998 44.3424ZM27.4998 50.4154C21.3505 45.1827 16.7577 40.3225 13.7212 35.8346C10.6847 31.3468 9.1665 27.1931 9.1665 23.3737C9.1665 17.6445 11.0094 13.0803 14.6952 9.68099C18.3809 6.28168 22.6491 4.58203 27.4998 4.58203C32.3505 4.58203 36.6188 6.28168 40.3045 9.68099C43.9903 13.0803 45.8332 17.6445 45.8332 23.3737C45.8332 27.1931 44.3149 31.3468 41.2785 35.8346C38.242 40.3225 33.6491 45.1827 27.4998 50.4154Z" fill="#FF3A00"/>
</svg>
