<?xml version="1.0" encoding="UTF-8" standalone="no"?>
<svg
   width="32"
   height="32"
   viewBox="0 0 32 32"
   fill="none"
   version="1.1"
   id="svg1"
   sodipodi:docname="map-reduce.svg"
   inkscape:version="1.4.3 (fcd0343856, 2026-01-01)"
   xmlns:inkscape="http://www.inkscape.org/namespaces/inkscape"
   xmlns:sodipodi="http://sodipodi.sourceforge.net/DTD/sodipodi-0.dtd"
   xmlns="http://www.w3.org/2000/svg"
   xmlns:svg="http://www.w3.org/2000/svg">
  <defs
     id="defs1" />
  <sodipodi:namedview
     id="namedview1"
     pagecolor="#ffffff"
     bordercolor="#000000"
     borderopacity="0.25"
     inkscape:showpageshadow="2"
     inkscape:pageopacity="0.0"
     inkscape:pagecheckerboard="0"
     inkscape:deskcolor="#d1d1d1"
     inkscape:zoom="27.761905"
     inkscape:cx="9.7075472"
     inkscape:cy="14.012007"
     inkscape:window-width="2560"
     inkscape:window-height="1371"
     inkscape:window-x="2560"
     inkscape:window-y="32"
     inkscape:window-maximized="1"
     inkscape:current-layer="svg1" />
  <path
     d="M 18.88954,5.9867763 C 18.67143,5.8413085 18.4096,5.7759604 18.1487,5.8018648 c -0.2609,0.025904 -0.5047,0.1414585 -0.69,0.3269775 -0.1852,0.18552 -0.3004,0.429528 -0.3259,0.690455 -0.0256,0.26093 0.0402,0.52264 0.1859,0.74055 l 0.1474,0.1768 7.13091,7.1309297 H 4.6662 c -0.3006,0 -0.5888,0.1194 -0.8014,0.33194 -0.2125,0.21255 -0.3319,0.50081 -0.3319,0.8014 0,0.3006 0.1194,0.5888 0.3319,0.8014 0.2126,0.2125 0.5008,0.3319 0.8014,0.3319 h 19.93081 l -7.13091,7.1332 -0.1474,0.1768 c -0.1444,0.218 -0.2091,0.4792 -0.1829,0.7393 0.0261,0.2602 0.1413,0.5033 0.3262,0.6882 0.1849,0.1849 0.4281,0.3002 0.6882,0.3263 0.2602,0.0261 0.52139,-0.0385 0.73934,-0.183 l 0.17907,-0.145 9.066665,-9.0667 c 0.212468,-0.2125 0.331825,-0.5008 0.331825,-0.8013 0,-0.30049 -0.119357,-0.58871 -0.331825,-0.80124 L 19.06861,6.1341103 Z"
     fill="#000000"
     id="path1" />
</svg>
