<?xml version="1.0" encoding="UTF-8"?>
<svg width="159px" height="68px" viewBox="0 0 159 68" version="1.1" xmlns="http://www.w3.org/2000/svg" xmlns:xlink="http://www.w3.org/1999/xlink">
    <title>LHPgefördert_Logo_blau</title>
    <g id="Symbole" stroke="none" stroke-width="1" fill="none" fill-rule="evenodd">
        <g id="48em/Footer/Footer" transform="translate(-436, -85)" fill="#03203C">
            <g id="LHPgefördert_Logo_blau" transform="translate(436.4228, 85)">
                <g id="Group-4" transform="translate(88.6879, 0)">
                    <path d="M66.685973,19.980132 L67.5023168,19.980132 L67.5023168,19.7712721 L65.4149115,19.7712721 L64.2166526,23.5367172 L63.0637461,19.7712721 L60.9357624,19.7712721 L60.9357624,19.980132 L61.7544931,19.980132 L61.7544931,25.0727324 L60.9357624,25.0727324 L60.9357624,25.2780118 L62.8178882,25.2780118 L62.8178882,25.0727324 L62.0146728,25.0727324 L62.0146728,20.1173828 L62.0301881,20.1173828 L63.673617,25.2780118 L63.9564729,25.2780118 L65.6046757,20.1173828 L65.6273519,20.1173828 L65.6273519,25.0727324 L64.8122016,25.0727324 L64.8122016,25.2780118 L67.5023168,25.2780118 L67.5023168,25.0727324 L66.685973,25.0727324 L66.685973,19.980132 Z M54.730834,21.1067818 L55.5042123,23.4102078 L53.8977815,23.4102078 L54.730834,21.1067818 Z M54.1388655,25.2780118 L54.1388655,25.0727324 L53.2950716,25.0727324 L53.8070767,23.6142937 L55.5865628,23.6142937 L56.0926004,25.0727324 L55.2297108,25.0727324 L55.2297108,25.2780118 L57.8482168,25.2780118 L57.8482168,25.0727324 L57.1858326,25.0727324 L55.2989329,19.6447627 L55.0208509,19.6447627 L53.0492137,25.0727324 L52.3796686,25.0727324 L52.3796686,25.2780118 L54.1388655,25.2780118 Z M46.3454086,19.980132 C47.2978096,19.980132 47.8778433,20.0242909 48.2203735,20.3560798 C48.4662314,20.5971637 48.6738978,21.2631283 48.6738978,22.320556 C48.6738978,22.8444959 48.6488346,23.5032996 48.4662314,24.0606571 C48.1129598,25.1395675 47.3944819,25.0727324 46.3454086,25.0727324 L46.3454086,19.980132 Z M44.4811851,19.980132 L45.2927548,19.980132 L45.2927548,25.0727324 L44.4811851,25.0727324 L44.4811851,25.2780118 L46.471918,25.2780118 C47.1569784,25.2780118 47.8635215,25.2959141 48.4889076,24.9498034 C49.3589582,24.4700225 49.8053215,23.4806234 49.8053215,22.524642 C49.8053215,21.5352429 49.3887953,20.6687728 48.5330666,20.140059 C48.1046054,19.8762988 47.6582421,19.7712721 46.7547739,19.7712721 L44.4811851,19.7712721 L44.4811851,19.980132 Z M38.32877,24.983221 C38.6187869,25.2481747 39.1140831,25.4009407 39.5007723,25.4009407 C40.5641674,25.4009407 41.2420668,24.6335299 41.2420668,23.5963915 C41.2420668,22.8552373 40.9926285,22.3122016 40.2968267,21.9816063 C40.1261584,21.8992558 39.9172985,21.8443555 39.7537911,21.7882617 C39.6117664,21.7512637 39.4482589,21.6951699 39.244173,21.6319152 C38.7345549,21.4982449 38.2953524,21.4278293 38.2953524,20.7952822 C38.2953524,20.2403117 38.7882617,19.8500421 39.3145886,19.8500421 C40.1404802,19.8500421 40.6536787,20.5052654 40.7431901,21.2858045 L41.0069503,21.2858045 L41.0069503,19.7271132 L40.8589582,19.7271132 L40.5462651,20.0624824 C40.1667369,19.7641112 39.8206262,19.6447627 39.3444257,19.6447627 C38.4851165,19.6447627 37.8418281,20.2892446 37.8418281,21.1557147 C37.8418281,21.9374473 38.2213564,22.517481 38.9863802,22.7514041 C39.1510812,22.800337 39.3145886,22.8552373 39.4840635,22.9149115 C40.1034822,23.1273519 40.7873491,23.2765375 40.7873491,24.0427548 C40.7873491,24.7194608 40.2073154,25.1956613 39.556866,25.1956613 C38.6820416,25.1956613 38.213002,24.4700225 38.0411401,23.6859028 L37.8000562,23.6859028 L37.8000562,25.3293316 L37.9408874,25.3293316 L38.32877,24.983221 Z M33.3686464,25.2780118 L33.3686464,25.0727324 L32.4985959,25.0727324 L32.4985959,19.980132 C33.6634372,19.9204577 34.0155153,20.4790087 34.1694749,21.5352429 L34.4260741,21.5352429 L34.3294019,19.7712721 L29.6055883,19.7712721 L29.5160769,21.5352429 L29.7834176,21.5352429 C29.9326032,20.4790087 30.2822943,19.9204577 31.4459422,19.980132 L31.4459422,25.0727324 L30.5794721,25.0727324 L30.5794721,25.2780118 L33.3686464,25.2780118 Z M25.0214125,23.3099551 C25.0214125,23.629809 25.0142516,23.9425021 24.943836,24.232519 C24.7946504,24.7982308 24.4557006,25.1956613 23.671581,25.1956613 C22.8970093,25.1956613 22.5520921,24.7982308 22.4029065,24.232519 C22.3289104,23.9425021 22.3133951,23.629809 22.3133951,23.3099551 L22.3133951,21.5089862 C22.3133951,21.2118085 22.3575541,20.932533 22.4363241,20.6866751 C22.5855097,20.1806375 22.9387812,19.8500421 23.671581,19.8500421 C24.3972199,19.8500421 24.7385566,20.1806375 24.9032575,20.6866751 C24.980834,20.932533 25.0214125,21.2118085 25.0214125,21.5089862 L25.0214125,23.3099551 Z M23.671581,25.4009407 C25.3042685,25.4009407 26.2387672,23.8935692 26.2387672,22.3838107 C26.2387672,21.0256248 25.0512496,19.6447627 23.671581,19.6447627 C22.2942994,19.6447627 21.1008144,21.0256248 21.1008144,22.3838107 C21.1008144,23.8935692 22.0377001,25.4009407 23.671581,25.4009407 L23.671581,25.4009407 Z M14.7836984,22.5735748 L14.7836984,19.980132 L15.7480343,19.980132 C16.6658242,19.980132 16.7099832,20.6866751 16.7099832,21.2786436 C16.7099832,21.9589301 16.5476692,22.5735748 15.7480343,22.5735748 L14.7836984,22.5735748 Z M12.9087335,19.980132 L13.7262707,19.980132 L13.7262707,25.0727324 L12.9087335,25.0727324 L12.9087335,25.2780118 L15.6549424,25.2780118 L15.6549424,25.0727324 L14.7836984,25.0727324 L14.7836984,22.7812412 L15.725358,22.7812412 C16.6658242,22.7812412 17.871244,22.4422915 17.871244,21.2858045 C17.871244,19.9837124 16.6216653,19.7712721 15.5761724,19.7712721 L12.9087335,19.7712721 L12.9087335,19.980132 Z M39.2346251,45.6448329 L39.5079332,45.6448329 L39.2346251,45.6448329 Z M39.0830525,45.6448329 L38.5853693,45.6090284 L39.0830525,45.6448329 Z M37.0529346,45.6090284 L37.2391182,45.6090284 L37.0529346,45.6090284 Z M40.8100253,45.5600955 L40.7360292,45.5266779 L40.4674951,45.6090284 L40.8100253,45.5600955 Z M36.2867172,45.4479079 C36.3165543,45.7128616 36.896588,45.5600955 36.7844004,45.6090284 L36.2867172,45.4479079 Z M35.5491435,45.4109099 L36.2031733,45.6090284 L35.5491435,45.4109099 Z M42.662314,45.4109099 L42.2756248,45.3739118 L42.662314,45.4109099 Z M41.8889357,45.3739118 L42.0452822,45.4109099 L41.8889357,45.3739118 Z M35.0514603,45.3739118 L34.8652766,45.3739118 L35.0920388,45.4109099 L35.0514603,45.3739118 Z M34.475007,45.3333333 L34.2768885,45.2951418 L34.4415894,45.3333333 L34.475007,45.3333333 Z M44.1577506,45.2175653 L44.3475147,45.2175653 L44.1577506,45.2175653 Z M33.3244875,45.1805673 C33.5142516,45.3739118 33.7422072,45.2175653 33.8973603,45.2175653 L33.3244875,45.1805673 Z M34.475007,45.1017972 L34.6647711,45.1017972 L34.475007,45.1017972 Z M32.7408734,45.1017972 L33.0129879,45.1017972 L32.7408734,45.1017972 Z M35.668492,44.9418703 C36.8142376,45.0612188 38.1616821,45.1017972 39.1952401,45.1017972 C38.968478,44.9872227 38.1616821,44.9096462 37.85615,44.9872227 L37.85615,44.9418703 L37.4324628,44.9418703 C37.0899326,44.8308762 37.2057006,45.2175653 36.9705841,44.9418703 L35.668492,44.9418703 Z M33.3244875,44.9418703 L33.7087897,44.9418703 L33.3244875,44.9418703 Z M45.5051952,44.9418703 C45.5827717,44.9418703 45.7689553,44.9872227 45.7689553,44.9096462 C45.6519938,44.8714546 45.6197697,44.9872227 45.5051952,44.9418703 L45.5051952,44.9418703 Z M31.937658,44.8714546 C32.0152345,44.9096462 32.3207666,45.1435692 32.4401151,45.0612188 L31.937658,44.8714546 Z M35.1290368,44.8308762 L35.5121455,44.8308762 L35.1290368,44.8308762 Z M46.152064,44.8308762 C46.0816484,44.9418703 46.2714125,44.7568801 46.3859871,44.7568801 C46.3155715,44.7938781 46.196223,44.722269 46.152064,44.8308762 L46.152064,44.8308762 Z M39.5819292,45.1017972 C41.0857203,44.9418703 42.8114996,45.0242207 44.3475147,44.6781101 C42.9666526,44.7568801 41.1597164,44.8714546 39.5819292,45.1017972 L39.5819292,45.1017972 Z M30.2822943,44.641112 L31.5163578,44.9096462 L31.2048582,44.8714546 C30.9733221,44.641112 30.586633,44.722269 30.2822943,44.641112 L30.2822943,44.641112 Z M37.6293878,44.5289245 L38.6593653,44.5289245 L37.6293878,44.5289245 Z M35.7806796,44.5289245 L35.7806796,44.604114 C36.7844004,44.5635355 37.85615,44.9096462 39.0018955,44.7568801 L39.0018955,44.722269 L37.1675091,44.641112 L37.1675091,44.6781101 C37.2057006,44.5635355 37.5136198,44.604114 37.4324628,44.5289245 L35.7806796,44.5289245 Z M38.7787138,44.488346 L39.4709351,44.488346 L38.7787138,44.488346 Z M30.0519517,44.604114 L29.8609941,44.488346 L30.0519517,44.604114 Z M41.7325892,44.3725779 C41.3530609,44.4119629 40.8923757,44.444187 40.6572592,44.4119629 L40.6572592,44.488346 C40.5044931,44.722269 40.0879669,44.488346 39.8874614,44.444187 C40.0068099,44.8308762 39.3885847,44.722269 39.121244,44.722269 L40.8100253,44.722269 C41.0857203,44.7938781 40.8100253,44.4119629 41.0857203,44.488346 C41.1227183,44.5635355 41.2038753,44.641112 41.1227183,44.6781101 L42.5059674,44.604114 C42.2386268,44.722269 41.6215951,44.488346 41.1597164,44.641112 C41.2337124,44.3391603 41.6955911,44.641112 41.7325892,44.3725779 L41.7325892,44.3725779 Z M41.8519377,44.3725779 C41.9700927,44.488346 42.1216653,44.4119629 42.2756248,44.3725779 C42.0786998,44.4119629 42.0082842,44.2914209 41.8519377,44.3725779 L41.8519377,44.3725779 Z M30.9363241,44.1792334 C32.2419966,44.5289245 33.6300197,44.7938781 35.0514603,44.8308762 L30.9363241,44.1792334 Z M29.8204156,43.8331227 C29.9767621,43.8748947 30.586633,44.2210053 30.7501404,44.0658523 L29.8204156,43.8331227 Z M52.8105167,42.5656417 L52.8857063,42.5656417 C52.9227043,42.5238697 52.9680567,42.5238697 52.9227043,42.4534541 C52.8105167,42.4534541 52.8857063,42.5238697 52.8105167,42.5656417 L52.8105167,42.5656417 Z M51.3496911,42.4534541 C49.4627914,43.4094356 47.5388936,43.5693625 45.6985397,44.3725779 L46.4241786,44.1792334 C46.9254423,44.1052373 47.7370121,43.9858888 48.3098849,43.7221286 L48.2764673,43.6027801 C49.4257933,43.4094356 50.5011233,42.9523308 51.3496911,42.4534541 L51.3496911,42.4534541 Z M53.502738,42.182533 C53.6555041,42.1001825 53.8858467,42.182533 54.0386127,42.0631845 C53.8070767,41.9879949 53.6555041,42.1001825 53.502738,42.182533 L53.502738,42.182533 Z M58.033207,39.5628335 L57.9639848,39.5628335 L57.8840213,39.6451839 L58.033207,39.5628335 Z M58.7337826,38.6032716 C58.5404381,38.7596181 58.227745,38.7966161 58.1979079,39.1093092 L58.7337826,38.6032716 Z M58.227745,38.6032716 L58.1155574,38.7226201 L58.227745,38.6032716 Z M49.2730272,38.5292755 L49.2730272,38.6808481 C49.3434429,38.64385 49.3064448,38.6032716 49.3434429,38.5292755 L49.2730272,38.5292755 Z M38.0411401,38.4505055 L38.1986801,38.4505055 L38.0411401,38.4505055 Z M37.85615,38.4505055 L37.3572732,38.4505055 L37.85615,38.5292755 L37.85615,38.4505055 Z M38.5853693,38.409927 C38.8121314,38.372929 39.5819292,38.491084 39.9304268,38.2941589 C39.4709351,38.2201629 39.047248,38.5292755 38.5853693,38.409927 L38.5853693,38.409927 Z M40.233572,38.1783909 L40.233572,38.2571609 C40.3899186,38.1378124 40.6572592,38.2941589 40.7360292,38.1378124 C40.5868436,38.1378124 40.4233361,38.1783909 40.233572,38.1783909 L40.233572,38.1783909 Z M59.7303426,37.7582842 L59.6193485,37.7582842 L59.1873069,38.2571609 L59.7303426,37.7582842 Z M60.2721848,37.6067116 L60.0764532,37.6067116 L60.1170317,37.7582842 L60.2721848,37.6067116 Z M51.8891463,37.4503651 C51.8139568,37.4873631 51.6946083,37.4873631 51.7327998,37.6067116 C51.8509548,37.6067116 51.7686043,37.4873631 51.8891463,37.4503651 L51.8891463,37.4503651 Z M44.8499719,37.218829 L44.6602078,37.218829 L44.0431761,37.334597 L44.8499719,37.218829 Z M45.5051952,37.0708368 L45.2700786,37.0708368 L45.002738,37.1412525 L45.5051952,37.0708368 Z M60.5001404,36.9884864 L60.6529065,36.7987223 L60.5789104,36.8774923 L60.5001404,36.9884864 Z M46.6211036,36.7987223 L46.4241786,36.7987223 L45.6519938,37.021904 L46.6211036,36.7987223 Z M46.2714125,36.5719601 L45.9288823,36.6841477 L46.2714125,36.5719601 Z M47.0817888,36.6053777 C47.2381354,36.6053777 47.424319,36.4526116 47.5388936,36.3714546 C47.387321,36.4526116 47.1927829,36.4896097 47.0817888,36.6053777 L47.0817888,36.6053777 Z M38.3132547,32.3756669 L40.5868436,32.4090845 L38.3132547,32.3756669 Z M41.6215951,32.4532435 C41.8113592,32.1787419 42.1216653,32.60959 42.2756248,32.2563184 C42.0452822,32.3386689 41.8113592,32.3386689 41.6215951,32.4532435 L41.6215951,32.4532435 Z M44.0837546,31.3743331 L44.0837546,31.256178 L43.6970654,31.6058691 L44.0837546,31.3743331 Z M53.421581,30.7573013 L53.3081999,30.9136479 L53.6220865,30.8766498 L53.6220865,30.8360713 C53.5409295,30.8360713 53.502738,30.8014603 53.421581,30.7573013 L53.421581,30.7573013 Z M23.7861556,26.8474445 C23.2467004,27.0372086 23.0127773,27.3833193 22.6702471,27.803426 L22.6332491,28.8417579 L22.5139006,28.8417579 C22.5520921,32.1453243 24.820907,34.1467987 27.4394131,35.7568099 C27.9418703,36.1029205 28.5935131,36.3714546 28.9348498,36.7581438 L28.9348498,36.6423757 C31.4721988,37.3751755 34.0918983,38.409927 36.9335861,38.409927 C37.2391182,38.6032716 37.4026257,38.0268183 37.6293878,38.372929 C39.165403,38.1043948 40.9222129,38.0638163 42.2756248,37.7582842 C42.1562763,37.8406347 42.0452822,37.8406347 41.9700927,37.9074698 L43.2733783,37.7212862 C45.002738,37.1818309 47.1569784,37.1818309 48.4626509,35.9549284 C48.2764673,36.1029205 48.0043527,36.2186886 47.8074277,36.1816905 C48.2346953,35.8725779 48.696574,35.4524712 49.1954507,35.2627071 L49.1954507,35.4894693 L50.5786998,34.4475569 C50.1180146,34.797248 49.6979079,35.1469391 49.1954507,35.3701208 C49.7754844,34.7196714 50.2325892,34.4141393 50.9653889,33.8341056 C51.196925,34.1014462 50.8126229,34.1837967 50.6610503,34.3771413 L51.9631424,33.2278152 L51.3114996,33.7601095 L51.2697276,33.6813395 C51.5394552,33.3722269 51.7686043,32.60959 52.2686745,32.7623561 L52.2340635,32.9485397 L52.4238276,32.7623561 C52.3498315,32.7623561 52.2686745,32.7993541 52.2340635,32.7217776 C52.506178,32.2980904 52.506178,33.0261163 52.8105167,32.6430076 C52.6995226,32.4532435 52.506178,32.5654311 52.3868295,32.4532435 C52.3498315,32.2229009 52.6541702,32.2980904 52.7329402,32.2229009 C52.6995226,32.2229009 52.6541702,32.2229009 52.6183656,32.1787419 L52.9227043,31.9925583 C52.9680567,31.8397922 52.8857063,31.8397922 52.8487082,31.7204437 C52.8105167,31.4125246 53.1936254,31.5688711 53.2723954,31.3743331 L52.9227043,31.2227605 L53.1160489,30.9912244 L52.3868295,30.8014603 C52.7699382,30.5341196 53.0050548,29.8383179 53.6220865,29.9170879 L53.5409295,29.9170879 C53.46574,29.8717355 53.502738,29.8013199 53.502738,29.7189694 C53.502738,29.6819714 53.5743471,29.6819714 53.6220865,29.6819714 L53.5743471,29.4516288 L53.7712721,29.4516288 L53.3511654,29.2212862 C53.6220865,29.031522 53.8070767,29.3024431 54.0756108,29.2654451 C53.7342741,29.2212862 53.502738,28.8859169 53.3881634,28.6925723 C52.6541702,28.6555743 51.8891463,27.7330104 51.3496911,28.5732238 C50.5786998,28.8859169 50.042825,29.5292053 49.3887953,30.106852 C46.3859871,33.1788823 42.0452822,33.4509969 37.9003089,33.9904521 C33.168141,33.6443415 28.440747,32.1083263 25.6694749,28.1161191 L25.6312833,27.840424 C25.0918281,27.3833193 24.6669475,26.6875176 23.7861556,26.8474445 L23.7861556,26.8474445 Z M14.9030469,26.8474445 C14.2860152,26.8844426 13.5937939,27.1863943 13.2512637,27.6506599 C12.4396939,28.8859169 12.634232,30.5711177 13.2512637,31.7992137 C16.4426425,37.334597 21.7106852,42.4534541 27.9788683,43.9858888 L27.9418703,43.7925442 C28.2844004,43.6731957 28.1280539,44.1386549 28.440747,44.1386549 L28.5111626,43.9524712 C28.5935131,43.9083123 28.5935131,43.9524712 28.6305111,43.9858888 C28.5111626,44.1792334 28.7820837,44.1386549 28.8608537,44.2210053 L28.8608537,44.0658523 C28.9348498,44.0658523 28.9802022,44.1386549 29.0470373,44.1792334 C29.0470373,44.2210053 29.0172002,44.2580034 28.9802022,44.2580034 L29.627071,44.488346 L29.553075,44.2580034 C30.3634513,44.444187 31.1332491,44.6781101 31.9734625,44.7568801 L31.937658,44.641112 C32.090424,44.722269 32.3577647,44.641112 32.3577647,44.8714546 C34.2768885,45.2175653 36.3977113,45.3333333 38.3550267,45.4479079 C38.3908312,45.4109099 38.3550267,45.2557568 38.5483712,45.3333333 C38.6187869,45.2951418 38.6593653,45.4109099 38.6187869,45.4479079 C39.0830525,45.4479079 39.3885847,45.4932603 39.8134653,45.4109099 C39.7335018,45.4109099 39.5819292,45.4479079 39.5079332,45.3739118 L40.0402275,45.3739118 L40.0068099,45.3333333 C41.0069503,45.1805673 42.1216653,45.2557568 43.0418422,45.1017972 L42.9666526,45.1805673 C43.1611907,45.1805673 43.3103763,45.1805673 43.4643359,45.1435692 C43.3509548,45.1435692 43.1611907,45.1805673 43.0418422,45.1017972 C44.0837546,44.9418703 45.0433165,44.641112 46.1222269,44.5289245 C47.503089,44.0276608 48.9651081,43.9524712 50.1955911,43.1420949 C50.6610503,43.2172845 50.9283909,42.8329823 51.3496911,42.8329823 C52.193485,42.3711036 53.0826313,42.0297669 53.8858467,41.6013058 C53.9276186,41.6013058 53.9550688,41.6394973 53.9550688,41.6836563 C54.3441449,41.4485397 54.7714125,41.0654311 55.1927127,40.947276 C55.1927127,40.9842741 55.1927127,41.0654311 55.1545212,41.0654311 L55.5794019,40.7980904 C55.4958579,40.7980904 55.4600534,40.831508 55.4266358,40.7610924 C56.0770851,40.2586352 56.6571188,39.7155996 57.3457596,39.4100674 C57.194187,39.5258354 57.5343302,39.6069924 57.2299916,39.682182 C57.3457596,39.4518394 58.033207,39.4924179 58.033207,39.0603763 C57.8112188,39.2203033 57.5808762,39.4924179 57.3457596,39.5258354 C57.3457596,39.3730694 57.6548722,39.3324909 57.4245296,39.2954928 L57.6548722,39.1093092 L57.7288683,39.1797248 L58.3470935,38.6032716 L58.2683235,38.5292755 C58.4652485,38.3395114 58.6514322,38.0638163 58.9235468,38.0268183 L58.6180146,38.4505055 L59.3066554,37.7917018 C59.1574698,37.8406347 59.0763128,38.1378124 58.8829683,37.9934007 C59.2696574,37.3751755 59.8866891,37.4085931 60.4213704,36.9884864 L59.8866891,37.5685201 L62.3416877,35.2173547 L62.5768043,35.3701208 C63.2272536,34.6444819 63.8442853,33.9152626 64.269166,33.0678882 C63.9970514,32.6811991 64.6522746,32.4532435 64.269166,32.2229009 C64.4625105,32.0701348 64.3025835,31.6870261 64.6152766,31.6058691 C64.7680427,30.8360713 64.8491997,30.4183516 64.9613873,29.6079753 C64.9983853,29.6819714 64.9160348,29.7607414 64.8873912,29.8383179 C64.7680427,29.8013199 64.8050407,29.5673968 64.8050407,29.6485538 C64.4983151,29.7607414 64.4183516,29.1842881 63.9970514,29.1508705 C63.9194749,28.8083404 63.4993682,28.8417579 63.2642516,28.5732238 C62.6138023,28.3094636 61.6542404,28.2688851 61.0395956,28.8083404 C61.1076243,29.1842881 60.809253,29.3740522 60.5789104,29.6819714 C59.9988767,30.2214266 60.1170317,31.1893429 59.384232,31.5270991 C57.7288683,33.5655715 55.6533979,35.3331227 53.502738,36.7581438 C53.46574,36.6841477 53.502738,36.6841477 53.5409295,36.6423757 C53.1530469,36.5719601 53.3881634,37.1042544 53.0384723,37.0708368 L52.9680567,36.9109099 C52.8857063,36.9884864 53.0050548,37.021904 52.9680567,37.1042544 C51.196925,38.1378124 49.2730272,38.9493822 47.3539034,39.5258354 C47.387321,39.4518394 47.503089,39.4100674 47.503089,39.3324909 C47.387321,39.5258354 47.0817888,39.2584948 47.0817888,39.5628335 L47.3539034,39.5628335 C45.2366611,40.1810587 43.0048441,40.7205139 40.7360292,40.7980904 L40.6166807,40.7205139 L41.3124824,40.5677478 C39.4303566,40.5307498 37.5888093,41.028433 35.747262,40.6011654 C29.7834176,39.9912946 24.0546897,37.7917018 20.2904381,32.9926987 C18.7484555,31.4901011 17.9010812,28.9897501 16.1311429,27.5766639 C16.0189553,26.9178602 15.2491575,27.2675512 14.9030469,26.8474445 L14.9030469,26.8474445 Z M44.0431761,26.1886408 L44.1207526,26.2674108 L43.927408,26.4977534 C43.6135215,26.3819854 43.6135215,26.9178602 43.2733783,27.0742067 C40.117804,29.6079753 35.6279135,27.6924319 32.6251053,26.4643359 C32.5141112,26.5765234 32.090424,26.4237574 32.0522325,26.6171019 L31.7407329,26.4977534 L31.937658,26.6875176 L31.5163578,26.7316765 C31.3982028,26.8032856 31.5915473,26.8474445 31.5163578,26.9178602 C31.3194327,26.8844426 31.3612047,27.2305532 31.2048582,27.0742067 C31.2860152,27.2305532 31.0150941,27.3463213 31.1666667,27.5396658 C30.9363241,27.2675512 31.0150941,27.6506599 30.899326,27.6506599 L31.0556726,27.840424 L30.899326,28.000351 L31.1332491,28.1531171 C30.7501404,28.5732238 31.6321258,28.5028082 31.5163578,28.9193345 C31.2490171,29.0685201 31.1666667,28.6078349 30.9363241,28.8083404 L31.2048582,29.031522 C31.1332491,29.0685201 30.9363241,29.3024431 31.1332491,29.1508705 L31.6321258,29.6819714 C31.4721988,30.106852 31.2490171,29.5673968 31.1332491,29.6819714 C31.5545493,29.8717355 31.7407329,30.0734344 31.9734625,30.2214266 C32.9377984,31.3385285 34.396237,31.6870261 35.7806796,32.1453243 C37.3572732,32.3756669 38.968478,32.9151222 40.6166807,32.60959 L40.6166807,32.491435 C41.5834035,32.3756669 42.5059674,31.9925583 43.3915333,31.7586352 C43.1611907,31.9925583 42.8114996,31.9925583 42.5441589,32.1787419 C43.2733783,31.9925583 44.0431761,31.5270991 44.6602078,31.0294159 C44.5444398,31.1069924 44.3880932,31.3385285 44.1947487,31.256178 C44.3880932,31.1069924 44.4668632,30.9136479 44.7306234,30.8360713 C44.9323224,31.1069924 45.3858467,30.5711177 45.5421932,30.4517692 C46.0816484,30.1844285 45.5827717,29.4182112 46.3859871,29.4516288 L46.2344145,29.2212862 C46.3155715,29.0685201 46.5017551,29.1508705 46.6581017,29.1508705 L46.5841056,29.031522 C46.3859871,28.5398062 47.0817888,28.5028082 47.1927829,28.3464617 C46.7690958,28.1531171 47.1187869,27.6506599 46.8884443,27.3045493 C46.3859871,27.3045493 46.353763,26.7316765 45.8883038,26.6171019 L45.9288823,26.5347515 C45.2700786,26.4237574 44.6602078,26.0358748 44.0431761,26.1886408 L44.0431761,26.1886408 Z M47.8074277,14.657189 C47.2381354,14.812342 46.353763,14.5378405 46.196223,15.3076383 C46.7356782,15.7313255 46.5423336,16.6204718 47.1569784,16.8102359 C47.1187869,16.8890059 47.0412103,16.8436535 46.9707947,16.8436535 C47.1569784,16.8890059 47.3539034,17.275695 47.2751334,17.4952963 C47.2381354,17.4618787 47.1569784,17.4248807 47.1569784,17.3914631 L47.1187869,17.3914631 L47.1187869,17.7327998 L47.1569784,17.7327998 C47.2751334,17.7327998 47.3539034,17.8079893 47.424319,17.8485678 C47.424319,18.228096 47.7740101,18.314027 48.0795423,18.3844426 C51.5012637,18.4990171 55.0733642,18.5777871 58.5798231,18.4584386 C61.8810025,18.314027 65.4220725,18.5407891 68.5394552,17.9261443 C68.9225639,17.7327998 69.4632126,17.7697978 69.7305532,17.4248807 L69.4918562,17.4248807 C69.3438641,17.3425302 69.0741365,17.275695 69.1135215,17.0453524 C68.9225639,16.8890059 68.3747543,17.1563465 68.1527661,16.8102359 C67.4235468,15.4675653 65.8016007,16.9260039 64.6856922,16.2743611 C64.581859,16.1562061 64.581859,15.9628616 64.7310447,15.887672 L67.4617383,15.6573294 C66.5009829,15.3864083 65.53426,15.9628616 64.4983151,15.690747 C64.269166,15.4234063 63.8824768,15.3076383 63.4993682,15.3076383 C63.2642516,15.1178742 62.8811429,15.2336422 62.5768043,15.1918703 C62.4240382,15.1584527 62.2306936,14.9245296 62.4240382,14.8505336 C58.033207,14.694187 52.506178,14.9245296 47.8074277,14.657189 L47.8074277,14.657189 Z M25.7434709,14.3850744 C23.629809,14.615417 21.4433446,14.657189 19.2521061,14.5044229 C16.5178321,14.7347655 13.6379528,14.5819994 11.0564448,15.1584527 C11.4467144,15.1918703 11.9420107,15.0438781 12.2547037,15.3076383 L12.1341618,15.4675653 C11.7522466,15.7313255 11.1722129,15.887672 10.7509127,16.1227885 L11.0564448,16.2337826 L10.446574,16.7326594 C10.2150379,16.8436535 9.63500421,16.7732379 9.68035664,17.196925 C16.4426425,18.6971356 23.9055041,18.0013339 31.0150941,17.9643359 L31.7407329,17.7697978 C32.2419966,17.5394552 32.5546897,17.0453524 32.4019236,16.4605448 C32.5546897,15.9258635 33.2803286,15.6203314 33.1311429,14.9245296 C32.6704577,14.615417 31.9734625,14.8875316 31.3982028,14.7347655 L31.3612047,14.657189 C31.1666667,14.694187 30.7799775,14.5819994 30.7799775,14.7347655 C29.0959702,14.4220725 27.3618366,14.615417 25.7434709,14.3850744 L25.7434709,14.3850744 Z M40.117804,12.8490593 C41.0069503,13.0006318 41.8889357,12.6175232 42.3508144,13.5365066 C43.8498315,13.8861977 44.96574,14.7347655 45.8883038,16.0404381 C45.9288823,16.6920809 46.4241786,17.196925 46.4241786,17.8855659 L46.6581017,18.0013339 L46.2714125,18.1946785 C46.196223,18.228096 46.3859871,18.1946785 46.353763,18.112328 L46.2344145,18.0013339 L46.1222269,18.1946785 L46.1222269,18.1612609 L44.3880932,18.1946785 L44.3880932,18.112328 C44.1577506,18.2650941 43.7340635,18.1946785 43.4643359,18.0013339 C42.73631,18.112328 42.1216653,18.2650941 41.390059,18.0789104 C41.2337124,18.1946785 41.1597164,18.112328 40.9699523,18.0789104 C40.4674951,18.0789104 40.154802,18.0419124 39.7335018,18.112328 C39.7335018,18.0789104 39.7335018,18.0419124 39.7752738,18.0013339 L39.7012777,17.9261443 C39.7012777,18.1946785 39.0018955,18.1612609 38.7345549,18.112328 L38.7787138,18.0789104 C37.1675091,18.0013339 35.2066133,18.1612609 33.3579051,18.0789104 C32.8566414,17.6552233 33.3579051,16.8436535 33.4736731,16.3077787 C34.3222409,15.0772957 35.4751474,13.7346251 37.2391182,13.6152766 C37.4730413,13.3133249 37.7368015,12.9636338 38.0411401,12.8824768 C38.1986801,13.0006318 38.1986801,12.7297108 38.3908312,12.7702892 C38.8121314,12.9302162 39.2740101,12.8490593 39.7335018,12.8490593 L39.8134653,12.078068 C40.2001545,12.078068 39.9698119,12.6175232 40.117804,12.8490593 L40.117804,12.8490593 Z" id="Fill-1"></path>
                    <polygon id="Fill-3" points="0 68 1.42860152 68 1.42860152 0 0 0"></polygon>
                </g>
                <path d="M73.7549846,40.1237714 C73.7549846,40.0223252 73.7597585,39.9101376 73.7693064,39.7895956 C73.7788543,39.6678602 73.7967565,39.5461247 73.8218197,39.4255827 C73.8468829,39.3050407 73.8803005,39.1880792 73.9220725,39.0770851 C73.9638444,38.966091 74.0175512,38.8682252 74.0796125,38.7858748 C74.2264111,38.5937237 74.3970795,38.451699 74.5916175,38.3598006 C74.7861556,38.2679023 74.989048,38.2213564 75.1991014,38.2213564 C75.6060798,38.2213564 75.8865487,38.3228026 76.0357343,38.5268885 C76.18492,38.7309744 76.2601095,39.0114434 76.2601095,39.3682954 L76.2601095,42.7912103 L76.8341758,42.7912103 L76.8341758,40.1237714 C76.8341758,40.0223252 76.8389497,39.9101376 76.8496911,39.7895956 C76.8580455,39.6678602 76.8759478,39.5461247 76.9022044,39.4255827 C76.9260741,39.3050407 76.9594917,39.1880792 77.0024572,39.0770851 C77.0430357,38.966091 77.095549,38.8682252 77.1588037,38.7858748 C77.3056024,38.5937237 77.4750772,38.451699 77.6708088,38.3598006 C77.8653468,38.2679023 78.0670458,38.2213564 78.2770991,38.2213564 C78.685271,38.2213564 78.96574,38.3228026 79.1137321,38.5268885 C79.2641112,38.7309744 79.3393008,39.0114434 79.3393008,39.3682954 L79.3393008,42.7912103 L79.9121735,42.7912103 L79.9121735,39.6654732 C79.9121735,39.4160348 79.8942713,39.1737574 79.8608537,38.9386408 C79.8250491,38.7035243 79.75344,38.4934709 79.6448329,38.3120612 C79.5374193,38.1306515 79.3822662,37.9826594 79.1805673,37.8716653 C78.9800618,37.7606712 78.7115277,37.7045774 78.3737714,37.7045774 C78.0157259,37.7045774 77.6994524,37.7821539 77.4213704,37.9385004 C77.1444819,38.0960404 76.9236872,38.3359309 76.7577928,38.6605588 C76.7064729,38.5268885 76.6432182,38.4027661 76.5704156,38.2881915 C76.497613,38.173617 76.4057147,38.0733642 76.2935271,37.9874333 C76.182533,37.9003089 76.0464757,37.8322803 75.8877422,37.7809604 C75.7278152,37.7296406 75.5344707,37.7045774 75.3041281,37.7045774 C74.9783067,37.7045774 74.6787419,37.7797669 74.4054339,37.930146 C74.1321258,38.0793316 73.920879,38.2977394 73.7740803,38.5841758 L73.7549846,38.5841758 L73.7549846,37.8382477 L73.1809183,37.8382477 L73.1809183,42.7912103 L73.7549846,42.7912103 L73.7549846,40.1237714 Z M69.6147852,40.0091969 C68.4618787,40.1619629 67.884232,40.6596462 67.884232,41.4998596 C67.884232,41.7433305 67.9283909,41.9509969 68.0179023,42.1276327 C68.1074136,42.303075 68.2291491,42.4510671 68.3819152,42.5716091 C68.5346813,42.6921511 68.711317,42.7816625 68.9118225,42.8389497 C69.1135215,42.896237 69.3223814,42.9248807 69.5384021,42.9248807 C69.9012216,42.9248807 70.2401713,42.854465 70.5516709,42.7148273 C70.8631705,42.5751896 71.1412525,42.3711036 71.3835299,42.1025695 C71.3835299,42.1920809 71.3894973,42.2768183 71.4026257,42.3567818 C71.415754,42.4367453 71.4396237,42.5095479 71.4742348,42.576383 C71.5088458,42.6432182 71.5565852,42.7005055 71.612679,42.7482449 C71.6711598,42.7959843 71.7475428,42.8246279 71.8430216,42.8389497 C71.9253721,42.8580455 72.011303,42.8675934 72.1008144,42.8675934 C72.1831648,42.8675934 72.2679023,42.854465 72.3538332,42.8294019 C72.4397641,42.8043387 72.5065993,42.7852429 72.5519517,42.7721146 L72.5519517,42.3221707 C72.3072873,42.4128756 72.1473603,42.4271974 72.0673968,42.3663297 C71.9874333,42.3054619 71.9480483,42.1634372 71.9480483,41.9402555 L71.9480483,39.244173 C71.9480483,38.9577366 71.9015024,38.7142657 71.809604,38.5173406 C71.7177057,38.3204156 71.5888093,38.1628756 71.4264954,38.0435271 C71.2641814,37.9253721 71.0732238,37.8394412 70.8536226,37.7857343 C70.6328279,37.7320275 70.3989048,37.7045774 70.1506599,37.7045774 C69.8821258,37.7045774 69.629107,37.7344145 69.3916035,37.7952822 C69.151713,37.85615 68.9404662,37.9528222 68.7590564,38.0829121 C68.5776467,38.213002 68.4296546,38.3824768 68.31508,38.5889497 C68.2005055,38.7966161 68.1324768,39.047248 68.1133811,39.3396518 L68.6981887,39.3396518 C68.7232519,39.123631 68.7745717,38.9422213 68.8545352,38.7990031 C68.9344987,38.6557849 69.035945,38.5412103 69.1612609,38.4552794 C69.2853833,38.3693485 69.429795,38.3084808 69.5956894,38.2738697 C69.7615838,38.2392586 69.944187,38.2213564 70.141112,38.2213564 C70.5874754,38.2213564 70.9049424,38.3156417 71.0923196,38.5030188 C71.2796967,38.690396 71.373982,38.9326734 71.373982,39.2250772 C71.373982,39.3145886 71.3632407,39.4112609 71.3405644,39.5162876 C71.3178882,39.6213142 71.2594075,39.6965038 71.1639287,39.7406627 C71.0684499,39.7860152 70.9455209,39.8218197 70.7963353,39.8468829 C70.6459562,39.8719461 70.5170598,39.8910418 70.4084527,39.9041702 L69.6147852,40.0091969 Z M71.373982,40.9651783 C71.373982,41.2134232 71.3226622,41.4282505 71.221216,41.6108537 C71.1197697,41.7922634 70.9849059,41.941449 70.8142376,42.059604 C70.6459562,42.1777591 70.4526116,42.2660769 70.2377843,42.3221707 C70.0193766,42.3806515 69.7961949,42.4092951 69.5682393,42.4092951 C69.4333755,42.4092951 69.3008986,42.3913929 69.1708088,42.3567818 C69.0407189,42.3221707 68.9249509,42.2660769 68.8258916,42.1932744 C68.7268324,42.1204718 68.6480623,42.0273799 68.5871946,41.9163858 C68.5263269,41.8053917 68.4976832,41.6729149 68.4976832,41.5201488 C68.4976832,41.1811991 68.6206122,40.9305673 68.8640831,40.7646728 C69.109941,40.5975849 69.4524712,40.4997192 69.8916737,40.4674951 C70.141112,40.4495928 70.3893569,40.4233361 70.6376018,40.391112 C70.8870402,40.358888 71.1328981,40.2920528 71.373982,40.1906066 L71.373982,40.9651783 Z M66.3064448,38.6319152 C66.1214546,38.326383 65.8684358,38.0960404 65.5461949,37.9385004 C65.2251474,37.7821539 64.8885847,37.7045774 64.5377001,37.7045774 C64.1617523,37.7045774 63.8347374,37.7761865 63.5578489,37.9194047 C63.2809604,38.0626229 63.0530048,38.2547739 62.8692081,38.4934709 C62.6877984,38.7321679 62.5529346,39.0114434 62.4634232,39.3301039 C62.3739118,39.6487644 62.3297529,39.9805532 62.3297529,40.3242769 C62.3297529,40.6882898 62.3715249,41.028433 62.4538753,41.3470935 C62.5362258,41.6669475 62.6687026,41.941449 62.8501123,42.1753721 C63.031522,42.4081017 63.2630581,42.5907049 63.5435271,42.7243752 C63.8239961,42.8580455 64.1653328,42.9248807 64.5663437,42.9248807 C64.7250772,42.9248807 64.8885847,42.9022044 65.0544791,42.8580455 C65.2203735,42.8138865 65.3803005,42.7494384 65.536647,42.6670879 C65.6929935,42.5847374 65.8385987,42.4809042 65.9674951,42.3567818 C66.0975849,42.2326594 66.2049986,42.0870542 66.2873491,41.9211598 L66.3064448,41.9211598 L66.3064448,42.7912103 L66.8817046,42.7912103 L66.8817046,35.907189 L66.3064448,35.907189 L66.3064448,38.6319152 Z M66.1966442,41.1322662 C66.1238416,41.3912525 66.016428,41.6144341 65.8767902,41.8018113 C65.738346,41.9891884 65.5617102,42.1371806 65.3504634,42.2469812 C65.1416035,42.3543948 64.901713,42.4092951 64.6331789,42.4092951 C64.3909014,42.4092951 64.1689132,42.3663297 63.9648273,42.2803988 C63.7595479,42.1932744 63.5817186,42.0679584 63.4289525,41.902064 C63.2773799,41.7361696 63.156838,41.5344707 63.0697136,41.2957737 C62.9837826,41.0558832 62.9408172,40.7801881 62.9408172,40.4674951 C62.9288823,40.1559955 62.9539455,39.8647852 63.0172002,39.5926706 C63.0804549,39.3217495 63.1830946,39.0854395 63.3251193,38.8813536 C63.4635636,38.6760741 63.6425864,38.5161471 63.8586071,38.3979921 C64.0758214,38.2798371 64.3336142,38.2213564 64.6331789,38.2213564 C64.8945521,38.2213564 65.1296686,38.2774502 65.3361415,38.3884443 C65.5426144,38.4994384 65.7192502,38.6498175 65.8636619,38.8371946 C66.0056866,39.0257652 66.1154872,39.2453665 66.1918703,39.4971918 C66.2682533,39.7502106 66.3064448,40.0151643 66.3064448,40.2956332 C66.3064448,40.595198 66.2694468,40.8744735 66.1966442,41.1322662 L66.1966442,41.1322662 Z M57.6441309,41.2420668 C57.6584527,41.4783769 57.7073856,41.6979781 57.7968969,41.902064 C57.8864083,42.10615 58.0117242,42.2851727 58.1704577,42.4379388 C58.3291912,42.5907049 58.5225358,42.7100534 58.7481045,42.7959843 C58.9760601,42.8819152 59.2350463,42.9248807 59.5274502,42.9248807 C59.8210475,42.9248807 60.0907751,42.8950435 60.3354395,42.8341758 C60.5801039,42.7733081 60.7937377,42.6826032 60.971567,42.5620612 C61.1493962,42.4415192 61.2902275,42.2899466 61.3916737,42.1073434 C61.4943134,41.9259337 61.5456332,41.7170739 61.5456332,41.4819573 C61.5456332,41.1621033 61.4680567,40.9138585 61.3105167,40.7360292 C61.1541702,40.5581999 60.9584386,40.4149817 60.7233221,40.3099551 C60.4870121,40.2049284 60.2316063,40.1237714 59.9582982,40.0664841 C59.6837967,40.0091969 59.4283909,39.9435552 59.1932744,39.8707526 C58.9581578,39.79795 58.7612328,39.7024712 58.6048863,39.5831227 C58.4497332,39.4649677 58.3709632,39.2954928 58.3709632,39.0723111 C58.3709632,38.8169054 58.466442,38.6116259 58.6573996,38.4552794 C58.8495507,38.2989329 59.1264392,38.2213564 59.4892586,38.2213564 C59.8532716,38.2213564 60.1540298,38.2989329 60.3927268,38.4552794 C60.6326172,38.6116259 60.7770289,38.8813536 60.8283488,39.2632687 L61.4131564,39.2632687 C61.3403538,38.7035243 61.1386549,38.3025133 60.8044791,38.0626229 C60.4691098,37.8239259 60.0346813,37.7045774 59.4988065,37.7045774 C58.9450295,37.7045774 58.5153749,37.8370542 58.2134232,38.1020079 C57.910278,38.365768 57.7587054,38.7047178 57.7587054,39.1200505 C57.7587054,39.4446785 57.8362819,39.6965038 57.9926285,39.8755265 C58.1501685,40.0533558 58.3459,40.1906066 58.5810166,40.2860854 C58.8173266,40.3815642 59.0727324,40.4531733 59.3472339,40.5009127 C59.6193485,40.5486521 59.8759478,40.6071328 60.1110643,40.673968 C60.3461808,40.7408031 60.5431059,40.8327015 60.6982589,40.9508565 C60.8557989,41.0690115 60.9333755,41.2480343 60.9333755,41.4915052 C60.9333755,41.6120472 60.9083123,41.7266217 60.8569924,41.8352289 C60.8056726,41.943836 60.7316765,42.0405083 60.6326172,42.1276327 C60.5323645,42.2123701 60.4070486,42.2815922 60.2542825,42.3317186 C60.1015164,42.384232 59.9213002,42.4092951 59.7100534,42.4092951 C59.2756248,42.4092951 58.943836,42.3221707 58.7099129,42.145535 C58.4783769,41.9700927 58.3172564,41.6693345 58.2289385,41.2420668 L57.6441309,41.2420668 Z M57.1667369,42.3412665 C57.0891603,42.3615557 57.0115838,42.377071 56.9316203,42.3901994 C56.8516568,42.4033277 56.7740803,42.4092951 56.6976973,42.4092951 C56.5771553,42.4092951 56.48287,42.3961668 56.4160348,42.3711036 C56.3480062,42.3460404 56.3002668,42.3042685 56.2668492,42.2469812 C56.2346251,42.1885004 56.2155293,42.1156978 56.2095619,42.0261865 C56.2035945,41.9366751 56.200014,41.8316484 56.200014,41.7111064 L56.200014,38.3168352 L57.1273519,38.3168352 L57.1273519,37.8382477 L56.200014,37.8382477 L56.200014,36.4621595 L55.6271413,36.4621595 L55.6271413,37.8382477 L54.9289525,37.8382477 L54.9289525,38.3168352 L55.6271413,38.3168352 L55.6271413,41.9402555 C55.6271413,42.3102359 55.7023308,42.5668352 55.8515164,42.7100534 C56.000702,42.8532716 56.2191098,42.9248807 56.5067397,42.9248807 C56.6463774,42.9248807 56.7740803,42.9093653 56.8886549,42.8771413 C57.0032294,42.8449172 57.0951278,42.8234344 57.1667369,42.8103061 L57.1667369,42.3412665 Z M53.8583965,41.0893008 C53.7939483,41.3375456 53.6960826,41.5619208 53.5612188,41.7588458 C53.4275484,41.9557709 53.2544931,42.1133109 53.0408593,42.2326594 C52.826032,42.3508144 52.5706262,42.4092951 52.2710615,42.4092951 C51.99656,42.4092951 51.7542825,42.3579753 51.5442291,42.2565291 C51.3341758,42.1538894 51.15754,42.0106712 51.0190958,41.825681 C50.8782645,41.6406908 50.7708509,41.4187026 50.6980483,41.1609099 C50.6252457,40.9031171 50.5882477,40.6202612 50.5882477,40.314729 C50.5882477,40.0473884 50.6216653,39.7872086 50.6837265,39.5353833 C50.7469812,39.283558 50.8460404,39.0615698 50.9797108,38.8670317 C51.1133811,38.6713002 51.2864364,38.5161471 51.5012637,38.3979921 C51.716091,38.2798371 51.9703033,38.2213564 52.2710615,38.2213564 C52.5765937,38.2213564 52.8343864,38.2750632 53.0456332,38.3836703 C53.2568801,38.4922775 53.4275484,38.6402696 53.5612188,38.8288402 C53.6960826,39.0162174 53.7939483,39.2382056 53.8583965,39.4924179 C53.9216512,39.7478236 53.9538753,40.0223252 53.9538753,40.314729 C53.9538753,40.5820696 53.9216512,40.8410559 53.8583965,41.0893008 L53.8583965,41.0893008 Z M53.2127211,42.738697 C53.4955771,42.6145746 53.7378545,42.4379388 53.9395535,42.2087897 C54.140059,41.9784471 54.2940185,41.705139 54.4026257,41.3864785 C54.5112328,41.0666245 54.5649396,40.710966 54.5649396,40.314729 C54.5649396,39.9519096 54.5183937,39.6105729 54.4264954,39.2919124 C54.334597,38.9732519 54.1925723,38.6975569 54.0028082,38.4648273 C53.8106571,38.2320977 53.5707666,38.048301 53.2843302,37.9098568 C52.9967004,37.772606 52.6601376,37.7045774 52.2710615,37.7045774 C51.8891463,37.7045774 51.553777,37.772606 51.2685341,37.9098568 C50.9797108,38.048301 50.7410138,38.2344847 50.5500562,38.4696012 C50.3579051,38.7047178 50.2146869,38.9816063 50.1192081,39.2966863 C50.0249228,39.6117664 49.9759899,39.9519096 49.9759899,40.314729 C49.9759899,40.7491575 50.0368576,41.1274923 50.1573996,41.4521202 C50.2779416,41.7779416 50.443836,42.0488627 50.6503089,42.2660769 C50.8567818,42.4820977 51.0990593,42.6444117 51.3771413,42.7530188 C51.6540298,42.8616259 51.9512075,42.9189132 52.2710615,42.9248807 C52.6147852,42.9248807 52.9298652,42.8628194 53.2127211,42.738697 L53.2127211,42.738697 Z M45.3583965,39.1964336 L45.3583965,36.4621595 L47.0412103,36.4621595 C47.6582421,36.4621595 48.1105729,36.5731536 48.3934288,36.7963353 C48.6774782,37.019517 48.8195029,37.3477254 48.8195029,37.7809604 C48.8195029,38.0745577 48.772957,38.3120612 48.6810587,38.4934709 C48.5879669,38.6748807 48.457877,38.8180988 48.2884021,38.924319 C48.1201208,39.0293457 47.9148413,39.1009548 47.6713704,39.1391463 C47.429093,39.1773378 47.1557849,39.1964336 46.8490593,39.1964336 L45.3583965,39.1964336 Z M45.3583965,42.7912103 L45.3583965,39.7502106 L46.8299635,39.7502106 C47.1498175,39.7502106 47.466091,39.721567 47.781171,39.6654732 C48.0974445,39.6081859 48.379107,39.5067397 48.6273519,39.3635215 C48.8767902,39.2203033 49.0796827,39.0245717 49.2348357,38.7751334 C49.3911823,38.5268885 49.4687588,38.2118085 49.4687588,37.8286998 C49.4687588,37.5744875 49.4353412,37.3310166 49.368506,37.098287 C49.3028644,36.8643639 49.1835159,36.6590845 49.0152345,36.4812553 C48.8469531,36.303426 48.6166105,36.1614013 48.3265937,36.0599551 C48.0365768,35.9585088 47.6677899,35.907189 47.2226201,35.907189 L44.7079472,35.907189 L44.7079472,42.7912103 L45.3583965,42.7912103 L45.3583965,42.7912103 Z" id="Fill-5"></path>
                <g id="Group-9" transform="translate(0, 12.7775)">
                    <path d="M80.3048301,18.0908453 C80.2284471,18.109941 80.1496771,18.1254563 80.070907,18.1385847 C79.9909436,18.151713 79.913367,18.1576804 79.836984,18.1576804 C79.714055,18.1576804 79.6209632,18.1445521 79.5541281,18.1194889 C79.4872929,18.0944257 79.4371665,18.0526537 79.4061359,17.9953665 C79.3739118,17.9380792 79.3548161,17.8652766 79.3488486,17.7745717 C79.3416877,17.6850604 79.3393008,17.5800337 79.3393008,17.4594917 L79.3393008,14.0652204 L80.2666386,14.0652204 L80.2666386,13.5878265 L79.3393008,13.5878265 L79.3393008,12.2105448 L78.7652345,12.2105448 L78.7652345,13.5878265 L78.0670458,13.5878265 L78.0670458,14.0652204 L78.7652345,14.0652204 L78.7652345,17.6886408 C78.7652345,18.0586212 78.8392306,18.3152204 78.9908031,18.4584386 C79.1399888,18.6028503 79.3583965,18.6744594 79.6448329,18.6744594 C79.7844707,18.6744594 79.913367,18.6589441 80.0279416,18.62672 C80.1425161,18.5933024 80.2344145,18.5718197 80.3048301,18.5586914 L80.3048301,18.0908453 Z M76.738697,14.381494 C76.5537068,14.0747683 76.2994945,13.8444257 75.9784471,13.6880792 C75.6562061,13.5317327 75.3196434,13.4541561 74.9699523,13.4541561 C74.592811,13.4541561 74.2669896,13.5257652 73.9901011,13.6689834 C73.7120191,13.8122016 73.48287,14.0031592 73.3014603,14.2418562 C73.1200505,14.4805532 72.9839933,14.7598287 72.8956754,15.0784892 C72.8049705,15.3983432 72.7608116,15.7289385 72.7608116,16.0726622 C72.7608116,16.4366751 72.8013901,16.7768183 72.884934,17.0966723 C72.9672845,17.4153328 73.1009548,17.6898343 73.2823645,17.9237574 C73.4637742,18.1564869 73.6941168,18.3390901 73.9757793,18.4727605 C74.2550548,18.6064308 74.5963915,18.6744594 74.9985959,18.6744594 C75.1573294,18.6744594 75.3196434,18.6517832 75.4867313,18.6064308 C75.6514322,18.5634653 75.8125527,18.4978236 75.9688992,18.4154732 C76.1240522,18.3331227 76.2684639,18.2292895 76.3997473,18.1051671 C76.5298371,17.9810447 76.6372508,17.8354395 76.7196012,17.6695451 L76.738697,17.6695451 L76.738697,18.5395956 L77.3127633,18.5395956 L77.3127633,11.6555743 L76.738697,11.6555743 L76.738697,14.381494 Z M76.6288964,16.881845 C76.5549003,17.1396377 76.4486801,17.3628194 76.3078489,17.5501966 C76.1682112,17.7375737 75.9927689,17.8867593 75.7827155,17.9953665 C75.5714687,18.1039736 75.3327717,18.1576804 75.0654311,18.1576804 C74.8219601,18.1576804 74.5987784,18.114715 74.395886,18.028784 C74.1918001,17.9428531 74.0139708,17.8175372 73.8600112,17.6516428 C73.7072452,17.4845549 73.5878967,17.2828559 73.5019657,17.0441589 C73.4160348,16.8054619 73.3730694,16.5285734 73.3730694,16.2170739 C73.359941,15.9043808 73.3850042,15.6131705 73.4494524,15.3422494 C73.5127071,15.0713283 73.6153468,14.8338248 73.7549846,14.6297388 C73.8946223,14.4256529 74.073645,14.2645324 74.2908593,14.1463774 C74.5068801,14.0282224 74.7658663,13.9697416 75.0654311,13.9697416 C75.3256108,13.9697416 75.5595338,14.0258354 75.7683937,14.1368295 C75.9748666,14.2490171 76.1503089,14.3993962 76.2935271,14.5867734 C76.4379388,14.7741505 76.5477394,14.9937518 76.6241224,15.2467706 C76.7005055,15.4985959 76.738697,15.7635496 76.738697,16.045212 C76.738697,16.3447767 76.701699,16.6228587 76.6288964,16.881845 L76.6288964,16.881845 Z M69.2710615,15.7575821 C68.1169615,15.9103482 67.5405083,16.4080315 67.5405083,17.2494384 C67.5405083,17.4917158 67.5846672,17.7005757 67.6741786,17.876018 C67.76369,18.0514603 67.884232,18.1994524 68.0381915,18.3199944 C68.1909576,18.4405364 68.3675934,18.5312412 68.5680988,18.5885285 C68.7697978,18.6458158 68.9774642,18.6744594 69.1946785,18.6744594 C69.5574979,18.6744594 69.8964476,18.6040438 70.2079472,18.4632126 C70.5206403,18.3235748 70.7975288,18.1194889 71.0398062,17.8521483 C71.0398062,17.9416596 71.0457737,18.0252036 71.058902,18.1051671 C71.0708368,18.1851306 71.0947065,18.2579332 71.1305111,18.3247683 C71.1651222,18.3916035 71.2116681,18.4488908 71.2689553,18.4966302 C71.3262426,18.5443696 71.4038192,18.5742067 71.499298,18.5885285 C71.5816484,18.6064308 71.6675793,18.6159787 71.7570907,18.6159787 C71.8394412,18.6159787 71.9241786,18.6040438 72.0101095,18.5789806 C72.0960404,18.552724 72.1604886,18.5336282 72.2058411,18.5204999 L72.2058411,18.0717495 C71.9635636,18.1612609 71.8024431,18.1755827 71.7236731,18.114715 C71.6437096,18.0538472 71.6043246,17.913016 71.6043246,17.6886408 L71.6043246,14.9925583 C71.6043246,14.7061219 71.5577787,14.4638444 71.4658804,14.2657259 C71.3727885,14.0688009 71.2450857,13.9112609 71.0827717,13.7931059 C70.9204577,13.6749509 70.7295001,13.5890199 70.5098989,13.5353131 C70.2891042,13.4804128 70.0551811,13.4541561 69.8069363,13.4541561 C69.5384021,13.4541561 69.2853833,13.4827998 69.0466863,13.544861 C68.8067958,13.6057287 68.5967425,13.7012075 68.4153328,13.8312974 C68.2339231,13.9613873 68.0859309,14.1308621 67.9713564,14.337335 C67.8555883,14.5450014 67.7887532,14.7956332 67.7696574,15.0880371 L68.3532716,15.0880371 C68.3783347,14.8720163 68.4308481,14.6918001 68.5108116,14.5485819 C68.5895816,14.4053637 68.6922213,14.2895956 68.8175372,14.2036647 C68.9416596,14.1177338 69.0860713,14.056866 69.2519657,14.022255 C69.4166667,13.9876439 69.5992699,13.9697416 69.7973884,13.9697416 C70.2425583,13.9697416 70.5612188,14.064027 70.7485959,14.2514041 C70.935973,14.4399747 71.0302584,14.6810587 71.0302584,14.9734625 C71.0302584,15.0629739 71.019517,15.1596462 70.9968408,15.2658663 C70.9741646,15.370893 70.9156838,15.4460826 70.820205,15.4902415 C70.7247262,15.5344004 70.6017972,15.570205 70.4514181,15.5952682 C70.301039,15.6203314 70.1721427,15.6394271 70.064729,15.6525555 L69.2710615,15.7575821 Z M71.0302584,16.7135636 C71.0302584,16.963002 70.9789385,17.1778293 70.8774923,17.359239 C70.7748526,17.5406487 70.6399888,17.6898343 70.4705139,17.8079893 C70.301039,17.9273378 70.108888,18.0144622 69.8928672,18.0717495 C69.6744594,18.1290368 69.4524712,18.1576804 69.2233221,18.1576804 C69.0896518,18.1576804 68.957175,18.1397782 68.8270851,18.1051671 C68.6958017,18.070556 68.5800337,18.0156557 68.4821679,17.9428531 C68.3831087,17.8700505 68.3043387,17.7769587 68.2434709,17.6647711 C68.1826032,17.553777 68.1527661,17.4213002 68.1527661,17.2685341 C68.1527661,16.9307779 68.2745015,16.6789525 68.5203594,16.5130581 C68.7662174,16.3471637 69.1087475,16.249298 69.54795,16.2170739 C69.7973884,16.1979781 70.0456332,16.1729149 70.2938781,16.1406908 C70.542123,16.1084667 70.7879809,16.0404381 71.0302584,15.9389919 L71.0302584,16.7135636 Z M67.0619208,18.0908453 C66.9855378,18.109941 66.9079612,18.1254563 66.8279978,18.1385847 C66.7480343,18.151713 66.6704577,18.1576804 66.5940747,18.1576804 C66.4735327,18.1576804 66.3792474,18.1445521 66.3124122,18.1194889 C66.2455771,18.0944257 66.1942572,18.0526537 66.1632266,17.9953665 C66.132196,17.9380792 66.1119068,17.8652766 66.1059393,17.7745717 C66.0987784,17.6850604 66.0963915,17.5800337 66.0963915,17.4594917 L66.0963915,14.0652204 L67.0237293,14.0652204 L67.0237293,13.5878265 L66.0963915,13.5878265 L66.0963915,12.2105448 L65.5235187,12.2105448 L65.5235187,13.5878265 L64.82533,13.5878265 L64.82533,14.0652204 L65.5235187,14.0652204 L65.5235187,17.6886408 C65.5235187,18.0586212 65.5975147,18.3152204 65.7478939,18.4584386 C65.8970795,18.6028503 66.1154872,18.6744594 66.4031171,18.6744594 C66.5427548,18.6744594 66.6704577,18.6589441 66.7850323,18.62672 C66.8996069,18.5933024 66.9915052,18.5718197 67.0619208,18.5586914 L67.0619208,18.0908453 Z M60.4846251,16.9916456 C60.4977534,17.2267621 60.5478798,17.4463634 60.6373912,17.6516428 C60.7269026,17.8545352 60.8498315,18.033558 61.0097585,18.1863241 C61.1696855,18.3390901 61.36303,18.4584386 61.5885987,18.5443696 C61.8141674,18.631494 62.0743471,18.6744594 62.3679444,18.6744594 C62.6603482,18.6744594 62.9300758,18.6446223 63.1759337,18.5837546 C63.4205981,18.5216933 63.631845,18.4309885 63.8120612,18.3104465 C63.9898905,18.1899045 64.1295282,18.0383319 64.2321679,17.8569222 C64.3336142,17.6755125 64.384934,17.4654591 64.384934,17.2303426 C64.384934,16.9116821 64.306164,16.6622438 64.151011,16.4844145 C63.9946644,16.3065852 63.7989329,16.1645605 63.5638163,16.0595338 C63.3263128,15.9533137 63.0721005,15.8721567 62.7987925,15.8148694 C62.5242909,15.7575821 62.2688851,15.6919405 62.0337686,15.6191379 C61.7974586,15.5463353 61.6005336,15.4508565 61.4453805,15.3327015 C61.289034,15.2145465 61.210264,15.0438781 61.210264,14.8206964 C61.210264,14.5664841 61.3069363,14.3600112 61.4978939,14.2036647 C61.6888514,14.0473182 61.9669334,13.9697416 62.3297529,13.9697416 C62.6925723,13.9697416 62.994524,14.0473182 63.233221,14.2036647 C63.471918,14.3600112 63.6163297,14.6297388 63.668843,15.011654 L64.2512637,15.011654 C64.1808481,14.4519096 63.9791491,14.0508986 63.6449733,13.8122016 C63.309604,13.5735046 62.873982,13.4541561 62.3393008,13.4541561 C61.7843302,13.4541561 61.3558691,13.586633 61.0539174,13.8503931 C60.7495788,14.1141533 60.5991997,14.4542965 60.5991997,14.8684358 C60.5991997,15.1930637 60.6767762,15.4460826 60.8331227,15.6239118 C60.9894693,15.8017411 61.1852008,15.9389919 61.4215108,16.0356641 C61.6566274,16.1311429 61.9120331,16.202752 62.1865347,16.2504914 C62.4598427,16.2982308 62.7152485,16.3555181 62.9515586,16.4223533 C63.1866751,16.4891884 63.3824066,16.5810868 63.5387532,16.6992418 C63.6950997,16.8185903 63.7738697,16.997613 63.7738697,17.2398905 C63.7738697,17.3604325 63.7488065,17.475007 63.6974867,17.5836142 C63.6461668,17.6922213 63.5697838,17.7900871 63.471918,17.876018 C63.3728587,17.9619489 63.2475428,18.0299775 63.0947767,18.0812974 C62.9420107,18.1326172 62.7594075,18.1576804 62.5493541,18.1576804 C62.1161191,18.1576804 61.7819433,18.070556 61.5504072,17.8951137 C61.3176776,17.7196714 61.1577506,17.4177197 61.0670458,16.9916456 L60.4846251,16.9916456 Z M60.0060376,18.0908453 C59.9296546,18.109941 59.8508846,18.1254563 59.7721146,18.1385847 C59.6921511,18.151713 59.6145746,18.1576804 59.5381915,18.1576804 C59.4152626,18.1576804 59.3221707,18.1445521 59.2553356,18.1194889 C59.1885004,18.0944257 59.1395675,18.0526537 59.1073434,17.9953665 C59.0751193,17.9380792 59.0560236,17.8652766 59.0500562,17.7745717 C59.0428953,17.6850604 59.0405083,17.5800337 59.0405083,17.4594917 L59.0405083,14.0652204 L59.9678461,14.0652204 L59.9678461,13.5878265 L59.0405083,13.5878265 L59.0405083,12.2105448 L58.466442,12.2105448 L58.466442,13.5878265 L57.7694468,13.5878265 L57.7694468,14.0652204 L58.466442,14.0652204 L58.466442,17.6886408 C58.466442,18.0586212 58.5416316,18.3152204 58.6920107,18.4584386 C58.8411963,18.6028503 59.059604,18.6744594 59.3460404,18.6744594 C59.4868717,18.6744594 59.6145746,18.6589441 59.7291491,18.62672 C59.8437237,18.5933024 59.935622,18.5718197 60.0060376,18.5586914 L60.0060376,18.0908453 Z M53.2556866,17.7471216 C53.4406768,18.0526537 53.6948891,18.2829963 54.0159365,18.4393429 C54.3381775,18.5968829 54.6747402,18.6744594 55.0244313,18.6744594 C55.4015726,18.6744594 55.727394,18.6028503 56.0042825,18.4584386 C56.2823645,18.3152204 56.5115136,18.1242628 56.6929233,17.8855659 C56.8743331,17.6456754 57.0103903,17.3675934 57.0999017,17.0489329 C57.1894131,16.7290789 57.233572,16.3984836 57.233572,16.0547599 C57.233572,15.690747 57.1918001,15.3506038 57.1094496,15.0307498 C57.0270991,14.7120893 56.8946223,14.4375878 56.7120191,14.2036647 C56.5306094,13.9709351 56.3002668,13.7883319 56.0186043,13.6546616 C55.7381354,13.5197978 55.3979921,13.4541561 54.9957877,13.4541561 C54.8370542,13.4541561 54.6747402,13.4756389 54.5088458,13.5197978 C54.3417579,13.5639568 54.1818309,13.6295984 54.0254844,13.7119489 C53.8691379,13.7942994 53.7259197,13.899326 53.5958298,14.0270289 C53.4645465,14.1547318 53.3571328,14.2991435 53.2747824,14.457877 L53.2556866,14.457877 L53.2556866,13.5878265 L52.6828138,13.5878265 L52.6828138,20.4909436 L53.2556866,20.4909436 L53.2556866,17.7471216 Z M53.3654872,15.2467706 C53.4382898,14.9877843 53.5457035,14.7646026 53.6865347,14.5772255 C53.8261724,14.3898484 54.0016147,14.2418562 54.2116681,14.1320556 C54.4229149,14.0234485 54.6616119,13.9697416 54.9289525,13.9697416 C55.17123,13.9697416 55.3944117,14.0127071 55.5984976,14.098638 C55.8025835,14.1845689 55.9804128,14.3110783 56.1343724,14.4769728 C56.2871384,14.6428672 56.4064869,14.8445661 56.4924179,15.0844566 C56.5783488,15.3231536 56.6213142,15.5988486 56.6213142,15.9103482 C56.6344426,16.2230413 56.6081859,16.5142516 56.5449312,16.7851727 C56.4816765,17.0572873 56.3790368,17.2935973 56.239399,17.4976832 C56.0985678,17.7017692 55.9183516,17.8628896 55.6987504,17.9810447 C55.4791491,18.0991997 55.2225498,18.1576804 54.9289525,18.1576804 C54.6675793,18.1576804 54.4336563,18.1015866 54.2259899,17.9905925 C54.019517,17.8795984 53.8440747,17.7292193 53.7008565,17.5406487 C53.5576383,17.3532716 53.4478377,17.1336703 53.3702612,16.881845 C53.2938781,16.6288262 53.2556866,16.3638725 53.2556866,16.0834035 C53.2556866,15.7826453 53.2926846,15.5045633 53.3654872,15.2467706 L53.3654872,15.2467706 Z M50.8460404,16.283909 C50.8460404,16.5572171 50.8114294,16.8090424 50.7410138,17.039385 C50.6705981,17.2685341 50.5727324,17.4654591 50.4450295,17.6313536 C50.3173266,17.7984414 50.1597866,17.9273378 49.971216,18.0192362 C49.7838388,18.1111345 49.5713985,18.1576804 49.3362819,18.1576804 C48.8827577,18.1576804 48.5581297,18.0442994 48.3600112,17.8187307 C48.1630862,17.5919685 48.064027,17.2649537 48.064027,16.837686 L48.064027,13.5878265 L47.4911542,13.5878265 L47.4911542,16.8472339 C47.4911542,17.1098006 47.5197978,17.3496911 47.581859,17.5692923 C47.6427268,17.7900871 47.7405925,17.9822381 47.8778433,18.1481325 C48.0150941,18.314027 48.1941168,18.4429233 48.418492,18.5348217 C48.6416737,18.6279135 48.9185622,18.6744594 49.250351,18.6744594 C49.4663718,18.6744594 49.6573294,18.6470093 49.8232238,18.592109 C49.9891182,18.5395956 50.1347234,18.471567 50.2588458,18.3916035 C50.3829683,18.31164 50.4927689,18.2245156 50.5882477,18.1290368 C50.6837265,18.033558 50.7696574,17.9416596 50.8460404,17.8521483 L50.8460404,18.5395956 L51.4201067,18.5395956 L51.4201067,13.5878265 L50.8460404,13.5878265 L50.8460404,16.283909 Z M43.8474445,15.7575821 C42.6945381,15.9103482 42.1168913,16.4080315 42.1168913,17.2494384 C42.1168913,17.4917158 42.1610503,17.7005757 42.2505616,17.876018 C42.340073,18.0514603 42.4618085,18.1994524 42.6145746,18.3199944 C42.7673406,18.4405364 42.9439764,18.5312412 43.1444819,18.5885285 C43.3461808,18.6458158 43.5550407,18.6744594 43.7710615,18.6744594 C44.1338809,18.6744594 44.4728307,18.6040438 44.7843302,18.4632126 C45.0970233,18.3235748 45.3739118,18.1194889 45.6161893,17.8521483 C45.6161893,17.9416596 45.6221567,18.0252036 45.635285,18.1051671 C45.6484134,18.1851306 45.6722831,18.2579332 45.7068941,18.3247683 C45.7415052,18.3916035 45.7880511,18.4488908 45.8465319,18.4966302 C45.9038192,18.5443696 45.9802022,18.5742067 46.075681,18.5885285 C46.1580315,18.6064308 46.2439624,18.6159787 46.3334737,18.6159787 C46.4158242,18.6159787 46.5005616,18.6040438 46.5864926,18.5789806 C46.6724235,18.552724 46.7392586,18.5336282 46.7834176,18.5204999 L46.7834176,18.0717495 C46.5399466,18.1612609 46.3800197,18.1755827 46.3000562,18.114715 C46.2200927,18.0538472 46.1807077,17.913016 46.1807077,17.6886408 L46.1807077,14.9925583 C46.1807077,14.7061219 46.1341618,14.4638444 46.0422634,14.2657259 C45.9503651,14.0688009 45.8226622,13.9112609 45.6591547,13.7931059 C45.4968408,13.6749509 45.3058832,13.5890199 45.0862819,13.5353131 C44.8654872,13.4804128 44.6315642,13.4541561 44.3833193,13.4541561 C44.1159787,13.4541561 43.8617664,13.4827998 43.6230694,13.544861 C43.3843724,13.6057287 43.1731255,13.7012075 42.9917158,13.8312974 C42.8103061,13.9613873 42.662314,14.1308621 42.5477394,14.337335 C42.4319714,14.5450014 42.3651362,14.7956332 42.3460404,15.0880371 L42.9296546,15.0880371 C42.9547178,14.8720163 43.0072311,14.6918001 43.0871946,14.5485819 C43.1671581,14.4053637 43.2697978,14.2895956 43.3939202,14.2036647 C43.5180427,14.1177338 43.6624544,14.056866 43.8283488,14.022255 C43.9942432,13.9876439 44.1756529,13.9697416 44.3737714,13.9697416 C44.8189413,13.9697416 45.1376018,14.064027 45.3249789,14.2514041 C45.5123561,14.4399747 45.6066414,14.6810587 45.6066414,14.9734625 C45.6066414,15.0629739 45.5959,15.1596462 45.5732238,15.2658663 C45.5505476,15.370893 45.4920668,15.4460826 45.396588,15.4902415 C45.3011092,15.5344004 45.1781803,15.570205 45.0289947,15.5952682 C44.8786156,15.6203314 44.7497192,15.6394271 44.641112,15.6525555 L43.8474445,15.7575821 Z M45.6066414,16.7135636 C45.6066414,16.963002 45.5553215,17.1778293 45.4538753,17.359239 C45.3524291,17.5406487 45.2163718,17.6898343 45.0480904,17.8079893 C44.8786156,17.9273378 44.685271,18.0144622 44.4692502,18.0717495 C44.2532294,18.1290368 44.0288543,18.1576804 43.7997051,18.1576804 C43.6660348,18.1576804 43.533558,18.1397782 43.4034681,18.1051671 C43.2721848,18.070556 43.1576102,18.0156557 43.058551,17.9428531 C42.9594917,17.8700505 42.8807217,17.7769587 42.819854,17.6647711 C42.7589862,17.553777 42.7291491,17.4213002 42.7291491,17.2685341 C42.7291491,16.9307779 42.8520781,16.6789525 43.0967425,16.5130581 C43.3426004,16.3471637 43.6851306,16.249298 44.1255265,16.2170739 C44.3737714,16.1979781 44.6220163,16.1729149 44.8702612,16.1406908 C45.1196995,16.1084667 45.3643639,16.0404381 45.6066414,15.9389919 L45.6066414,16.7135636 Z M37.814378,18.5395956 L37.814378,15.8721567 C37.814378,15.7002949 37.8203454,15.5415614 37.8334737,15.3947627 C37.8466021,15.2479641 37.8812131,15.0940045 37.9385004,14.935271 C37.9826594,14.8075681 38.0471076,14.6870261 38.129458,14.5724516 C38.213002,14.457877 38.3132547,14.3552373 38.4314097,14.2657259 C38.5495647,14.1762145 38.6808481,14.1046054 38.8276467,14.0508986 C38.9744454,13.9971918 39.1379528,13.9697416 39.3157821,13.9697416 C39.7740803,13.9697416 40.1034822,14.0807357 40.3004072,14.3051109 C40.4973322,14.5282926 40.5963915,14.8624684 40.5963915,15.3088318 L40.5963915,18.5395956 L41.1704577,18.5395956 L41.1704577,15.2992839 C41.1704577,15.0940045 41.1597164,14.898273 41.1370402,14.7108958 C41.1143639,14.5235187 41.0427548,14.3385285 40.9222129,14.1606992 C40.7431901,13.899326 40.5235889,13.7167228 40.2622157,13.6116962 C40.0008425,13.5066695 39.716793,13.4541561 39.4112609,13.4541561 C39.0675372,13.4541561 38.7715529,13.5293457 38.5268885,13.6833053 C38.2822241,13.8360713 38.0435271,14.0329963 37.814378,14.2764673 L37.814378,11.6555743 L37.2403117,11.6555743 L37.2403117,18.5395956 L37.814378,18.5395956 Z M32.4031171,16.9916456 C32.4162454,17.2267621 32.4663718,17.4463634 32.5558832,17.6516428 C32.6453946,17.8545352 32.769517,18.033558 32.9282505,18.1863241 C33.086984,18.3390901 33.281522,18.4584386 33.5070907,18.5443696 C33.7326594,18.631494 33.9940326,18.6744594 34.2864364,18.6744594 C34.5788402,18.6744594 34.8497613,18.6446223 35.0944257,18.5837546 C35.3390901,18.5216933 35.5515305,18.4309885 35.7305532,18.3104465 C35.9083825,18.1899045 36.0492137,18.0383319 36.1506599,17.8569222 C36.2521061,17.6755125 36.303426,17.4654591 36.303426,17.2303426 C36.303426,16.9116821 36.2258495,16.6622438 36.0695029,16.4844145 C35.9131564,16.3065852 35.7174249,16.1645605 35.4811149,16.0595338 C35.2459983,15.9533137 34.9905925,15.8721567 34.716091,15.8148694 C34.4427829,15.7575821 34.1873771,15.6919405 33.9522606,15.6191379 C33.7159506,15.5463353 33.520219,15.4508565 33.3638725,15.3327015 C33.207526,15.2145465 33.1299495,15.0438781 33.1299495,14.8206964 C33.1299495,14.5664841 33.2254283,14.3600112 33.4163858,14.2036647 C33.6073434,14.0473182 33.884232,13.9697416 34.2482449,13.9697416 C34.6110643,13.9697416 34.913016,14.0473182 35.151713,14.2036647 C35.39041,14.3600112 35.5348217,14.6297388 35.5861415,15.011654 L36.1697557,15.011654 C36.0993401,14.4519096 35.8976411,14.0508986 35.5622718,13.8122016 C35.228096,13.5735046 34.7936675,13.4541561 34.2577928,13.4541561 C33.7028222,13.4541561 33.2743611,13.586633 32.971216,13.8503931 C32.6692643,14.1141533 32.5176917,14.4542965 32.5176917,14.8684358 C32.5176917,15.1930637 32.5952682,15.4460826 32.7516147,15.6239118 C32.9079612,15.8017411 33.1048863,15.9389919 33.3400028,16.0356641 C33.5751193,16.1311429 33.8305251,16.202752 34.1050267,16.2504914 C34.3783347,16.2982308 34.6337405,16.3555181 34.8700505,16.4223533 C35.1051671,16.4891884 35.3008986,16.5810868 35.4572452,16.6992418 C35.6147852,16.8185903 35.6923617,16.997613 35.6923617,17.2398905 C35.6923617,17.3604325 35.666105,17.475007 35.6159787,17.5836142 C35.5634653,17.6922213 35.4894693,17.7900871 35.39041,17.876018 C35.2913507,17.9619489 35.1660348,18.0299775 35.0132687,18.0812974 C34.8605027,18.1326172 34.6778995,18.1576804 34.4678461,18.1576804 C34.0346111,18.1576804 33.7016288,18.070556 33.4688992,17.8951137 C33.2361696,17.7196714 33.0750491,17.4177197 32.9855378,16.9916456 L32.4031171,16.9916456 Z M31.7240242,16.1979781 C31.7299916,15.3052513 31.539034,14.6249649 31.1499579,14.1559253 C30.7620753,13.6880792 30.2262005,13.4541561 29.5435271,13.4541561 C29.1866751,13.4541561 28.8692081,13.5221848 28.5875456,13.6594356 C28.3070767,13.7966863 28.0707666,13.9840635 27.8750351,14.2227605 C27.6804971,14.4626509 27.5313114,14.7407329 27.4262848,15.0593934 C27.3212581,15.3792474 27.2687447,15.7193906 27.2687447,16.0834035 C27.2687447,16.446223 27.3129037,16.7851727 27.4024151,17.1014462 C27.4919264,17.4165263 27.6279837,17.6898343 27.8129739,17.9237574 C27.9979641,18.1564869 28.2342741,18.3390901 28.5207105,18.4727605 C28.8071469,18.6064308 29.1484836,18.6744594 29.5435271,18.6744594 C29.8562202,18.6744594 30.1307217,18.6326874 30.3658382,18.5491435 C30.6021483,18.466793 30.8062342,18.3498315 30.978096,18.2006459 C31.1499579,18.0514603 31.2931761,17.876018 31.4077506,17.6755125 C31.5235187,17.4738135 31.615417,17.2554058 31.6858326,17.0202892 L31.0449312,17.0202892 C30.9554198,17.3831087 30.7775906,17.6647711 30.5090564,17.8616962 C30.2417158,18.0586212 29.9206684,18.1576804 29.5435271,18.1576804 C29.270219,18.1576804 29.0279416,18.1051671 28.8166947,18.0001404 C28.6066414,17.8951137 28.4335861,17.7542825 28.2963353,17.5788402 C28.1590845,17.4033979 28.0564448,17.196925 27.9848357,16.958228 C27.9144201,16.7183375 27.879809,16.4653187 27.879809,16.1979781 L31.7240242,16.1979781 Z M27.879809,15.7193906 C27.9048722,15.4842741 27.960966,15.2610924 28.0433165,15.0498455 C28.1256669,14.8397922 28.2354676,14.654802 28.3727183,14.4960685 C28.5099691,14.3361415 28.67467,14.2084386 28.8704016,14.1129598 C29.0649396,14.017481 29.2893148,13.9697416 29.5435271,13.9697416 C29.7989329,13.9697416 30.025695,14.0162876 30.2226201,14.1081859 C30.4195451,14.2000842 30.5854395,14.3242067 30.7155293,14.4805532 C30.8456192,14.6380932 30.9446785,14.8218899 31.0115136,15.0355237 C31.0783488,15.250351 31.1117664,15.4771132 31.1117664,15.7193906 L27.879809,15.7193906 Z M25.7005055,14.381494 C25.5155153,14.0747683 25.261303,13.8444257 24.9402555,13.6880792 C24.6192081,13.5317327 24.2814518,13.4541561 23.9317607,13.4541561 C23.5546195,13.4541561 23.2287981,13.5257652 22.9519096,13.6689834 C22.6738276,13.8122016 22.4446785,14.0031592 22.2632687,14.2418562 C22.081859,14.4805532 21.9458017,14.7598287 21.8562904,15.0784892 C21.766779,15.3983432 21.7226201,15.7289385 21.7226201,16.0726622 C21.7226201,16.4366751 21.764392,16.7768183 21.8467425,17.0966723 C21.929093,17.4153328 22.0627633,17.6898343 22.244173,17.9237574 C22.4255827,18.1564869 22.6559253,18.3390901 22.9375878,18.4727605 C23.2180567,18.6064308 23.5581999,18.6744594 23.9604044,18.6744594 C24.1191379,18.6744594 24.2814518,18.6517832 24.4473463,18.6064308 C24.6132407,18.5634653 24.7743611,18.4978236 24.9307077,18.4154732 C25.0870542,18.3331227 25.2302724,18.2292895 25.3603623,18.1051671 C25.4904521,17.9810447 25.5990593,17.8354395 25.6814097,17.6695451 L25.7005055,17.6695451 L25.7005055,18.5395956 L26.2733783,18.5395956 L26.2733783,11.6555743 L25.7005055,11.6555743 L25.7005055,14.381494 Z M25.5907049,16.881845 C25.5179023,17.1396377 25.4092951,17.3628194 25.2696574,17.5501966 C25.1300197,17.7375737 24.9545774,17.8867593 24.744524,17.9953665 C24.5344707,18.1039736 24.2945802,18.1576804 24.0272395,18.1576804 C23.7849621,18.1576804 23.5617804,18.114715 23.3576945,18.028784 C23.1536085,17.9428531 22.9757793,17.8175372 22.8218197,17.6516428 C22.6690536,17.4845549 22.5497051,17.2828559 22.4637742,17.0441589 C22.3778433,16.8054619 22.3348778,16.5285734 22.3348778,16.2170739 C22.3217495,15.9043808 22.3480062,15.6131705 22.4112609,15.3422494 C22.4745156,15.0713283 22.5771553,14.8338248 22.716793,14.6297388 C22.8564308,14.4256529 23.036647,14.2645324 23.2526678,14.1463774 C23.4686886,14.0282224 23.7276748,13.9697416 24.0272395,13.9697416 C24.2886127,13.9697416 24.5225358,14.0258354 24.7302022,14.1368295 C24.9366751,14.2490171 25.1121174,14.3993962 25.2553356,14.5867734 C25.3985538,14.7741505 25.5095479,14.9937518 25.5859309,15.2467706 C25.662314,15.4985959 25.7005055,15.7635496 25.7005055,16.045212 C25.7005055,16.3447767 25.6635074,16.6228587 25.5907049,16.881845 L25.5907049,16.881845 Z M17.3246279,15.8721567 C17.3246279,15.7002949 17.3305953,15.5415614 17.3437237,15.3947627 C17.356852,15.2479641 17.3914631,15.0940045 17.4487504,14.935271 C17.4929093,14.8075681 17.5573575,14.6870261 17.6397079,14.5724516 C17.7232519,14.457877 17.8223111,14.3552373 17.9416596,14.2657259 C18.0598147,14.1762145 18.191098,14.1046054 18.3378967,14.0508986 C18.4846953,13.9971918 18.6482028,13.9697416 18.826032,13.9697416 C19.2843302,13.9697416 19.6137321,14.0807357 19.8106571,14.3051109 C20.0075821,14.5282926 20.1066414,14.8624684 20.1066414,15.3088318 L20.1066414,18.5395956 L20.6807077,18.5395956 L20.6807077,15.2992839 C20.6807077,15.0940045 20.6699663,14.898273 20.6472901,14.7108958 C20.6246139,14.5235187 20.5530048,14.3385285 20.4324628,14.1606992 C20.25344,13.899326 20.0338388,13.7167228 19.7724656,13.6116962 C19.5098989,13.5066695 19.227043,13.4541561 18.9215108,13.4541561 C18.5765937,13.4541561 18.2818029,13.5293457 18.0371384,13.6833053 C17.792474,13.8360713 17.553777,14.0329963 17.3246279,14.2764673 L17.3246279,13.5878265 L16.7505616,13.5878265 L16.7505616,18.5395956 L17.3246279,18.5395956 L17.3246279,15.8721567 Z M13.1080455,15.7575821 C11.955139,15.9103482 11.3774923,16.4080315 11.3774923,17.2494384 C11.3774923,17.4917158 11.4216512,17.7005757 11.5111626,17.876018 C11.600674,18.0514603 11.721216,18.1994524 11.8751755,18.3199944 C12.0279416,18.4405364 12.2045774,18.5312412 12.4050828,18.5885285 C12.6055883,18.6458158 12.8156417,18.6744594 13.0316625,18.6744594 C13.3944819,18.6744594 13.7334316,18.6040438 14.0449312,18.4632126 C14.3564308,18.3235748 14.6345128,18.1194889 14.8767902,17.8521483 C14.8767902,17.9416596 14.8827577,18.0252036 14.895886,18.1051671 C14.9090143,18.1851306 14.932884,18.2579332 14.9674951,18.3247683 C15.0021061,18.3916035 15.0486521,18.4488908 15.1059393,18.4966302 C15.1632266,18.5443696 15.2408031,18.5742067 15.3362819,18.5885285 C15.4186324,18.6064308 15.5045633,18.6159787 15.5940747,18.6159787 C15.6764252,18.6159787 15.7611626,18.6040438 15.8470935,18.5789806 C15.9330244,18.552724 15.9986661,18.5336282 16.042825,18.5204999 L16.042825,18.0717495 C15.8005476,18.1612609 15.6406206,18.1755827 15.5606571,18.114715 C15.4806936,18.0538472 15.4413086,17.913016 15.4413086,17.6886408 L15.4413086,14.9925583 C15.4413086,14.7061219 15.3947627,14.4638444 15.3016709,14.2657259 C15.2097725,14.0688009 15.0820696,13.9112609 14.9197557,13.7931059 C14.7574417,13.6749509 14.5664841,13.5890199 14.3456894,13.5353131 C14.1260882,13.4804128 13.8921651,13.4541561 13.6439202,13.4541561 C13.3753861,13.4541561 13.1223673,13.4827998 12.8836703,13.544861 C12.6437798,13.6057287 12.4337265,13.7012075 12.2523168,13.8312974 C12.070907,13.9613873 11.9229149,14.1308621 11.8071469,14.337335 C11.6925723,14.5450014 11.6257372,14.7956332 11.6066414,15.0880371 L12.1902555,15.0880371 C12.2153187,14.8720163 12.2678321,14.6918001 12.3477956,14.5485819 C12.4277591,14.4053637 12.5292053,14.2895956 12.6533277,14.2036647 C12.7786436,14.1177338 12.9230553,14.056866 13.0889497,14.022255 C13.2548441,13.9876439 13.4362539,13.9697416 13.6343724,13.9697416 C14.0795423,13.9697416 14.3970093,14.064027 14.5855799,14.2514041 C14.772957,14.4399747 14.8672423,14.6810587 14.8672423,14.9734625 C14.8672423,15.0629739 14.856501,15.1596462 14.8338248,15.2658663 C14.8111486,15.370893 14.7526678,15.4460826 14.657189,15.4902415 C14.5617102,15.5344004 14.4387812,15.570205 14.2895956,15.5952682 C14.1392165,15.6203314 14.0103201,15.6394271 13.901713,15.6525555 L13.1080455,15.7575821 Z M14.8672423,16.7135636 C14.8672423,16.963002 14.8159225,17.1778293 14.7144763,17.359239 C14.61303,17.5406487 14.4769728,17.6898343 14.3074979,17.8079893 C14.1392165,17.9273378 13.9458719,18.0144622 13.7298512,18.0717495 C13.5126369,18.1290368 13.2894552,18.1576804 13.0603061,18.1576804 C12.9266358,18.1576804 12.7941589,18.1397782 12.6628756,18.1051671 C12.5327857,18.070556 12.4182112,18.0156557 12.3191519,17.9428531 C12.2200927,17.8700505 12.1413227,17.7769587 12.0804549,17.6647711 C12.0195872,17.553777 11.9897501,17.4213002 11.9897501,17.2685341 C11.9897501,16.9307779 12.112679,16.6789525 12.3573434,16.5130581 C12.6020079,16.3471637 12.9457315,16.249298 13.384934,16.2170739 C13.6343724,16.1979781 13.8826172,16.1729149 14.1308621,16.1406908 C14.379107,16.1084667 14.6249649,16.0404381 14.8672423,15.9389919 L14.8672423,16.7135636 Z M10.9275484,18.5395956 L10.9275484,17.9858186 L7.2372929,17.9858186 L7.2372929,11.6555743 L6.58684358,11.6555743 L6.58684358,18.5395956 L10.9275484,18.5395956 L10.9275484,18.5395956 Z" id="Fill-6"></path>
                    <path d="M80.1043246,4.72381354 C80.1102921,3.83108677 79.9193345,3.15080034 79.5314518,2.68295423 C79.1411823,2.21391463 78.6053075,1.97999158 77.9250211,1.97999158 C77.5669756,1.97999158 77.2483151,2.0492137 76.9678461,2.18527099 C76.6873771,2.32252176 76.4498736,2.5098989 76.2565291,2.75098287 C76.0607975,2.98848638 75.9116119,3.26776186 75.8065852,3.58761584 C75.7015586,3.90508284 75.6490452,4.24522606 75.6490452,4.61043246 C75.6490452,4.97205841 75.6932042,5.31220163 75.7827155,5.62847515 C75.8710334,5.94355518 76.0082842,6.21686324 76.1920809,6.44959281 C76.3782645,6.68232238 76.6145746,6.86611907 76.901011,7.00098287 C77.1874473,7.1334597 77.528784,7.20148835 77.9250211,7.20148835 C78.2365206,7.20148835 78.5098287,7.15852289 78.7461387,7.07736591 C78.9824488,6.99501545 79.1865347,6.87805392 79.3583965,6.7288683 C79.5314518,6.57848919 79.6734766,6.40185341 79.7892446,6.20134794 C79.9038192,6.00203594 79.9957175,5.78243471 80.0661331,5.54612468 L79.4252317,5.54612468 C79.3357203,5.90894412 79.157891,6.19060657 78.8905504,6.38753159 C78.6220163,6.58445661 78.2997753,6.68351587 77.9250211,6.68351587 C77.649326,6.68351587 77.4082421,6.63100253 77.1981887,6.52597585 C76.9869419,6.42214266 76.8126931,6.28131143 76.6766358,6.10586914 C76.539385,5.93162033 76.4355518,5.72276046 76.3663297,5.48525695 C76.2959141,5.24536647 76.2601095,4.99115417 76.2601095,4.72381354 L80.1043246,4.72381354 Z M76.2601095,4.24522606 C76.2851727,4.011303 76.340073,3.78812131 76.4224235,3.57687447 C76.5059674,3.36682112 76.615768,3.18063746 76.7530188,3.02190396 C76.8890761,2.86317046 77.056164,2.73427408 77.250702,2.63998877 C77.4440466,2.54450997 77.6684218,2.49677057 77.9250211,2.49677057 C78.1792334,2.49677057 78.404802,2.54450997 78.6029205,2.63521483 C78.801039,2.72711317 78.9645465,2.85123561 79.0958298,3.00758214 C79.2259197,3.16512216 79.3249789,3.34772536 79.3918141,3.56374614 C79.4586493,3.77618646 79.4920668,4.00294861 79.4920668,4.24522606 L76.2601095,4.24522606 Z M74.0330666,1.03355799 L74.6644201,1.03355799 L74.6644201,0.182603201 L74.0330666,0.182603201 L74.0330666,1.03355799 Z M74.0629037,7.06781803 L74.6357765,7.06781803 L74.6357765,2.11485538 L74.0629037,2.11485538 L74.0629037,7.06781803 Z M72.1497473,2.9073294 C71.9647571,2.60179725 71.7105448,2.37145465 71.3894973,2.21391463 C71.0672564,2.0575681 70.7306936,1.97999158 70.3810025,1.97999158 C70.0038613,1.97999158 69.6780399,2.05279416 69.4011514,2.19601236 C69.1230694,2.33803707 68.8939202,2.53018815 68.7125105,2.77007863 C68.5299073,3.00758214 68.39385,3.28566414 68.3055322,3.60551811 C68.2160208,3.9241786 68.1718618,4.25596742 68.1718618,4.5996911 C68.1718618,4.96251053 68.2124403,5.30504072 68.2959843,5.62250772 C68.3783347,5.9423617 68.5120051,6.21686324 68.6934148,6.44959281 C68.8748245,6.68232238 69.1051671,6.86611907 69.3868295,7.00098287 C69.666105,7.1334597 70.0074417,7.20148835 70.4096462,7.20148835 C70.5683797,7.20148835 70.7306936,7.17761865 70.896588,7.1334597 C71.061289,7.08930076 71.2236029,7.02604605 71.3799495,6.94369559 C71.5351025,6.85895816 71.6783207,6.75512496 71.809604,6.63100253 C71.9396939,6.50688009 72.0471076,6.36246841 72.1306515,6.19776748 L72.1497473,6.19776748 L72.1497473,7.06781803 L72.7226201,7.06781803 L72.7226201,0.183796686 L72.1497473,0.183796686 L72.1497473,2.9073294 Z M72.0399466,5.40768043 C71.9659506,5.66547318 71.8585369,5.88984836 71.7188992,6.0772255 C71.578068,6.26460264 71.4038192,6.41259478 71.1937658,6.52239539 C70.982519,6.62980904 70.743822,6.68351587 70.4764813,6.68351587 C70.2342039,6.68351587 70.0098287,6.64055041 69.8069363,6.55461949 C69.6028503,6.46868857 69.4250211,6.34337265 69.2710615,6.17747824 C69.1182954,6.01158382 68.9989469,5.80869138 68.913016,5.56999438 C68.8270851,5.33129739 68.7841196,5.05560236 68.7841196,4.7429093 C68.7709913,4.4326032 68.7960545,4.14019938 68.8605027,3.86808481 C68.9237574,3.59716372 69.0252036,3.35966021 69.1660348,3.15557428 C69.306866,2.95148835 69.4846953,2.79275484 69.7019096,2.67340635 C69.9179304,2.55525133 70.1757231,2.49677057 70.4764813,2.49677057 C70.7366611,2.49677057 70.9705841,2.55286436 71.179444,2.66385847 C71.3859169,2.77485257 71.5613592,2.92523168 71.7045774,3.11260882 C71.8477956,3.29998596 71.9587897,3.52078068 72.0351727,3.77260601 C72.1115557,4.02443134 72.1497473,4.29057849 72.1497473,4.57104746 C72.1497473,4.87061219 72.1127492,5.14869419 72.0399466,5.40768043 L72.0399466,5.40768043 Z M61.3069363,7.06781803 L61.3069363,4.39918562 C61.3069363,4.22732379 61.3129037,4.0673968 61.326032,3.92059815 C61.3379669,3.77379949 61.3737714,3.62103342 61.4310587,3.4634934 C61.4752176,3.33340354 61.5384723,3.21405504 61.6220163,3.098287 C61.7043668,2.98371244 61.805813,2.88226622 61.923968,2.79394833 C62.0409295,2.70324347 62.1734063,2.63163437 62.320205,2.57792755 C62.4658102,2.52302724 62.6281241,2.49677057 62.8083404,2.49677057 C63.2666386,2.49677057 63.594847,2.60776467 63.7929655,2.83094636 C63.9898905,3.05412805 64.0889497,3.38949733 64.0889497,3.83586071 L64.0889497,7.06781803 L64.663016,7.06781803 L64.663016,3.82511935 C64.663016,3.62103342 64.6510812,3.4241084 64.6295984,3.23673126 C64.6069222,3.04935411 64.5353131,2.86675091 64.4147711,2.68772817 C64.2345549,2.42516147 64.0149537,2.24255827 63.7547739,2.13753159 C63.4934007,2.03250491 63.2093513,1.97999158 62.9038192,1.97999158 C62.558902,1.97999158 62.2641112,2.05637461 62.0194468,2.20914069 C61.7723954,2.36190677 61.5360854,2.55883179 61.3069363,2.80230272 L61.3069363,0.183796686 L60.73287,0.183796686 L60.73287,7.06781803 L61.3069363,7.06781803 Z M59.7005055,3.67235327 C59.6109941,3.09351306 59.3901994,2.66505195 59.0357343,2.39055041 C58.6824628,2.11724235 58.2181971,1.97999158 57.6453243,1.97999158 C57.2741505,1.97999158 56.9483291,2.05279416 56.6654732,2.19601236 C56.3802303,2.33803707 56.1439202,2.53138163 55.9529627,2.77365908 C55.7608116,3.01713002 55.6152064,3.29401853 55.5173406,3.61029205 C55.4182814,3.92537209 55.3693485,4.25596742 55.3693485,4.5996911 C55.3693485,4.96251053 55.4135074,5.30504072 55.5030188,5.62250772 C55.5913367,5.9423617 55.7285875,6.21686324 55.9147711,6.44959281 C56.0985678,6.68232238 56.3348778,6.86611907 56.6225077,7.00098287 C56.9089441,7.1334597 57.2490873,7.20148835 57.6453243,7.20148835 C57.9568239,7.20148835 58.2337124,7.15613592 58.4771834,7.06781803 C58.7182673,6.97711317 58.9271272,6.85179725 59.1025695,6.68828981 C59.2768183,6.52597585 59.42123,6.3314378 59.5334176,6.10586914 C59.6444117,5.87910699 59.7255687,5.62966863 59.7768885,5.35636057 L59.1658242,5.35636057 C59.0942151,5.76930637 58.9307077,6.09512777 58.6729149,6.3314378 C58.4151222,6.56536085 58.0713985,6.68351587 57.6453243,6.68351587 C57.3445661,6.68351587 57.0903538,6.6250351 56.8803005,6.50688009 C56.6702471,6.38872508 56.4971918,6.23118506 56.3635215,6.03426004 C56.2298512,5.83733502 56.1319854,5.61295984 56.0723111,5.36471497 C56.0114434,5.11647009 55.9816063,4.86106431 55.9816063,4.5996911 C55.9816063,4.3454788 56.0126369,4.09245998 56.0770851,3.83944117 C56.1403398,3.58880932 56.239399,3.36324066 56.3730694,3.16034822 C56.5067397,2.95984274 56.679795,2.79872227 56.8898484,2.67818029 C57.0999017,2.55644482 57.3505336,2.49677057 57.6453243,2.49677057 C58.0272395,2.49677057 58.3423196,2.60060376 58.5917579,2.80707666 C58.8400028,3.01354956 59.0142516,3.30237293 59.1168913,3.67235327 L59.7005055,3.67235327 Z M53.2174951,4.63788262 C53.2174951,4.36457456 53.2413648,4.10081438 53.2902977,3.84898905 C53.3380371,3.59716372 53.423968,3.37875597 53.5480904,3.1937658 C53.6722129,3.00877562 53.8393008,2.86317046 54.0493541,2.75456332 C54.260601,2.64595619 54.5279416,2.59582982 54.8525695,2.60179725 L54.8525695,1.97999158 C54.4384302,1.97999158 54.1042544,2.0575681 53.8536226,2.21391463 C53.6017972,2.37145465 53.3965178,2.64595619 53.2365908,3.0421932 L53.2174951,3.0421932 L53.2174951,2.11366189 L52.6446223,2.11366189 L52.6446223,7.06781803 L53.2174951,7.06781803 L53.2174951,4.63788262 Z M50.8472339,4.80974445 C50.8472339,5.084246 50.8102359,5.33607133 50.7410138,5.56522044 C50.6705981,5.79436956 50.5715389,5.99129458 50.4450295,6.15838248 C50.3173266,6.32547037 50.1597866,6.45317327 49.9724094,6.54626509 C49.7826453,6.63696995 49.5713985,6.68351587 49.3362819,6.68351587 C48.8827577,6.68351587 48.5581297,6.57132828 48.3612047,6.34456613 C48.1618927,6.11899747 48.0652204,5.7907891 48.0652204,5.36471497 L48.0652204,2.11366189 L47.4911542,2.11366189 L47.4911542,5.37426285 C47.4911542,5.63563606 47.5209913,5.87672002 47.581859,6.09632126 C47.6415333,6.31592249 47.7405925,6.50807357 47.8778433,6.67396799 C48.0139006,6.84105588 48.1953103,6.97114575 48.418492,7.0618506 C48.6404802,7.15374895 48.9173687,7.20148835 49.250351,7.20148835 C49.4663718,7.20148835 49.6573294,7.17284471 49.8244173,7.12033137 C49.9891182,7.06543106 50.1347234,6.9985959 50.2588458,6.91982589 C50.3829683,6.83747543 50.4927689,6.75035102 50.5882477,6.65487223 C50.6837265,6.55939343 50.7708509,6.46749509 50.8472339,6.3791772 L50.8472339,7.06781803 L51.4201067,7.06781803 L51.4201067,2.11366189 L50.8472339,2.11366189 L50.8472339,4.80974445 Z M45.6639287,2.9073294 C45.4789385,2.60179725 45.2259197,2.37145465 44.9048722,2.21391463 C44.5814378,2.0575681 44.2460685,1.97999158 43.8951839,1.97999158 C43.5192362,1.97999158 43.1934148,2.05279416 42.9153328,2.19601236 C42.6384443,2.33803707 42.4092951,2.53018815 42.2278854,2.77007863 C42.0452822,3.00758214 41.9092249,3.28566414 41.820907,3.60551811 C41.7313957,3.9241786 41.6872367,4.25596742 41.6872367,4.5996911 C41.6872367,4.96251053 41.7278152,5.30504072 41.8113592,5.62250772 C41.8937096,5.9423617 42.0261865,6.21686324 42.2075962,6.44959281 C42.3901994,6.68232238 42.620542,6.86611907 42.901011,7.00098287 C43.1814799,7.1334597 43.5228166,7.20148835 43.9250211,7.20148835 C44.0837546,7.20148835 44.2460685,7.17761865 44.4119629,7.1334597 C44.5766639,7.08930076 44.7377843,7.02604605 44.8953243,6.94369559 C45.0504774,6.85895816 45.1936956,6.75512496 45.3249789,6.63100253 C45.4550688,6.50688009 45.561289,6.36246841 45.6460264,6.19776748 L45.6639287,6.19776748 L45.6639287,7.06781803 L46.2379949,7.06781803 L46.2379949,0.183796686 L45.6639287,0.183796686 L45.6639287,2.9073294 Z M45.5541281,5.40768043 C45.480132,5.66547318 45.3739118,5.88984836 45.2342741,6.0772255 C45.0934429,6.26460264 44.919194,6.41259478 44.7079472,6.52239539 C44.4978939,6.62980904 44.2591969,6.68351587 43.9918562,6.68351587 C43.7483853,6.68351587 43.5252036,6.64055041 43.3223111,6.55461949 C43.1182252,6.46868857 42.9392025,6.34337265 42.7864364,6.17747824 C42.6336703,6.01158382 42.5143218,5.80869138 42.4283909,5.56999438 C42.34246,5.33129739 42.2994945,5.05560236 42.2994945,4.7429093 C42.2863662,4.4326032 42.3114294,4.14019938 42.3758776,3.86808481 C42.4391323,3.59716372 42.5405785,3.35966021 42.6814097,3.15557428 C42.8210475,2.95148835 42.9988767,2.79275484 43.2172845,2.67340635 C43.4333053,2.55525133 43.691098,2.49677057 43.9918562,2.49677057 C44.2520359,2.49677057 44.485959,2.55286436 44.6936254,2.66385847 C44.9012918,2.77485257 45.0767341,2.92523168 45.2199523,3.11260882 C45.3631705,3.29998596 45.4729711,3.52078068 45.5493541,3.77260601 C45.6269306,4.02443134 45.6639287,4.29057849 45.6639287,4.57104746 C45.6639287,4.87061219 45.6281241,5.14869419 45.5541281,5.40768043 L45.5541281,5.40768043 Z M38.646237,6.61668071 C38.569854,6.63577647 38.491084,6.65129177 38.412314,6.66442011 C38.3323505,6.67874193 38.2547739,6.68351587 38.1783909,6.68351587 C38.0554619,6.68351587 37.9623701,6.67158102 37.895535,6.64651783 C37.8286998,6.62145465 37.7785734,6.57968267 37.7475428,6.52239539 C37.7153187,6.46391463 37.696223,6.39111205 37.6902555,6.30160067 C37.6830946,6.2120893 37.6807077,6.10706262 37.6807077,5.98652064 L37.6807077,2.59224937 L38.6080455,2.59224937 L38.6080455,2.11366189 L37.6807077,2.11366189 L37.6807077,0.73638023 L37.1066414,0.73638023 L37.1066414,2.11366189 L36.4096462,2.11366189 L36.4096462,2.59224937 L37.1066414,2.59224937 L37.1066414,6.21566976 C37.1066414,6.58445661 37.1818309,6.84224937 37.3322101,6.98546757 C37.4813957,7.12868576 37.6998034,7.20148835 37.9862398,7.20148835 C38.127071,7.20148835 38.2547739,7.18477956 38.3693485,7.15255546 C38.4839231,7.12152485 38.5758214,7.09884864 38.646237,7.0857203 L38.646237,6.61668071 Z M34.5155855,4.63788262 C34.5155855,4.36457456 34.5394552,4.10081438 34.5871946,3.84898905 C34.6361275,3.59716372 34.7220584,3.37875597 34.8461808,3.1937658 C34.9703033,3.00877562 35.1373912,2.86317046 35.3474445,2.75456332 C35.5586914,2.64595619 35.826032,2.59582982 36.1506599,2.60179725 L36.1506599,1.97999158 C35.7365206,1.97999158 35.4047318,2.0575681 35.151713,2.21391463 C34.8998877,2.37145465 34.6946083,2.64595619 34.5358748,3.0421932 L34.5155855,3.0421932 L34.5155855,2.11366189 L33.9427127,2.11366189 L33.9427127,7.06781803 L34.5155855,7.06781803 L34.5155855,4.63788262 Z M32.9867313,4.72381354 C32.9926987,3.83108677 32.8017411,3.15080034 32.412665,2.68295423 C32.0223954,2.21391463 31.4877141,1.97999158 30.8062342,1.97999158 C30.4493822,1.97999158 30.1295282,2.0492137 29.8502527,2.18527099 C29.5685903,2.32252176 29.3310868,2.5098989 29.1377422,2.75098287 C28.9432042,2.98848638 28.7940185,3.26776186 28.6877984,3.58761584 C28.5827717,3.90508284 28.5302584,4.24522606 28.5302584,4.61043246 C28.5302584,4.97205841 28.5744173,5.31220163 28.6639287,5.62847515 C28.7546335,5.94355518 28.8906908,6.21686324 29.075681,6.44959281 C29.2606712,6.68232238 29.4969812,6.86611907 29.7834176,7.00098287 C30.069854,7.1334597 30.4111907,7.20148835 30.8062342,7.20148835 C31.1177338,7.20148835 31.3922353,7.15852289 31.6285454,7.07736591 C31.8636619,6.99501545 32.0677478,6.87805392 32.2408031,6.7288683 C32.412665,6.57848919 32.5558832,6.40185341 32.6704577,6.20134794 C32.7850323,6.00203594 32.8769306,5.78243471 32.9485397,5.54612468 L32.3076383,5.54612468 C32.2181269,5.90894412 32.0402977,6.19060657 31.7717635,6.38753159 C31.5044229,6.58445661 31.1833755,6.68351587 30.8062342,6.68351587 C30.5317327,6.68351587 30.2894552,6.63100253 30.0794019,6.52597585 C29.8693485,6.42214266 29.6950997,6.28131143 29.5590424,6.10586914 C29.4205981,5.93162033 29.3179584,5.72276046 29.2475428,5.48525695 C29.1771272,5.24536647 29.1425161,4.99115417 29.1425161,4.72381354 L32.9867313,4.72381354 Z M29.1425161,4.24522606 C29.1675793,4.011303 29.2224796,3.78812131 29.3048301,3.57687447 C29.3883741,3.36682112 29.4969812,3.18063746 29.6354254,3.02190396 C29.7714827,2.86317046 29.9373771,2.73427408 30.1319152,2.63998877 C30.3264532,2.54450997 30.5520219,2.49677057 30.8062342,2.49677057 C31.0604465,2.49677057 31.2872086,2.54450997 31.4853272,2.63521483 C31.6822522,2.72711317 31.8469531,2.85123561 31.977043,3.00758214 C32.1083263,3.16512216 32.2073856,3.34772536 32.2742207,3.56374614 C32.3410559,3.77618646 32.3744735,4.00294861 32.3744735,4.24522606 L29.1425161,4.24522606 Z M26.9632126,2.9073294 C26.7770289,2.60179725 26.5240101,2.37145465 26.2029627,2.21391463 C25.8807217,2.0575681 25.5441589,1.97999158 25.1932744,1.97999158 C24.8173266,1.97999158 24.4915052,2.05279416 24.2134232,2.19601236 C23.9365347,2.33803707 23.7073856,2.53018815 23.5259758,2.77007863 C23.3433726,3.00758214 23.2085088,3.28566414 23.1189975,3.60551811 C23.0294861,3.9241786 22.9853272,4.25596742 22.9853272,4.5996911 C22.9853272,4.96251053 23.0270991,5.30504072 23.1094496,5.62250772 C23.1918001,5.9423617 23.3242769,6.21686324 23.5056866,6.44959281 C23.6882898,6.68232238 23.9186324,6.86611907 24.1991014,7.00098287 C24.4795703,7.1334597 24.820907,7.20148835 25.221918,7.20148835 C25.381845,7.20148835 25.5441589,7.17761865 25.7100534,7.1334597 C25.8759478,7.08930076 26.0370682,7.02604605 26.1934148,6.94369559 C26.3497613,6.85895816 26.4929795,6.75512496 26.6230694,6.63100253 C26.7531592,6.50688009 26.8605729,6.36246841 26.9429233,6.19776748 L26.9632126,6.19776748 L26.9632126,7.06781803 L27.5360854,7.06781803 L27.5360854,0.183796686 L26.9632126,0.183796686 L26.9632126,2.9073294 Z M26.8522185,5.40768043 C26.7794159,5.66547318 26.6720022,5.88984836 26.5323645,6.0772255 C26.3927268,6.26460264 26.2172845,6.41259478 26.0060376,6.52239539 C25.7959843,6.62980904 25.5572873,6.68351587 25.2887532,6.68351587 C25.0464757,6.68351587 24.8244875,6.64055041 24.6204016,6.55461949 C24.4163156,6.46868857 24.2372929,6.34337265 24.0845268,6.17747824 C23.9317607,6.01158382 23.8124122,5.80869138 23.7264813,5.56999438 C23.6405504,5.33129739 23.5975849,5.05560236 23.5975849,4.7429093 C23.5844566,4.4326032 23.6107133,4.14019938 23.673968,3.86808481 C23.7372227,3.59716372 23.8398624,3.35966021 23.9795001,3.15557428 C24.1191379,2.95148835 24.2981606,2.79275484 24.5153749,2.67340635 C24.7313957,2.55525133 24.9891884,2.49677057 25.2887532,2.49677057 C25.5513199,2.49677057 25.7852429,2.55286436 25.9917158,2.66385847 C26.1993822,2.77485257 26.3748245,2.92523168 26.5180427,3.11260882 C26.6612609,3.29998596 26.7710615,3.52078068 26.8474445,3.77260601 C26.9250211,4.02443134 26.9632126,4.29057849 26.9632126,4.57104746 C26.9632126,4.87061219 26.9262145,5.14869419 26.8522185,5.40768043 L26.8522185,5.40768043 Z M20.7475428,4.63788262 C20.7475428,4.36457456 20.7714125,4.10081438 20.8191519,3.84898905 C20.8668913,3.59716372 20.9528222,3.37875597 21.0781382,3.1937658 C21.2022606,3.00877562 21.3693485,2.86317046 21.5794019,2.75456332 C21.7894552,2.64595619 22.0579893,2.59582982 22.3826172,2.60179725 L22.3826172,1.97999158 C21.968478,1.97999158 21.6354956,2.0575681 21.3836703,2.21391463 C21.131845,2.37145465 20.9253721,2.64595619 20.7666386,3.0421932 L20.7475428,3.0421932 L20.7475428,2.11366189 L20.17467,2.11366189 L20.17467,7.06781803 L20.7475428,7.06781803 L20.7475428,4.63788262 Z M17.4964898,1.48230834 L18.1182954,1.48230834 L18.1182954,0.507231115 L17.4964898,0.507231115 L17.4964898,1.48230834 Z M15.9771834,1.48230834 L16.598989,1.48230834 L16.598989,0.507231115 L15.9771834,0.507231115 L15.9771834,1.48230834 Z M18.5777871,5.36471497 C18.5133389,5.61295984 18.4154732,5.83733502 18.2806094,6.03426004 C18.1469391,6.23118506 17.9738837,6.38872508 17.7602499,6.50688009 C17.5454226,6.6250351 17.2900168,6.68351587 16.9904521,6.68351587 C16.7171441,6.68351587 16.4736731,6.63219601 16.2636198,6.53074979 C16.0535664,6.43049705 15.8769306,6.28608537 15.7372929,6.10228868 C15.5976552,5.91491154 15.4902415,5.69411682 15.4174389,5.43632407 C15.3446363,5.1797248 15.3076383,4.89567537 15.3076383,4.59014322 C15.3076383,4.32280258 15.3398624,4.06381634 15.4031171,3.81199101 C15.4663718,3.5589722 15.5654311,3.33579051 15.6991014,3.14244594 C15.8327717,2.94671441 16.0070205,2.79275484 16.2206543,2.67340635 C16.4342881,2.55525133 16.6896939,2.49677057 16.9904521,2.49677057 C17.2959843,2.49677057 17.553777,2.54928391 17.7650239,2.65908453 C17.9750772,2.76888514 18.1469391,2.91687728 18.2806094,3.10306094 C18.4154732,3.29163156 18.5133389,3.51481325 18.5777871,3.76783207 C18.6410418,4.02204437 18.6732659,4.2977394 18.6732659,4.59014322 C18.6732659,4.85867734 18.6410418,5.11647009 18.5777871,5.36471497 L18.5777871,5.36471497 Z M17.9321118,7.0141112 C18.2149677,6.88998877 18.4584386,6.71215951 18.6589441,6.48301039 C18.8594496,6.25386127 19.0134092,5.97935973 19.1220163,5.66069924 C19.2306234,5.34203875 19.2855237,4.98518675 19.2855237,4.59014322 C19.2855237,4.22732379 19.2377843,3.88718057 19.145886,3.56732659 C19.0539876,3.24747262 18.9119629,2.97297108 18.7210053,2.74143499 C18.5300477,2.50751193 18.2901573,2.32252176 18.0037209,2.18527099 C17.7172845,2.0492137 17.3783347,1.97999158 16.9904521,1.97999158 C16.6073434,1.97999158 16.2731676,2.0492137 15.9867313,2.18527099 C15.6991014,2.32252176 15.4604044,2.50870542 15.2694468,2.74501545 C15.0772957,2.98013199 14.9340775,3.2570205 14.8385987,3.57210053 C14.7431199,3.88837405 14.6953805,4.22732379 14.6953805,4.59014322 C14.6953805,5.02337826 14.7562482,5.40409997 14.8767902,5.72872789 C14.9973322,6.05216231 15.1632266,6.32547037 15.3696995,6.54029767 C15.5761724,6.75631845 15.8184499,6.92101938 16.0965319,7.02843302 C16.3734204,7.13704016 16.6705981,7.19552092 16.9904521,7.20148835 C17.3341758,7.20148835 17.6492558,7.13823364 17.9321118,7.0141112 L17.9321118,7.0141112 Z M12.7929655,2.59224937 L12.7929655,7.06781803 L13.3658382,7.06781803 L13.3658382,2.59224937 L14.3230132,2.59224937 L14.3230132,2.11366189 L13.3658382,2.11366189 L13.3658382,1.50259758 C13.3658382,1.38682954 13.3718057,1.27464195 13.3801601,1.16245437 C13.3897079,1.05265375 13.4147711,0.952401011 13.4529627,0.861696153 C13.4911542,0.77218478 13.5520219,0.699382196 13.6343724,0.645675372 C13.7167228,0.591968548 13.8312974,0.564518394 13.978096,0.564518394 C14.0795423,0.564518394 14.1953103,0.581227183 14.3230132,0.612257793 L14.3230132,0.0871244033 C14.2454367,0.0739960685 14.1702471,0.0656416737 14.0926706,0.0596742488 C14.0162876,0.0525133389 13.9339371,0.047739399 13.8444257,0.047739399 C13.4625105,0.047739399 13.190396,0.164700927 13.0316625,0.392656557 C12.872929,0.621805673 12.7929655,0.934498736 12.7929655,1.32954226 L12.7929655,2.11366189 L12.0565852,2.11366189 L12.0565852,2.59224937 L12.7929655,2.59224937 Z M11.6269306,4.72381354 C11.6317046,3.83108677 11.440747,3.15080034 11.0528644,2.68295423 C10.6637883,2.21391463 10.129107,1.97999158 9.44643359,1.97999158 C9.08838809,1.97999158 8.77092109,2.0492137 8.49045212,2.18527099 C8.20878967,2.32252176 7.97247964,2.5098989 7.77794159,2.75098287 C7.58340354,2.98848638 7.43302443,3.26776186 7.32799775,3.58761584 C7.22297108,3.90508284 7.17045774,4.24522606 7.17045774,4.61043246 C7.17045774,4.97205841 7.21461668,5.31220163 7.30412805,5.62847515 C7.39483291,5.94355518 7.5308902,6.21686324 7.71588037,6.44959281 C7.90087054,6.68232238 8.13598708,6.86611907 8.42361696,7.00098287 C8.71005336,7.1334597 9.05019657,7.20148835 9.44643359,7.20148835 C9.75793316,7.20148835 10.0336282,7.15852289 10.2687447,7.07736591 C10.5038613,6.99501545 10.7079472,6.87805392 10.8810025,6.7288683 C11.0528644,6.57848919 11.1960826,6.40185341 11.3106571,6.20134794 C11.4252317,6.00203594 11.51713,5.78243471 11.5875456,5.54612468 L10.9478377,5.54612468 C10.8571328,5.90894412 10.6793036,6.19060657 10.4119629,6.38753159 C10.1446223,6.58445661 9.82238135,6.68351587 9.44643359,6.68351587 C9.17312553,6.68351587 8.92965459,6.63100253 8.71960124,6.52597585 C8.50954788,6.42214266 8.33649256,6.28131143 8.1980483,6.10586914 C8.06079753,5.93162033 7.95815782,5.72276046 7.88774221,5.48525695 C7.81732659,5.24536647 7.78271553,4.99115417 7.78271553,4.72381354 L11.6269306,4.72381354 Z M7.78271553,4.24522606 C7.80777871,4.011303 7.86267902,3.78812131 7.94502949,3.57687447 C8.02737995,3.36682112 8.13718057,3.18063746 8.27562482,3.02190396 C8.4128756,2.86317046 8.57757652,2.73427408 8.77211457,2.63998877 C8.96665263,2.54450997 9.19222129,2.49677057 9.44643359,2.49677057 C9.70064589,2.49677057 9.92860152,2.54450997 10.1255265,2.63521483 C10.3224516,2.72711317 10.4871525,2.85123561 10.6172423,3.00758214 C10.7485257,3.16512216 10.8463915,3.34772536 10.9144201,3.56374614 C10.9812553,3.77618646 11.0146728,4.00294861 11.0146728,4.24522606 L7.78271553,4.24522606 Z M5.51628756,4.06381634 C5.51032013,4.32638304 5.48645044,4.57462791 5.44467846,4.80974445 C5.40290649,5.04486099 5.32891042,5.27281662 5.22030329,5.48883741 C5.10572873,5.7120191 4.96847796,5.90058972 4.80855097,6.05216231 C4.64981747,6.20612188 4.47795563,6.3314378 4.29296546,6.42572311 C4.10797529,6.52239539 3.91582421,6.58923055 3.71889919,6.63100253 C3.52197416,6.67396799 3.33101657,6.69306375 3.14483291,6.69306375 C2.74978939,6.69306375 2.3989048,6.61668071 2.08859871,6.46391463 C1.7794861,6.31114855 1.51930637,6.10467565 1.30447908,5.84210896 C1.09084527,5.58192923 0.928531311,5.27997753 0.817537209,4.93386689 C0.706543106,4.59014322 0.650449312,4.22732379 0.650449312,3.84421511 C0.650449312,3.35966021 0.699382196,2.91687728 0.798441449,2.5098989 C0.897500702,2.1053075 1.05146026,1.75919685 1.26151362,1.46798652 C1.47276046,1.17916316 1.7401011,0.954787981 2.06472901,0.793667509 C2.39055041,0.634934007 2.77843302,0.556163999 3.23195732,0.556163999 C3.48616962,0.556163999 3.73202752,0.591968548 3.96714406,0.664771132 C4.20345409,0.737573715 4.4170879,0.843793878 4.60804549,0.98104465 C4.79900309,1.11829542 4.96370402,1.28777029 5.10095479,1.49185622 C5.23820556,1.69832912 5.33487784,1.92628475 5.39216512,2.18049705 L6.06171019,2.18049705 C5.98532716,1.81171019 5.86120472,1.49066274 5.6881494,1.21974165 C5.51628756,0.948820556 5.30504072,0.722058411 5.05321539,0.540648694 C4.80019657,0.359238978 4.51734063,0.224375176 4.2022606,0.134863802 C3.88598708,0.0453524291 3.54703735,0 3.18421792,0 C2.64237574,0 2.17094917,0.0930918281 1.77351867,0.278081999 C1.37489469,0.463072171 1.04310587,0.716090986 0.779345689,1.03833193 C0.51558551,1.35937939 0.318660489,1.73890761 0.190957596,2.1769166 C0.0632547037,2.61253861 0,3.08277169 0,3.58761584 C0,4.19748666 0.0751895535,4.7345549 0.224375176,5.19285313 C0.373560798,5.65234485 0.583614153,6.03306655 0.850954788,6.33501825 C1.11829542,6.63696995 1.43695591,6.86611907 1.80693625,7.02007863 C2.17572311,7.17165122 2.57792755,7.24803426 3.01116259,7.24803426 C3.35011233,7.24803426 3.65206403,7.21700365 3.91940466,7.15255546 C4.18793878,7.08930076 4.42305532,6.9985959 4.62714125,6.88044089 C4.83122718,6.76228587 5.01144341,6.61787419 5.16778995,6.44959281 C5.32413648,6.28131143 5.46258074,6.09512777 5.58312272,5.88984836 L5.58312272,7.06781803 L6.13809323,7.06781803 L6.13809323,3.51003931 L3.1937658,3.51003931 L3.1937658,4.06381634 L5.51628756,4.06381634 L5.51628756,4.06381634 Z" id="Fill-8"></path>
                </g>
            </g>
        </g>
    </g>
</svg>