<?xml version="1.0" encoding="UTF-8"?>
<svg width="248px" height="32px" viewBox="0 0 248 32" version="1.1" xmlns="http://www.w3.org/2000/svg" xmlns:xlink="http://www.w3.org/1999/xlink">
    <title>Group</title>
    <g id="Symbole" stroke="none" stroke-width="1" fill="none" fill-rule="evenodd">
        <g id="Logo/S-Copy" transform="translate(-16, -8)">
            <g id="Group" transform="translate(16, 8)">
                <circle id="Oval" fill="#D8D8D8" cx="15.75" cy="15.75" r="15.75"></circle>
                <g id="Mittendrin-in-Potsda" transform="translate(47.962, 8.238)" fill="#FFFFFF" fill-rule="nonzero">
                    <path d="M13.9130435,15.6714976 L10.8019324,15.6714976 L10.5700483,10.4347826 C10.5056361,9.18518519 10.47343,8.07085346 10.47343,7.09178744 C10.47343,6.34460548 10.4927536,5.63607085 10.531401,4.96618357 L8.46376812,14.2608696 L5.46859903,14.2608696 L3.26570048,4.96618357 C3.34299517,6.08695652 3.38164251,7.14331723 3.38164251,8.1352657 C3.38164251,8.88244767 3.36231884,9.66183575 3.3236715,10.47343 L3.09178744,15.6714976 L0,15.6714976 L1.00483092,2.28019324 L5.00483092,2.28019324 L7.01449275,11.3623188 L8.88888889,2.28019324 L12.9082126,2.28019324 L13.9130435,15.6714976 Z" id="Path"></path>
                    <path d="M19.0434783,5.41062802 L19.0434783,15.6714976 L15.9903382,15.6714976 L15.9903382,5.41062802 L19.0434783,5.41062802 Z M17.4975845,0 C18.0257649,0 18.4605475,0.164251208 18.8019324,0.492753623 C19.1433172,0.821256039 19.3140097,1.23671498 19.3140097,1.73913043 C19.3140097,2.24154589 19.1433172,2.65700483 18.8019324,2.98550725 C18.4605475,3.31400966 18.0257649,3.47826087 17.4975845,3.47826087 C16.9694042,3.47826087 16.5378422,3.31400966 16.2028986,2.98550725 C15.8679549,2.65700483 15.7004831,2.24154589 15.7004831,1.73913043 C15.7004831,1.23671498 15.8679549,0.821256039 16.2028986,0.492753623 C16.5378422,0.164251208 16.9694042,0 17.4975845,0 Z" id="Shape"></path>
                    <path d="M28.115942,15.1884058 C27.7423511,15.4460548 27.3075684,15.6457327 26.8115942,15.7874396 C26.31562,15.9291465 25.8228664,16 25.3333333,16 C23.0917874,15.9871176 21.9710145,14.7504026 21.9710145,12.2898551 L21.9710145,7.53623188 L20.5217391,7.53623188 L20.5217391,5.41062802 L21.9710145,5.41062802 L21.9710145,3.1884058 L25.0241546,2.84057971 L25.0241546,5.41062802 L27.3816425,5.41062802 L27.0531401,7.53623188 L25.0241546,7.53623188 L25.0241546,12.2512077 C25.0241546,12.7278583 25.1014493,13.0692432 25.2560387,13.2753623 C25.410628,13.4814815 25.6553945,13.5845411 25.9903382,13.5845411 C26.3381643,13.5845411 26.705314,13.4750403 27.0917874,13.2560386 L28.115942,15.1884058 Z" id="Path"></path>
                    <path d="M35.8164251,15.1884058 C35.4428341,15.4460548 35.0080515,15.6457327 34.5120773,15.7874396 C34.0161031,15.9291465 33.5233494,16 33.0338164,16 C30.7922705,15.9871176 29.6714976,14.7504026 29.6714976,12.2898551 L29.6714976,7.53623188 L28.2222222,7.53623188 L28.2222222,5.41062802 L29.6714976,5.41062802 L29.6714976,3.1884058 L32.7246377,2.84057971 L32.7246377,5.41062802 L35.0821256,5.41062802 L34.7536232,7.53623188 L32.7246377,7.53623188 L32.7246377,12.2512077 C32.7246377,12.7278583 32.8019324,13.0692432 32.9565217,13.2753623 C33.1111111,13.4814815 33.3558776,13.5845411 33.6908213,13.5845411 C34.0386474,13.5845411 34.4057971,13.4750403 34.7922705,13.2560386 L35.8164251,15.1884058 Z" id="Path"></path>
                    <path d="M45.6811594,10.3381643 C45.6811594,10.763285 45.6618358,11.1304348 45.6231884,11.4396135 L39.2657005,11.4396135 C39.3687601,12.3027375 39.6135266,12.9082126 40,13.2560386 C40.3864734,13.6038647 40.921095,13.7777778 41.6038647,13.7777778 C42.0161031,13.7777778 42.415459,13.7037037 42.8019324,13.5555556 C43.1884058,13.4074074 43.6070854,13.178744 44.057971,12.8695652 L45.3140097,14.5700483 C44.115942,15.5233494 42.7826087,16 41.3140097,16 C39.6521739,16 38.3768116,15.510467 37.4879227,14.531401 C36.5990338,13.5523349 36.1545894,12.2383253 36.1545894,10.589372 C36.1545894,9.54589372 36.3413849,8.60869565 36.7149759,7.77777778 C37.0885668,6.9468599 37.6360709,6.28985507 38.3574879,5.80676329 C39.078905,5.3236715 39.942029,5.0821256 40.9468599,5.0821256 C42.4283414,5.0821256 43.5877617,5.54589372 44.4251208,6.47342995 C45.2624799,7.40096618 45.6811594,8.68921095 45.6811594,10.3381643 Z M42.6859904,9.46859903 C42.6602255,7.89694042 42.1062802,7.11111111 41.0241546,7.11111111 C40.4959742,7.11111111 40.0869565,7.30434783 39.7971015,7.69082126 C39.5072464,8.07729469 39.3301127,8.71497585 39.2657005,9.60386473 L42.6859904,9.60386473 L42.6859904,9.46859903 Z" id="Shape"></path>
                    <path d="M53.6521739,5.0821256 C54.5410628,5.0821256 55.236715,5.352657 55.7391305,5.89371981 C56.2415459,6.43478261 56.4927536,7.19484702 56.4927536,8.17391304 L56.4927536,15.6714976 L53.4396135,15.6714976 L53.4396135,8.69565217 C53.4396135,8.18035427 53.3590982,7.82286634 53.1980677,7.62318841 C53.0370371,7.42351047 52.7954912,7.3236715 52.47343,7.3236715 C51.8550725,7.3236715 51.2624799,7.76811594 50.6956522,8.65700483 L50.6956522,15.6714976 L47.6425121,15.6714976 L47.6425121,5.41062802 L50.3091788,5.41062802 L50.5217391,6.62801932 C50.9597424,6.11272142 51.4331723,5.72624799 51.942029,5.46859903 C52.4508857,5.21095008 53.020934,5.0821256 53.6521739,5.0821256 Z" id="Path"></path>
                    <path d="M68.2318841,1.33333333 L68.2318841,15.6714976 L65.5265701,15.6714976 L65.3719807,14.47343 C64.6505636,15.4911433 63.6779388,16 62.4541063,16 C61.178744,16 60.2093398,15.510467 59.5458937,14.531401 C58.8824477,13.5523349 58.5507247,12.2125604 58.5507247,10.5120773 C58.5507247,9.46859903 58.7246377,8.53462158 59.0724638,7.71014493 C59.4202899,6.88566828 59.9130435,6.24154589 60.5507247,5.77777778 C61.1884058,5.31400966 61.9194847,5.0821256 62.7439614,5.0821256 C63.7230274,5.0821256 64.5346216,5.4041868 65.178744,6.04830918 L65.178744,1.00483092 L68.2318841,1.33333333 Z M63.4009662,13.7584541 C64.1095008,13.7584541 64.7020934,13.3719807 65.178744,12.5990338 L65.178744,8.17391304 C64.9339775,7.87761675 64.6859904,7.65861514 64.4347826,7.51690821 C64.1835749,7.37520129 63.8969404,7.30434783 63.5748792,7.30434783 C63.0080516,7.30434783 62.5571659,7.568438 62.2222222,8.09661836 C61.8872786,8.62479871 61.7198068,9.43639291 61.7198068,10.531401 C61.7198068,11.7294686 61.8647343,12.5668277 62.1545894,13.0434783 C62.4444445,13.5201288 62.8599034,13.7584541 63.4009662,13.7584541 Z" id="Shape"></path>
                    <path d="M76.4347826,5.12077295 C76.8083736,5.12077295 77.1497585,5.16586151 77.4589372,5.25603865 L76.9758454,8.21256039 C76.589372,8.12238325 76.2801933,8.07729469 76.0483092,8.07729469 C75.4428342,8.07729469 74.9822867,8.28663446 74.6666667,8.70531401 C74.3510467,9.12399356 74.1030596,9.75201288 73.9227053,10.589372 L73.9227053,15.6714976 L70.8695652,15.6714976 L70.8695652,5.41062802 L73.5362319,5.41062802 L73.7874396,7.40096618 C74.0193237,6.69243156 74.3703704,6.1352657 74.8405797,5.7294686 C75.3107891,5.3236715 75.84219,5.12077295 76.4347826,5.12077295 Z" id="Path"></path>
                    <path d="M81.9130435,5.41062802 L81.9130435,15.6714976 L78.8599034,15.6714976 L78.8599034,5.41062802 L81.9130435,5.41062802 Z M80.3671498,0 C80.8953301,0 81.3301128,0.164251208 81.6714976,0.492753623 C82.0128825,0.821256039 82.1835749,1.23671498 82.1835749,1.73913043 C82.1835749,2.24154589 82.0128825,2.65700483 81.6714976,2.98550725 C81.3301128,3.31400966 80.8953301,3.47826087 80.3671498,3.47826087 C79.8389694,3.47826087 79.4074074,3.31400966 79.0724638,2.98550725 C78.7375202,2.65700483 78.5700483,2.24154589 78.5700483,1.73913043 C78.5700483,1.23671498 78.7375202,0.821256039 79.0724638,0.492753623 C79.4074074,0.164251208 79.8389694,0 80.3671498,0 Z" id="Shape"></path>
                    <path d="M90.5603865,5.0821256 C91.4492754,5.0821256 92.1449276,5.352657 92.647343,5.89371981 C93.1497585,6.43478261 93.4009662,7.19484702 93.4009662,8.17391304 L93.4009662,15.6714976 L90.3478261,15.6714976 L90.3478261,8.69565217 C90.3478261,8.18035427 90.2673108,7.82286634 90.1062802,7.62318841 C89.9452496,7.42351047 89.7037037,7.3236715 89.3816425,7.3236715 C88.7632851,7.3236715 88.1706925,7.76811594 87.6038648,8.65700483 L87.6038648,15.6714976 L84.5507247,15.6714976 L84.5507247,5.41062802 L87.2173913,5.41062802 L87.4299517,6.62801932 C87.8679549,6.11272142 88.3413849,5.72624799 88.8502416,5.46859903 C89.3590983,5.21095008 89.9291466,5.0821256 90.5603865,5.0821256 Z" id="Path"></path>
                    <path d="M103.816425,5.41062802 L103.816425,15.6714976 L100.763285,15.6714976 L100.763285,5.41062802 L103.816425,5.41062802 Z M102.270531,0 C102.798712,0 103.233494,0.164251208 103.574879,0.492753623 C103.916264,0.821256039 104.086957,1.23671498 104.086957,1.73913043 C104.086957,2.24154589 103.916264,2.65700483 103.574879,2.98550725 C103.233494,3.31400966 102.798712,3.47826087 102.270531,3.47826087 C101.742351,3.47826087 101.310789,3.31400966 100.975845,2.98550725 C100.640902,2.65700483 100.47343,2.24154589 100.47343,1.73913043 C100.47343,1.23671498 100.640902,0.821256039 100.975845,0.492753623 C101.310789,0.164251208 101.742351,0 102.270531,0 Z" id="Shape"></path>
                    <path d="M112.463768,5.0821256 C113.352657,5.0821256 114.048309,5.352657 114.550725,5.89371981 C115.05314,6.43478261 115.304348,7.19484702 115.304348,8.17391304 L115.304348,15.6714976 L112.251208,15.6714976 L112.251208,8.69565217 C112.251208,8.18035427 112.170692,7.82286634 112.009662,7.62318841 C111.848631,7.42351047 111.607085,7.3236715 111.285024,7.3236715 C110.666667,7.3236715 110.074074,7.76811594 109.507246,8.65700483 L109.507246,15.6714976 L106.454106,15.6714976 L106.454106,5.41062802 L109.120773,5.41062802 L109.333333,6.62801932 C109.771337,6.11272142 110.244767,5.72624799 110.753623,5.46859903 C111.26248,5.21095008 111.832528,5.0821256 112.463768,5.0821256 Z" id="Path"></path>
                    <path d="M127.05314,2.28019324 C128.818035,2.28019324 130.190016,2.647343 131.169082,3.38164251 C132.148148,4.11594203 132.637681,5.20450886 132.637681,6.647343 C132.637681,8.15458937 132.15781,9.29146538 131.198068,10.057971 C130.238325,10.8244767 128.953301,11.2077295 127.342995,11.2077295 L125.89372,11.2077295 L125.89372,15.6714976 L122.724638,15.6714976 L122.724638,2.28019324 L127.05314,2.28019324 Z M127.072464,8.92753623 C127.819646,8.92753623 128.389694,8.75040258 128.782609,8.39613527 C129.175523,8.04186795 129.371981,7.4589372 129.371981,6.647343 C129.371981,5.2431562 128.586151,4.5410628 127.014493,4.5410628 L125.89372,4.5410628 L125.89372,8.92753623 L127.072464,8.92753623 Z" id="Shape"></path>
                    <path d="M138.36715,5.0821256 C139.938808,5.0821256 141.169082,5.56199678 142.057971,6.52173913 C142.94686,7.48148148 143.391304,8.82447665 143.391304,10.5507246 C143.391304,11.6457327 143.188406,12.6022544 142.782609,13.4202899 C142.376812,14.2383253 141.797102,14.8727858 141.043478,15.3236715 C140.289855,15.7745572 139.397746,16 138.36715,16 C136.808374,16 135.581321,15.5201288 134.68599,14.5603865 C133.79066,13.6006441 133.342995,12.257649 133.342995,10.531401 C133.342995,9.43639291 133.545894,8.47987118 133.951691,7.66183575 C134.357488,6.84380032 134.937198,6.20933977 135.690821,5.75845411 C136.444444,5.30756844 137.336554,5.0821256 138.36715,5.0821256 Z M138.36715,7.3236715 C137.748792,7.3236715 137.285024,7.58454106 136.975845,8.10628019 C136.666667,8.62801932 136.512077,9.43639291 136.512077,10.531401 C136.512077,11.6521739 136.663446,12.4702093 136.966184,12.9855072 C137.268921,13.5008052 137.73591,13.7584541 138.36715,13.7584541 C138.985507,13.7584541 139.449275,13.4975845 139.758454,12.9758454 C140.067633,12.4541063 140.222222,11.6457327 140.222222,10.5507246 C140.222222,9.42995169 140.070854,8.61191626 139.768116,8.09661836 C139.465378,7.58132045 138.99839,7.3236715 138.36715,7.3236715 Z" id="Shape"></path>
                    <path d="M151.884058,15.1884058 C151.510467,15.4460548 151.075684,15.6457327 150.57971,15.7874396 C150.083736,15.9291465 149.590982,16 149.101449,16 C146.859903,15.9871176 145.73913,14.7504026 145.73913,12.2898551 L145.73913,7.53623188 L144.289855,7.53623188 L144.289855,5.41062802 L145.73913,5.41062802 L145.73913,3.1884058 L148.792271,2.84057971 L148.792271,5.41062802 L151.149759,5.41062802 L150.821256,7.53623188 L148.792271,7.53623188 L148.792271,12.2512077 C148.792271,12.7278583 148.869565,13.0692432 149.024155,13.2753623 C149.178744,13.4814815 149.423511,13.5845411 149.758454,13.5845411 C150.10628,13.5845411 150.47343,13.4750403 150.859903,13.2560386 L151.884058,15.1884058 Z" id="Path"></path>
                    <path d="M156.763285,5.0821256 C157.497585,5.0821256 158.186796,5.19162641 158.830918,5.41062802 C159.47504,5.62962963 160.041868,5.93880837 160.531401,6.33816425 L159.410628,8.05797101 C158.573269,7.52979066 157.729469,7.26570048 156.879227,7.26570048 C156.479871,7.26570048 156.173913,7.33333333 155.961353,7.46859903 C155.748792,7.60386473 155.642512,7.79388084 155.642512,8.03864734 C155.642512,8.23188406 155.690821,8.38969404 155.78744,8.51207729 C155.884058,8.63446055 156.080515,8.76006441 156.376812,8.88888889 C156.673108,9.01771337 157.130435,9.17230274 157.748792,9.352657 C158.818035,9.66183575 159.613527,10.0644122 160.135266,10.5603865 C160.657005,11.0563607 160.917874,11.742351 160.917874,12.6183575 C160.917874,13.3140097 160.718197,13.9162641 160.318841,14.4251208 C159.919485,14.9339775 159.371981,15.3236715 158.676329,15.5942029 C157.980676,15.8647343 157.20773,16 156.357488,16 C155.494364,16 154.692432,15.8647343 153.951691,15.5942029 C153.21095,15.3236715 152.582931,14.9500805 152.067633,14.47343 L153.555556,12.8115942 C154.41868,13.4814815 155.326892,13.8164251 156.280193,13.8164251 C156.743961,13.8164251 157.107891,13.7326892 157.371981,13.5652174 C157.636071,13.3977456 157.768116,13.1594203 157.768116,12.8502415 C157.768116,12.605475 157.716586,12.4122383 157.613527,12.2705314 C157.510467,12.1288245 157.310789,11.9967794 157.014493,11.8743961 C156.718197,11.7520129 156.247987,11.6006441 155.603865,11.4202899 C154.586151,11.1239936 153.826087,10.7117552 153.323672,10.1835749 C152.821256,9.65539452 152.570048,8.99838969 152.570048,8.21256039 C152.570048,7.61996779 152.740741,7.08856683 153.082126,6.61835749 C153.423511,6.14814815 153.913044,5.77455717 154.550725,5.49758454 C155.188406,5.22061192 155.925926,5.0821256 156.763285,5.0821256 Z" id="Path"></path>
                    <path d="M171.922705,1.33333333 L171.922705,15.6714976 L169.217391,15.6714976 L169.062802,14.47343 C168.341385,15.4911433 167.36876,16 166.144928,16 C164.869565,16 163.900161,15.510467 163.236715,14.531401 C162.573269,13.5523349 162.241546,12.2125604 162.241546,10.5120773 C162.241546,9.46859903 162.415459,8.53462158 162.763285,7.71014493 C163.111111,6.88566828 163.603865,6.24154589 164.241546,5.77777778 C164.879227,5.31400966 165.610306,5.0821256 166.434783,5.0821256 C167.413849,5.0821256 168.225443,5.4041868 168.869565,6.04830918 L168.869565,1.00483092 L171.922705,1.33333333 Z M167.091788,13.7584541 C167.800322,13.7584541 168.392915,13.3719807 168.869565,12.5990338 L168.869565,8.17391304 C168.624799,7.87761675 168.376812,7.65861514 168.125604,7.51690821 C167.874396,7.37520129 167.587762,7.30434783 167.265701,7.30434783 C166.698873,7.30434783 166.247987,7.568438 165.913044,8.09661836 C165.5781,8.62479871 165.410628,9.43639291 165.410628,10.531401 C165.410628,11.7294686 165.555556,12.5668277 165.845411,13.0434783 C166.135266,13.5201288 166.550725,13.7584541 167.091788,13.7584541 Z" id="Shape"></path>
                    <path d="M182.714976,12.6956522 C182.714976,13.0821256 182.769726,13.3655395 182.879227,13.5458937 C182.988728,13.726248 183.165862,13.8615137 183.410628,13.9516908 L182.772947,15.942029 C182.141707,15.8904992 181.626409,15.7520129 181.227053,15.52657 C180.827697,15.3011272 180.518519,14.9436393 180.299517,14.4541063 C179.62963,15.4847021 178.599034,16 177.20773,16 C176.190016,16 175.378422,15.7037037 174.772947,15.1111111 C174.167472,14.5185185 173.864734,13.7455717 173.864734,12.7922705 C173.864734,11.6714976 174.276973,10.8148148 175.101449,10.2222222 C175.925926,9.62962963 177.117552,9.33333333 178.676329,9.33333333 L179.719807,9.33333333 L179.719807,8.88888889 C179.719807,8.28341385 179.590982,7.86795491 179.333333,7.64251208 C179.075684,7.41706924 178.624799,7.30434783 177.980676,7.30434783 C177.645733,7.30434783 177.239936,7.352657 176.763285,7.44927536 C176.286635,7.54589372 175.797102,7.67793881 175.294686,7.84541063 L174.599034,5.83574879 C175.243156,5.59098229 175.903382,5.4041868 176.57971,5.27536232 C177.256039,5.14653784 177.884058,5.0821256 178.463768,5.0821256 C179.932367,5.0821256 181.008052,5.38486312 181.690821,5.99033816 C182.373591,6.5958132 182.714976,7.50402576 182.714976,8.71497585 L182.714976,12.6956522 Z M178.096618,13.8164251 C178.792271,13.8164251 179.333333,13.4879227 179.719807,12.8309179 L179.719807,11.0144928 L178.966184,11.0144928 C178.270531,11.0144928 177.752013,11.136876 177.410628,11.3816425 C177.069243,11.626409 176.898551,12.0064412 176.898551,12.5217391 C176.898551,12.9339775 177.004831,13.252818 177.217391,13.4782609 C177.429952,13.7037037 177.723027,13.8164251 178.096618,13.8164251 Z" id="Shape"></path>
                    <path d="M196.7343,5.0821256 C197.545894,5.0821256 198.196457,5.35587762 198.68599,5.90338164 C199.175523,6.45088567 199.42029,7.20772947 199.42029,8.17391304 L199.42029,15.6714976 L196.36715,15.6714976 L196.36715,8.69565217 C196.36715,7.78099839 196.077295,7.3236715 195.497585,7.3236715 C195.175523,7.3236715 194.89211,7.4331723 194.647343,7.65217391 C194.402577,7.87117552 194.164251,8.20611916 193.932367,8.65700483 L193.932367,15.6714976 L190.879227,15.6714976 L190.879227,8.69565217 C190.879227,7.78099839 190.589372,7.3236715 190.009662,7.3236715 C189.700483,7.3236715 189.42029,7.43639291 189.169082,7.66183575 C188.917874,7.88727858 188.676329,8.21900161 188.444445,8.65700483 L188.444445,15.6714976 L185.391304,15.6714976 L185.391304,5.41062802 L188.057971,5.41062802 L188.270531,6.60869565 C188.669887,6.09339775 189.111111,5.71014493 189.594203,5.4589372 C190.077295,5.20772947 190.628019,5.0821256 191.246377,5.0821256 C191.826087,5.0821256 192.325282,5.22383253 192.743961,5.50724638 C193.162641,5.79066023 193.468599,6.1900161 193.661836,6.70531401 C194.074074,6.15136876 194.52818,5.74235105 195.024155,5.47826087 C195.520129,5.21417069 196.090177,5.0821256 196.7343,5.0821256 Z" id="Path"></path>
                </g>
            </g>
        </g>
    </g>
</svg>