<?xml version="1.0" encoding="UTF-8" standalone="no"?>
<svg
   id="Ebene_2"
   data-name="Ebene 2"
   viewBox="0 0 669.27079 79.575688"
   version="1.1"
   sodipodi:docname="logo.svg"
   width="669.27081"
   height="79.575691"
   inkscape:version="1.4.3 (fcd0343856, 2026-01-01)"
   xmlns:inkscape="http://www.inkscape.org/namespaces/inkscape"
   xmlns:sodipodi="http://sodipodi.sourceforge.net/DTD/sodipodi-0.dtd"
   xmlns="http://www.w3.org/2000/svg"
   xmlns:svg="http://www.w3.org/2000/svg">
  <sodipodi:namedview
     id="namedview6"
     pagecolor="#ffffff"
     bordercolor="#000000"
     borderopacity="0.25"
     inkscape:showpageshadow="2"
     inkscape:pageopacity="0.0"
     inkscape:pagecheckerboard="0"
     inkscape:deskcolor="#d1d1d1"
     inkscape:zoom="1.4142136"
     inkscape:cx="298.75261"
     inkscape:cy="100.40916"
     inkscape:window-width="2560"
     inkscape:window-height="1371"
     inkscape:window-x="2560"
     inkscape:window-y="32"
     inkscape:window-maximized="1"
     inkscape:current-layer="g8" />
  <defs
     id="defs1">
    <style
       id="style1">
      .cls-1 {
        fill: #80ffe0;
      }

      .cls-2 {
        fill: #2b2d2c;
      }

      .cls-3 {
        fill: #1d1d1b;
      }

      .cls-4 {
        fill: #e74011;
      }
    </style>
  </defs>
  <g
     id="Ebene_1-2"
     data-name="Ebene 1"
     transform="translate(-30.991378,-30.207158)">
    <g
       id="g6">
      <g
         id="g9"
         transform="translate(28.991378)">
        <g
           id="g7"
           transform="translate(0,5.2071577)">
          <path
             class="cls-1"
             d="m 41.787843,104.5684 c 21.975547,0 39.787844,-17.812301 39.787844,-39.787848 C 81.575687,42.805005 63.756099,25 41.787843,25 19.819588,25 2,42.812296 2,64.787843 2,86.76339 19.812296,104.57569 41.787843,104.57569 v 0 z"
             id="path1"
             style="stroke-width:0.729116" />
        </g>
        <path
           class="cls-4"
           d="m 85.44,62.474177 c 0,-2.909172 -0.415596,-5.679811 -1.246788,-8.224425 -0.933268,-2.858134 -2.304005,-5.468368 -4.061174,-7.7505 C 76.945802,42.26309 72.549235,39.040399 67.066285,36.925963 61.874981,34.869857 56.311828,33.827221 50.529941,33.827221 h -0.904104 c -5.366291,0.109368 -10.878406,1.494688 -16.405103,4.126795 -5.468368,2.690437 -10.076379,6.562041 -13.685502,11.520028 -1.917574,2.683146 -3.47059,5.730849 -4.615302,9.048326 -1.152003,3.324767 -1.76446,6.984928 -1.815498,10.885697 v 0.31352 c 0,5.585026 1.414484,11.170052 4.199706,16.580091 2.792514,5.585026 6.780776,10.20762 11.870004,13.736532 2.741475,1.90299 5.79647,3.39768 9.07749,4.44761 3.295603,1.10825 6.853688,1.67696 10.579469,1.67696 h 0.167697 c 5.73814,-0.051 10.65238,-0.96243 14.604187,-2.71231 3.878895,-1.73529 7.145334,-3.740355 9.719112,-5.949575 1.363447,-1.159294 2.588361,-2.33317 3.630996,-3.492464 0.977015,-1.100965 1.830081,-2.107145 2.537323,-2.996666 0.109367,-0.138532 0.138532,-0.328102 0.06562,-0.495798 -0.116658,-0.284356 -0.291646,-0.597875 -0.517672,-0.925977 -0.306228,-0.568711 -0.750989,-0.648913 -0.991597,-0.648913 -0.07291,0 -0.138532,0 -0.211444,0.02187 -0.123949,0.02187 -0.240608,0.08749 -0.313519,0.18957 -0.69266,0.867648 -1.582181,1.851954 -2.653982,2.945628 -1.064508,1.122838 -2.296714,2.238385 -3.689325,3.317476 -2.602943,2.099853 -5.825634,4.002844 -9.558707,5.643349 -3.703907,1.63322 -7.925487,2.45712 -12.548081,2.45712 -5.935002,0 -11.301293,-1.60405 -15.960342,-4.76841 -4.622594,-3.127907 -8.31921,-7.159916 -10.973192,-11.97208 -1.385319,-2.559196 -2.464411,-5.322545 -3.208109,-8.202552 -0.743698,-2.814386 -1.122838,-5.730849 -1.122838,-8.647312 0.109368,-6.926599 1.851954,-12.898056 5.198595,-17.761258 3.353932,-4.877784 7.349486,-8.676477 11.870004,-11.294002 2.442537,-1.436358 4.972569,-2.551905 7.517182,-3.317476 2.544614,-0.714534 4.987152,-1.100965 7.254702,-1.159294 5.592317,-0.05104 10.798203,0.940559 15.471835,2.938336 4.659049,1.990486 8.413995,4.936113 11.162761,8.756679 1.480105,2.092562 2.632108,4.447606 3.426844,6.99222 0.794736,2.602943 1.166585,5.48295 1.115547,8.545236 -0.0802,3.893478 -0.670787,7.619259 -1.735296,11.046103 -0.07291,0.211443 -0.160405,0.44476 -0.247899,0.707242 -0.408305,1.173876 -0.969724,2.785222 -1.815498,4.454897 -1.173876,2.20922 -2.107144,3.616413 -3.638287,4.710087 -0.656205,0.437469 -1.363447,0.750989 -2.114436,0.94785 -0.25519,0.06562 -0.466634,0.109368 -0.780154,0.109368 v 0 c -0.342684,-0.01458 -0.612457,-0.08749 -0.925977,-0.182279 -0.393722,-0.116659 -0.736407,-0.430178 -1.035344,-0.933268 -0.284355,-0.576002 -0.50309,-1.290535 -0.656204,-2.121727 -0.306229,-1.676966 -0.408305,-3.827857 -0.306229,-6.379762 0.153115,-2.500867 0.284355,-5.140266 0.393723,-7.837994 0.102076,-2.245676 0.102076,-4.47677 0,-6.613079 -0.05104,-2.114436 -0.298938,-4.024719 -0.721825,-5.679812 -0.437469,-1.589472 -1.144711,-2.880007 -2.085271,-3.820566 -0.889521,-0.889521 -2.08527,-1.334282 -3.558084,-1.334282 -0.167697,0 -0.342685,0 -0.50309,0.01458 -1.290535,0.05833 -2.52274,0.780154 -3.638287,2.121726 -1.122838,1.232206 -2.150892,2.77064 -3.054995,4.571556 -1.363446,2.668563 -2.530032,5.48295 -3.477882,8.377539 -0.218735,0.685369 -0.415596,1.312408 -0.597875,1.895701 0.02916,-0.430178 0.05833,-0.896812 0.09478,-1.392611 0.211444,-3.033121 0.211444,-6.139154 0,-9.223314 -0.160405,-2.595651 -0.597875,-4.85591 -1.283243,-6.707864 C 48.430082,48.314744 47.212459,47.2794 45.51362,47.2794 h -0.09478 c -2.085271,0.05833 -4.097631,1.254079 -5.971458,3.550793 -0.831192,1.013471 -1.618637,2.136309 -2.347752,3.346641 -0.204153,-3.397679 -0.357267,-5.541279 -0.466635,-6.372471 -0.02916,-0.204152 -0.174987,-0.371849 -0.371849,-0.422887 -0.539545,-0.138532 -1.0718,-0.03646 -1.538434,0.306229 -0.415596,0.247899 -0.787445,0.641621 -1.122838,1.166585 -0.02916,0.04375 -0.05104,0.09478 -0.06562,0.153114 -0.933268,3.769528 -2.085271,7.495309 -3.426844,11.053394 -0.408305,1.042635 -0.787445,2.449829 -0.277064,3.200818 0.18957,0.269773 0.466634,0.422887 0.787445,0.422887 0.75828,0 1.582181,-0.853065 2.1436,-2.238385 0.517672,-1.268661 0.962433,-2.435247 1.341573,-3.499756 -0.01458,0.685369 -0.02916,1.421776 -0.04375,2.216512 0,0.102076 -0.01458,0.204153 -0.05104,0.298938 -0.466634,1.305117 -0.94785,2.675854 -1.414484,4.083048 -0.62704,1.881118 -1.181168,3.762236 -1.655093,5.599608 -1.100965,4.403859 -1.662384,8.341084 -1.662384,11.709598 0,3.645579 0.918686,5.526697 2.748766,5.592317 1.370738,0 2.442538,-1.115547 3.186236,-3.317476 0.678077,-2.005068 1.181167,-4.571555 1.494687,-7.62655 0.153114,-1.589472 0.284355,-3.310185 0.393723,-5.111101 0.102076,-1.779042 0.160405,-3.579958 0.160405,-5.351709 v -4.206992 c 1.028053,-2.486284 2.172765,-4.804872 3.40497,-6.904725 1.968613,-3.536212 3.375806,-4.27991 4.214289,-4.27991 0.01458,0 0.02916,0 0.04375,0 0.452052,-0.03646 0.809318,0.145824 1.122838,0.568711 0.335393,0.473925 0.62704,1.159294 0.874939,2.034232 0.459343,1.676967 0.721824,3.900769 0.772863,6.61308 0.05104,2.734184 -0.02916,5.592317 -0.233317,8.501489 -0.153115,2.967501 -0.335394,5.840216 -0.546837,8.50878 -0.262482,2.71231 -0.422887,4.826746 -0.473925,6.292268 0,0.138532 0.05104,0.269773 0.145823,0.371849 0.401013,0.408305 0.991597,0.481217 1.713422,0.18957 0.02187,-0.0073 0.03645,-0.01458 0.05833,-0.02916 0.532254,-0.298938 0.911394,-0.590584 1.159294,-0.911395 0.04375,-0.05833 0.0802,-0.131241 0.09479,-0.204152 0.357266,-1.604055 0.845774,-3.601832 1.480105,-6.095407 0.619748,-2.435247 1.378028,-4.979861 2.252967,-7.568221 1.181168,-3.769528 2.537323,-7.276575 4.03201,-10.433646 1.706131,-3.674743 2.931045,-4.556973 3.645578,-4.644467 0.94056,-0.08749 1.63322,0.218735 2.099854,0.947851 0,0.0073 0.01458,0.02187 0.02187,0.02916 0.56871,0.765572 0.955142,1.866536 1.152003,3.288312 0.204152,1.531143 0.284355,3.324768 0.233317,5.322545 -0.05104,2.070688 -0.131241,4.250744 -0.233317,6.489129 -0.102076,2.639399 -0.160406,5.256924 -0.160406,7.772373 0,2.51545 0.306229,4.819455 0.911395,6.576624 0.342684,1.049927 0.838483,1.932157 1.480105,2.602943 0.590584,0.699951 1.334282,1.166585 2.223803,1.407193 0.583292,0.138532 1.13742,0.218735 1.662384,0.240609 v 0 c 0,0 0,0 0,0 0.05833,0 0.0802,0 0.13124,0 0.444761,-0.0073 1.013471,-0.109368 1.487396,-0.240609 1.108256,-0.306228 2.792513,-0.969724 3.864314,-1.83008 2.136309,-1.684257 3.645578,-3.40497 4.739252,-5.41733 0.357266,-0.699951 0.670786,-1.268661 0.94785,-1.779042 0.619748,-1.122838 1.108256,-2.012359 1.582181,-3.463299 0.01458,-0.04375 0.02187,-0.09479 0.02187,-0.138532 1.275952,-3.638288 2.005068,-7.604677 2.165473,-11.811675 0.05104,-0.488507 0.0802,-0.94785 0.0802,-1.370737 v 0 z m -51.249542,5.949584 c -0.05104,1.326991 -0.306229,6.875561 -0.401014,8.056728 -0.204152,2.384209 -0.802027,4.396568 -1.057218,5.993331 -0.218734,1.341573 -0.422887,1.786334 -0.51038,1.917575 -0.05833,-0.01458 -0.08749,-0.03646 -0.12395,-0.07291 -0.116659,-0.131241 -0.386431,-0.612457 -0.247899,-2.289423 0.102076,-1.939448 0.160405,-4.330947 0.882229,-7.116169 0.167697,-0.721825 1.246788,-5.738141 1.450941,-6.496421 v 0 z"
           id="path2"
           style="stroke-width:0.729116" />
      </g>
      <g
         id="g8"
         transform="translate(0.70710659,-22.649547)">
        <path
           class="cls-4"
           d="M 382.34,105.02 V 80.14 h -5.01 v 24.88 z m 0.14,-29.79 v -5.3 h -5.3 v 5.3 z m 26.98,29.79 v -15.9 c 0,-2.8 -0.59,-5.15 -2.5,-7.02 -1.47,-1.42 -3.58,-2.26 -6.13,-2.26 -2.55,0 -4.91,0.93 -6.62,2.8 v -2.5 h -4.91 v 24.88 h 5.01 V 89.86 c 0,-3.83 2.36,-5.55 5.15,-5.55 2.79,0 5.01,1.67 5.01,5.55 v 15.16 h 5.01 z"
           id="path3" />
        <path
           class="cls-2"
           d="m 358.76,105.02 v -15.9 c 0,-2.8 -0.59,-5.15 -2.5,-7.02 -1.47,-1.42 -3.58,-2.26 -6.13,-2.26 -2.55,0 -4.91,0.93 -6.63,2.8 v -2.5 h -4.91 v 24.88 h 5.01 V 89.86 c 0,-3.83 2.36,-5.55 5.15,-5.55 2.79,0 5.01,1.67 5.01,5.55 v 15.16 h 5.01 z m 12.34,-3 c 0,-1.71 -1.38,-3.09 -3.09,-3.09 -1.71,0 -3.09,1.38 -3.09,3.09 0,1.71 1.38,3.09 3.09,3.09 1.71,0 3.09,-1.38 3.09,-3.09 z"
           id="path4" />
        <path
           class="cls-3"
           d="m 174.45,105.02 v -15.9 c 0,-2.8 -0.74,-5.15 -2.65,-7.02 -1.47,-1.42 -3.73,-2.26 -6.28,-2.26 -3.29,0 -5.79,1.18 -7.8,3.63 -1.57,-2.4 -3.97,-3.63 -7.07,-3.63 -2.5,0 -4.96,0.98 -6.62,2.8 v -2.5 h -4.91 v 24.88 h 5.01 V 89.86 c 0,-3.83 2.36,-5.55 5.15,-5.55 2.79,0 5.01,1.67 5.01,5.55 v 15.16 h 5.01 V 89.61 c 0,-3.58 2.45,-5.3 5.15,-5.3 2.7,0 5.01,1.67 5.01,5.55 v 15.16 h 5.01 z m 11.85,0 V 80.14 h -5.01 v 24.88 z m 0.15,-29.79 v -5.3 h -5.3 v 5.3 z m 17.45,29.79 v -4.27 h -2.06 c -1.87,0 -2.75,-1.08 -2.75,-2.9 V 84.4 h 4.81 v -3.83 h -4.81 v -7.56 h -5.01 v 7.56 h -2.85 v 3.83 h 2.85 v 13.69 c 0,3.58 2.16,6.92 6.82,6.92 h 2.99 z m 16.89,0 v -4.27 h -2.06 c -1.87,0 -2.75,-1.08 -2.75,-2.9 V 84.4 h 4.81 v -3.83 h -4.81 v -7.56 h -5.01 v 7.56 h -2.85 v 3.83 h 2.85 v 13.69 c 0,3.58 2.16,6.92 6.82,6.92 h 2.99 z m 24.95,-10.99 v -2.21 c 0,-7.07 -3.88,-11.97 -10.55,-11.97 -6.67,0 -10.55,4.66 -10.55,12.71 0,9.47 4.96,12.76 11.19,12.76 4.37,0 6.77,-1.33 9.33,-3.88 l -3.19,-2.99 c -1.77,1.77 -3.24,2.55 -6.04,2.55 -4.07,0 -6.33,-2.7 -6.33,-6.97 h 16.15 z m -4.95,-3.48 H 229.6 c 0.05,-1.52 0.15,-2.26 0.64,-3.39 0.79,-1.86 2.6,-3.14 4.96,-3.14 2.36,0 4.12,1.28 4.91,3.14 0.49,1.13 0.64,1.86 0.69,3.39 v 0 z m 30.9,14.47 v -15.9 c 0,-2.8 -0.59,-5.15 -2.5,-7.02 -1.47,-1.42 -3.58,-2.26 -6.14,-2.26 -2.56,0 -4.91,0.93 -6.62,2.8 v -2.5 h -4.91 v 24.88 h 5.01 V 89.86 c 0,-3.83 2.36,-5.55 5.15,-5.55 2.79,0 5.01,1.67 5.01,5.55 v 15.16 h 5.01 z m 26.25,0 V 70.08 h -5.01 v 12.56 c -1.82,-2.16 -3.88,-2.8 -6.53,-2.8 -2.5,0 -4.66,0.83 -6.04,2.21 -2.5,2.5 -2.8,6.72 -2.8,10.5 0,3.78 0.29,8.05 2.8,10.55 1.38,1.37 3.58,2.21 6.09,2.21 2.7,0 4.71,-0.69 6.58,-2.94 v 2.65 z m -5.01,-12.46 c 0,4.42 -0.64,8.29 -5.15,8.29 -4.51,0 -5.2,-3.88 -5.2,-8.29 0,-4.41 0.69,-8.24 5.2,-8.24 4.51,0 5.15,3.83 5.15,8.24 z M 322.4,82.2 c -1.72,-1.72 -3.53,-2.36 -5.94,-2.36 -2.8,0 -5.35,1.23 -6.63,2.99 v -2.7 h -4.91 v 24.88 h 5.01 V 89.89 c 0,-3.44 2.26,-5.59 4.96,-5.59 1.72,0 2.6,0.54 3.73,1.67 l 3.78,-3.78 v 0 z m 9.24,22.82 V 80.14 h -5.01 v 24.88 z m 0.15,-29.79 v -5.3 h -5.3 v 5.3 z"
           id="path5" />
        <path
           class="cls-4"
           d="m 446.16508,95.159094 c 0,-4.42 -2.55,-7.02 -5.25,-8.1 2.36,-0.93 4.71,-3.629999 4.71,-7.409999 0,-5.89 -4.07,-9.570001 -10.55,-9.570001 h -13.59 V 105.0191 h 14.13 c 6.18,0 10.55,-3.44 10.55,-9.870006 v 0 z m -5.3,-0.25 c 0,3.09 -2.06,5.349996 -5.74,5.349996 h -8.34 V 89.609094 h 8.34 c 3.68,0 5.74,2.21 5.74,5.3 z m -0.54,-15.07 c 0,3.24 -2.31,5.01 -5.69,5.01 h -7.85 v -10.01 h 7.85 c 3.39,0 5.69,1.77 5.69,5.01 v 0 z m 29.65,2.36 c -1.72,-1.72 -3.53,-2.36 -5.94,-2.36 -2.8,0 -5.35,1.23 -6.63,2.99 v -2.7 h -4.91 v 24.879996 h 5.01 V 89.889094 c 0,-3.44 2.26,-5.599999 4.96,-5.599999 1.72,0 2.6,0.54 3.73,1.67 l 3.78,-3.78 v 0 z m 22.85,22.819996 V 88.379094 c 0,-5.64 -3.43,-8.54 -10.26,-8.54 -4.12,0 -6.58,0.83 -8.93,3.58 l 3.29,3.09 c 1.37,-1.77 2.7,-2.4 5.45,-2.4 3.88,0 5.45,1.52 5.45,4.66 v 1.77 h -6.58 c -5.69,0 -8.59,2.99 -8.59,7.16 0,2.11 0.69,4.019996 1.96,5.349996 1.52,1.52 3.58,2.26 6.67,2.26 3.09,0 4.81,-0.74 6.63,-2.55 v 2.26 z m -5.01,-8.979996 c 0,1.77 -0.34,2.94 -1.08,3.68 -1.32,1.280006 -2.75,1.420006 -4.66,1.420006 -3.14,0 -4.56,-1.280006 -4.56,-3.530006 0,-2.25 1.52,-3.58 4.47,-3.58 h 5.84 v 2.01 0 z m 32.01,8.979996 V 89.119095 c 0,-2.8 -0.59,-5.150001 -2.5,-7.02 -1.47,-1.42 -3.58,-2.26 -6.13,-2.26 -2.55,0 -4.91,0.93 -6.63,2.799999 v -2.5 h -4.91 V 105.0191 h 5 V 89.849095 c 0,-3.83 2.36,-5.55 5.15,-5.55 2.79,0 5,1.67 5,5.55 V 105.0191 h 5.01 z m 26.24,0 V 70.079094 h -5.01 v 12.56 c -1.82,-2.159999 -3.88,-2.799999 -6.53,-2.799999 -2.5,0 -4.66,0.829999 -6.04,2.209999 -2.5,2.5 -2.8,6.72 -2.8,10.5 0,3.78 0.3,8.049996 2.8,10.549996 1.37,1.37001 3.58,2.21 6.09,2.21 2.7,0 4.71,-0.69 6.58,-2.94 v 2.65001 z m -5,-12.459996 c 0,4.42 -0.64,8.289996 -5.15,8.289996 -4.51,0 -5.2,-3.879996 -5.2,-8.289996 0,-4.41 0.69,-8.25 5.2,-8.25 4.51,0 5.15,3.83 5.15,8.25 z m 31.99,1.47 v -2.21 c 0,-7.07 -3.88,-11.98 -10.55,-11.98 -6.67,0 -10.55,4.66 -10.55,12.71 0,9.470006 4.96,12.759996 11.19,12.759996 4.37,0 6.77,-1.33 9.32,-3.88 l -3.19,-2.989996 c -1.77,1.769996 -3.24,2.549996 -6.04,2.549996 -4.07,0 -6.33,-2.699996 -6.33,-6.969996 h 16.15 z m -4.96,-3.49 h -11.19 c 0.05,-1.52 0.15,-2.26 0.64,-3.39 0.79,-1.87 2.6,-3.14 4.96,-3.14 2.36,0 4.12,1.28 4.91,3.14 0.49,1.13 0.64,1.86 0.69,3.39 v 0 z m 30.91,14.479996 V 89.119095 c 0,-2.8 -0.59,-5.150001 -2.5,-7.02 -1.47,-1.42 -3.58,-2.26 -6.13,-2.26 -2.55,0 -4.91,0.93 -6.63,2.799999 v -2.5 h -4.91 V 105.0191 h 5.01 V 89.849095 c 0,-3.83 2.36,-5.55 5.15,-5.55 2.79,0 5,1.67 5,5.55 V 105.0191 Z m 27.2,-12.459996 c 0,-3.78 -0.29,-8 -2.8,-10.5 -1.37,-1.37 -3.53,-2.21 -6.04,-2.21 -2.65,0 -4.71,0.64 -6.53,2.8 v -12.56 h -5.01 v 34.939996 h 4.91 v -2.65 c 1.86,2.26 3.88,2.94 6.58,2.94 2.5,0 4.71,-0.83 6.08,-2.21 2.5,-2.5 2.8,-6.769995 2.8,-10.549996 v 0 z m -5,0 c 0,4.42 -0.64,8.289996 -5.15,8.289996 -4.51,0 -5.2,-3.879996 -5.2,-8.289996 0,-4.41 0.69,-8.25 5.2,-8.25 4.51,0 5.15,3.83 5.15,8.25 z m 31.05,12.459996 V 80.139094 h -5.01 v 15.17 c 0,3.83 -2.36,5.550006 -5.15,5.550006 -2.79,0 -5.01,-1.670005 -5.01,-5.550006 v -15.17 h -5.01 v 15.900001 c 0,2.8 0.59,5.150005 2.5,7.020005 1.47,1.42 3.58,2.26 6.13,2.26 2.55,0 4.91,-0.93 6.63,-2.8 v 2.5 h 4.91 z m 24.47,-22.819996 c -1.72,-1.72 -3.53,-2.36 -5.94,-2.36 -2.8,0 -5.35,1.23 -6.62,2.99 v -2.7 h -4.91 v 24.879996 h 5.01 V 89.889094 c 0,-3.44 2.26,-5.599999 4.96,-5.599999 1.72,0 2.6,0.54 3.73,1.67 l 3.78,-3.78 v 0 z m 22.83,22.669996 V 80.129094 h -4.86 v 2.65 c -1.86,-2.26 -3.88,-2.95 -6.53,-2.95 -2.5,0 -4.61,0.790001 -5.99,2.16 -2.4,2.4 -2.8,5.89 -2.8,10.11 0,4.22 0.39,7.71 2.8,10.109996 1.37,1.37001 3.43,2.21 5.94,2.21 2.51,0 4.61,-0.69 6.43,-2.85 v 3.19 c 0,3.34 -1.62,6.33 -5.84,6.33 -2.45,0 -3.83,-0.74 -5.4,-2.20999 l -3.19,3.18999 c 2.6,2.40001 5.01,3.29001 8.78,3.29001 6.63,0 10.65,-4.42 10.65,-10.5 v 0 z m -5.01,-12.759996 c 0,3.930001 -0.54,7.8 -5.05,7.8 -4.51,0 -5.1,-3.88 -5.1,-7.8 0,-3.92 0.59,-7.8 5.1,-7.8 4.51,0 5.05,3.88 5.05,7.8 z"
           id="path6" />
      </g>
    </g>
  </g>
</svg>
