<?xml version="1.0" encoding="UTF-8"?>
<svg width="188px" height="52px" viewBox="0 0 188 52" version="1.1" xmlns="http://www.w3.org/2000/svg" xmlns:xlink="http://www.w3.org/1999/xlink">
    <title>Group</title>
    <g id="Symbole" stroke="none" stroke-width="1" fill="none" fill-rule="evenodd">
        <g id="64em/Header/Header.IKMO-blau-Copy-2" transform="translate(-18, -20)" fill="#FFFFFF" fill-rule="nonzero">
            <g id="Group" transform="translate(18.6816, 20.67)">
                <g id="mittendrin.in">
                    <path d="M17.61,7.89 C18.87,7.89 19.88,8.315 20.64,9.165 C21.4,10.015 21.78,11.19 21.78,12.69 L21.78,24.33 L17.04,24.33 L17.04,13.5 C17.04,12.08 16.59,11.37 15.69,11.37 C15.19,11.37 14.75,11.54 14.37,11.88 C13.99,12.22 13.62,12.74 13.26,13.44 L13.26,24.33 L8.52,24.33 L8.52,13.5 C8.52,12.08 8.07,11.37 7.17,11.37 C6.69,11.37 6.255,11.545 5.865,11.895 C5.475,12.245 5.1,12.76 4.74,13.44 L4.74,24.33 L0,24.33 L0,8.4 L4.14,8.4 L4.47,10.26 C5.09,9.46 5.775,8.865 6.525,8.475 C7.275,8.085 8.13,7.89 9.09,7.89 C9.99,7.89 10.765,8.11 11.415,8.55 C12.065,8.99 12.54,9.61 12.84,10.41 C13.48,9.55 14.185,8.915 14.955,8.505 C15.725,8.095 16.61,7.89 17.61,7.89 Z" id="Path"></path>
                    <path d="M31.0275,8.4 L31.0275,24.33 L26.2875,24.33 L26.2875,8.4 L31.0275,8.4 Z M28.6275,0 C29.4475,0 30.1225,0.255 30.6525,0.765 C31.1825,1.275 31.4475,1.92 31.4475,2.7 C31.4475,3.48 31.1825,4.125 30.6525,4.635 C30.1225,5.145 29.4475,5.4 28.6275,5.4 C27.8075,5.4 27.1375,5.145 26.6175,4.635 C26.0975,4.125 25.8375,3.48 25.8375,2.7 C25.8375,1.92 26.0975,1.275 26.6175,0.765 C27.1375,0.255 27.8075,0 28.6275,0 Z" id="Shape"></path>
                    <path d="M45.675,23.58 C45.095,23.98 44.42,24.29 43.65,24.51 C42.88,24.73 42.115,24.84 41.355,24.84 C37.875,24.82 36.135,22.9 36.135,19.08 L36.135,11.7 L33.885,11.7 L33.885,8.4 L36.135,8.4 L36.135,4.95 L40.875,4.41 L40.875,8.4 L44.535,8.4 L44.025,11.7 L40.875,11.7 L40.875,19.02 C40.875,19.76 40.995,20.29 41.235,20.61 C41.475,20.93 41.855,21.09 42.375,21.09 C42.915,21.09 43.485,20.92 44.085,20.58 L45.675,23.58 Z" id="Path"></path>
                    <path d="M58.1925,23.58 C57.6125,23.98 56.9375,24.29 56.1675,24.51 C55.3975,24.73 54.6325,24.84 53.8725,24.84 C50.3925,24.82 48.6525,22.9 48.6525,19.08 L48.6525,11.7 L46.4025,11.7 L46.4025,8.4 L48.6525,8.4 L48.6525,4.95 L53.3925,4.41 L53.3925,8.4 L57.0525,8.4 L56.5425,11.7 L53.3925,11.7 L53.3925,19.02 C53.3925,19.76 53.5125,20.29 53.7525,20.61 C53.9925,20.93 54.3725,21.09 54.8925,21.09 C55.4325,21.09 56.0025,20.92 56.6025,20.58 L58.1925,23.58 Z" id="Path"></path>
                    <path d="M74.07,16.05 C74.07,16.71 74.04,17.28 73.98,17.76 L64.11,17.76 C64.27,19.1 64.65,20.04 65.25,20.58 C65.85,21.12 66.68,21.39 67.74,21.39 C68.38,21.39 69,21.275 69.6,21.045 C70.2,20.815 70.85,20.46 71.55,19.98 L73.5,22.62 C71.64,24.1 69.57,24.84 67.29,24.84 C64.71,24.84 62.73,24.08 61.35,22.56 C59.97,21.04 59.28,19 59.28,16.44 C59.28,14.82 59.57,13.365 60.15,12.075 C60.73,10.785 61.58,9.765 62.7,9.015 C63.82,8.265 65.16,7.89 66.72,7.89 C69.02,7.89 70.82,8.61 72.12,10.05 C73.42,11.49 74.07,13.49 74.07,16.05 Z M69.42,14.7 C69.38,12.26 68.52,11.04 66.84,11.04 C66.02,11.04 65.385,11.34 64.935,11.94 C64.485,12.54 64.21,13.53 64.11,14.91 L69.42,14.91 L69.42,14.7 Z" id="Shape"></path>
                    <path d="M87.0075,7.89 C88.3875,7.89 89.4675,8.31 90.2475,9.15 C91.0275,9.99 91.4175,11.17 91.4175,12.69 L91.4175,24.33 L86.6775,24.33 L86.6775,13.5 C86.6775,12.7 86.5525,12.145 86.3025,11.835 C86.0525,11.525 85.6775,11.37 85.1775,11.37 C84.2175,11.37 83.2975,12.06 82.4175,13.44 L82.4175,24.33 L77.6775,24.33 L77.6775,8.4 L81.8175,8.4 L82.1475,10.29 C82.8275,9.49 83.5625,8.89 84.3525,8.49 C85.1425,8.09 86.0275,7.89 87.0075,7.89 Z" id="Path"></path>
                    <path d="M110.205,2.07 L110.205,24.33 L106.005,24.33 L105.765,22.47 C104.645,24.05 103.135,24.84 101.235,24.84 C99.255,24.84 97.75,24.08 96.72,22.56 C95.69,21.04 95.175,18.96 95.175,16.32 C95.175,14.7 95.445,13.25 95.985,11.97 C96.525,10.69 97.29,9.69 98.28,8.97 C99.27,8.25 100.405,7.89 101.685,7.89 C103.205,7.89 104.465,8.39 105.465,9.39 L105.465,1.56 L110.205,2.07 Z M102.705,21.36 C103.805,21.36 104.725,20.76 105.465,19.56 L105.465,12.69 C105.085,12.23 104.7,11.89 104.31,11.67 C103.92,11.45 103.475,11.34 102.975,11.34 C102.095,11.34 101.395,11.75 100.875,12.57 C100.355,13.39 100.095,14.65 100.095,16.35 C100.095,18.21 100.32,19.51 100.77,20.25 C101.22,20.99 101.865,21.36 102.705,21.36 Z" id="Shape"></path>
                    <path d="M123.5025,7.95 C124.0825,7.95 124.6125,8.02 125.0925,8.16 L124.3425,12.75 C123.7425,12.61 123.2625,12.54 122.9025,12.54 C121.9625,12.54 121.2475,12.865 120.7575,13.515 C120.2675,14.165 119.8825,15.14 119.6025,16.44 L119.6025,24.33 L114.8625,24.33 L114.8625,8.4 L119.0025,8.4 L119.3925,11.49 C119.7525,10.39 120.2975,9.525 121.0275,8.895 C121.7575,8.265 122.5825,7.95 123.5025,7.95 Z" id="Path"></path>
                    <path d="M132.57,8.4 L132.57,24.33 L127.83,24.33 L127.83,8.4 L132.57,8.4 Z M130.17,0 C130.99,0 131.665,0.255 132.195,0.765 C132.725,1.275 132.99,1.92 132.99,2.7 C132.99,3.48 132.725,4.125 132.195,4.635 C131.665,5.145 130.99,5.4 130.17,5.4 C129.35,5.4 128.68,5.145 128.16,4.635 C127.64,4.125 127.38,3.48 127.38,2.7 C127.38,1.92 127.64,1.275 128.16,0.765 C128.68,0.255 129.35,0 130.17,0 Z" id="Shape"></path>
                    <path d="M146.5575,7.89 C147.9375,7.89 149.0175,8.31 149.7975,9.15 C150.5775,9.99 150.9675,11.17 150.9675,12.69 L150.9675,24.33 L146.2275,24.33 L146.2275,13.5 C146.2275,12.7 146.1025,12.145 145.8525,11.835 C145.6025,11.525 145.2275,11.37 144.7275,11.37 C143.7675,11.37 142.8475,12.06 141.9675,13.44 L141.9675,24.33 L137.2275,24.33 L137.2275,8.4 L141.3675,8.4 L141.6975,10.29 C142.3775,9.49 143.1125,8.89 143.9025,8.49 C144.6925,8.09 145.5775,7.89 146.5575,7.89 Z" id="Path"></path>
                    <path d="M157.215,19.41 C157.955,19.41 158.59,19.675 159.12,20.205 C159.65,20.735 159.915,21.37 159.915,22.11 C159.915,22.87 159.65,23.515 159.12,24.045 C158.59,24.575 157.955,24.84 157.215,24.84 C156.455,24.84 155.81,24.575 155.28,24.045 C154.75,23.515 154.485,22.87 154.485,22.11 C154.485,21.37 154.75,20.735 155.28,20.205 C155.81,19.675 156.455,19.41 157.215,19.41 Z" id="Path"></path>
                    <path d="M168.3525,8.4 L168.3525,24.33 L163.6125,24.33 L163.6125,8.4 L168.3525,8.4 Z M165.9525,0 C166.7725,0 167.4475,0.255 167.9775,0.765 C168.5075,1.275 168.7725,1.92 168.7725,2.7 C168.7725,3.48 168.5075,4.125 167.9775,4.635 C167.4475,5.145 166.7725,5.4 165.9525,5.4 C165.1325,5.4 164.4625,5.145 163.9425,4.635 C163.4225,4.125 163.1625,3.48 163.1625,2.7 C163.1625,1.92 163.4225,1.275 163.9425,0.765 C164.4625,0.255 165.1325,0 165.9525,0 Z" id="Shape"></path>
                    <path d="M182.34,7.89 C183.72,7.89 184.8,8.31 185.58,9.15 C186.36,9.99 186.75,11.17 186.75,12.69 L186.75,24.33 L182.01,24.33 L182.01,13.5 C182.01,12.7 181.885,12.145 181.635,11.835 C181.385,11.525 181.01,11.37 180.51,11.37 C179.55,11.37 178.63,12.06 177.75,13.44 L177.75,24.33 L173.01,24.33 L173.01,8.4 L177.15,8.4 L177.48,10.29 C178.16,9.49 178.895,8.89 179.685,8.49 C180.475,8.09 181.36,7.89 182.34,7.89 Z" id="Path"></path>
                </g>
                <g id="Brandenburg" transform="translate(87.9841, 35.3979)">
                    <path d="M5.904,6.272 C6.64,6.41066667 7.24,6.68266667 7.704,7.088 C8.168,7.49333333 8.4,8.10133333 8.4,8.912 C8.4,10.096 7.976,10.9306667 7.128,11.416 C6.28,11.9013333 5.09333333,12.144 3.568,12.144 L0,12.144 L0,1.056 L3.136,1.056 C4.69333333,1.056 5.88266667,1.27733333 6.704,1.72 C7.52533333,2.16266667 7.936,2.88533333 7.936,3.888 C7.936,4.53866667 7.74133333,5.064 7.352,5.464 C6.96266667,5.864 6.48,6.13333333 5.904,6.272 Z M2.624,2.912 L2.624,5.488 L3.6,5.488 C4.70933333,5.488 5.264,5.04 5.264,4.144 C5.264,3.696 5.11466667,3.37866667 4.816,3.192 C4.51733333,3.00533333 4.04266667,2.912 3.392,2.912 L2.624,2.912 Z M3.584,10.24 C4.27733333,10.24 4.80266667,10.136 5.16,9.928 C5.51733333,9.72 5.696,9.33333333 5.696,8.768 C5.696,7.744 5.056,7.232 3.776,7.232 L2.624,7.232 L2.624,10.24 L3.584,10.24 Z" id="Shape"></path>
                    <path d="M14.932,3.408 C15.2413333,3.408 15.524,3.44533333 15.78,3.52 L15.38,5.968 C15.06,5.89333333 14.804,5.856 14.612,5.856 C14.1106667,5.856 13.7293333,6.02933333 13.468,6.376 C13.2066667,6.72266667 13.0013333,7.24266667 12.852,7.936 L12.852,12.144 L10.324,12.144 L10.324,3.648 L12.532,3.648 L12.74,5.296 C12.932,4.70933333 13.2226667,4.248 13.612,3.912 C14.0013333,3.576 14.4413333,3.408 14.932,3.408 Z" id="Path"></path>
                    <path d="M23.432,9.68 C23.432,10 23.4773333,10.2346667 23.568,10.384 C23.6586667,10.5333333 23.8053333,10.6453333 24.008,10.72 L23.48,12.368 C22.9573333,12.3253333 22.5306667,12.2106667 22.2,12.024 C21.8693333,11.8373333 21.6133333,11.5413333 21.432,11.136 C20.8773333,11.9893333 20.024,12.416 18.872,12.416 C18.0293333,12.416 17.3573333,12.1706667 16.856,11.68 C16.3546667,11.1893333 16.104,10.5493333 16.104,9.76 C16.104,8.832 16.4453333,8.12266667 17.128,7.632 C17.8106667,7.14133333 18.7973333,6.896 20.088,6.896 L20.952,6.896 L20.952,6.528 C20.952,6.02666667 20.8453333,5.68266667 20.632,5.496 C20.4186667,5.30933333 20.0453333,5.216 19.512,5.216 C19.2346667,5.216 18.8986667,5.256 18.504,5.336 C18.1093333,5.416 17.704,5.52533333 17.288,5.664 L16.712,4 C17.2453333,3.79733333 17.792,3.64266667 18.352,3.536 C18.912,3.42933333 19.432,3.376 19.912,3.376 C21.128,3.376 22.0186667,3.62666667 22.584,4.128 C23.1493333,4.62933333 23.432,5.38133333 23.432,6.384 L23.432,9.68 Z M19.608,10.608 C20.184,10.608 20.632,10.336 20.952,9.792 L20.952,8.288 L20.328,8.288 C19.752,8.288 19.3226667,8.38933333 19.04,8.592 C18.7573333,8.79466667 18.616,9.10933333 18.616,9.536 C18.616,9.87733333 18.704,10.1413333 18.88,10.328 C19.056,10.5146667 19.2986667,10.608 19.608,10.608 Z" id="Shape"></path>
                    <path d="M30.924,3.376 C31.66,3.376 32.236,3.6 32.652,4.048 C33.068,4.496 33.276,5.12533333 33.276,5.936 L33.276,12.144 L30.748,12.144 L30.748,6.368 C30.748,5.94133333 30.6813333,5.64533333 30.548,5.48 C30.4146667,5.31466667 30.2146667,5.232 29.948,5.232 C29.436,5.232 28.9453333,5.6 28.476,6.336 L28.476,12.144 L25.948,12.144 L25.948,3.648 L28.156,3.648 L28.332,4.656 C28.6946667,4.22933333 29.0866667,3.90933333 29.508,3.696 C29.9293333,3.48266667 30.4013333,3.376 30.924,3.376 Z" id="Path"></path>
                    <path d="M43.296,0.272 L43.296,12.144 L41.056,12.144 L40.928,11.152 C40.3306667,11.9946667 39.5253333,12.416 38.512,12.416 C37.456,12.416 36.6533333,12.0106667 36.104,11.2 C35.5546667,10.3893333 35.28,9.28 35.28,7.872 C35.28,7.008 35.424,6.23466667 35.712,5.552 C36,4.86933333 36.408,4.336 36.936,3.952 C37.464,3.568 38.0693333,3.376 38.752,3.376 C39.5626667,3.376 40.2346667,3.64266667 40.768,4.176 L40.768,0 L43.296,0.272 Z M39.296,10.56 C39.8826667,10.56 40.3733333,10.24 40.768,9.6 L40.768,5.936 C40.5653333,5.69066667 40.36,5.50933333 40.152,5.392 C39.944,5.27466667 39.7066667,5.216 39.44,5.216 C38.9706667,5.216 38.5973333,5.43466667 38.32,5.872 C38.0426667,6.30933333 37.904,6.98133333 37.904,7.888 C37.904,8.88 38.024,9.57333333 38.264,9.968 C38.504,10.3626667 38.848,10.56 39.296,10.56 Z" id="Shape"></path>
                    <path d="M53.188,7.728 C53.188,8.08 53.172,8.384 53.14,8.64 L47.876,8.64 C47.9613333,9.35466667 48.164,9.856 48.484,10.144 C48.804,10.432 49.2466667,10.576 49.812,10.576 C50.1533333,10.576 50.484,10.5146667 50.804,10.392 C51.124,10.2693333 51.4706667,10.08 51.844,9.824 L52.884,11.232 C51.892,12.0213333 50.788,12.416 49.572,12.416 C48.196,12.416 47.14,12.0106667 46.404,11.2 C45.668,10.3893333 45.3,9.30133333 45.3,7.936 C45.3,7.072 45.4546667,6.296 45.764,5.608 C46.0733333,4.92 46.5266667,4.376 47.124,3.976 C47.7213333,3.576 48.436,3.376 49.268,3.376 C50.4946667,3.376 51.4546667,3.76 52.148,4.528 C52.8413333,5.296 53.188,6.36266667 53.188,7.728 Z M50.708,7.008 C50.6866667,5.70666667 50.228,5.056 49.332,5.056 C48.8946667,5.056 48.556,5.216 48.316,5.536 C48.076,5.856 47.9293333,6.384 47.876,7.12 L50.708,7.12 L50.708,7.008 Z" id="Shape"></path>
                    <path d="M60.088,3.376 C60.824,3.376 61.4,3.6 61.816,4.048 C62.232,4.496 62.44,5.12533333 62.44,5.936 L62.44,12.144 L59.912,12.144 L59.912,6.368 C59.912,5.94133333 59.8453333,5.64533333 59.712,5.48 C59.5786667,5.31466667 59.3786667,5.232 59.112,5.232 C58.6,5.232 58.1093333,5.6 57.64,6.336 L57.64,12.144 L55.112,12.144 L55.112,3.648 L57.32,3.648 L57.496,4.656 C57.8586667,4.22933333 58.2506667,3.90933333 58.672,3.696 C59.0933333,3.48266667 59.5653333,3.376 60.088,3.376 Z" id="Path"></path>
                    <path d="M69.66,3.376 C70.6733333,3.376 71.452,3.77333333 71.996,4.568 C72.54,5.36266667 72.812,6.47466667 72.812,7.904 C72.812,8.77866667 72.676,9.55733333 72.404,10.24 C72.132,10.9226667 71.7426667,11.456 71.236,11.84 C70.7293333,12.224 70.1293333,12.416 69.436,12.416 C68.9773333,12.416 68.5586667,12.32 68.18,12.128 C67.8013333,11.936 67.4786667,11.6693333 67.212,11.328 L67.084,12.144 L64.844,12.144 L64.844,0.272 L67.372,0 L67.372,4.512 C67.628,4.16 67.956,3.88266667 68.356,3.68 C68.756,3.47733333 69.1906667,3.376 69.66,3.376 Z M68.7,10.576 C69.692,10.576 70.188,9.68533333 70.188,7.904 C70.188,6.89066667 70.0706667,6.192 69.836,5.808 C69.6013333,5.424 69.26,5.232 68.812,5.232 C68.2466667,5.232 67.7666667,5.56266667 67.372,6.224 L67.372,9.76 C67.532,10.016 67.7266667,10.216 67.956,10.36 C68.1853333,10.504 68.4333333,10.576 68.7,10.576 Z" id="Shape"></path>
                    <path d="M82.064,12.144 L79.872,12.144 L79.76,11.072 C79.1413333,11.968 78.2826667,12.416 77.184,12.416 C76.4053333,12.416 75.816,12.1813333 75.416,11.712 C75.016,11.2426667 74.816,10.5866667 74.816,9.744 L74.816,3.648 L77.344,3.648 L77.344,9.424 C77.344,9.84 77.4106667,10.1306667 77.544,10.296 C77.6773333,10.4613333 77.8826667,10.544 78.16,10.544 C78.6933333,10.544 79.152,10.2133333 79.536,9.552 L79.536,3.648 L82.064,3.648 L82.064,12.144 Z" id="Path"></path>
                    <path d="M89.156,3.408 C89.4653333,3.408 89.748,3.44533333 90.004,3.52 L89.604,5.968 C89.284,5.89333333 89.028,5.856 88.836,5.856 C88.3346667,5.856 87.9533333,6.02933333 87.692,6.376 C87.4306667,6.72266667 87.2253333,7.24266667 87.076,7.936 L87.076,12.144 L84.548,12.144 L84.548,3.648 L86.756,3.648 L86.964,5.296 C87.156,4.70933333 87.4466667,4.248 87.836,3.912 C88.2253333,3.576 88.6653333,3.408 89.156,3.408 Z" id="Path"></path>
                    <path d="M99.096,4.144 C98.5413333,4.368 97.7253333,4.48 96.648,4.48 C97.2026667,4.71466667 97.608,5.00266667 97.864,5.344 C98.12,5.68533333 98.248,6.128 98.248,6.672 C98.248,7.216 98.104,7.704 97.816,8.136 C97.528,8.568 97.1146667,8.90666667 96.576,9.152 C96.0373333,9.39733333 95.4053333,9.52 94.68,9.52 C94.3386667,9.52 94.0133333,9.488 93.704,9.424 C93.6186667,9.46666667 93.552,9.53333333 93.504,9.624 C93.456,9.71466667 93.432,9.808 93.432,9.904 C93.432,10.064 93.4933333,10.1893333 93.616,10.28 C93.7386667,10.3706667 93.9866667,10.416 94.36,10.416 L95.64,10.416 C96.2906667,10.416 96.8613333,10.5226667 97.352,10.736 C97.8426667,10.9493333 98.2213333,11.2426667 98.488,11.616 C98.7546667,11.9893333 98.888,12.4106667 98.888,12.88 C98.888,13.7653333 98.5066667,14.456 97.744,14.952 C96.9813333,15.448 95.88,15.696 94.44,15.696 C93.4053333,15.696 92.5893333,15.5866667 91.992,15.368 C91.3946667,15.1493333 90.976,14.8426667 90.736,14.448 C90.496,14.0533333 90.376,13.5573333 90.376,12.96 L92.648,12.96 C92.648,13.216 92.6986667,13.4186667 92.8,13.568 C92.9013333,13.7173333 93.0853333,13.8293333 93.352,13.904 C93.6186667,13.9786667 94.0026667,14.016 94.504,14.016 C95.1973333,14.016 95.6773333,13.9333333 95.944,13.768 C96.2106667,13.6026667 96.344,13.3653333 96.344,13.056 C96.344,12.8 96.2426667,12.5973333 96.04,12.448 C95.8373333,12.2986667 95.5333333,12.224 95.128,12.224 L93.896,12.224 C93.0213333,12.224 92.368,12.0666667 91.936,11.752 C91.504,11.4373333 91.288,11.0346667 91.288,10.544 C91.288,10.2346667 91.3786667,9.93333333 91.56,9.64 C91.7413333,9.34666667 91.9866667,9.104 92.296,8.912 C91.7626667,8.624 91.376,8.28533333 91.136,7.896 C90.896,7.50666667 90.776,7.03466667 90.776,6.48 C90.776,5.53066667 91.1173333,4.776 91.8,4.216 C92.4826667,3.656 93.384,3.376 94.504,3.376 C95.3573333,3.39733333 96.08,3.312 96.672,3.12 C97.264,2.928 97.8746667,2.64533333 98.504,2.272 L99.096,4.144 Z M94.568,5.04 C94.1733333,5.04 93.8613333,5.16533333 93.632,5.416 C93.4026667,5.66666667 93.288,6.01066667 93.288,6.448 C93.288,6.90666667 93.4026667,7.26133333 93.632,7.512 C93.8613333,7.76266667 94.1733333,7.888 94.568,7.888 C94.984,7.888 95.3013333,7.76533333 95.52,7.52 C95.7386667,7.27466667 95.848,6.90666667 95.848,6.416 C95.848,5.49866667 95.4213333,5.04 94.568,5.04 Z" id="Shape"></path>
                </g>
            </g>
        </g>
    </g>
</svg>