<?xml version="1.0" encoding="UTF-8"?>
<svg id="Ebene_2" data-name="Ebene 2" xmlns="http://www.w3.org/2000/svg" viewBox="0 0 532.02 139.99">
  <defs>
    <style>
      .cls-1 {
        fill: #80ffe0;
      }

      .cls-2 {
        fill: #2b2d2c;
      }

      .cls-3 {
        fill: #1d1d1b;
      }

      .cls-4 {
        fill: #e74011;
      }
    </style>
  </defs>
  <g id="Ebene_1-2" data-name="Ebene 1">
    <g>
      <path class="cls-1" d="M54.57,109.13c30.14,0,54.57-24.43,54.57-54.57S84.7,0,54.57,0,0,24.43,0,54.57s24.43,54.57,54.57,54.57h0Z"/>
      <path class="cls-4" d="M114.44,52.31c0-3.99-.57-7.79-1.71-11.28-1.28-3.92-3.16-7.5-5.57-10.63-4.37-5.81-10.4-10.23-17.92-13.13-7.12-2.82-14.75-4.25-22.68-4.25h-1.24c-7.36.15-14.92,2.05-22.5,5.66-7.5,3.69-13.82,9-18.77,15.8-2.63,3.68-4.76,7.86-6.33,12.41-1.58,4.56-2.42,9.58-2.49,14.93v.43c0,7.66,1.94,15.32,5.76,22.74,3.83,7.66,9.3,14,16.28,18.84,3.76,2.61,7.95,4.66,12.45,6.1,4.52,1.52,9.4,2.3,14.51,2.3h.23c7.87-.07,14.61-1.32,20.03-3.72,5.32-2.38,9.8-5.13,13.33-8.16,1.87-1.59,3.55-3.2,4.98-4.79,1.34-1.51,2.51-2.89,3.48-4.11.15-.19.19-.45.09-.68-.16-.39-.4-.82-.71-1.27-.42-.78-1.03-.89-1.36-.89-.1,0-.19,0-.29.03-.17.03-.33.12-.43.26-.95,1.19-2.17,2.54-3.64,4.04-1.46,1.54-3.15,3.07-5.06,4.55-3.57,2.88-7.99,5.49-13.11,7.74-5.08,2.24-10.87,3.37-17.21,3.37-8.14,0-15.5-2.2-21.89-6.54-6.34-4.29-11.41-9.82-15.05-16.42-1.9-3.51-3.38-7.3-4.4-11.25-1.02-3.86-1.54-7.86-1.54-11.86.15-9.5,2.54-17.69,7.13-24.36,4.6-6.69,10.08-11.9,16.28-15.49,3.35-1.97,6.82-3.5,10.31-4.55,3.49-.98,6.84-1.51,9.95-1.59,7.67-.07,14.81,1.29,21.22,4.03,6.39,2.73,11.54,6.77,15.31,12.01,2.03,2.87,3.61,6.1,4.7,9.59,1.09,3.57,1.6,7.52,1.53,11.72-.11,5.34-.92,10.45-2.38,15.15-.1.29-.22.61-.34.97-.56,1.61-1.33,3.82-2.49,6.11-1.61,3.03-2.89,4.96-4.99,6.46-.9.6-1.87,1.03-2.9,1.3-.35.09-.64.15-1.07.15h0c-.47-.02-.84-.12-1.27-.25-.54-.16-1.01-.59-1.42-1.28-.39-.79-.69-1.77-.9-2.91-.42-2.3-.56-5.25-.42-8.75.21-3.43.39-7.05.54-10.75.14-3.08.14-6.14,0-9.07-.07-2.9-.41-5.52-.99-7.79-.6-2.18-1.57-3.95-2.86-5.24-1.22-1.22-2.86-1.83-4.88-1.83-.23,0-.47,0-.69.02-1.77.08-3.46,1.07-4.99,2.91-1.54,1.69-2.95,3.8-4.19,6.27-1.87,3.66-3.47,7.52-4.77,11.49-.3.94-.57,1.8-.82,2.6.04-.59.08-1.23.13-1.91.29-4.16.29-8.42,0-12.65-.22-3.56-.82-6.66-1.76-9.2-.97-2.8-2.64-4.22-4.97-4.22h-.13c-2.86.08-5.62,1.72-8.19,4.87-1.14,1.39-2.22,2.93-3.22,4.59-.28-4.66-.49-7.6-.64-8.74-.04-.28-.24-.51-.51-.58-.74-.19-1.47-.05-2.11.42-.57.34-1.08.88-1.54,1.6-.04.06-.07.13-.09.21-1.28,5.17-2.86,10.28-4.7,15.16-.56,1.43-1.08,3.36-.38,4.39.26.37.64.58,1.08.58,1.04,0,2.17-1.17,2.94-3.07.71-1.74,1.32-3.34,1.84-4.8-.02.94-.04,1.95-.06,3.04,0,.14-.02.28-.07.41-.64,1.79-1.3,3.67-1.94,5.6-.86,2.58-1.62,5.16-2.27,7.68-1.51,6.04-2.28,11.44-2.28,16.06,0,5,1.26,7.58,3.77,7.67,1.88,0,3.35-1.53,4.37-4.55.93-2.75,1.62-6.27,2.05-10.46.21-2.18.39-4.54.54-7.01.14-2.44.22-4.91.22-7.34v-5.77c1.41-3.41,2.98-6.59,4.67-9.47,2.7-4.85,4.63-5.87,5.78-5.87.02,0,.04,0,.06,0,.62-.05,1.11.2,1.54.78.46.65.86,1.59,1.2,2.79.63,2.3.99,5.35,1.06,9.07.07,3.75-.04,7.67-.32,11.66-.21,4.07-.46,8.01-.75,11.67-.36,3.72-.58,6.62-.65,8.63,0,.19.07.37.2.51.55.56,1.36.66,2.35.26.03-.01.05-.02.08-.04.73-.41,1.25-.81,1.59-1.25.06-.08.11-.18.13-.28.49-2.2,1.16-4.94,2.03-8.36.85-3.34,1.89-6.83,3.09-10.38,1.62-5.17,3.48-9.98,5.53-14.31,2.34-5.04,4.02-6.25,5-6.37,1.29-.12,2.24.3,2.88,1.3,0,.01.02.03.03.04.78,1.05,1.31,2.56,1.58,4.51.28,2.1.39,4.56.32,7.3-.07,2.84-.18,5.83-.32,8.9-.14,3.62-.22,7.21-.22,10.66s.42,6.61,1.25,9.02c.47,1.44,1.15,2.65,2.03,3.57.81.96,1.83,1.6,3.05,1.93.8.19,1.56.3,2.28.33h0s0,0,0,0c.08,0,.11,0,.18,0,.61-.01,1.39-.15,2.04-.33,1.52-.42,3.83-1.33,5.3-2.51,2.93-2.31,5-4.67,6.5-7.43.49-.96.92-1.74,1.3-2.44.85-1.54,1.52-2.76,2.17-4.75.02-.06.03-.13.03-.19,1.75-4.99,2.75-10.43,2.97-16.2.07-.67.11-1.3.11-1.88h0ZM44.15,60.47c-.07,1.82-.42,9.43-.55,11.05-.28,3.27-1.1,6.03-1.45,8.22-.3,1.84-.58,2.45-.7,2.63-.08-.02-.12-.05-.17-.1-.16-.18-.53-.84-.34-3.14.14-2.66.22-5.94,1.21-9.76.23-.99,1.71-7.87,1.99-8.91h0Z"/>
      <path class="cls-4" d="M380.34,80.02v-24.88h-5.01v24.88h5.01ZM380.48,50.23v-5.3h-5.3v5.3h5.3ZM407.46,80.02v-15.9c0-2.8-.59-5.15-2.5-7.02-1.47-1.42-3.58-2.26-6.13-2.26s-4.91.93-6.62,2.8v-2.5h-4.91v24.88h5.01v-15.16c0-3.83,2.36-5.55,5.15-5.55s5.01,1.67,5.01,5.55v15.16h5.01Z"/>
      <path class="cls-2" d="M356.76,80.02v-15.9c0-2.8-.59-5.15-2.5-7.02-1.47-1.42-3.58-2.26-6.13-2.26s-4.91.93-6.63,2.8v-2.5h-4.91v24.88h5.01v-15.16c0-3.83,2.36-5.55,5.15-5.55s5.01,1.67,5.01,5.55v15.16h5.01ZM369.1,77.02c0-1.71-1.38-3.09-3.09-3.09s-3.09,1.38-3.09,3.09,1.38,3.09,3.09,3.09,3.09-1.38,3.09-3.09h0Z"/>
      <path class="cls-3" d="M172.45,80.02v-15.9c0-2.8-.74-5.15-2.65-7.02-1.47-1.42-3.73-2.26-6.28-2.26-3.29,0-5.79,1.18-7.8,3.63-1.57-2.4-3.97-3.63-7.07-3.63-2.5,0-4.96.98-6.62,2.8v-2.5h-4.91v24.88h5.01v-15.16c0-3.83,2.36-5.55,5.15-5.55s5.01,1.67,5.01,5.55v15.16h5.01v-15.41c0-3.58,2.45-5.3,5.15-5.3s5.01,1.67,5.01,5.55v15.16h5.01ZM184.3,80.02v-24.88h-5.01v24.88h5.01ZM184.45,50.23v-5.3h-5.3v5.3h5.3ZM201.9,80.02v-4.27h-2.06c-1.87,0-2.75-1.08-2.75-2.9v-13.45h4.81v-3.83h-4.81v-7.56h-5.01v7.56h-2.85v3.83h2.85v13.69c0,3.58,2.16,6.92,6.82,6.92h2.99ZM218.79,80.02v-4.27h-2.06c-1.87,0-2.75-1.08-2.75-2.9v-13.45h4.81v-3.83h-4.81v-7.56h-5.01v7.56h-2.85v3.83h2.85v13.69c0,3.58,2.16,6.92,6.82,6.92h2.99ZM243.74,69.03v-2.21c0-7.07-3.88-11.97-10.55-11.97s-10.55,4.66-10.55,12.71c0,9.47,4.96,12.76,11.19,12.76,4.37,0,6.77-1.33,9.33-3.88l-3.19-2.99c-1.77,1.77-3.24,2.55-6.04,2.55-4.07,0-6.33-2.7-6.33-6.97h16.15ZM238.79,65.55h-11.19c.05-1.52.15-2.26.64-3.39.79-1.86,2.6-3.14,4.96-3.14s4.12,1.28,4.91,3.14c.49,1.13.64,1.86.69,3.39h0ZM269.69,80.02v-15.9c0-2.8-.59-5.15-2.5-7.02-1.47-1.42-3.58-2.26-6.14-2.26s-4.91.93-6.62,2.8v-2.5h-4.91v24.88h5.01v-15.16c0-3.83,2.36-5.55,5.15-5.55s5.01,1.67,5.01,5.55v15.16h5.01ZM295.94,80.02v-34.94h-5.01v12.56c-1.82-2.16-3.88-2.8-6.53-2.8-2.5,0-4.66.83-6.04,2.21-2.5,2.5-2.8,6.72-2.8,10.5s.29,8.05,2.8,10.55c1.38,1.37,3.58,2.21,6.09,2.21,2.7,0,4.71-.69,6.58-2.94v2.65h4.91ZM290.93,67.56c0,4.42-.64,8.29-5.15,8.29s-5.2-3.88-5.2-8.29.69-8.24,5.2-8.24,5.15,3.83,5.15,8.24h0ZM320.4,57.2c-1.72-1.72-3.53-2.36-5.94-2.36-2.8,0-5.35,1.23-6.63,2.99v-2.7h-4.91v24.88h5.01v-15.12c0-3.44,2.26-5.59,4.96-5.59,1.72,0,2.6.54,3.73,1.67l3.78-3.78h0ZM329.64,80.02v-24.88h-5.01v24.88h5.01ZM329.79,50.23v-5.3h-5.3v5.3h5.3Z"/>
      <path class="cls-4" d="M278.63,119.77c0-4.42-2.55-7.02-5.25-8.1,2.36-.93,4.71-3.63,4.71-7.41,0-5.89-4.07-9.57-10.55-9.57h-13.59v34.94h14.13c6.18,0,10.55-3.44,10.55-9.87h0ZM273.33,119.52c0,3.09-2.06,5.35-5.74,5.35h-8.34v-10.65h8.34c3.68,0,5.74,2.21,5.74,5.3h0ZM272.79,104.45c0,3.24-2.31,5.01-5.69,5.01h-7.85v-10.01h7.85c3.39,0,5.69,1.77,5.69,5.01h0ZM302.44,106.81c-1.72-1.72-3.53-2.36-5.94-2.36-2.8,0-5.35,1.23-6.63,2.99v-2.7h-4.91v24.88h5.01v-15.12c0-3.44,2.26-5.6,4.96-5.6,1.72,0,2.6.54,3.73,1.67l3.78-3.78h0ZM325.29,129.63v-16.64c0-5.64-3.43-8.54-10.26-8.54-4.12,0-6.58.83-8.93,3.58l3.29,3.09c1.37-1.77,2.7-2.4,5.45-2.4,3.88,0,5.45,1.52,5.45,4.66v1.77h-6.58c-5.69,0-8.59,2.99-8.59,7.16,0,2.11.69,4.02,1.96,5.35,1.52,1.52,3.58,2.26,6.67,2.26s4.81-.74,6.63-2.55v2.26h4.91ZM320.28,120.65c0,1.77-.34,2.94-1.08,3.68-1.32,1.28-2.75,1.42-4.66,1.42-3.14,0-4.56-1.28-4.56-3.53s1.52-3.58,4.47-3.58h5.84v2.01h0ZM352.29,129.63v-15.9c0-2.8-.59-5.15-2.5-7.02-1.47-1.42-3.58-2.26-6.13-2.26s-4.91.93-6.63,2.8v-2.5h-4.91v24.88h5v-15.17c0-3.83,2.36-5.55,5.15-5.55s5,1.67,5,5.55v15.17h5.01ZM378.53,129.63v-34.94h-5.01v12.56c-1.82-2.16-3.88-2.8-6.53-2.8-2.5,0-4.66.83-6.04,2.21-2.5,2.5-2.8,6.72-2.8,10.5s.3,8.05,2.8,10.55c1.37,1.37,3.58,2.21,6.09,2.21,2.7,0,4.71-.69,6.58-2.94v2.65h4.91ZM373.53,117.17c0,4.42-.64,8.29-5.15,8.29s-5.2-3.88-5.2-8.29.69-8.25,5.2-8.25,5.15,3.83,5.15,8.25h0ZM405.52,118.64v-2.21c0-7.07-3.88-11.98-10.55-11.98s-10.55,4.66-10.55,12.71c0,9.47,4.96,12.76,11.19,12.76,4.37,0,6.77-1.33,9.32-3.88l-3.19-2.99c-1.77,1.77-3.24,2.55-6.04,2.55-4.07,0-6.33-2.7-6.33-6.97h16.15ZM400.56,115.15h-11.19c.05-1.52.15-2.26.64-3.39.79-1.87,2.6-3.14,4.96-3.14s4.12,1.28,4.91,3.14c.49,1.13.64,1.86.69,3.39h0ZM431.47,129.63v-15.9c0-2.8-.59-5.15-2.5-7.02-1.47-1.42-3.58-2.26-6.13-2.26s-4.91.93-6.63,2.8v-2.5h-4.91v24.88h5.01v-15.17c0-3.83,2.36-5.55,5.15-5.55s5,1.67,5,5.55v15.17h5.01ZM458.67,117.17c0-3.78-.29-8-2.8-10.5-1.37-1.37-3.53-2.21-6.04-2.21-2.65,0-4.71.64-6.53,2.8v-12.56h-5.01v34.94h4.91v-2.65c1.86,2.26,3.88,2.94,6.58,2.94,2.5,0,4.71-.83,6.08-2.21,2.5-2.5,2.8-6.77,2.8-10.55h0ZM453.67,117.17c0,4.42-.64,8.29-5.15,8.29s-5.2-3.88-5.2-8.29.69-8.25,5.2-8.25,5.15,3.83,5.15,8.25h0ZM484.72,129.63v-24.88h-5.01v15.17c0,3.83-2.36,5.55-5.15,5.55s-5.01-1.67-5.01-5.55v-15.17h-5.01v15.9c0,2.8.59,5.15,2.5,7.02,1.47,1.42,3.58,2.26,6.13,2.26s4.91-.93,6.63-2.8v2.5h4.91ZM509.19,106.81c-1.72-1.72-3.53-2.36-5.94-2.36-2.8,0-5.35,1.23-6.62,2.99v-2.7h-4.91v24.88h5.01v-15.12c0-3.44,2.26-5.6,4.96-5.6,1.72,0,2.6.54,3.73,1.67l3.78-3.78h0ZM532.02,129.48v-24.74h-4.86v2.65c-1.86-2.26-3.88-2.95-6.53-2.95-2.5,0-4.61.79-5.99,2.16-2.4,2.4-2.8,5.89-2.8,10.11s.39,7.71,2.8,10.11c1.37,1.37,3.43,2.21,5.94,2.21s4.61-.69,6.43-2.85v3.19c0,3.34-1.62,6.33-5.84,6.33-2.45,0-3.83-.74-5.4-2.21l-3.19,3.19c2.6,2.4,5.01,3.29,8.78,3.29,6.63,0,10.65-4.42,10.65-10.5h0ZM527.01,116.72c0,3.93-.54,7.8-5.05,7.8s-5.1-3.88-5.1-7.8.59-7.8,5.1-7.8,5.05,3.88,5.05,7.8h0Z"/>
    </g>
  </g>
</svg>