<?xml version="1.0" encoding="UTF-8"?>
<svg width="258px" height="97px" viewBox="0 0 258 97" version="1.1" xmlns="http://www.w3.org/2000/svg" xmlns:xlink="http://www.w3.org/1999/xlink">
    <title>Group</title>
    <g id="Symbole" stroke="none" stroke-width="1" fill="none" fill-rule="evenodd">
        <g id="64em/Header/Header.IKMO-blau-Copy" transform="translate(-22, -50)">
            <g id="Group" transform="translate(22.2675, 50.6402)">
                <path d="M96,48 C96,21.4903745 74.5096255,0 48,0 C21.4903745,0 0,21.4903745 0,48 C0,74.5096255 21.4903745,96 48,96 C74.5096255,96 96,74.5096255 96,48 Z M93.8181632,48 C93.8181632,73.3047918 73.3047918,93.8181632 48,93.8181632 C22.6956187,93.8181632 2.18183684,73.3047918 2.18183684,48 C2.18183684,22.6956187 22.6956187,2.18183684 48,2.18183684 C73.3047918,2.18183684 93.8181632,22.6956187 93.8181632,48 Z M90.5788641,38.4651883 C90.165485,36.6105243 89.6445535,34.7965004 89.0029334,33.0391263 C86.2266846,28.4981142 80.3318253,25.1598833 76.2448323,25.1598833 C74.9459929,25.1598833 74.2965731,25.1598833 72.9977337,25.1598833 C77.3314404,32.8736926 78.4878345,37.4495976 78.787093,46.3415577 C79.9882322,46.3415577 80.5896228,46.3415577 81.7903514,46.3415577 C86.1400679,46.3415577 90.4713117,43.2832916 90.5788641,38.4651883 Z M71.0330542,17.998204 C73.6972351,17.998204 77.8482669,18.5113359 81.4910929,20.0343114 C73.4862352,10.4588596 61.4567815,4.36367368 48,4.36367368 C35.4430466,4.36367368 24.132388,9.67561512 16.171044,18.1656903 C16.1837696,18.1558382 16.1952638,18.1455755 16.2079895,18.1357234 C18.6102678,18.1357234 19.9407162,18.1349024 22.3429945,18.1349024 C16.36275,28.5707737 13.422299,36.2611841 17.2309692,50.1095879 C17.2798194,50.1095879 17.3036287,50.1095879 17.3524789,50.1095879 C19.9427687,36.2611841 23.6845265,28.5715947 36.063731,18.1357234 C38.4906396,18.1357234 39.7012204,18.1357234 42.128129,18.1357234 C29.0876002,41.3822405 37.2262826,68.4185446 50.4527705,91.5640773 C50.4810954,91.5624353 50.5094202,91.5591513 50.5377451,91.5575093 C63.6681747,68.3590213 74.8002634,41.1847873 61.6550556,17.998204 C65.4058446,17.998204 67.2818548,17.998204 71.0330542,17.998204 Z M54.8570842,36.4808046 C54.8570842,37.6823542 54.4309795,38.7082075 53.57877,39.5575435 C52.7265606,40.4072899 51.6978337,40.8317526 50.493,40.8317526 C49.3054076,40.8317526 48.2807858,40.4027743 47.4203662,39.5448178 C46.5591256,38.6864508 46.1293263,37.6655235 46.1293263,36.4808046 C46.1293263,35.2792549 46.5554311,34.2497071 47.40723,33.39134 C48.2594395,32.5333835 49.2877558,32.1039947 50.493,32.1039947 C51.715075,32.1039947 52.7479068,32.5333835 53.5914957,33.39134 C54.4350845,34.2497071 54.8570842,35.2792549 54.8570842,36.4808046 Z M58.2224085,62.8836987 C57.5984401,64.8093801 56.9133064,66.7297249 56.1727544,68.6418596 L44.505777,68.6418596 C43.8600518,66.7301354 43.276313,64.8093801 42.7586655,62.8836987 L46.5431159,62.8836987 L46.5431159,49.4047499 L42.7471714,49.4047499 L42.7471714,43.646589 L54.5217012,43.646589 L54.5217012,62.8836987 L58.2224085,62.8836987 Z M20.2428482,68.4891515 C12.9243558,58.4198616 10.8783963,52.2565317 10.0089456,41.1289586 C9.95927443,41.1289586 9.93382309,41.1281376 9.88415192,41.1281376 C7.75527029,56.1140521 5.88829119,65.3237435 14.9153076,76.4348964 C22.122553,84.8129036 32.4508719,90.4216405 44.1010186,91.4540619 C33.4849353,79.5079407 23.3483225,56.7946703 25.5740834,41.1289586 C25.5248228,41.1289586 25.5006029,41.1289586 25.4509318,41.1289586 C21.3934952,52.2565317 20.9772426,58.4198616 23.3680268,68.4891515 C22.1180374,68.4891515 21.4928375,68.4891515 20.2428482,68.4891515 Z M78.2936654,55.1374595 C76.8671587,64.7896758 64.697312,82.3199035 57.6731521,90.5472552 C76.0851457,86.3781611 90.0706583,70.5757511 91.502091,51.268445 C88.9310949,53.7216259 84.8933626,55.1374595 81.4808302,55.1374595 C80.2058001,55.1374595 79.5686955,55.1374595 78.2936654,55.1374595 L78.2936654,55.1374595 Z" id="230919-logos-final_2-copy" fill="#FFFFFE"></path>
                <g id="Group-17" transform="translate(115.5743, 22.3318)" fill="#FFFFFF" fill-rule="nonzero">
                    <g id="in-Potsdam" transform="translate(0.8749, 35.3504)">
                        <path d="M2.7972,6.3756 L2.7972,19.656 L0.4788,19.656 L0.4788,6.3756 L2.7972,6.3756 Z M1.6128,0 C2.1,0 2.4948,0.1512 2.7972,0.4536 C3.0996,0.756 3.2508,1.134 3.2508,1.5876 C3.2508,2.0412 3.0996,2.415 2.7972,2.709 C2.4948,3.003 2.1,3.15 1.6128,3.15 C1.1424,3.15 0.756,3.003 0.4536,2.709 C0.1512,2.415 0,2.0412 0,1.5876 C0,1.134 0.1512,0.756 0.4536,0.4536 C0.756,0.1512 1.1424,0 1.6128,0 Z" id="Shape"></path>
                        <path d="M13.842,6.0732 C15.0516,6.0732 15.9966,6.4344 16.677,7.1568 C17.3574,7.8792 17.6976,8.8704 17.6976,10.1304 L17.6976,19.656 L15.3792,19.656 L15.3792,10.458 C15.3792,9.5172 15.2028,8.8536 14.85,8.4672 C14.4972,8.0808 13.9764,7.8876 13.2876,7.8876 C12.582,7.8876 11.9604,8.0892 11.4228,8.4924 C10.8852,8.8956 10.3812,9.4752 9.9108,10.2312 L9.9108,19.656 L7.5924,19.656 L7.5924,6.3756 L9.5832,6.3756 L9.7848,8.3412 C10.2552,7.6356 10.839,7.0812 11.5362,6.678 C12.2334,6.2748 13.002,6.0732 13.842,6.0732 Z" id="Path"></path>
                        <path d="M33.7392,2.2932 C35.8896,2.2932 37.5528,2.7426 38.7288,3.6414 C39.9048,4.5402 40.4928,5.88 40.4928,7.6608 C40.4928,9.5592 39.8796,10.9704 38.6532,11.8944 C37.4268,12.8184 35.7972,13.2804 33.7644,13.2804 L31.572,13.2804 L31.572,19.656 L29.178,19.656 L29.178,2.2932 L33.7392,2.2932 Z M33.6636,11.3904 C35.058,11.3904 36.1206,11.1216 36.8514,10.584 C37.5822,10.0464 37.9476,9.0804 37.9476,7.686 C37.9476,6.4428 37.5822,5.544 36.8514,4.9896 C36.1206,4.4352 35.0748,4.158 33.714,4.158 L31.572,4.158 L31.572,11.3904 L33.6636,11.3904 Z" id="Shape"></path>
                        <path d="M47.934,6.0732 C49.7988,6.0732 51.2478,6.6948 52.281,7.938 C53.3142,9.1812 53.8308,10.8696 53.8308,13.0032 C53.8308,14.3808 53.5956,15.5946 53.1252,16.6446 C52.6548,17.6946 51.9744,18.5094 51.084,19.089 C50.1936,19.6686 49.1352,19.9584 47.9088,19.9584 C46.044,19.9584 44.5908,19.3368 43.5492,18.0936 C42.5076,16.8504 41.9868,15.162 41.9868,13.0284 C41.9868,11.6508 42.222,10.437 42.6924,9.387 C43.1628,8.337 43.8432,7.5222 44.7336,6.9426 C45.624,6.363 46.6908,6.0732 47.934,6.0732 Z M47.934,7.938 C45.6324,7.938 44.4816,9.6348 44.4816,13.0284 C44.4816,16.4052 45.624,18.0936 47.9088,18.0936 C50.1936,18.0936 51.336,16.3968 51.336,13.0032 C51.336,9.6264 50.202,7.938 47.934,7.938 Z" id="Shape"></path>
                        <path d="M64.3716,19.0512 C63.498,19.656 62.5068,19.9584 61.398,19.9584 C60.2724,19.9584 59.3946,19.635 58.7646,18.9882 C58.1346,18.3414 57.8196,17.4048 57.8196,16.1784 L57.8196,8.1648 L55.5012,8.1648 L55.5012,6.3756 L57.8196,6.3756 L57.8196,3.3768 L60.138,3.0996 L60.138,6.3756 L63.288,6.3756 L63.036,8.1648 L60.138,8.1648 L60.138,16.0776 C60.138,16.7664 60.2598,17.2662 60.5034,17.577 C60.747,17.8878 61.1544,18.0432 61.7256,18.0432 C62.2464,18.0432 62.8344,17.8668 63.4896,17.514 L64.3716,19.0512 Z" id="Path"></path>
                        <path d="M70.3764,6.0732 C71.2836,6.0732 72.0984,6.1992 72.8208,6.4512 C73.5432,6.7032 74.232,7.0812 74.8872,7.5852 L73.9044,9.0468 C73.2996,8.6604 72.7242,8.3748 72.1782,8.19 C71.6322,8.0052 71.0568,7.9128 70.452,7.9128 C69.696,7.9128 69.0996,8.0682 68.6628,8.379 C68.226,8.6898 68.0076,9.114 68.0076,9.6516 C68.0076,10.1892 68.2134,10.6092 68.625,10.9116 C69.0366,11.214 69.78,11.508 70.8552,11.7936 C72.3336,12.1632 73.4382,12.6672 74.169,13.3056 C74.8998,13.944 75.2652,14.8176 75.2652,15.9264 C75.2652,17.2368 74.757,18.2364 73.7406,18.9252 C72.7242,19.614 71.4852,19.9584 70.0236,19.9584 C68.0076,19.9584 66.336,19.3788 65.0088,18.2196 L66.2436,16.8084 C67.3692,17.6652 68.6124,18.0936 69.9732,18.0936 C70.8468,18.0936 71.5398,17.913 72.0522,17.5518 C72.5646,17.1906 72.8208,16.6992 72.8208,16.0776 C72.8208,15.624 72.7284,15.2586 72.5436,14.9814 C72.3588,14.7042 72.0396,14.4606 71.586,14.2506 C71.1324,14.0406 70.4688,13.818 69.5952,13.5828 C68.184,13.2132 67.1634,12.7176 66.5334,12.096 C65.9034,11.4744 65.5884,10.6848 65.5884,9.7272 C65.5884,9.0384 65.7942,8.4126 66.2058,7.8498 C66.6174,7.287 67.1886,6.8502 67.9194,6.5394 C68.6502,6.2286 69.4692,6.0732 70.3764,6.0732 Z" id="Path"></path>
                        <path d="M88.83,1.0332 L88.83,19.656 L86.7888,19.656 L86.562,17.8164 C86.1252,18.4884 85.5792,19.0134 84.924,19.3914 C84.2688,19.7694 83.538,19.9584 82.7316,19.9584 C81.1524,19.9584 79.9218,19.3368 79.0398,18.0936 C78.1578,16.8504 77.7168,15.1788 77.7168,13.0788 C77.7168,11.718 77.9268,10.5084 78.3468,9.45 C78.7668,8.3916 79.3716,7.5642 80.1612,6.9678 C80.9508,6.3714 81.8748,6.0732 82.9332,6.0732 C84.294,6.0732 85.4868,6.6192 86.5116,7.7112 L86.5116,0.756 L88.83,1.0332 Z M83.2356,18.1188 C83.9412,18.1188 84.546,17.955 85.05,17.6274 C85.554,17.2998 86.0412,16.8084 86.5116,16.1532 L86.5116,9.6516 C86.0748,9.0804 85.6086,8.6478 85.113,8.3538 C84.6174,8.0598 84.0588,7.9128 83.4372,7.9128 C82.4124,7.9128 81.6186,8.3412 81.0558,9.198 C80.493,10.0548 80.2116,11.3316 80.2116,13.0284 C80.2116,14.742 80.472,16.0188 80.9928,16.8588 C81.5136,17.6988 82.2612,18.1188 83.2356,18.1188 Z" id="Shape"></path>
                        <path d="M102.5712,16.5564 C102.5712,17.094 102.6636,17.493 102.8484,17.7534 C103.0332,18.0138 103.3104,18.2112 103.68,18.3456 L103.1508,19.9584 C102.462,19.8744 101.9076,19.6812 101.4876,19.3788 C101.0676,19.0764 100.7568,18.606 100.5552,17.9676 C99.6648,19.2948 98.346,19.9584 96.5988,19.9584 C95.2884,19.9584 94.2552,19.5888 93.4992,18.8496 C92.7432,18.1104 92.3652,17.1444 92.3652,15.9516 C92.3652,14.5404 92.8734,13.4568 93.8898,12.7008 C94.9062,11.9448 96.3468,11.5668 98.2116,11.5668 L100.2528,11.5668 L100.2528,10.584 C100.2528,9.6432 100.026,8.9712 99.5724,8.568 C99.1188,8.1648 98.4216,7.9632 97.4808,7.9632 C96.5064,7.9632 95.3136,8.1984 93.9024,8.6688 L93.3228,6.9804 C94.9692,6.3756 96.498,6.0732 97.9092,6.0732 C99.4716,6.0732 100.6392,6.4554 101.412,7.2198 C102.1848,7.9842 102.5712,9.072 102.5712,10.4832 L102.5712,16.5564 Z M97.128,18.2196 C98.4552,18.2196 99.4968,17.5308 100.2528,16.1532 L100.2528,13.104 L98.514,13.104 C96.0612,13.104 94.8348,14.0112 94.8348,15.8256 C94.8348,16.6152 95.028,17.2116 95.4144,17.6148 C95.8008,18.018 96.372,18.2196 97.128,18.2196 Z" id="Shape"></path>
                        <path d="M120.672,6.0732 C121.764,6.0732 122.6376,6.4386 123.2928,7.1694 C123.948,7.9002 124.2756,8.8872 124.2756,10.1304 L124.2756,19.656 L121.9572,19.656 L121.9572,10.458 C121.9572,8.7444 121.3356,7.8876 120.0924,7.8876 C119.4372,7.8876 118.8828,8.0766 118.4292,8.4546 C117.9756,8.8326 117.4884,9.4248 116.9676,10.2312 L116.9676,19.656 L114.6492,19.656 L114.6492,10.458 C114.6492,8.7444 114.0276,7.8876 112.7844,7.8876 C112.1124,7.8876 111.5496,8.0808 111.096,8.4672 C110.6424,8.8536 110.1636,9.4416 109.6596,10.2312 L109.6596,19.656 L107.3412,19.656 L107.3412,6.3756 L109.332,6.3756 L109.5336,8.316 C110.5248,6.8208 111.8016,6.0732 113.364,6.0732 C114.1872,6.0732 114.8886,6.2832 115.4682,6.7032 C116.0478,7.1232 116.4636,7.7112 116.7156,8.4672 C117.2364,7.6944 117.8118,7.1022 118.4418,6.6906 C119.0718,6.279 119.8152,6.0732 120.672,6.0732 Z" id="Path"></path>
                    </g>
                    <g id="Mittendrin">
                        <path d="M21.6,24.33 L16.77,24.33 L16.41,16.2 C16.31,14.26 16.26,12.53 16.26,11.01 C16.26,9.85 16.29,8.75 16.35,7.71 L13.14,22.14 L8.49,22.14 L5.07,7.71 C5.19,9.45 5.25,11.09 5.25,12.63 C5.25,13.79 5.22,15 5.16,16.26 L4.8,24.33 L0,24.33 L1.56,3.54 L7.77,3.54 L10.89,17.64 L13.8,3.54 L20.04,3.54 L21.6,24.33 Z" id="Path"></path>
                        <path d="M29.1985714,8.4 L29.1985714,24.33 L24.4585714,24.33 L24.4585714,8.4 L29.1985714,8.4 Z M26.7985714,0 C27.6185714,0 28.2935714,0.255 28.8235714,0.765 C29.3535714,1.275 29.6185714,1.92 29.6185714,2.7 C29.6185714,3.48 29.3535714,4.125 28.8235714,4.635 C28.2935714,5.145 27.6185714,5.4 26.7985714,5.4 C25.9785714,5.4 25.3085714,5.145 24.7885714,4.635 C24.2685714,4.125 24.0085714,3.48 24.0085714,2.7 C24.0085714,1.92 24.2685714,1.275 24.7885714,0.765 C25.3085714,0.255 25.9785714,0 26.7985714,0 Z" id="Shape"></path>
                        <path d="M42.9171429,23.58 C42.3371429,23.98 41.6621429,24.29 40.8921429,24.51 C40.1221429,24.73 39.3571429,24.84 38.5971429,24.84 C35.1171429,24.82 33.3771429,22.9 33.3771429,19.08 L33.3771429,11.7 L31.1271429,11.7 L31.1271429,8.4 L33.3771429,8.4 L33.3771429,4.95 L38.1171429,4.41 L38.1171429,8.4 L41.7771429,8.4 L41.2671429,11.7 L38.1171429,11.7 L38.1171429,19.02 C38.1171429,19.76 38.2371429,20.29 38.4771429,20.61 C38.7171429,20.93 39.0971429,21.09 39.6171429,21.09 C40.1571429,21.09 40.7271429,20.92 41.3271429,20.58 L42.9171429,23.58 Z" id="Path"></path>
                        <path d="M54.5057143,23.58 C53.9257143,23.98 53.2507143,24.29 52.4807143,24.51 C51.7107143,24.73 50.9457143,24.84 50.1857143,24.84 C46.7057143,24.82 44.9657143,22.9 44.9657143,19.08 L44.9657143,11.7 L42.7157143,11.7 L42.7157143,8.4 L44.9657143,8.4 L44.9657143,4.95 L49.7057143,4.41 L49.7057143,8.4 L53.3657143,8.4 L52.8557143,11.7 L49.7057143,11.7 L49.7057143,19.02 C49.7057143,19.76 49.8257143,20.29 50.0657143,20.61 C50.3057143,20.93 50.6857143,21.09 51.2057143,21.09 C51.7457143,21.09 52.3157143,20.92 52.9157143,20.58 L54.5057143,23.58 Z" id="Path"></path>
                        <path d="M69.4542857,16.05 C69.4542857,16.71 69.4242857,17.28 69.3642857,17.76 L59.4942857,17.76 C59.6542857,19.1 60.0342857,20.04 60.6342857,20.58 C61.2342857,21.12 62.0642857,21.39 63.1242857,21.39 C63.7642857,21.39 64.3842857,21.275 64.9842857,21.045 C65.5842857,20.815 66.2342857,20.46 66.9342857,19.98 L68.8842857,22.62 C67.0242857,24.1 64.9542857,24.84 62.6742857,24.84 C60.0942857,24.84 58.1142857,24.08 56.7342857,22.56 C55.3542857,21.04 54.6642857,19 54.6642857,16.44 C54.6642857,14.82 54.9542857,13.365 55.5342857,12.075 C56.1142857,10.785 56.9642857,9.765 58.0842857,9.015 C59.2042857,8.265 60.5442857,7.89 62.1042857,7.89 C64.4042857,7.89 66.2042857,8.61 67.5042857,10.05 C68.8042857,11.49 69.4542857,13.49 69.4542857,16.05 Z M64.8042857,14.7 C64.7642857,12.26 63.9042857,11.04 62.2242857,11.04 C61.4042857,11.04 60.7692857,11.34 60.3192857,11.94 C59.8692857,12.54 59.5942857,13.53 59.4942857,14.91 L64.8042857,14.91 L64.8042857,14.7 Z" id="Shape"></path>
                        <path d="M81.4628571,7.89 C82.8428571,7.89 83.9228571,8.31 84.7028571,9.15 C85.4828571,9.99 85.8728571,11.17 85.8728571,12.69 L85.8728571,24.33 L81.1328571,24.33 L81.1328571,13.5 C81.1328571,12.7 81.0078571,12.145 80.7578571,11.835 C80.5078571,11.525 80.1328571,11.37 79.6328571,11.37 C78.6728571,11.37 77.7528571,12.06 76.8728571,13.44 L76.8728571,24.33 L72.1328571,24.33 L72.1328571,8.4 L76.2728571,8.4 L76.6028571,10.29 C77.2828571,9.49 78.0178571,8.89 78.8078571,8.49 C79.5978571,8.09 80.4828571,7.89 81.4628571,7.89 Z" id="Path"></path>
                        <path d="M103.731429,2.07 L103.731429,24.33 L99.5314286,24.33 L99.2914286,22.47 C98.1714286,24.05 96.6614286,24.84 94.7614286,24.84 C92.7814286,24.84 91.2764286,24.08 90.2464286,22.56 C89.2164286,21.04 88.7014286,18.96 88.7014286,16.32 C88.7014286,14.7 88.9714286,13.25 89.5114286,11.97 C90.0514286,10.69 90.8164286,9.69 91.8064286,8.97 C92.7964286,8.25 93.9314286,7.89 95.2114286,7.89 C96.7314286,7.89 97.9914286,8.39 98.9914286,9.39 L98.9914286,1.56 L103.731429,2.07 Z M96.2314286,21.36 C97.3314286,21.36 98.2514286,20.76 98.9914286,19.56 L98.9914286,12.69 C98.6114286,12.23 98.2264286,11.89 97.8364286,11.67 C97.4464286,11.45 97.0014286,11.34 96.5014286,11.34 C95.6214286,11.34 94.9214286,11.75 94.4014286,12.57 C93.8814286,13.39 93.6214286,14.65 93.6214286,16.35 C93.6214286,18.21 93.8464286,19.51 94.2964286,20.25 C94.7464286,20.99 95.3914286,21.36 96.2314286,21.36 Z" id="Shape"></path>
                        <path d="M116.1,7.95 C116.68,7.95 117.21,8.02 117.69,8.16 L116.94,12.75 C116.34,12.61 115.86,12.54 115.5,12.54 C114.56,12.54 113.845,12.865 113.355,13.515 C112.865,14.165 112.48,15.14 112.2,16.44 L112.2,24.33 L107.46,24.33 L107.46,8.4 L111.6,8.4 L111.99,11.49 C112.35,10.39 112.895,9.525 113.625,8.895 C114.355,8.265 115.18,7.95 116.1,7.95 Z" id="Path"></path>
                        <path d="M124.238571,8.4 L124.238571,24.33 L119.498571,24.33 L119.498571,8.4 L124.238571,8.4 Z M121.838571,0 C122.658571,0 123.333571,0.255 123.863571,0.765 C124.393571,1.275 124.658571,1.92 124.658571,2.7 C124.658571,3.48 124.393571,4.125 123.863571,4.635 C123.333571,5.145 122.658571,5.4 121.838571,5.4 C121.018571,5.4 120.348571,5.145 119.828571,4.635 C119.308571,4.125 119.048571,3.48 119.048571,2.7 C119.048571,1.92 119.308571,1.275 119.828571,0.765 C120.348571,0.255 121.018571,0 121.838571,0 Z" id="Shape"></path>
                        <path d="M137.297143,7.89 C138.677143,7.89 139.757143,8.31 140.537143,9.15 C141.317143,9.99 141.707143,11.17 141.707143,12.69 L141.707143,24.33 L136.967143,24.33 L136.967143,13.5 C136.967143,12.7 136.842143,12.145 136.592143,11.835 C136.342143,11.525 135.967143,11.37 135.467143,11.37 C134.507143,11.37 133.587143,12.06 132.707143,13.44 L132.707143,24.33 L127.967143,24.33 L127.967143,8.4 L132.107143,8.4 L132.437143,10.29 C133.117143,9.49 133.852143,8.89 134.642143,8.49 C135.432143,8.09 136.317143,7.89 137.297143,7.89 Z" id="Path"></path>
                    </g>
                </g>
            </g>
        </g>
    </g>
</svg>