<?xml version="1.0" encoding="UTF-8"?>
<svg width="260px" height="97px" viewBox="0 0 260 97" version="1.1" xmlns="http://www.w3.org/2000/svg" xmlns:xlink="http://www.w3.org/1999/xlink">
    <title>Group</title>
    <g id="Symbole" stroke="none" stroke-width="1" fill="none" fill-rule="evenodd">
        <g id="64em/Header/Header.IKMO-blau-Copy" transform="translate(-22, -50)">
            <g id="Group" transform="translate(22.2675, 50.6402)">
                <path d="M96,48 C96,21.4903745 74.5096255,0 48,0 C21.4903745,0 0,21.4903745 0,48 C0,74.5096255 21.4903745,96 48,96 C74.5096255,96 96,74.5096255 96,48 Z M93.8181632,48 C93.8181632,73.3047918 73.3047918,93.8181632 48,93.8181632 C22.6956187,93.8181632 2.18183684,73.3047918 2.18183684,48 C2.18183684,22.6956187 22.6956187,2.18183684 48,2.18183684 C73.3047918,2.18183684 93.8181632,22.6956187 93.8181632,48 Z M90.5788641,38.4651883 C90.165485,36.6105243 89.6445535,34.7965004 89.0029334,33.0391263 C86.2266846,28.4981142 80.3318253,25.1598833 76.2448323,25.1598833 C74.9459929,25.1598833 74.2965731,25.1598833 72.9977337,25.1598833 C77.3314404,32.8736926 78.4878345,37.4495976 78.787093,46.3415577 C79.9882322,46.3415577 80.5896228,46.3415577 81.7903514,46.3415577 C86.1400679,46.3415577 90.4713117,43.2832916 90.5788641,38.4651883 Z M71.0330542,17.998204 C73.6972351,17.998204 77.8482669,18.5113359 81.4910929,20.0343114 C73.4862352,10.4588596 61.4567815,4.36367368 48,4.36367368 C35.4430466,4.36367368 24.132388,9.67561512 16.171044,18.1656903 C16.1837696,18.1558382 16.1952638,18.1455755 16.2079895,18.1357234 C18.6102678,18.1357234 19.9407162,18.1349024 22.3429945,18.1349024 C16.36275,28.5707737 13.422299,36.2611841 17.2309692,50.1095879 C17.2798194,50.1095879 17.3036287,50.1095879 17.3524789,50.1095879 C19.9427687,36.2611841 23.6845265,28.5715947 36.063731,18.1357234 C38.4906396,18.1357234 39.7012204,18.1357234 42.128129,18.1357234 C29.0876002,41.3822405 37.2262826,68.4185446 50.4527705,91.5640773 C50.4810954,91.5624353 50.5094202,91.5591513 50.5377451,91.5575093 C63.6681747,68.3590213 74.8002634,41.1847873 61.6550556,17.998204 C65.4058446,17.998204 67.2818548,17.998204 71.0330542,17.998204 Z M54.8570842,36.4808046 C54.8570842,37.6823542 54.4309795,38.7082075 53.57877,39.5575435 C52.7265606,40.4072899 51.6978337,40.8317526 50.493,40.8317526 C49.3054076,40.8317526 48.2807858,40.4027743 47.4203662,39.5448178 C46.5591256,38.6864508 46.1293263,37.6655235 46.1293263,36.4808046 C46.1293263,35.2792549 46.5554311,34.2497071 47.40723,33.39134 C48.2594395,32.5333835 49.2877558,32.1039947 50.493,32.1039947 C51.715075,32.1039947 52.7479068,32.5333835 53.5914957,33.39134 C54.4350845,34.2497071 54.8570842,35.2792549 54.8570842,36.4808046 Z M58.2224085,62.8836987 C57.5984401,64.8093801 56.9133064,66.7297249 56.1727544,68.6418596 L44.505777,68.6418596 C43.8600518,66.7301354 43.276313,64.8093801 42.7586655,62.8836987 L46.5431159,62.8836987 L46.5431159,49.4047499 L42.7471714,49.4047499 L42.7471714,43.646589 L54.5217012,43.646589 L54.5217012,62.8836987 L58.2224085,62.8836987 Z M20.2428482,68.4891515 C12.9243558,58.4198616 10.8783963,52.2565317 10.0089456,41.1289586 C9.95927443,41.1289586 9.93382309,41.1281376 9.88415192,41.1281376 C7.75527029,56.1140521 5.88829119,65.3237435 14.9153076,76.4348964 C22.122553,84.8129036 32.4508719,90.4216405 44.1010186,91.4540619 C33.4849353,79.5079407 23.3483225,56.7946703 25.5740834,41.1289586 C25.5248228,41.1289586 25.5006029,41.1289586 25.4509318,41.1289586 C21.3934952,52.2565317 20.9772426,58.4198616 23.3680268,68.4891515 C22.1180374,68.4891515 21.4928375,68.4891515 20.2428482,68.4891515 Z M78.2936654,55.1374595 C76.8671587,64.7896758 64.697312,82.3199035 57.6731521,90.5472552 C76.0851457,86.3781611 90.0706583,70.5757511 91.502091,51.268445 C88.9310949,53.7216259 84.8933626,55.1374595 81.4808302,55.1374595 C80.2058001,55.1374595 79.5686955,55.1374595 78.2936654,55.1374595 L78.2936654,55.1374595 Z" id="230919-logos-final_2-copy" fill="#FFFFFE"></path>
                <g id="Group-17" transform="translate(19, 11.6618)" fill="#FFFFFF">
                    <text id="in-Potsdam" font-family="FiraSans-Regular, Fira Sans" font-size="25.2" font-weight="normal" letter-spacing="0.0071999995">
                        <tspan x="95.534" y="65.6764">in Potsdam</tspan>
                    </text>
                    <text id="Mittendrin" font-family="FiraSans-Bold, Fira Sans" font-size="30" font-weight="bold" letter-spacing="0.00857142798">
                        <tspan x="95.5842857" y="35">Mittendrin</tspan>
                    </text>
                </g>
            </g>
        </g>
    </g>
</svg>