<?xml version="1.0" encoding="UTF-8"?>
<svg width="261px" height="97px" viewBox="0 0 261 97" version="1.1" xmlns="http://www.w3.org/2000/svg" xmlns:xlink="http://www.w3.org/1999/xlink">
    <title>Group 2</title>
    <g id="Symbole" stroke="none" stroke-width="1" fill="none" fill-rule="evenodd">
        <g id="48em/Header/Header_b" transform="translate(-23, -48)" fill="#FFFFFF">
            <g id="Group-2" transform="translate(23.7675, 48.6402)">
                <g id="Group" transform="translate(115.9534, 26.7344)" fill-rule="nonzero">
                    <g id="Mittendrin">
                        <polygon id="Path" points="15.66 8.73 15.57 8.73 14.04 11.79 9.96 19.2 5.97 11.82 4.38 8.52 4.29 8.52 4.29 22.47 0 22.47 0 1.53 4.83 1.53 9.96 11.34 10.02 11.34 15.09 1.53 19.95 1.53 19.95 22.47 15.66 22.47"></polygon>
                        <path d="M26.5585714,5.04 C25.6585714,5.04 25.0035714,4.835 24.5935714,4.425 C24.1835714,4.015 23.9785714,3.49 23.9785714,2.85 L23.9785714,2.19 C23.9785714,1.55 24.1835714,1.025 24.5935714,0.615 C25.0035714,0.205 25.6585714,0 26.5585714,0 C27.4585714,0 28.1135714,0.205 28.5235714,0.615 C28.9335714,1.025 29.1385714,1.55 29.1385714,2.19 L29.1385714,2.85 C29.1385714,3.49 28.9335714,4.015 28.5235714,4.425 C28.1135714,4.835 27.4585714,5.04 26.5585714,5.04 Z M24.3385714,6.72 L28.7785714,6.72 L28.7785714,22.47 L24.3385714,22.47 L24.3385714,6.72 Z" id="Shape"></path>
                        <path d="M38.4471429,22.47 C36.9071429,22.47 35.7421429,22.08 34.9521429,21.3 C34.1621429,20.52 33.7671429,19.38 33.7671429,17.88 L33.7671429,10.17 L31.5471429,10.17 L31.5471429,6.72 L32.6571429,6.72 C33.2571429,6.72 33.6671429,6.575 33.8871429,6.285 C34.1071429,5.995 34.2171429,5.58 34.2171429,5.04 L34.2171429,2.46 L38.2071429,2.46 L38.2071429,6.72 L41.3271429,6.72 L41.3271429,10.17 L38.2071429,10.17 L38.2071429,19.02 L41.0871429,19.02 L41.0871429,22.47 L38.4471429,22.47 Z" id="Path"></path>
                        <path d="M49.7957143,22.47 C48.2557143,22.47 47.0907143,22.08 46.3007143,21.3 C45.5107143,20.52 45.1157143,19.38 45.1157143,17.88 L45.1157143,10.17 L42.8957143,10.17 L42.8957143,6.72 L44.0057143,6.72 C44.6057143,6.72 45.0157143,6.575 45.2357143,6.285 C45.4557143,5.995 45.5657143,5.58 45.5657143,5.04 L45.5657143,2.46 L49.5557143,2.46 L49.5557143,6.72 L52.6757143,6.72 L52.6757143,10.17 L49.5557143,10.17 L49.5557143,19.02 L52.4357143,19.02 L52.4357143,22.47 L49.7957143,22.47 Z" id="Path"></path>
                        <path d="M62.2242857,22.83 C61.0242857,22.83 59.9542857,22.635 59.0142857,22.245 C58.0742857,21.855 57.2792857,21.305 56.6292857,20.595 C55.9792857,19.885 55.4892857,19.02 55.1592857,18 C54.8292857,16.98 54.6642857,15.84 54.6642857,14.58 C54.6642857,13.34 54.8242857,12.215 55.1442857,11.205 C55.4642857,10.195 55.9392857,9.33 56.5692857,8.61 C57.1992857,7.89 57.9742857,7.335 58.8942857,6.945 C59.8142857,6.555 60.8642857,6.36 62.0442857,6.36 C63.3442857,6.36 64.4592857,6.58 65.3892857,7.02 C66.3192857,7.46 67.0792857,8.05 67.6692857,8.79 C68.2592857,9.53 68.6892857,10.385 68.9592857,11.355 C69.2292857,12.325 69.3642857,13.34 69.3642857,14.4 L69.3642857,15.72 L59.2542857,15.72 L59.2542857,15.96 C59.2542857,17 59.5342857,17.825 60.0942857,18.435 C60.6542857,19.045 61.5342857,19.35 62.7342857,19.35 C63.6542857,19.35 64.4042857,19.165 64.9842857,18.795 C65.5642857,18.425 66.1042857,17.98 66.6042857,17.46 L68.8242857,20.22 C68.1242857,21.04 67.2092857,21.68 66.0792857,22.14 C64.9492857,22.6 63.6642857,22.83 62.2242857,22.83 Z M62.1342857,9.63 C61.2342857,9.63 60.5292857,9.925 60.0192857,10.515 C59.5092857,11.105 59.2542857,11.89 59.2542857,12.87 L59.2542857,13.11 L64.7742857,13.11 L64.7742857,12.84 C64.7742857,11.88 64.5592857,11.105 64.1292857,10.515 C63.6992857,9.925 63.0342857,9.63 62.1342857,9.63 Z" id="Shape"></path>
                        <path d="M72.5228571,22.47 L72.5228571,6.72 L76.9628571,6.72 L76.9628571,9.39 L77.1428571,9.39 C77.4228571,8.57 77.9128571,7.86 78.6128571,7.26 C79.3128571,6.66 80.2828571,6.36 81.5228571,6.36 C83.1428571,6.36 84.3678571,6.9 85.1978571,7.98 C86.0278571,9.06 86.4428571,10.6 86.4428571,12.6 L86.4428571,22.47 L82.0028571,22.47 L82.0028571,12.96 C82.0028571,11.94 81.8428571,11.185 81.5228571,10.695 C81.2028571,10.205 80.6328571,9.96 79.8128571,9.96 C79.4528571,9.96 79.1028571,10.005 78.7628571,10.095 C78.4228571,10.185 78.1178571,10.33 77.8478571,10.53 C77.5778571,10.73 77.3628571,10.975 77.2028571,11.265 C77.0428571,11.555 76.9628571,11.89 76.9628571,12.27 L76.9628571,22.47 L72.5228571,22.47 Z" id="Path"></path>
                        <path d="M100.071429,19.83 L99.9214286,19.83 C99.8014286,20.25 99.6114286,20.645 99.3514286,21.015 C99.0914286,21.385 98.7764286,21.705 98.4064286,21.975 C98.0364286,22.245 97.6164286,22.455 97.1464286,22.605 C96.6764286,22.755 96.1914286,22.83 95.6914286,22.83 C93.6914286,22.83 92.1814286,22.125 91.1614286,20.715 C90.1414286,19.305 89.6314286,17.26 89.6314286,14.58 C89.6314286,11.9 90.1414286,9.86 91.1614286,8.46 C92.1814286,7.06 93.6914286,6.36 95.6914286,6.36 C96.7114286,6.36 97.6164286,6.64 98.4064286,7.2 C99.1964286,7.76 99.7014286,8.48 99.9214286,9.36 L100.071429,9.36 L100.071429,0.27 L104.511429,0.27 L104.511429,22.47 L100.071429,22.47 L100.071429,19.83 Z M97.1614286,19.23 C98.0014286,19.23 98.6964286,19.025 99.2464286,18.615 C99.7964286,18.205 100.071429,17.64 100.071429,16.92 L100.071429,12.27 C100.071429,11.55 99.7964286,10.985 99.2464286,10.575 C98.6964286,10.165 98.0014286,9.96 97.1614286,9.96 C96.3214286,9.96 95.6264286,10.255 95.0764286,10.845 C94.5264286,11.435 94.2514286,12.23 94.2514286,13.23 L94.2514286,15.96 C94.2514286,16.96 94.5264286,17.755 95.0764286,18.345 C95.6264286,18.935 96.3214286,19.23 97.1614286,19.23 Z" id="Shape"></path>
                        <path d="M108.66,22.47 L108.66,6.72 L113.1,6.72 L113.1,10.14 L113.25,10.14 C113.33,9.7 113.47,9.275 113.67,8.865 C113.87,8.455 114.135,8.09 114.465,7.77 C114.795,7.45 115.19,7.195 115.65,7.005 C116.11,6.815 116.65,6.72 117.27,6.72 L118.05,6.72 L118.05,10.86 L116.94,10.86 C115.64,10.86 114.675,11.03 114.045,11.37 C113.415,11.71 113.1,12.34 113.1,13.26 L113.1,22.47 L108.66,22.47 Z" id="Path"></path>
                        <path d="M123.008571,5.04 C122.108571,5.04 121.453571,4.835 121.043571,4.425 C120.633571,4.015 120.428571,3.49 120.428571,2.85 L120.428571,2.19 C120.428571,1.55 120.633571,1.025 121.043571,0.615 C121.453571,0.205 122.108571,0 123.008571,0 C123.908571,0 124.563571,0.205 124.973571,0.615 C125.383571,1.025 125.588571,1.55 125.588571,2.19 L125.588571,2.85 C125.588571,3.49 125.383571,4.015 124.973571,4.425 C124.563571,4.835 123.908571,5.04 123.008571,5.04 Z M120.788571,6.72 L125.228571,6.72 L125.228571,22.47 L120.788571,22.47 L120.788571,6.72 Z" id="Shape"></path>
                        <path d="M129.377143,22.47 L129.377143,6.72 L133.817143,6.72 L133.817143,9.39 L133.997143,9.39 C134.277143,8.57 134.767143,7.86 135.467143,7.26 C136.167143,6.66 137.137143,6.36 138.377143,6.36 C139.997143,6.36 141.222143,6.9 142.052143,7.98 C142.882143,9.06 143.297143,10.6 143.297143,12.6 L143.297143,22.47 L138.857143,22.47 L138.857143,12.96 C138.857143,11.94 138.697143,11.185 138.377143,10.695 C138.057143,10.205 137.487143,9.96 136.667143,9.96 C136.307143,9.96 135.957143,10.005 135.617143,10.095 C135.277143,10.185 134.972143,10.33 134.702143,10.53 C134.432143,10.73 134.217143,10.975 134.057143,11.265 C133.897143,11.555 133.817143,11.89 133.817143,12.27 L133.817143,22.47 L129.377143,22.47 Z" id="Path"></path>
                    </g>
                    <g id="in-Potsdam" transform="translate(0.572, 33.4984)">
                        <path d="M1.2348,2.5956 C0.798,2.5956 0.483,2.4906 0.2898,2.2806 C0.0966,2.0706 0,1.7976 0,1.4616 L0,1.134 C0,0.798 0.0966,0.525 0.2898,0.315 C0.483,0.105 0.798,0 1.2348,0 C1.6716,0 1.9866,0.105 2.1798,0.315 C2.373,0.525 2.4696,0.798 2.4696,1.134 L2.4696,1.4616 C2.4696,1.7976 2.373,2.0706 2.1798,2.2806 C1.9866,2.4906 1.6716,2.5956 1.2348,2.5956 Z M0.2268,5.6448 L2.2428,5.6448 L2.2428,18.648 L0.2268,18.648 L0.2268,5.6448 Z" id="Shape"></path>
                        <path d="M6.534,18.648 L6.534,5.6448 L8.55,5.6448 L8.55,7.7616 L8.6508,7.7616 C8.97,7.0224 9.4194,6.4344 9.999,5.9976 C10.5786,5.5608 11.3556,5.3424 12.33,5.3424 C13.674,5.3424 14.7366,5.775 15.5178,6.6402 C16.299,7.5054 16.6896,8.7276 16.6896,10.3068 L16.6896,18.648 L14.6736,18.648 L14.6736,10.6596 C14.6736,8.3244 13.6908,7.1568 11.7252,7.1568 C11.322,7.1568 10.9314,7.2072 10.5534,7.308 C10.1754,7.4088 9.8352,7.56 9.5328,7.7616 C9.2304,7.9632 8.991,8.2194 8.8146,8.5302 C8.6382,8.841 8.55,9.2064 8.55,9.6264 L8.55,18.648 L6.534,18.648 Z" id="Path"></path>
                        <path d="M27.0108,18.648 L27.0108,1.0584 L34.0164,1.0584 C35.5956,1.0584 36.8094,1.5078 37.6578,2.4066 C38.5062,3.3054 38.9304,4.536 38.9304,6.0984 C38.9304,7.6608 38.5062,8.8914 37.6578,9.7902 C36.8094,10.689 35.5956,11.1384 34.0164,11.1384 L29.1276,11.1384 L29.1276,18.648 L27.0108,18.648 Z M29.1276,9.2736 L34.0164,9.2736 C34.8564,9.2736 35.5074,9.0552 35.9694,8.6184 C36.4314,8.1816 36.6624,7.56 36.6624,6.7536 L36.6624,5.4432 C36.6624,4.6368 36.4314,4.0152 35.9694,3.5784 C35.5074,3.1416 34.8564,2.9232 34.0164,2.9232 L29.1276,2.9232 L29.1276,9.2736 Z" id="Shape"></path>
                        <path d="M46.4976,18.9504 C45.624,18.9504 44.826,18.7908 44.1036,18.4716 C43.3812,18.1524 42.7638,17.6946 42.2514,17.0982 C41.739,16.5018 41.34,15.7878 41.0544,14.9562 C40.7688,14.1246 40.626,13.188 40.626,12.1464 C40.626,11.1216 40.7688,10.1892 41.0544,9.3492 C41.34,8.5092 41.739,7.791 42.2514,7.1946 C42.7638,6.5982 43.3812,6.1404 44.1036,5.8212 C44.826,5.502 45.624,5.3424 46.4976,5.3424 C47.3712,5.3424 48.165,5.502 48.879,5.8212 C49.593,6.1404 50.2104,6.5982 50.7312,7.1946 C51.252,7.791 51.6552,8.5092 51.9408,9.3492 C52.2264,10.1892 52.3692,11.1216 52.3692,12.1464 C52.3692,13.188 52.2264,14.1246 51.9408,14.9562 C51.6552,15.7878 51.252,16.5018 50.7312,17.0982 C50.2104,17.6946 49.593,18.1524 48.879,18.4716 C48.165,18.7908 47.3712,18.9504 46.4976,18.9504 Z M46.4976,17.1612 C47.5896,17.1612 48.48,16.8252 49.1688,16.1532 C49.8576,15.4812 50.202,14.4564 50.202,13.0788 L50.202,11.214 C50.202,9.8364 49.8576,8.8116 49.1688,8.1396 C48.48,7.4676 47.5896,7.1316 46.4976,7.1316 C45.4056,7.1316 44.5152,7.4676 43.8264,8.1396 C43.1376,8.8116 42.7932,9.8364 42.7932,11.214 L42.7932,13.0788 C42.7932,14.4564 43.1376,15.4812 43.8264,16.1532 C44.5152,16.8252 45.4056,17.1612 46.4976,17.1612 Z" id="Shape"></path>
                        <path d="M58.5756,18.648 C57.87,18.648 57.3366,18.4506 56.9754,18.0558 C56.6142,17.661 56.4336,17.1444 56.4336,16.506 L56.4336,7.4088 L54.2916,7.4088 L54.2916,5.6448 L55.5012,5.6448 C55.938,5.6448 56.2362,5.5566 56.3958,5.3802 C56.5554,5.2038 56.6352,4.8972 56.6352,4.4604 L56.6352,2.0412 L58.4496,2.0412 L58.4496,5.6448 L61.2972,5.6448 L61.2972,7.4088 L58.4496,7.4088 L58.4496,16.884 L61.0956,16.884 L61.0956,18.648 L58.5756,18.648 Z" id="Path"></path>
                        <path d="M68.4612,18.9504 C67.2516,18.9504 66.2394,18.7194 65.4246,18.2574 C64.6098,17.7954 63.9084,17.178 63.3204,16.4052 L64.7568,15.246 C65.2608,15.8844 65.8236,16.3758 66.4452,16.7202 C67.0668,17.0646 67.7892,17.2368 68.6124,17.2368 C69.4692,17.2368 70.137,17.052 70.6158,16.6824 C71.0946,16.3128 71.334,15.792 71.334,15.12 C71.334,14.616 71.1702,14.1834 70.8426,13.8222 C70.515,13.461 69.9228,13.2132 69.066,13.0788 L68.0328,12.9276 C67.428,12.8436 66.8736,12.7134 66.3696,12.537 C65.8656,12.3606 65.4246,12.1254 65.0466,11.8314 C64.6686,11.5374 64.3746,11.172 64.1646,10.7352 C63.9546,10.2984 63.8496,9.7776 63.8496,9.1728 C63.8496,8.5344 63.9672,7.9758 64.2024,7.497 C64.4376,7.0182 64.761,6.6192 65.1726,6.3 C65.5842,5.9808 66.0756,5.7414 66.6468,5.5818 C67.218,5.4222 67.8312,5.3424 68.4864,5.3424 C69.5448,5.3424 70.431,5.5272 71.145,5.8968 C71.859,6.2664 72.4848,6.7788 73.0224,7.434 L71.6868,8.6436 C71.4012,8.2404 70.9812,7.875 70.4268,7.5474 C69.8724,7.2198 69.1752,7.056 68.3352,7.056 C67.4952,7.056 66.861,7.2366 66.4326,7.5978 C66.0042,7.959 65.79,8.4504 65.79,9.072 C65.79,9.7104 66.0042,10.1724 66.4326,10.458 C66.861,10.7436 67.4784,10.9536 68.2848,11.088 L69.2928,11.2392 C70.7376,11.4576 71.7624,11.8734 72.3672,12.4866 C72.972,13.0998 73.2744,13.902 73.2744,14.8932 C73.2744,16.1532 72.846,17.1444 71.9892,17.8668 C71.1324,18.5892 69.9564,18.9504 68.4612,18.9504 Z" id="Path"></path>
                        <path d="M85.1508,16.5312 L85.05,16.5312 C84.2604,18.144 82.992,18.9504 81.2448,18.9504 C80.4384,18.9504 79.7076,18.7908 79.0524,18.4716 C78.3972,18.1524 77.8386,17.6988 77.3766,17.1108 C76.9146,16.5228 76.5618,15.8088 76.3182,14.9688 C76.0746,14.1288 75.9528,13.188 75.9528,12.1464 C75.9528,11.1048 76.0746,10.164 76.3182,9.324 C76.5618,8.484 76.9146,7.77 77.3766,7.182 C77.8386,6.594 78.3972,6.1404 79.0524,5.8212 C79.7076,5.502 80.4384,5.3424 81.2448,5.3424 C82.152,5.3424 82.929,5.5398 83.5758,5.9346 C84.2226,6.3294 84.714,6.9384 85.05,7.7616 L85.1508,7.7616 L85.1508,0 L87.1668,0 L87.1668,18.648 L85.1508,18.648 L85.1508,16.5312 Z M81.7992,17.136 C82.2528,17.136 82.6854,17.0772 83.097,16.9596 C83.5086,16.842 83.8656,16.6698 84.168,16.443 C84.4704,16.2162 84.7098,15.939 84.8862,15.6114 C85.0626,15.2838 85.1508,14.91 85.1508,14.49 L85.1508,9.6516 C85.1508,9.2988 85.0626,8.967 84.8862,8.6562 C84.7098,8.3454 84.4704,8.0808 84.168,7.8624 C83.8656,7.644 83.5086,7.4718 83.097,7.3458 C82.6854,7.2198 82.2528,7.1568 81.7992,7.1568 C80.6568,7.1568 79.758,7.5138 79.1028,8.2278 C78.4476,8.9418 78.12,9.8784 78.12,11.0376 L78.12,13.2552 C78.12,14.4144 78.4476,15.351 79.1028,16.065 C79.758,16.779 80.6568,17.136 81.7992,17.136 Z" id="Shape"></path>
                        <path d="M100.908,18.648 C100.152,18.648 99.6102,18.4464 99.2826,18.0432 C98.955,17.64 98.7492,17.136 98.6652,16.5312 L98.5392,16.5312 C98.2536,17.3376 97.7832,17.9424 97.128,18.3456 C96.4728,18.7488 95.6916,18.9504 94.7844,18.9504 C93.4068,18.9504 92.3358,18.5976 91.5714,17.892 C90.807,17.1864 90.4248,16.2288 90.4248,15.0192 C90.4248,13.7928 90.8742,12.852 91.773,12.1968 C92.6718,11.5416 94.0704,11.214 95.9688,11.214 L98.5392,11.214 L98.5392,9.9288 C98.5392,9.0048 98.2872,8.2992 97.7832,7.812 C97.2792,7.3248 96.5064,7.0812 95.4648,7.0812 C94.6752,7.0812 94.0158,7.2576 93.4866,7.6104 C92.9574,7.9632 92.5164,8.4336 92.1636,9.0216 L90.954,7.8876 C91.3068,7.182 91.8696,6.5814 92.6424,6.0858 C93.4152,5.5902 94.3896,5.3424 95.5656,5.3424 C97.1448,5.3424 98.3712,5.7288 99.2448,6.5016 C100.1184,7.2744 100.5552,8.3496 100.5552,9.7272 L100.5552,16.884 L102.042,16.884 L102.042,18.648 L100.908,18.648 Z M95.112,17.2368 C95.616,17.2368 96.078,17.178 96.498,17.0604 C96.918,16.9428 97.2792,16.7748 97.5816,16.5564 C97.884,16.338 98.1192,16.086 98.2872,15.8004 C98.4552,15.5148 98.5392,15.204 98.5392,14.868 L98.5392,12.726 L95.868,12.726 C94.7088,12.726 93.8646,12.894 93.3354,13.23 C92.8062,13.566 92.5416,14.0532 92.5416,14.6916 L92.5416,15.2208 C92.5416,15.8592 92.7726,16.3548 93.2346,16.7076 C93.6966,17.0604 94.3224,17.2368 95.112,17.2368 Z" id="Shape"></path>
                        <path d="M104.922,18.648 L104.922,5.6448 L106.938,5.6448 L106.938,7.7616 L107.0388,7.7616 C107.19,7.4256 107.3622,7.1106 107.5554,6.8166 C107.7486,6.5226 107.9838,6.2664 108.261,6.048 C108.5382,5.8296 108.8616,5.6574 109.2312,5.5314 C109.6008,5.4054 110.0376,5.3424 110.5416,5.3424 C111.3984,5.3424 112.188,5.5482 112.9104,5.9598 C113.6328,6.3714 114.1704,7.0476 114.5232,7.9884 L114.5736,7.9884 C114.8088,7.2828 115.2498,6.6654 115.8966,6.1362 C116.5434,5.607 117.4212,5.3424 118.53,5.3424 C119.8572,5.3424 120.8946,5.775 121.6422,6.6402 C122.3898,7.5054 122.7636,8.7276 122.7636,10.3068 L122.7636,18.648 L120.7476,18.648 L120.7476,10.6596 C120.7476,9.5004 120.5208,8.6268 120.0672,8.0388 C119.6136,7.4508 118.8912,7.1568 117.9,7.1568 C117.4968,7.1568 117.1146,7.2072 116.7534,7.308 C116.3922,7.4088 116.0688,7.56 115.7832,7.7616 C115.4976,7.9632 115.2708,8.2194 115.1028,8.5302 C114.9348,8.841 114.8508,9.2064 114.8508,9.6264 L114.8508,18.648 L112.8348,18.648 L112.8348,10.6596 C112.8348,9.5004 112.608,8.6268 112.1544,8.0388 C111.7008,7.4508 110.9952,7.1568 110.0376,7.1568 C109.6344,7.1568 109.248,7.2072 108.8784,7.308 C108.5088,7.4088 108.1812,7.56 107.8956,7.7616 C107.61,7.9632 107.379,8.2194 107.2026,8.5302 C107.0262,8.841 106.938,9.2064 106.938,9.6264 L106.938,18.648 L104.922,18.648 Z" id="Path"></path>
                    </g>
                </g>
                <circle id="Oval" fill-opacity="0.8" cx="48" cy="48" r="48"></circle>
            </g>
        </g>
    </g>
</svg>