<?xml version="1.0" encoding="UTF-8"?>
<svg width="224px" height="66px" viewBox="0 0 224 66" version="1.1" xmlns="http://www.w3.org/2000/svg" xmlns:xlink="http://www.w3.org/1999/xlink">
    <title>pfpb-logo_4c</title>
    <defs>
        <polygon id="path-1" points="0 0 65.2035794 0 65.2035794 65 0 65"></polygon>
        <polygon id="path-3" points="0 0 145.353468 0 145.353468 60.7192394 0 60.7192394"></polygon>
    </defs>
    <g id="Symbole" stroke="none" stroke-width="1" fill="none" fill-rule="evenodd">
        <g id="48em/Footer/Footer" transform="translate(-111, -84)">
            <g id="pfpb-logo_4c" transform="translate(111.38, 84.5)">
                <g id="Group-6" transform="translate(158.0364, 0)">
                    <mask id="mask-2" fill="white">
                        <use xlink:href="#path-1"></use>
                    </mask>
                    <g id="Clip-2"></g>
                    <path d="M64.6912752,21.4065996 C64.7360179,19.7270694 65.2035794,2.14988814 65.2035794,2.14988814 C65.2035794,0.96196868 64.2326622,0 63.0464206,0 C63.0464206,0 45.1683445,0.455816555 43.8137584,0.571029083 C42.458613,0.686800895 40.4217002,1.12751678 39.1677852,2.37919463 C38.5123043,3.03355705 35.4116331,6.12863535 32.6017897,8.93400447 C35.1666667,11.4938479 37.4893736,13.8126398 37.4893736,13.8126398 C38.2203579,14.5419463 38.314877,15.6638702 37.7757271,16.4966443 L38.3596197,15.9121924 C38.7432886,15.5290828 39.3612975,15.5302013 39.7427293,15.9110738 L49.1728188,25.3417226 C49.5559284,25.7248322 49.557047,26.3428412 49.1739374,26.7265101 L48.5285235,27.3719239 C49.3724832,26.6873602 50.6051454,26.7242729 51.3909396,27.5111857 C51.3909396,27.5111857 53.7902685,29.9144295 56.4026846,32.5313199 C59.1135347,29.8249441 62.0794183,26.8646532 62.8887025,26.057047 C64.4742729,24.4737136 64.6465324,23.0861298 64.6912752,21.4065996" id="Fill-1" fill="#D13056" mask="url(#mask-2)"></path>
                    <path d="M64.6319911,43.610179 C64.5167785,42.2555928 64.0755034,40.2186801 62.8243848,38.9647651 C62.1800895,38.3199105 59.1717002,35.3059284 56.4026846,32.5313199 C53.8008949,35.1280761 51.4345638,37.4899329 51.4345638,37.4899329 C50.6442953,38.2796421 49.4004474,38.3137584 48.5548098,37.6196868 L49.1750559,38.2399329 C49.5587248,38.6236018 49.5587248,39.2449664 49.1750559,39.6286353 L39.746085,49.0576063 C39.3624161,49.4412752 38.7410515,49.4412752 38.3573826,49.0576063 L37.5128635,48.2130872 C38.3271812,49.0564877 38.3215884,50.3982103 37.4904922,51.2315436 C37.4904922,51.2315436 35.1705817,53.5553691 32.6017897,56.1291946 C35.3266219,58.8585011 38.3316555,61.8691275 39.1465324,62.685123 C40.7293065,64.2712528 42.1174497,64.4435123 43.7969799,64.488255 C45.4765101,64.5329978 63.0536913,65.0005593 63.0536913,65.0005593 C64.2410515,65.0005593 65.2030201,64.0296421 65.2035794,62.8428412 C65.2035794,62.8428412 64.7477629,44.9653244 64.6319911,43.610179" id="Fill-3" fill="#75BB5B" mask="url(#mask-2)"></path>
                    <path d="M16.6196868,27.3199105 L16.0285235,26.7287472 C15.6465324,26.3467562 15.6442953,25.7225951 16.0274049,25.3389262 L25.4569351,15.9099553 C25.8400447,15.5262864 26.4636465,15.5290828 26.8461969,15.9110738 L27.4513423,16.5162192 C26.8948546,15.6812081 26.9759508,14.549217 27.7142058,13.8126398 C27.7142058,13.8126398 30.0369128,11.4938479 32.6017897,8.93400447 C29.7919463,6.12863535 26.6912752,3.03355705 26.0357942,2.37919463 C24.7818792,1.12751678 22.7449664,0.686800895 21.389821,0.571029083 C20.0352349,0.455816555 2.15715884,0 2.15715884,0 C0.970917226,0 0,0.96196868 0,2.14988814 C0,2.14988814 0.467561521,19.7270694 0.512304251,21.4065996 C0.55704698,23.0861298 0.729306488,24.4737136 2.31543624,26.057047 C3.12416107,26.8646532 6.09060403,29.8249441 8.80089485,32.5313199 C11.413311,29.9144295 13.8126398,27.5111857 13.8126398,27.5111857 C14.5799776,26.74217 15.7774049,26.6840045 16.6196868,27.3199105" id="Fill-4" fill="#D89A3F" mask="url(#mask-2)"></path>
                    <path d="M27.7052573,48.1951902 L26.8428412,49.0576063 C26.4602908,49.4401566 25.8411633,49.4401566 25.4580537,49.0564877 L16.0274049,39.6263982 C15.6465324,39.2449664 15.6465324,38.6258389 16.0285235,38.2432886 L16.6364653,37.6353468 C15.7908277,38.3171141 14.5548098,38.2751678 13.7690157,37.4899329 C13.7690157,37.4899329 11.4026846,35.1280761 8.80089485,32.5313199 C6.03187919,35.3059284 3.02348993,38.3199105 2.37919463,38.9647651 C1.12807606,40.2186801 0.686800895,42.2555928 0.571029083,43.610179 C0.455257271,44.9653244 0,62.8428412 0,62.8428412 C0.000559284116,64.0296421 0.962527964,65.0005593 2.14988814,65.0005593 C2.14988814,65.0005593 19.7265101,64.5329978 21.4065996,64.488255 C23.0861298,64.4435123 24.4742729,64.2712528 26.057047,62.685123 C26.8719239,61.8691275 29.8769575,58.8585011 32.6017897,56.1291946 C30.0329978,53.5553691 27.7130872,51.2315436 27.7130872,51.2315436 C26.8763982,50.3931767 26.8741611,49.0369128 27.7052573,48.1951902" id="Fill-5" fill="#04B2B6" mask="url(#mask-2)"></path>
                </g>
                <path d="M195.525727,13.8126398 C195.525727,13.8126398 193.20302,11.4938479 190.638143,8.93400447 C188.073266,11.4938479 185.750559,13.8126398 185.750559,13.8126398 C185.012304,14.549217 184.931208,15.6812081 185.487696,16.5162192 L190.639821,21.6683445 L195.812081,16.4966443 C196.35123,15.6638702 196.256711,14.5419463 195.525727,13.8126398" id="Fill-7" fill="#BE2E30"></path>
                <path d="M185.749441,51.2315436 C185.749441,51.2315436 188.069351,53.5553691 190.638143,56.1291946 C193.206935,53.5553691 195.526846,51.2315436 195.526846,51.2315436 C196.357942,50.3982103 196.363535,49.0564877 195.549217,48.2130872 L190.636465,43.3003356 L185.741611,48.1951902 C184.910515,49.0369128 184.912752,50.3931767 185.749441,51.2315436" id="Fill-8" fill="#00A057"></path>
                <path d="M209.470917,37.4899329 C209.470917,37.4899329 211.837248,35.1280761 214.439038,32.5313199 C211.826622,29.9144295 209.427293,27.5111857 209.427293,27.5111857 C208.641499,26.7242729 207.408837,26.6873602 206.564877,27.3719239 L201.454139,32.4826622 L206.591163,37.6196868 C207.436801,38.3137584 208.680649,38.2796421 209.470917,37.4899329" id="Fill-9" fill="#763738"></path>
                <path d="M174.65604,27.3199105 C173.813758,26.6840045 172.616331,26.74217 171.848993,27.5111857 C171.848993,27.5111857 169.449664,29.9144295 166.837248,32.5313199 C169.439038,35.1280761 171.805369,37.4899329 171.805369,37.4899329 C172.591163,38.2751678 173.827181,38.3171141 174.672819,37.6353468 L179.822148,32.4860179 L174.65604,27.3199105" id="Fill-10" fill="#4B7747"></path>
                <path d="M35.9021253,64.1269575 C36.6845638,64.1269575 37.1465324,63.6845638 37.1465324,62.9725951 C37.1465324,62.360179 36.7253915,61.8182327 35.9021253,61.8182327 L33.8540268,61.8182327 L33.8540268,64.1269575 L35.9021253,64.1269575 Z M35.8618568,61.0755034 C36.614094,61.0755034 37.01566,60.6135347 37.01566,60.0016779 C37.01566,59.3993289 36.614094,58.9177852 35.8618568,58.9177852 L33.8540268,58.9177852 L33.8540268,61.0755034 L35.8618568,61.0755034 Z M33.0212528,58.1750559 L36.0022371,58.1750559 C37.1666667,58.1750559 37.8791946,58.8775168 37.8791946,59.8814318 C37.8791946,60.7237136 37.3165548,61.2863535 36.7052573,61.417226 C37.417226,61.5268456 38.0100671,62.2600671 38.0100671,63.0626398 C38.0100671,64.1370246 37.2964206,64.8696868 36.0721477,64.8696868 L33.0212528,64.8696868 L33.0212528,58.1750559 L33.0212528,58.1750559 Z" id="Fill-11" fill="#8A8B8A"></path>
                <path d="M46.0357942,58.9177852 L44.2790828,58.9177852 L44.2790828,61.4770694 L46.0357942,61.4770694 C46.8294183,61.4770694 47.3708054,60.9451902 47.3708054,60.1923937 C47.3708054,59.4395973 46.8294183,58.9177852 46.0357942,58.9177852 Z M45.6146532,62.2097315 L44.2790828,62.2097315 L44.2790828,64.8696868 L43.4463087,64.8696868 L43.4463087,58.1750559 L46.1364653,58.1750559 C47.3607383,58.1750559 48.23434,58.9574944 48.23434,60.1923937 C48.23434,61.3970917 47.4110738,62.0592841 46.4977629,62.139821 L48.3048098,64.8696868 L47.3210291,64.8696868 L45.6146532,62.2097315 L45.6146532,62.2097315 Z" id="Fill-12" fill="#8A8B8A"></path>
                <path d="M54.7242729,62.6414989 L57.6258389,62.6414989 L56.1800895,58.9177852 L54.7242729,62.6414989 Z M57.8763982,63.3836689 L54.48434,63.3836689 L53.8914989,64.8696868 L52.9686801,64.8696868 L55.6577181,58.1750559 L56.6918345,58.1750559 L59.3920582,64.8696868 L58.4692394,64.8696868 L57.8763982,63.3836689 L57.8763982,63.3836689 Z" id="Fill-13" fill="#8A8B8A"></path>
                <polyline id="Fill-14" fill="#8A8B8A" points="65.2102908 59.4697987 65.2102908 64.8696868 64.3775168 64.8696868 64.3775168 58.1750559 65.2304251 58.1750559 69.0850112 63.4647651 69.0850112 58.1750559 69.9177852 58.1750559 69.9177852 64.8696868 69.1152125 64.8696868 65.2102908 59.4697987"></polyline>
                <path d="M77.8836689,64.1269575 C79.5100671,64.1269575 80.4530201,62.962528 80.4530201,61.5268456 C80.4530201,60.0816555 79.5391499,58.9177852 77.8836689,58.9177852 L76.4278523,58.9177852 L76.4278523,64.1269575 L77.8836689,64.1269575 Z M75.5950783,58.1750559 L77.8836689,58.1750559 C79.9608501,58.1750559 81.3165548,59.6303132 81.3165548,61.5268456 C81.3165548,63.4340045 79.9608501,64.8696868 77.8836689,64.8696868 L75.5950783,64.8696868 L75.5950783,58.1750559 L75.5950783,58.1750559 Z" id="Fill-15" fill="#8A8B8A"></path>
                <polyline id="Fill-16" fill="#8A8B8A" points="86.7332215 58.1750559 91.1196868 58.1750559 91.1196868 58.9177852 87.5659955 58.9177852 87.5659955 61.0755034 91.049217 61.0755034 91.049217 61.8182327 87.5659955 61.8182327 87.5659955 64.1269575 91.1196868 64.1269575 91.1196868 64.8696868 86.7332215 64.8696868 86.7332215 58.1750559"></polyline>
                <polyline id="Fill-17" fill="#8A8B8A" points="97.3887025 59.4697987 97.3887025 64.8696868 96.5559284 64.8696868 96.5559284 58.1750559 97.409396 58.1750559 101.263423 63.4647651 101.263423 58.1750559 102.096756 58.1750559 102.096756 64.8696868 101.293624 64.8696868 97.3887025 59.4697987"></polyline>
                <path d="M110.654922,64.1269575 C111.437919,64.1269575 111.899329,63.6845638 111.899329,62.9725951 C111.899329,62.360179 111.478188,61.8182327 110.654922,61.8182327 L108.606823,61.8182327 L108.606823,64.1269575 L110.654922,64.1269575 Z M110.614653,61.0755034 C111.368009,61.0755034 111.768456,60.6135347 111.768456,60.0016779 C111.768456,59.3993289 111.368009,58.9177852 110.614653,58.9177852 L108.606823,58.9177852 L108.606823,61.0755034 L110.614653,61.0755034 Z M107.774049,58.1750559 L110.755034,58.1750559 C111.919463,58.1750559 112.631991,58.8775168 112.631991,59.8814318 C112.631991,60.7237136 112.069911,61.2863535 111.458054,61.417226 C112.170582,61.5268456 112.762864,62.2600671 112.762864,63.0626398 C112.762864,64.1370246 112.050336,64.8696868 110.825503,64.8696868 L107.774049,64.8696868 L107.774049,58.1750559 L107.774049,58.1750559 Z" id="Fill-18" fill="#8A8B8A"></path>
                <path d="M118.199105,58.1750559 L119.032438,58.1750559 L119.032438,62.25 C119.032438,63.4742729 119.694631,64.2472036 120.92953,64.2472036 C122.16443,64.2472036 122.827181,63.4742729 122.827181,62.25 L122.827181,58.1750559 L123.659955,58.1750559 L123.659955,62.2600671 C123.659955,63.9261745 122.746085,64.9899329 120.92953,64.9899329 C119.112975,64.9899329 118.199105,63.9155481 118.199105,62.2701342 L118.199105,58.1750559" id="Fill-19" fill="#8A8B8A"></path>
                <g id="Group-24" transform="translate(0, 4.2808)">
                    <mask id="mask-4" fill="white">
                        <use xlink:href="#path-3"></use>
                    </mask>
                    <g id="Clip-21"></g>
                    <path d="M131.927293,54.6370246 L130.170582,54.6370246 L130.170582,57.1963087 L131.927293,57.1963087 C132.720358,57.1963087 133.262304,56.6644295 133.262304,55.9116331 C133.262304,55.1588367 132.720358,54.6370246 131.927293,54.6370246 Z M131.505593,57.9289709 L130.170582,57.9289709 L130.170582,60.5889262 L129.337808,60.5889262 L129.337808,53.8942953 L132.027405,53.8942953 C133.252796,53.8942953 134.12528,54.6767338 134.12528,55.9116331 C134.12528,57.1163311 133.302013,57.7785235 132.389262,57.8590604 L134.195749,60.5889262 L133.211969,60.5889262 L131.505593,57.9289709 L131.505593,57.9289709 Z" id="Fill-20" fill="#8A8B8A" mask="url(#mask-4)"></path>
                    <path d="M142.723714,53.783557 C143.908277,53.783557 144.731544,54.3053691 145.323266,55.0385906 L144.661074,55.4496644 C144.239374,54.9077181 143.526846,54.5268456 142.723714,54.5268456 C141.258389,54.5268456 140.144295,55.6504474 140.144295,57.246085 C140.144295,58.8322148 141.258389,59.9765101 142.723714,59.9765101 C143.526846,59.9765101 144.189038,59.5850112 144.520694,59.253915 L144.520694,57.8887025 L142.222595,57.8887025 L142.222595,57.1459732 L145.353468,57.1459732 L145.353468,59.564877 C144.731544,60.25783 143.817673,60.7197987 142.723714,60.7197987 C140.816555,60.7197987 139.280761,59.3243848 139.280761,57.246085 C139.280761,55.1689038 140.816555,53.783557 142.723714,53.783557" id="Fill-22" fill="#8A8B8A" mask="url(#mask-4)"></path>
                    <path d="M9.47035794,3.95749441 L4.57214765,3.95749441 L4.57214765,9.9261745 L9.47035794,9.9261745 C11.2869128,9.9261745 12.6498881,8.75838926 12.6498881,6.94183445 C12.6498881,5.15771812 11.2869128,3.95749441 9.47035794,3.95749441 Z M-0.033557047,0 L10.0872483,0 C14.7902685,0 17.3529083,3.17897092 17.3529083,6.97371365 C17.3529083,10.7371365 14.75783,13.8836689 10.0872483,13.8836689 L4.57214765,13.8836689 L4.57214765,21.635906 L-0.033557047,21.635906 L-0.033557047,0 L-0.033557047,0 Z" id="Fill-23" fill="#D13056" mask="url(#mask-4)"></path>
                </g>
                <path d="M22.9977629,18.1963087 L30.1666667,18.1963087 L26.598434,8.27069351 L22.9977629,18.1963087 Z M31.4317673,22.1862416 L21.7651007,22.1862416 L20.4026846,25.9166667 L15.3422819,25.9166667 L23.7114094,4.28076063 L29.4848993,4.28076063 L37.8221477,25.9166667 L32.7936242,25.9166667 L31.4317673,22.1862416 L31.4317673,22.1862416 Z" id="Fill-25" fill="#D13056"></path>
                <polyline id="Fill-26" fill="#D13056" points="45.9636465 17.2561521 44.2768456 19.2667785 44.2768456 25.9166667 39.6705817 25.9166667 39.6705817 4.28076063 44.2768456 4.28076063 44.2768456 13.9474273 51.9317673 4.28076063 57.6090604 4.28076063 49.0123043 14.4340045 58.1923937 25.9166667 52.51566 25.9166667 45.9636465 17.2561521"></polyline>
                <polyline id="Fill-27" fill="#D13056" points="65.1347875 8.33557047 58.8092841 8.33557047 58.8092841 4.28076063 76.0659955 4.28076063 76.0659955 8.33557047 69.7734899 8.33557047 69.7734899 25.9166667 65.1347875 25.9166667 65.1347875 8.33557047"></polyline>
                <polyline id="Fill-28" fill="#D13056" points="88.2634228 4.28076063 103.573826 4.28076063 103.573826 8.23825503 92.8691275 8.23825503 92.8691275 12.9418345 103.346756 12.9418345 103.346756 16.8987696 92.8691275 16.8987696 92.8691275 25.9166667 88.2634228 25.9166667 88.2634228 4.28076063"></polyline>
                <path d="M106.038591,4.28076063 L110.709732,4.28076063 L110.709732,17.1258389 C110.709732,20.1426174 112.364094,22.2186801 115.737696,22.2186801 C119.045861,22.2186801 120.700224,20.1426174 120.700224,17.1258389 L120.700224,4.28076063 L125.371924,4.28076063 L125.371924,17.2561521 C125.371924,22.6409396 122.289709,26.3059284 115.737696,26.3059284 C109.120246,26.3059284 106.038591,22.6079418 106.038591,17.2880313 L106.038591,4.28076063" id="Fill-29" fill="#D13056"></path>
                <path d="M110.886465,2.17337808 C110.886465,0.973154362 111.85962,0 113.092282,0 C114.292506,0 115.265101,0.973154362 115.265101,2.17337808 C115.265101,3.40604027 114.292506,4.37919463 113.092282,4.37919463 C111.85962,4.37919463 110.886465,3.40604027 110.886465,2.17337808" id="Fill-30" fill="#D13056"></path>
                <path d="M116.145414,2.17337808 C116.145414,0.973154362 117.150447,0 118.35123,0 C119.550895,0 120.556488,0.973154362 120.556488,2.17337808 C120.556488,3.40604027 119.550895,4.37919463 118.35123,4.37919463 C117.150447,4.37919463 116.145414,3.40604027 116.145414,2.17337808" id="Fill-31" fill="#D13056"></path>
                <path d="M137.276286,8.23825503 L132.442953,8.23825503 L132.442953,14.2069351 L137.276286,14.2069351 C139.12528,14.2069351 140.520694,13.0391499 140.520694,11.2225951 C140.520694,9.40604027 139.12528,8.23825503 137.276286,8.23825503 Z M135.816555,18.1644295 L132.442953,18.1644295 L132.442953,25.9166667 L127.837248,25.9166667 L127.837248,4.28076063 L137.958054,4.28076063 C142.466443,4.28076063 145.223714,7.23266219 145.223714,11.2544743 C145.223714,15.082774 142.823266,17.1258389 140.487696,17.6778523 L145.353468,25.9166667 L140.065996,25.9166667 L135.816555,18.1644295 L135.816555,18.1644295 Z" id="Fill-32" fill="#D13056"></path>
                <path d="M42.5251678,35.3875839 L37.6269575,35.3875839 L37.6269575,41.3557047 L42.5251678,41.3557047 C44.3417226,41.3557047 45.7041387,40.1884787 45.7041387,38.3719239 C45.7041387,36.5878076 44.3417226,35.3875839 42.5251678,35.3875839 Z M33.0212528,31.4295302 L43.1414989,31.4295302 C47.844519,31.4295302 50.4077181,34.6090604 50.4077181,38.4038031 C50.4077181,42.167226 47.8126398,45.3137584 43.1414989,45.3137584 L37.6269575,45.3137584 L37.6269575,53.0659955 L33.0212528,53.0659955 L33.0212528,31.4295302 L33.0212528,31.4295302 Z" id="Fill-33" fill="#D13056"></path>
                <polyline id="Fill-34" fill="#D13056" points="53.1001119 31.4295302 68.4105145 31.4295302 68.4105145 35.3875839 57.7058166 35.3875839 57.7058166 40.0911633 68.1834452 40.0911633 68.1834452 44.0480984 57.7058166 44.0480984 57.7058166 53.0659955 53.1001119 53.0659955 53.1001119 31.4295302"></polyline>
                <polyline id="Fill-35" fill="#D13056" points="71.4602908 31.4295302 76.0659955 31.4295302 76.0659955 49.0111857 85.2136465 49.0111857 85.2136465 53.0659955 71.4602908 53.0659955 71.4602908 31.4295302"></polyline>
                <polyline id="Fill-36" fill="#D13056" points="88.2634228 31.4295302 103.573826 31.4295302 103.573826 35.3875839 92.8691275 35.3875839 92.8691275 40.0911633 103.346756 40.0911633 103.346756 44.0480984 92.8691275 44.0480984 92.8691275 49.0760626 103.573826 49.0760626 103.573826 53.0659955 88.2634228 53.0659955 88.2634228 31.4295302"></polyline>
                <path d="M117.489933,31.0732662 C121.966443,31.0732662 124.788591,33.246085 126.442953,35.8092841 L122.615213,37.8847875 C121.60962,36.3607383 119.760067,35.1599553 117.489933,35.1599553 C113.564877,35.1599553 110.710291,38.1772931 110.710291,42.2645414 C110.710291,46.3512304 113.564877,49.3680089 117.489933,49.3680089 C119.46868,49.3680089 121.220358,48.557047 122.160515,47.7142058 L122.160515,45.0861298 L116.387025,45.0861298 L116.387025,41.1286353 L126.702461,41.1286353 L126.702461,49.4004474 C124.496085,51.8657718 121.41443,53.4876957 117.489933,53.4876957 C111.16443,53.4876957 105.974273,49.0760626 105.974273,42.2645414 C105.974273,35.4200224 111.16443,31.0732662 117.489933,31.0732662" id="Fill-37" fill="#D13056"></path>
                <polyline id="Fill-38" fill="#D13056" points="130.043065 31.4295302 145.353468 31.4295302 145.353468 35.3875839 134.649329 35.3875839 134.649329 40.0911633 145.126398 40.0911633 145.126398 44.0480984 134.649329 44.0480984 134.649329 49.0760626 145.353468 49.0760626 145.353468 53.0659955 130.043065 53.0659955 130.043065 31.4295302"></polyline>
            </g>
        </g>
    </g>
</svg>