<?xml version="1.0" encoding="UTF-8"?>
<svg width="177px" height="66px" viewBox="0 0 177 66" version="1.1" xmlns="http://www.w3.org/2000/svg" xmlns:xlink="http://www.w3.org/1999/xlink">
    <title>Akademie2Lebenshaelfte_Logo-4c</title>
    <g id="Symbole" stroke="none" stroke-width="1" fill="none" fill-rule="evenodd">
        <g id="48em/Footer/Footer" transform="translate(-495, -84)">
            <g id="Akademie2Lebenshaelfte_Logo-4c" transform="translate(495, 84.5)">
                <polygon id="Fill-1" fill="#009645" points="0 65 176.481889 65 176.481889 0 0 0"></polygon>
                <path d="M167.446475,54.8924205 C167.266907,55.1335921 167.048673,55.2545056 166.792428,55.2545056 C166.5352,55.2545056 166.318605,55.1312984 166.141003,54.8848839 C165.964384,54.6384695 165.875911,54.246238 165.875911,53.7098278 C165.875911,53.216999 165.964712,52.8450836 166.143624,52.594737 C166.321881,52.3440627 166.528647,52.2188894 166.764903,52.2188894 C167.028684,52.2188894 167.253144,52.3440627 167.438938,52.594737 C167.623749,52.8450836 167.716155,53.2274847 167.716155,53.7406296 C167.716155,54.2672094 167.626043,54.6509213 167.446475,54.8924205 L167.446475,54.8924205 Z M167.676505,55.2925163 C167.676505,55.7525773 167.659794,56.0537141 167.626371,56.1969097 C167.572304,56.4318554 167.470395,56.6091296 167.322285,56.7277494 C167.174174,56.8460414 166.97429,56.9056789 166.724599,56.9056789 C166.494896,56.9056789 166.315655,56.852595 166.18655,56.7467547 C166.057772,56.6405868 165.980112,56.4783858 165.954553,56.2611348 L165.403398,56.158899 C165.396189,56.5691528 165.509566,56.8915887 165.742545,57.123913 C165.97618,57.3559096 166.308774,57.4722355 166.742621,57.4722355 C167.070627,57.4722355 167.351776,57.3945757 167.585083,57.240239 C167.818063,57.0849192 167.986162,56.8735664 168.089053,56.6061805 C168.191616,56.3391223 168.242734,55.8911854 168.242734,55.2643359 L168.242734,51.7391677 L167.723691,51.7391677 L167.723691,52.2306859 C167.59819,52.0380107 167.453029,51.8935044 167.2905,51.7974945 C167.127643,51.7008293 166.946765,51.6526605 166.748847,51.6526605 C166.48015,51.6526605 166.236685,51.729665 166.019434,51.882691 C165.802183,52.0370277 165.627202,52.2768886 165.494492,52.6045673 C165.3608,52.9319184 165.293953,53.3146472 165.293953,53.7524261 C165.293953,54.4045068 165.445341,54.9248607 165.748771,55.3144708 C166.013536,55.6516523 166.34613,55.8210622 166.747208,55.8210622 C166.934641,55.8210622 167.106017,55.7764979 167.259698,55.6873692 C167.414035,55.598896 167.552643,55.4671691 167.676505,55.2925163 L167.676505,55.2925163 Z M163.88559,51.7391677 L163.374411,51.7391677 L163.374411,55.8210622 L163.940312,55.8210622 L163.940312,53.6878734 C163.940312,53.3916518 163.976357,53.1114864 164.048118,52.847705 C164.088751,52.6973004 164.159201,52.5793361 164.259471,52.4951226 C164.359086,52.4105815 164.469841,52.3686386 164.590099,52.3686386 C164.72412,52.3686386 164.860434,52.4181181 165.002319,52.5177325 L165.191062,51.8731883 C164.993472,51.7260605 164.800469,51.6526605 164.611071,51.6526605 C164.475084,51.6526605 164.35286,51.6998462 164.24407,51.7932347 C164.135609,51.8872785 164.015678,52.0770045 163.88559,52.3640511 L163.88559,51.7391677 Z M160.340433,51.7391677 L159.774532,51.7391677 L159.774532,54.2691755 C159.774532,54.6463338 159.805661,54.9435384 159.868576,55.1611171 C159.931162,55.3793512 160.055353,55.5595745 160.242457,55.7014594 C160.429234,55.8443274 160.654022,55.9154337 160.917148,55.9154337 C161.140625,55.9154337 161.339526,55.8571068 161.515817,55.7420916 C161.692108,55.6260933 161.845789,55.4527512 161.975878,55.2217377 L161.975878,55.8210622 L162.47952,55.8210622 L162.47952,51.7391677 L161.913619,51.7391677 L161.913619,53.9260958 C161.913619,54.4385854 161.839236,54.7911678 161.691453,54.9831876 C161.517783,55.2066645 161.295944,55.3174199 161.025937,55.3174199 C160.88012,55.3174199 160.751015,55.2751493 160.637638,55.1889698 C160.523605,55.1027903 160.446273,54.9887581 160.40433,54.8465455 C160.361732,54.7043329 160.340433,54.4231845 160.340433,54.0031003 L160.340433,51.7391677 Z M156.725481,53.7534091 C156.725481,53.2556651 156.816576,52.8758854 156.99942,52.613087 C157.18292,52.350944 157.390996,52.2188894 157.623976,52.2188894 C157.877599,52.2188894 158.090918,52.3447181 158.265243,52.5960477 C158.439568,52.846722 158.526076,53.2405918 158.526076,53.7763466 C158.526076,54.2989943 158.436292,54.6918811 158.255085,54.9543518 C158.07519,55.2174779 157.868424,55.3488771 157.634789,55.3488771 C157.463741,55.3488771 157.307438,55.293827 157.167519,55.1833993 C157.025635,55.0732992 156.917173,54.9130643 156.840824,54.7033499 C156.763492,54.4923248 156.725481,54.1764424 156.725481,53.7534091 L156.725481,53.7534091 Z M156.772667,50.1902301 L156.20611,50.1902301 L156.20611,55.8210622 L156.733345,55.8210622 L156.733345,55.3147985 C156.845739,55.5130441 156.97976,55.663121 157.134752,55.7643738 C157.289744,55.8649711 157.464724,55.9154337 157.659693,55.9154337 C158.046026,55.9154337 158.384518,55.7273461 158.673203,55.3524815 C158.963199,54.9772893 159.108033,54.4444837 159.108033,53.7534091 C159.108033,53.2999017 159.043808,52.9148791 158.916013,52.5980138 C158.787563,52.2798377 158.61717,52.0429259 158.403524,51.8872785 C158.18955,51.7309757 157.951982,51.6526605 157.690167,51.6526605 C157.503718,51.6526605 157.333653,51.6982078 157.18161,51.7886472 C157.029567,51.8787589 156.892597,52.0160563 156.772667,52.1998841 L156.772667,50.1902301 Z M153.133466,51.7391677 L152.622287,51.7391677 L152.622287,55.8210622 L153.188516,55.8210622 L153.188516,53.5941572 C153.188516,53.1029668 153.268797,52.7559549 153.42936,52.5534494 C153.590906,52.3522547 153.806191,52.2506743 154.076198,52.2506743 C154.219394,52.2506743 154.344895,52.2883573 154.453029,52.3637234 C154.562146,52.4394172 154.641444,52.5462405 154.692234,52.6841933 C154.743352,52.8224737 154.769239,53.0410355 154.769239,53.3408615 L154.769239,55.8210622 L155.33514,55.8210622 L155.33514,53.3146472 C155.33514,52.9391274 155.312858,52.6596174 155.266,52.4780833 C155.220452,52.2958939 155.150984,52.1487662 155.057924,52.0344063 C154.964535,51.9210294 154.841656,51.828624 154.68994,51.7581731 C154.538225,51.6880498 154.372747,51.6526605 154.19449,51.6526605 C153.964132,51.6526605 153.760643,51.7083659 153.583369,51.8197767 C153.405767,51.9305321 153.25569,52.0986313 153.133466,52.3237466 L153.133466,51.7391677 Z M149.457893,53.3909964 C149.475588,53.0325158 149.575858,52.7474353 149.754115,52.5360825 C149.933683,52.3247297 150.150606,52.2188894 150.403902,52.2188894 C150.686033,52.2188894 150.91803,52.3453734 151.100219,52.5993245 C151.22572,52.7733219 151.300759,53.037431 151.326318,53.3909964 L149.457893,53.3909964 Z M149.285207,52.2077483 C148.98964,52.5776977 148.841857,53.1147632 148.841857,53.8182895 C148.841857,54.4972399 148.988985,55.0159554 149.28193,55.3757467 C149.575858,55.7352103 149.959242,55.9154337 150.432738,55.9154337 C150.809568,55.9154337 151.125451,55.8043506 151.380385,55.5834951 C151.635646,55.3629673 151.811282,55.0359438 151.908931,54.6017695 L151.326318,54.5155899 C151.160185,55.0713331 150.86298,55.3488771 150.436997,55.3488771 C150.165024,55.3488771 149.933683,55.2322234 149.743301,54.9982608 C149.553248,54.7639705 149.44708,54.4169586 149.424142,53.95657 L151.924659,53.95657 L151.927936,53.7733975 C151.927936,53.0855998 151.783102,52.5603307 151.494089,52.1969349 C151.204093,51.8345222 150.842336,51.6526605 150.4098,51.6526605 C149.95662,51.6526605 149.581428,51.8374713 149.285207,52.2077483 L149.285207,52.2077483 Z M145.8318,53.7881431 C145.8318,53.2468177 145.917652,52.8499987 146.089355,52.5980138 C146.260731,52.3450457 146.465858,52.2188894 146.703426,52.2188894 C146.97245,52.2188894 147.194944,52.350944 147.371563,52.613087 C147.547854,52.8758854 147.636655,53.2933481 147.636655,53.8644922 C147.636655,54.3619086 147.547854,54.7334963 147.371563,54.9799108 C147.194944,55.2259975 146.986212,55.3488771 146.745696,55.3488771 C146.502558,55.3488771 146.288912,55.2207547 146.10705,54.9645099 C145.922895,54.7079374 145.8318,54.3157059 145.8318,53.7881431 L145.8318,53.7881431 Z M145.441862,52.604895 C145.314068,52.9279863 145.25017,53.3208731 145.25017,53.7838832 C145.25017,54.4595569 145.394021,54.9841706 145.683034,55.3564137 C145.970736,55.7289844 146.312177,55.9154337 146.70703,55.9154337 C146.892824,55.9154337 147.067149,55.8636604 147.229022,55.7604416 C147.390568,55.6572228 147.521967,55.5074736 147.625186,55.3105387 L147.625186,55.8210622 L148.151438,55.8210622 L148.151438,50.1902301 L147.585209,50.1902301 L147.585209,52.2113528 C147.480352,52.0353893 147.34797,51.8980919 147.18839,51.8004436 C147.027827,51.7018123 146.854485,51.6526605 146.667709,51.6526605 C146.406549,51.6526605 146.168326,51.7309757 145.95468,51.8872785 C145.741361,52.0429259 145.569985,52.2827868 145.441862,52.604895 L145.441862,52.604895 Z M142.381998,51.7391677 L141.870491,51.7391677 L141.870491,55.8210622 L142.437048,55.8210622 L142.437048,53.5941572 C142.437048,53.1029668 142.517001,52.7559549 142.677564,52.5534494 C142.838454,52.3522547 143.053739,52.2506743 143.32473,52.2506743 C143.46727,52.2506743 143.592771,52.2883573 143.70156,52.3637234 C143.810022,52.4394172 143.889648,52.5462405 143.940438,52.6841933 C143.991884,52.8224737 144.017443,53.0410355 144.017443,53.3408615 L144.017443,55.8210622 L144.583344,55.8210622 L144.583344,53.3146472 C144.583344,52.9391274 144.560734,52.6596174 144.514531,52.4780833 C144.468656,52.2958939 144.399516,52.1487662 144.3058,52.0344063 C144.213067,51.9210294 144.08986,51.828624 143.938472,51.7581731 C143.786101,51.6880498 143.621279,51.6526605 143.442366,51.6526605 C143.212991,51.6526605 143.009503,51.7083659 142.831901,51.8197767 C142.654299,51.9305321 142.50455,52.0986313 142.381998,52.3237466 L142.381998,51.7391677 Z M138.695939,54.7308749 C138.695939,54.6057016 138.721826,54.4952739 138.774582,54.3982809 C138.827011,54.3022711 138.900739,54.2282157 138.996093,54.1757871 C139.090465,54.1233585 139.256598,54.0765004 139.495148,54.0355405 C139.905074,53.9647619 140.214075,53.8779271 140.422151,53.7763466 L140.422151,54.0296423 C140.422151,54.3642024 140.381191,54.6201195 140.298616,54.7950999 C140.217024,54.9704081 140.093162,55.1103269 139.928011,55.2151841 C139.762534,55.3200413 139.578378,55.3724699 139.3762,55.3724699 C139.163537,55.3724699 138.996748,55.3144708 138.875835,55.1978172 C138.755577,55.0808358 138.695939,54.9251884 138.695939,54.7308749 L138.695939,54.7308749 Z M138.236206,54.1233585 C138.138885,54.3055479 138.089734,54.5142792 138.089734,54.7498803 C138.089734,55.1063948 138.193608,55.3895092 138.401028,55.599879 C138.608449,55.8102488 138.887304,55.9154337 139.234643,55.9154337 C139.455171,55.9154337 139.66849,55.8652988 139.873617,55.7653568 C140.077761,55.6647594 140.274696,55.5163209 140.464422,55.3184029 C140.483427,55.5127165 140.522748,55.6801603 140.583041,55.8210622 L141.172208,55.8210622 C141.100774,55.662138 141.052277,55.4992816 141.028357,55.3315101 C141.004436,55.1640662 140.991329,54.7580722 140.991329,54.1128727 L140.991329,53.1917677 C140.991329,52.8185416 140.965442,52.5344441 140.912686,52.3398029 C140.860258,52.1454894 140.733774,51.982633 140.534217,51.8505785 C140.334333,51.7185239 140.058755,51.6526605 139.707484,51.6526605 C139.25627,51.6526605 138.908931,51.7519472 138.666776,51.9488821 C138.424949,52.1471278 138.263731,52.4623548 138.184105,52.8952184 L138.751317,52.9977819 C138.81161,52.6973004 138.907947,52.4921735 139.038036,52.3827288 C139.168452,52.2736118 139.365059,52.2188894 139.627858,52.2188894 C139.919492,52.2188894 140.135432,52.3011368 140.276006,52.4659592 C140.375621,52.5790084 140.425756,52.7759433 140.425756,53.0561087 L140.422151,53.2333829 C140.205883,53.3248053 139.868374,53.4037759 139.406019,53.4693116 C139.062284,53.5181358 138.805384,53.5938296 138.636629,53.6960653 C138.46722,53.7989565 138.333527,53.9408414 138.236206,54.1233585 L138.236206,54.1233585 Z M136.658105,51.7391677 L136.146598,51.7391677 L136.146598,55.8210622 L136.713155,55.8210622 L136.713155,53.6878734 C136.713155,53.3916518 136.748544,53.1114864 136.820634,52.847705 C136.861594,52.6973004 136.932044,52.5793361 137.032314,52.4951226 C137.131929,52.4105815 137.242356,52.3686386 137.362614,52.3686386 C137.496307,52.3686386 137.633277,52.4181181 137.774507,52.5177325 L137.96325,51.8731883 C137.766315,51.7260605 137.573312,51.6526605 137.383586,51.6526605 C137.248254,51.6526605 137.125703,51.6998462 137.017241,51.7932347 C136.908452,51.8872785 136.788193,52.0770045 136.658105,52.3640511 L136.658105,51.7391677 Z M133.452424,50.8508305 C133.787967,50.8508305 134.020291,50.8763895 134.150052,50.9275074 C134.279157,50.9789529 134.382704,51.0723414 134.461347,51.2070174 C134.539006,51.342021 134.578,51.5107756 134.578,51.7136088 C134.578,51.9315151 134.535402,52.1042019 134.449878,52.2316689 C134.363698,52.3588083 134.241474,52.4492476 134.082222,52.5033146 C133.97245,52.5387039 133.786328,52.5573816 133.525496,52.5573816 L132.525748,52.5573816 L132.525748,50.8508305 L133.452424,50.8508305 Z M132.525748,53.2176543 L133.59267,53.2176543 C133.907242,53.2176543 134.138255,53.2523883 134.286038,53.3205455 C134.432838,53.3873919 134.549164,53.4958536 134.636982,53.6433091 C134.723817,53.7910922 134.766743,53.9716432 134.766743,54.1852897 C134.766743,54.4163033 134.722179,54.608323 134.630756,54.7610213 C134.539989,54.9140473 134.407607,55.0238197 134.233937,55.0906662 C134.113024,55.1375243 133.926575,55.1601341 133.673279,55.1601341 L132.525748,55.1601341 L132.525748,53.2176543 Z M133.64772,50.1902301 L131.912333,50.1902301 L131.912333,55.8210622 L133.670002,55.8210622 C134.076324,55.8210622 134.396138,55.7624077 134.62879,55.6454264 C134.861442,55.5287727 135.048219,55.3419958 135.187483,55.0841126 C135.326746,54.8268848 135.396214,54.526731 135.396214,54.1859451 C135.396214,53.8422101 135.31921,53.5535251 135.165856,53.3189071 C135.012175,53.0839614 134.80246,52.9178282 134.536385,52.8208353 C134.741512,52.6953344 134.901419,52.5292012 135.013813,52.3217806 C135.12719,52.1146876 135.183878,51.8820356 135.183878,51.6244801 C135.183878,51.3456255 135.11867,51.0913468 134.987271,50.8606609 C134.856855,50.6312858 134.688756,50.4615482 134.483629,50.3527588 C134.278174,50.2446248 133.999975,50.1902301 133.64772,50.1902301 L133.64772,50.1902301 Z M126.850352,53.7881431 C126.850352,53.2468177 126.935548,52.8499987 127.106924,52.5980138 C127.279283,52.3450457 127.484082,52.2188894 127.721977,52.2188894 C127.990674,52.2188894 128.213168,52.350944 128.389787,52.613087 C128.566733,52.8758854 128.654879,53.2933481 128.654879,53.8644922 C128.654879,54.3619086 128.566733,54.7334963 128.389787,54.9799108 C128.213168,55.2259975 128.004764,55.3488771 127.763592,55.3488771 C127.520782,55.3488771 127.308119,55.2207547 127.124619,54.9645099 C126.941446,54.7079374 126.850352,54.3157059 126.850352,53.7881431 L126.850352,53.7881431 Z M126.460414,52.604895 C126.332619,52.9279863 126.268722,53.3208731 126.268722,53.7838832 C126.268722,54.4595569 126.412245,54.9841706 126.700602,55.3564137 C126.98896,55.7289844 127.330073,55.9154337 127.724271,55.9154337 C127.911703,55.9154337 128.086356,55.8636604 128.247574,55.7604416 C128.408464,55.6572228 128.540846,55.5074736 128.642755,55.3105387 L128.642755,55.8210622 L129.169662,55.8210622 L129.169662,50.1902301 L128.604416,50.1902301 L128.604416,52.2113528 C128.498576,52.0353893 128.365866,51.8980919 128.206614,51.8004436 C128.046379,51.7018123 127.872709,51.6526605 127.685605,51.6526605 C127.424445,51.6526605 127.187205,51.7309757 126.972903,51.8872785 C126.759585,52.0429259 126.588209,52.2827868 126.460414,52.604895 L126.460414,52.604895 Z M123.399894,51.7391677 L122.888388,51.7391677 L122.888388,55.8210622 L123.4556,55.8210622 L123.4556,53.5941572 C123.4556,53.1029668 123.534898,52.7559549 123.695788,52.5534494 C123.856678,52.3522547 124.072619,52.2506743 124.343609,52.2506743 C124.485822,52.2506743 124.61165,52.2883573 124.719784,52.3637234 C124.827918,52.4394172 124.907872,52.5462405 124.959317,52.6841933 C125.00978,52.8224737 125.035339,53.0410355 125.035339,53.3408615 L125.035339,55.8210622 L125.601895,55.8210622 L125.601895,53.3146472 C125.601895,52.9391274 125.57863,52.6596174 125.533083,52.4780833 C125.48688,52.2958939 125.417412,52.1487662 125.324024,52.0344063 C125.231291,51.9210294 125.108739,51.828624 124.956368,51.7581731 C124.804325,51.6880498 124.639175,51.6526605 124.460263,51.6526605 C124.230888,51.6526605 124.027071,51.7083659 123.849797,51.8197767 C123.671868,51.9305321 123.522446,52.0986313 123.399894,52.3237466 L123.399894,51.7391677 Z M119.713508,54.7308749 C119.713508,54.6057016 119.739722,54.4952739 119.792151,54.3982809 C119.844907,54.3022711 119.918963,54.2282157 120.013662,54.1757871 C120.108361,54.1233585 120.275149,54.0765004 120.513699,54.0355405 C120.923953,53.9647619 121.232954,53.8779271 121.440375,53.7763466 L121.440375,54.0296423 C121.440375,54.3642024 121.39876,54.6201195 121.31684,54.7950999 C121.235248,54.9704081 121.111386,55.1103269 120.946563,55.2151841 C120.781413,55.3200413 120.596275,55.3724699 120.394424,55.3724699 C120.181761,55.3724699 120.014972,55.3144708 119.894714,55.1978172 C119.773801,55.0808358 119.713508,54.9251884 119.713508,54.7308749 L119.713508,54.7308749 Z M119.254758,54.1233585 C119.156782,54.3055479 119.107958,54.5142792 119.107958,54.7498803 C119.107958,55.1063948 119.212159,55.3895092 119.419252,55.599879 C119.626673,55.8102488 119.904872,55.9154337 120.253523,55.9154337 C120.47405,55.9154337 120.686714,55.8652988 120.891841,55.7653568 C121.096968,55.6647594 121.293575,55.5163209 121.483301,55.3184029 C121.501323,55.5127165 121.540645,55.6801603 121.601593,55.8210622 L122.190759,55.8210622 C122.119325,55.662138 122.070829,55.4992816 122.046581,55.3315101 C122.022333,55.1640662 122.010536,54.7580722 122.010536,54.1128727 L122.010536,53.1917677 C122.010536,52.8185416 121.983994,52.5344441 121.931238,52.3398029 C121.878482,52.1454894 121.752653,51.982633 121.552114,51.8505785 C121.352885,51.7185239 121.076324,51.6526605 120.725708,51.6526605 C120.274494,51.6526605 119.927482,51.7519472 119.685328,51.9488821 C119.443173,52.1471278 119.281955,52.4623548 119.202329,52.8952184 L119.769541,52.9977819 C119.830162,52.6973004 119.925844,52.4921735 120.056915,52.3827288 C120.186676,52.2736118 120.383611,52.2188894 120.647065,52.2188894 C120.937716,52.2188894 121.153656,52.3011368 121.293903,52.4659592 C121.3945,52.5790084 121.443324,52.7759433 121.443324,53.0561087 L121.440375,53.2333829 C121.224762,53.3248053 120.885615,53.4037759 120.424899,53.4693116 C120.080508,53.5181358 119.824263,53.5938296 119.654526,53.6960653 C119.485116,53.7989565 119.352078,53.9408414 119.254758,54.1233585 L119.254758,54.1233585 Z M116.381342,50.1902301 L115.768583,50.1902301 L115.768583,55.8210622 L118.654122,55.8210622 L118.654122,55.1601341 L116.381342,55.1601341 L116.381342,50.1902301 Z M109.063292,51.7391677 L108.551786,51.7391677 L108.551786,55.8210622 L109.118342,55.8210622 L109.118342,53.7052403 C109.118342,53.1527739 109.193053,52.7716835 109.342475,52.5636075 C109.491569,52.3548761 109.695057,52.2506743 109.952613,52.2506743 C110.133491,52.2506743 110.275704,52.3194868 110.37925,52.4580949 C110.482142,52.5960477 110.533587,52.8339425 110.533587,53.172107 L110.533587,55.8210622 L111.099816,55.8210622 L111.099816,53.4519446 C111.099816,53.037431 111.176493,52.7340005 111.33083,52.5400146 C111.484839,52.3470118 111.683412,52.2506743 111.92655,52.2506743 C112.045169,52.2506743 112.151337,52.2840975 112.246692,52.3499609 C112.341719,52.4168074 112.409876,52.5108512 112.452474,52.6327477 C112.494745,52.7539889 112.515061,52.9607542 112.515061,53.252716 L112.515061,55.8210622 L113.081945,55.8210622 L113.081945,53.0226855 C113.081945,52.5446021 112.989212,52.1966073 112.804729,51.9790286 C112.620246,51.7614499 112.367605,51.6526605 112.04648,51.6526605 C111.836766,51.6526605 111.645073,51.712298 111.472059,51.8305901 C111.298717,51.9495375 111.145036,52.1281224 111.011998,52.3656895 C110.943186,52.1333653 110.82817,51.9567464 110.666297,51.8348499 C110.504096,51.7136088 110.30585,51.6526605 110.07156,51.6526605 C109.862829,51.6526605 109.670809,51.710332 109.494845,51.8250195 C109.319537,51.9400348 109.175359,52.1035465 109.063292,52.3158823 L109.063292,51.7391677 Z M107.126056,55.8210622 L107.691629,55.8210622 L107.691629,51.7391677 L107.126056,51.7391677 L107.126056,55.8210622 Z M107.126056,50.9845235 L107.691629,50.9845235 L107.691629,50.1902301 L107.126056,50.1902301 L107.126056,50.9845235 Z M9.07506365,50.7584251 C8.54815618,51.6303783 8.28503012,52.33456 8.28503012,52.8716255 C8.28503012,53.1816097 8.39775162,53.6419983 8.62384997,54.2537746 C8.84962065,54.8652232 9.06523328,55.2463136 9.27036019,55.3967182 C9.61114612,55.6572228 10.2878028,55.6994934 11.3003302,55.5238575 C15.2056058,54.8462178 17.8401432,53.7543922 19.2039422,52.2480528 C19.4827969,51.9420009 19.7249515,51.5923676 19.9317168,51.2007915 C20.1381544,50.8088877 20.2954402,50.4304187 20.4035742,50.0653845 C20.5117082,49.7013334 20.5661029,49.400852 20.5661029,49.1632849 C20.5661029,48.9054017 20.4369975,48.7985784 20.1791143,48.843798 C20.0244499,48.87034 19.5624228,49.0561339 18.7936884,49.4021627 C18.0242986,49.7468808 17.2326267,50.078164 16.4170343,50.3950294 C13.4181181,51.5356792 11.2259471,52.2936002 9.83953822,52.668137 C10.0977491,52.2834421 10.3510448,51.9603509 10.5994253,51.6998462 C10.8474781,51.439997 11.131248,51.1814584 11.4517178,50.9242306 C11.7725153,50.6673304 11.9841958,50.4936607 12.0874146,50.403549 C13.2034885,49.455902 14.7668439,48.1799209 16.7774809,46.5762609 C18.7874625,44.9722733 20.1958259,43.8008217 21.002571,43.0615784 C21.8093162,42.3223351 22.4391148,41.5568775 22.8939329,40.7658609 C23.348751,39.9738613 23.5761601,39.0878179 23.5761601,38.10642 C23.5761601,37.3003302 23.4722859,36.6000807 23.265193,36.0063267 C23.0476142,35.364404 22.8929499,34.9407153 22.7998891,34.7355884 C22.7065006,34.5304615 22.5492148,34.3826784 22.3273763,34.2922391 C22.1045547,34.2024551 21.7611474,34.1975399 21.2961712,34.2784765 C20.3767046,34.4383838 19.3609004,34.7201875 18.249414,35.1245431 C17.1385829,35.5288987 16.1355582,35.9617624 15.2416505,36.421168 C14.3477428,36.8805737 13.6887808,37.2973811 13.2650921,37.6702795 C12.9033348,37.9904217 12.5599274,38.4865274 12.233887,39.1572858 C11.9081743,39.8277166 11.6499635,40.5358304 11.458599,41.2812996 C11.2672346,42.0274242 11.1718801,42.6267487 11.1718801,43.0812391 C11.1718801,43.5875028 11.3740579,43.8047539 11.7774305,43.7346306 C11.8606609,43.7202127 12.3066317,43.5524412 13.1137045,43.2319714 C13.921105,42.9108462 14.5010965,42.68868 14.8526958,42.5648174 C15.0902629,42.4822423 15.2973559,42.4137575 15.4729917,42.3573967 C15.6486275,42.3003806 15.7754392,42.2423815 15.8527714,42.1824163 C15.9304313,42.122451 15.9690974,42.030701 15.9690974,41.906183 C15.9690974,41.6270007 15.7367731,41.4811837 15.2721246,41.4684042 C14.8074761,41.4562801 14.0328435,41.5178837 12.9488821,41.6545257 C13.6402843,40.9346155 14.4686563,40.2615633 15.4339979,39.6337307 C16.3990119,39.0062259 17.3538679,38.4891488 18.2979104,38.0821718 C19.242936,37.6755224 20.0506642,37.4137071 20.7214226,37.2970534 C21.1447836,37.223981 21.4721347,37.2465909 21.7047866,37.3661936 C21.9371109,37.4861241 22.0531092,37.6909233 22.0531092,37.979936 C22.0531092,38.2997505 21.8384796,38.7604668 21.4105311,39.3614297 C20.9819273,39.9630479 20.3914501,40.5869483 19.6377889,41.2337862 C19.4310236,41.4146649 17.645502,42.7574925 14.2799133,45.262269 C13.1749805,46.0945731 12.1627807,47.0012603 11.2439695,47.9820029 C10.3248305,48.9620901 9.60197111,49.8874549 9.07506365,50.7584251 L9.07506365,50.7584251 Z M11.538225,11.5139768 L10.0610491,11.5139768 L10.7924281,9.07473597 L11.538225,11.5139768 Z M12.3528344,14.109848 L13.5311673,14.109848 L11.3789731,7.54087163 L10.220301,7.54087163 L8.12643359,14.109848 L9.28281199,14.109848 L9.7287828,12.6234971 L11.8927734,12.6234971 L12.3528344,14.109848 Z M20.0254329,14.109848 L17.8915887,10.0941446 L19.9245079,7.54087163 L18.4591284,7.54087163 L16.2499181,10.4601618 L16.2499181,7.54087163 L15.1679228,7.54087163 L15.1679228,14.109848 L16.2499181,14.109848 L16.2499181,12.1287021 L17.1343231,11.02508 L18.6170695,14.109848 L20.0254329,14.109848 Z M24.4821919,11.5139768 L23.005016,11.5139768 L23.736395,9.07473597 L24.4821919,11.5139768 Z M25.2968014,14.109848 L26.4738235,14.109848 L24.3226124,7.54087163 L23.1639402,7.54087163 L21.0704005,14.109848 L22.2267789,14.109848 L22.6720944,12.6234971 L24.836085,12.6234971 L25.2968014,14.109848 Z M26.3863333,51.3017165 C26.6245557,50.7990573 26.7435031,50.4032213 26.7435031,50.1142087 C26.7435031,49.5863182 26.5206816,49.3605475 26.0766768,49.437552 C25.7136088,49.500794 25.3646309,49.7501575 25.0284324,50.186298 C24.6919063,50.6224384 24.412724,51.1001941 24.1899025,51.6198926 C23.9677362,52.1395912 23.8563255,52.4928289 23.8563255,52.6802611 C23.8563255,52.9168452 23.9182567,53.092481 24.0427747,53.2058579 C24.1669649,53.3189071 24.3170418,53.3595392 24.493333,53.3290651 C24.8134752,53.2733597 25.1496736,53.0472614 25.5016006,52.649787 C25.8535276,52.2526403 26.1487662,51.8030651 26.3863333,51.3017165 L26.3863333,51.3017165 Z M31.4784614,10.8409246 C31.4784614,11.3098329 31.4453659,11.6876465 31.3795024,11.9743654 C31.3139667,12.2607567 31.2307363,12.4707988 31.1301389,12.6038364 C31.0298692,12.7368739 30.9014191,12.8361606 30.744461,12.9013687 C30.5871752,12.9672321 30.3335518,13.0003277 29.9832632,13.0003277 L29.1660323,13.0003277 L29.1660323,8.65137499 L29.6601719,8.65137499 C30.0972954,8.65137499 30.3918786,8.67038036 30.5442492,8.70937413 C30.7477378,8.76016434 30.9210798,8.86633227 31.0629647,9.02722254 C31.2051773,9.1884405 31.3097069,9.40995135 31.3772087,9.69077206 C31.4447105,9.97126509 31.4784614,10.3546493 31.4784614,10.8409246 L31.4784614,10.8409246 Z M32.4054647,12.3741335 C32.5332594,11.954377 32.5978121,11.4602374 32.5978121,10.8930255 C32.5978121,10.2625715 32.5365362,9.73533637 32.4136566,9.31099236 C32.2914325,8.88697603 32.1230056,8.5416026 31.908376,8.27618279 C31.6927633,8.01010763 31.4578177,7.82136466 31.2028836,7.70897084 C30.9476218,7.59723237 30.5691528,7.54087163 30.0671489,7.54087163 L28.0837093,7.54087163 L28.0837093,14.109848 L30.1258034,14.109848 C30.5645653,14.109848 30.9237013,14.0482444 31.2028836,13.9243818 C31.4820659,13.8001916 31.7199607,13.6160361 31.9168956,13.3709324 C32.1141582,13.1258286 32.2770146,12.7935624 32.4054647,12.3741335 L32.4054647,12.3741335 Z M34.5645401,14.109848 L38.6565926,14.109848 L38.6565926,13.0003277 L35.6478461,13.0003277 L35.6478461,11.2112016 L38.3534898,11.2112016 L38.3534898,10.1003705 L35.6478461,10.1003705 L35.6478461,8.65137499 L38.5559953,8.65137499 L38.5559953,7.54087163 L34.5645401,7.54087163 L34.5645401,14.109848 Z M44.8018804,14.109848 L45.8108033,14.109848 L45.8108033,7.54087163 L44.1763416,7.54087163 L43.2096892,12.0310539 L42.2315681,7.54087163 L40.6085751,7.54087163 L40.6085751,14.109848 L41.6181534,14.109848 L41.6181534,8.92990195 L42.690646,14.109848 L43.7290601,14.109848 L44.8018804,8.92990195 L44.8018804,14.109848 Z M47.9020493,14.109848 L48.9843722,14.109848 L48.9843722,7.54087163 L47.9020493,7.54087163 L47.9020493,14.109848 Z M51.0723414,14.109848 L55.1647216,14.109848 L55.1647216,13.0003277 L52.1553197,13.0003277 L52.1553197,11.2112016 L54.8612911,11.2112016 L54.8612911,10.1003705 L52.1553197,10.1003705 L52.1553197,8.65137499 L55.0637965,8.65137499 L55.0637965,7.54087163 L51.0723414,7.54087163 L51.0723414,14.109848 Z M58.1875583,35.6802863 C60.3682605,31.4047337 61.4591032,28.6473168 61.4591032,27.4070527 C61.4591032,27.0348096 61.355229,26.7638192 61.1484637,26.5930986 C60.9420261,26.4220503 60.652358,26.3689663 60.2801149,26.433519 C59.7532075,26.5249414 59.0401785,27.0023694 58.1416833,27.8661306 C57.2425327,28.7298919 56.1969097,29.9521337 55.0048144,31.5328561 C53.8117359,33.1139062 52.487586,35.0304993 51.0313815,37.2819802 C49.5755048,39.5341164 48.0055957,42.0975475 46.3223099,44.971618 C45.2065637,45.1764172 44.3083961,45.414312 43.6268243,45.6872684 C42.9455801,45.9602248 42.4239155,46.2672598 42.0621581,46.6080458 C41.7010561,46.9494871 41.3612532,47.3951302 41.0404557,47.9443198 C40.7209689,48.4948202 40.3900134,49.0725178 40.0492274,49.6780682 C39.9155345,49.9382452 39.8483603,50.160739 39.8483603,50.3465329 C39.8483603,50.6755224 40.0495551,50.8056109 40.4526,50.7354876 C40.7304716,50.6876465 41.2137978,50.4615482 41.9006125,50.0588309 C42.5870995,49.6557861 43.1238374,49.3585814 43.5111537,49.167217 C43.8978146,48.9758526 44.3601694,48.8339677 44.8972349,48.7409069 C45.8471757,48.5757568 46.8980415,48.5069443 48.049177,48.5344693 C49.2006402,48.5616666 50.4376276,48.6311345 51.7591561,48.7422176 C53.0806846,48.8526454 54.0466816,48.915232 54.6561641,48.9289945 C55.265319,48.9414463 55.7250523,48.8539561 56.0343811,48.6661962 C56.2309883,48.5495425 56.5121367,48.2608575 56.8794646,47.8001412 C57.2454818,47.3397525 57.9136188,46.4733698 58.8842034,45.2013208 C58.0895823,45.2566985 56.8529226,45.1937842 55.1748796,45.0112671 C53.4968366,44.8294054 52.2165957,44.7088196 51.3335014,44.6508205 C50.4507348,44.5928213 49.3225367,44.6154311 47.9495627,44.7209437 C48.6717667,43.4593804 50.0041086,41.3383157 51.94495,38.3587326 C53.6593653,35.6865122 55.1001689,33.5982154 56.2673607,32.0951529 C57.4335694,30.5917627 58.1619993,29.8145086 58.4506843,29.7653568 C58.6161621,29.7358657 58.6987372,29.8204068 58.6987372,30.0160311 C58.6987372,30.2431124 58.0843395,31.4597837 56.8555441,33.6657172 C55.3993396,36.221284 54.6709097,38.0507146 54.6709097,39.1563028 C54.6709097,39.6003075 54.7950999,39.8001916 55.0431528,39.756938 C55.3429789,39.704837 55.8095934,39.3814181 56.4449626,38.7850427 C57.080004,38.1886674 57.8212134,37.2836186 58.6682631,36.0715348 L58.1875583,35.6802863 Z M131.105588,18.9273813 C131.673455,18.1072014 131.957553,17.4757644 131.957553,17.0320873 C131.957553,16.7643738 131.877272,16.5694049 131.71802,16.4475084 C131.55713,16.3262672 131.343155,16.2882565 131.075114,16.3347869 C130.713357,16.3977012 130.354876,16.6506692 129.999345,17.0940186 C129.643485,17.5370403 129.341038,18.0197111 129.093313,18.5420311 C128.845588,19.0643511 128.721397,19.413329 128.721397,19.5886371 C128.721397,19.8357069 128.799385,20.0231392 128.954049,20.1512616 C129.109041,20.2790563 129.309909,20.3209992 129.557961,20.2780732 C130.02261,20.1974643 130.538049,19.7472336 131.105588,18.9273813 L131.105588,18.9273813 Z M135.505986,18.1324326 C136.016838,17.3017669 136.271772,16.6542737 136.271772,16.1906082 C136.271772,15.9635268 136.197716,15.7941169 136.047639,15.68074 C135.898218,15.5680186 135.720616,15.5286971 135.514178,15.5644141 C135.184206,15.6217579 134.835883,15.8783304 134.469538,16.3334762 C134.103849,16.7882943 133.78895,17.2840723 133.525496,17.8194994 C133.263025,18.3545988 133.131298,18.7353616 133.131298,18.962443 C133.131298,19.1577395 133.214201,19.3087994 133.379024,19.4139843 C133.544501,19.5194969 133.734555,19.5532478 133.951151,19.5158924 C134.477403,19.42447 134.996118,18.9637537 135.505986,18.1324326 L135.505986,18.1324326 Z M161.800897,24.1076551 C161.904772,23.4811333 162.125955,22.8804981 162.467068,22.3050941 C162.807199,21.7300179 163.191238,21.2145792 163.619842,20.7584503 C164.047791,20.3019938 164.470496,19.9195927 164.888614,19.6099362 C165.306405,19.3002798 165.608525,19.1292315 165.793336,19.0971189 C166.010587,19.0591082 166.118721,19.1587226 166.118721,19.3962897 C166.118721,19.6230434 165.961762,20.0087213 165.646863,20.5536511 C165.332291,21.0982532 164.84405,21.696267 164.18476,22.3473647 C163.52416,22.9984624 162.729539,23.5846798 161.800897,24.1076551 L161.800897,24.1076551 Z M146.660827,31.3293676 C146.660827,32.6839916 146.51075,33.8531495 146.210924,34.8361858 C145.911426,35.8192221 145.557205,36.5840244 145.14859,37.1302649 C144.739974,37.6765054 144.40181,37.9733824 144.132786,38.0199128 C143.874575,38.0644771 143.649787,37.8813047 143.458423,37.4700678 C143.267386,37.0581756 143.171376,36.537494 143.171376,35.9063847 C143.171376,34.634008 143.563935,32.9677614 144.349709,30.9083004 C144.504701,30.9440173 144.646914,30.981045 144.776347,31.0203665 C144.906435,31.0596879 145.086986,31.0954049 145.319638,31.1278451 C145.55229,31.1599577 145.756434,31.1684773 145.931742,31.1534041 C146.107705,31.1383309 146.340357,31.0901621 146.62937,31.0088977 L146.660827,31.3293676 Z M138.119552,25.7057445 C138.451163,24.1210899 139.010511,22.5095657 139.79694,20.8718272 C140.584352,19.2344164 141.293121,18.1022862 141.924886,17.4770751 C142.100522,17.3332241 142.219469,17.2555642 142.281073,17.2450785 C142.447206,17.2162428 142.530436,17.3204446 142.530436,17.5580117 C142.530436,17.8676682 142.402642,18.3483729 142.149674,19.0014367 C141.89605,19.6545005 141.546745,20.4006251 141.100774,21.2417765 C140.655786,22.0826003 140.182618,22.8821365 139.679959,23.6400575 C139.177955,24.3976508 138.657601,25.0861039 138.119552,25.7057445 L138.119552,25.7057445 Z M128.495627,30.0501096 C127.595821,31.2356515 126.603937,32.2422806 125.518993,33.0713079 C125.230308,33.2662768 125.028458,33.3737555 124.914753,33.3927608 C124.718801,33.4268394 124.564464,33.3481965 124.451415,33.1561767 C124.337055,32.9635016 124.280695,32.7016863 124.280695,32.3710584 C124.280695,31.4617498 124.851839,30.4790412 125.993144,29.4232602 C127.134777,28.3668238 129.049076,26.9899176 131.735387,25.2931969 C130.474807,27.280241 129.394777,28.8658786 128.495627,30.0501096 L128.495627,30.0501096 Z M104.609483,36.3156555 C104.195952,35.7366471 103.876137,35.3532629 103.649056,35.165503 C103.421975,34.9774154 102.998286,34.8702644 102.378973,34.8430671 C104.475134,32.423487 105.843848,30.7968896 106.484133,29.9619641 L106.762004,32.1764172 C106.772818,32.2570262 106.780354,32.3382905 106.785925,32.4202102 C106.79084,32.5014746 106.793462,32.5945353 106.793462,32.6977541 C106.793462,33.5657752 106.604391,34.283064 106.228216,34.8499483 C105.851057,35.4155219 105.312026,35.905074 104.609483,36.3156555 L104.609483,36.3156555 Z M82.8368664,37.8134752 C82.9397575,37.1866257 83.161596,36.5859905 83.5027097,36.0109142 C83.8425125,35.4355103 84.2272074,34.9200716 84.6554836,34.4636151 C85.0831044,34.0078139 85.5064654,33.6250851 85.9239281,33.3154286 C86.3423739,33.0060999 86.6438384,32.8343962 86.8293046,32.8022837 C87.0465556,32.7646006 87.1550173,32.8648703 87.1550173,33.1017821 C87.1550173,33.3288635 86.9977315,33.7145414 86.6825045,34.2591435 C86.3682605,34.8037456 85.8800192,35.4017594 85.2204018,36.0531848 C84.5604567,36.7042825 83.7651803,37.2908275 82.8368664,37.8134752 L82.8368664,37.8134752 Z M72.3187054,37.7866055 C72.6388476,36.6790512 73.08318,35.6213042 73.6510473,34.6153303 C74.2192423,33.6080458 75.1380536,32.0967913 76.4091196,30.0809115 C77.3282585,28.6211025 78.1468001,27.4548938 78.8644166,26.5826129 C79.5823608,25.7100043 80.0552013,25.2538754 80.2822827,25.2142263 C80.3648577,25.2001361 80.4064729,25.270587 80.4064729,25.4245961 C80.4064729,25.6310337 80.2616389,26.0383384 79.9729539,26.6455272 C79.6829582,27.2530436 79.2517329,28.0266932 78.6789504,28.9671313 C78.1055126,29.9082247 77.3177728,31.0947496 76.3157311,32.5270335 C75.2720742,34.018955 74.4797469,35.128803 73.9371109,35.8578882 C73.3951302,36.5863182 72.8551156,37.2292239 72.3187054,37.7866055 L72.3187054,37.7866055 Z M63.2859123,41.2065889 C63.3891311,40.5797394 63.610642,39.9791042 63.9520833,39.4043556 C64.2922138,38.8289517 64.6762534,38.313513 65.1048572,37.8570564 C65.532478,37.4015829 65.9551836,37.0188541 66.3736294,36.7085423 C66.7910922,36.3988859 67.093212,36.2281653 67.2786782,36.1957251 C67.4952739,36.1583697 67.6040632,36.2576563 67.6040632,36.4952235 C67.6040632,36.7223048 67.4467774,37.1076551 67.1318781,37.6529126 C66.8169788,38.197187 66.3293928,38.7958561 65.6694477,39.4459708 C65.0095027,40.0973962 64.2142263,40.6839412 63.2859123,41.2065889 L63.2859123,41.2065889 Z M161.646233,25.5271595 L161.646233,25.1404986 C163.101782,24.2990195 164.328284,23.474252 165.325083,22.6655408 C166.321881,21.8568296 167.062763,21.0871121 167.5474,20.3576992 C168.033348,19.6273032 168.276158,18.9365563 168.276158,18.2854586 C168.276158,17.8414539 168.133617,17.5324528 167.849848,17.3597661 C167.566078,17.1867517 167.181055,17.1428427 166.696746,17.2273839 C166.086608,17.3332241 165.395206,17.6228921 164.621556,18.0980264 C163.846268,18.5728329 163.067376,19.2141003 162.281602,20.0221561 C161.135709,21.201472 160.309959,22.2772414 159.803695,23.2474983 C159.508129,23.8137272 159.309883,24.4015829 159.187331,25.0068056 C158.137121,26.0442366 157.296297,26.8267335 156.666826,27.3503642 C156.031457,27.8782547 155.517985,28.1767701 155.125753,28.2449273 C154.557886,28.3432309 154.274116,28.0361959 154.274116,27.3218562 C154.274116,26.794621 154.374386,26.2185617 154.576236,25.5936783 C154.777758,24.9691226 155.066771,24.2698561 155.442946,23.4962065 C155.819777,22.7219015 156.287702,21.8371689 156.844756,20.8400423 C157.133769,20.8105513 157.378872,20.7856477 157.580722,20.7663146 C157.782245,20.7466539 157.981146,20.7279762 158.178081,20.7099539 C158.373377,20.6912762 158.616515,20.667028 158.9052,20.6372092 C159.792882,19.3405843 160.53147,18.0960603 161.119981,16.9026542 C160.965316,16.9088801 160.751015,16.9203489 160.47773,16.9370605 C160.203463,16.9537721 159.891185,16.9721221 159.541225,16.9917828 C159.767651,16.580546 160.103194,16.0628135 160.546871,15.4382578 C160.991203,14.813702 161.213042,14.4394929 161.213042,14.315958 C161.213042,14.0574194 160.929272,13.9777935 160.361404,14.0764248 C159.792882,14.1747284 159.287273,14.4666902 158.842613,14.9516548 C158.399264,15.436947 157.903486,16.2174779 157.357245,17.2929196 L156.690747,17.4089179 C155.89547,17.5471983 155.278451,17.7031734 154.839362,17.8774986 C154.400272,18.0518237 154.028357,18.305447 153.723288,18.6370579 C153.417891,18.9686689 153.095128,19.4529781 152.754014,20.0909687 C152.329998,20.84037 152.11799,21.3843168 152.11799,21.7224813 C152.11799,21.7847403 152.138633,21.8122653 152.179593,21.8047287 C152.221536,21.7978474 152.295919,21.7670456 152.405036,21.7116679 C152.513498,21.6566179 152.629496,21.6032062 152.754014,21.5504499 C153.05384,21.415774 153.508986,21.2958435 154.117813,21.190331 C154.304262,21.1578908 154.464497,21.1323318 154.598846,21.1143095 C154.732866,21.0956318 154.877373,21.0782648 155.032365,21.0615532 C153.49293,23.6151539 152.180576,25.4403247 151.095304,26.5393593 L151.095304,26.5606584 C150.784009,26.8532755 150.469438,27.1521186 150.143725,27.479142 C149.751821,27.8736672 149.411035,28.1885665 149.121367,28.4251506 C148.832682,28.661407 148.512868,28.877675 148.161596,29.0729715 C147.925012,28.6286391 147.642881,28.2593451 147.318151,27.9647619 C146.992766,27.6701787 146.55171,27.3287374 145.994001,26.9404381 C146.159479,26.5917879 146.430141,26.0648804 146.806972,25.359388 C147.18413,24.6542233 147.697931,23.6921584 148.348373,22.4741764 C148.999143,21.2565221 149.582411,20.1492955 150.099161,19.1508583 C150.18108,18.9925894 150.400625,18.5823356 150.757467,17.9220629 C151.113326,17.2614625 151.392509,16.6991657 151.593376,16.2355002 C151.794898,15.7721624 151.950218,15.3193104 152.058352,14.8775994 C152.166814,14.4349054 152.221536,13.9617372 152.221536,13.4554735 C152.221536,13.0425982 152.154362,12.7188516 152.020014,12.4842336 C151.885665,12.2489603 151.730673,12.1473798 151.555365,12.177854 C151.358758,12.2119325 151.173619,12.3656139 150.997656,12.6382426 C150.821365,12.9115267 150.533007,13.4338467 150.129962,14.2058579 C148.684571,16.9763819 147.424319,19.7767247 146.350188,22.6068863 C145.792479,23.3638243 145.349457,23.97003 145.024399,24.4241928 C144.698687,24.8783556 144.354952,25.4206639 143.992867,26.0517732 C143.497089,26.3647065 143.115671,26.6838656 142.847302,27.0095783 C142.627757,27.2753258 142.502911,27.6118519 142.462279,28.0109646 C141.671918,28.8770196 141.115192,29.4842084 140.821264,29.8014015 C140.490636,30.1575883 140.174754,30.4633126 139.874272,30.716936 C139.574446,30.9702316 139.295591,31.1193255 139.037053,31.1638898 C138.529806,31.2523631 138.134298,31.1150657 137.849545,30.7513422 C137.56512,30.3876188 137.423235,29.8757845 137.423235,29.2155118 C137.423235,28.9264991 137.474025,28.5054319 137.577899,27.9506717 C139.665541,25.4095228 141.292138,22.9919089 142.460313,20.6971744 C143.627833,18.403423 144.211428,16.5389308 144.211428,15.1033701 C144.211428,14.6380662 144.175384,14.3166133 144.103622,14.1380284 C144.031205,13.9600988 143.887026,13.8889925 143.671414,13.9263479 C143.496761,13.956822 143.255589,14.0918257 142.946261,14.3320142 C142.181786,14.9084012 141.353414,15.8298339 140.459506,17.094674 C139.566582,18.359514 138.704131,19.810148 137.872155,21.4462481 C137.041489,23.0823482 136.377612,24.6686411 135.882162,26.2057823 C135.473219,27.4732438 135.242533,28.5667078 135.171426,29.5055075 C133.809266,30.8942102 132.789857,31.6544249 132.122703,31.7700955 C131.42016,31.8923197 131.069871,31.5705392 131.069871,30.8063923 C131.069871,30.3414161 131.170469,29.9314899 131.371336,29.5762861 C131.57253,29.2207547 131.923802,28.6620624 132.424495,27.8982431 C132.925516,27.1344239 133.175863,26.6284879 133.175863,26.3804351 C133.175863,26.2565725 133.145061,26.1202581 133.083457,25.9705089 C133.021198,25.820432 132.93338,25.6267739 132.820004,25.3885514 C132.706299,25.1503289 132.613238,24.954377 132.541149,24.8016787 C132.903234,24.6152295 133.155219,24.4648249 133.300381,24.3521034 C133.444232,24.2390543 133.516976,24.0893051 133.516976,23.9038389 C133.516976,23.7898067 133.462582,23.6233459 133.354775,23.4051118 C133.245658,23.18655 133.09853,23.0030499 132.912409,22.8539561 C132.726943,22.7058453 132.52542,22.6501399 132.307842,22.687823 C131.502079,22.8277418 130.360447,23.3720162 128.882943,24.3206463 C127.405767,25.268621 125.881733,26.5911325 124.310841,28.2885086 C123.722985,28.9484536 123.294382,29.4717566 123.02634,29.8587452 C122.758627,30.2463892 122.57742,30.6104403 122.484687,30.9518816 C122.440451,31.1153933 122.408338,31.2969274 122.384745,31.4922239 C120.760114,33.0349356 119.702039,33.8541325 119.219368,33.9376906 C118.755048,34.0182996 118.522723,33.8161218 118.522723,33.3308295 C118.522723,33.000857 118.641015,32.5853603 118.878582,32.0849948 C119.116805,31.5843017 119.455297,31.0043102 119.894387,30.3446929 C120.333148,29.6857308 120.923953,28.8475285 121.667456,27.8313967 C121.77002,27.6590376 121.822121,27.5214125 121.822121,27.4185214 C121.822121,27.181282 121.687445,26.9037381 121.419076,26.585562 C121.15169,26.2664028 120.862677,26.1343483 120.552038,26.1877599 C120.222393,26.2451037 119.705971,26.5845789 119.004411,27.2068409 C118.302851,27.8284476 117.446298,28.7171124 116.434754,29.8721801 C115.423537,31.0279031 114.226527,32.4926272 112.84405,34.2693015 L112.84405,32.4107075 C113.670128,31.3588587 114.405767,30.3872911 115.050311,29.4956772 C115.695838,28.6043909 116.40854,27.5931742 117.186777,26.4616994 C117.96698,25.3302246 118.551887,24.4599098 118.944118,23.8491165 C119.336677,23.2389787 120.002521,22.1868021 120.941648,20.6929146 C121.808686,19.2825851 122.419807,18.250397 122.775011,17.5950394 C123.131525,16.9390265 123.309127,16.4832254 123.309127,16.2246868 C123.309127,16.0798528 123.198044,15.9707358 122.976861,15.8953696 C122.754367,15.8203312 122.462733,15.7987044 122.100975,15.8301616 C121.81229,15.8596527 121.244751,16.3895092 120.398357,17.4194036 C119.551635,18.4486427 118.486679,19.9349936 117.201522,21.876818 C115.916366,23.8196254 114.370706,26.2998261 112.564212,29.3187306 C111.706022,30.7585512 111.178131,31.8887152 110.982179,32.7082399 C110.912711,32.9959418 110.871424,33.2607063 110.82686,33.5277645 C110.221637,34.1310211 109.683588,34.6392509 109.219595,35.0432788 C108.708089,35.4879389 108.207395,35.8595266 107.716205,36.1560759 C107.22567,36.4526252 106.76823,36.6387468 106.344214,36.7118191 C106.127946,36.7488468 105.83369,36.7694906 105.461775,36.7717843 C106.391727,36.0109142 107.150631,35.2923147 107.739798,34.6172964 C108.328964,33.9409674 108.778867,33.2643107 109.088524,32.584705 C109.39818,31.9054269 109.552845,31.2245104 109.552845,30.5422832 C109.552845,30.0877927 109.511885,29.6867139 109.42931,29.3393744 C109.346079,28.9917072 109.230409,28.5653971 109.080659,28.0588057 C108.930255,27.552542 108.855872,27.200615 108.855872,27.0049908 C108.855872,26.7772541 108.87586,26.5980138 108.917803,26.4672699 L108.824415,26.1880876 C108.577017,26.107151 108.344693,26.0855242 108.127114,26.1232072 C107.259421,26.2742671 106.712197,27.0046631 106.485771,28.3143952 C105.483729,29.6149522 103.651022,31.901167 100.986666,35.1733673 L100.986666,35.1868021 C100.05868,36.0754669 99.3610516,36.7160789 98.9095102,37.0902881 C98.4291332,37.4884178 98.0385401,37.7135331 97.7390417,37.7656341 C97.377612,37.8288761 97.197061,37.6378393 97.197061,37.1935069 C97.197061,36.3988859 98.1060419,34.8322537 99.9246591,32.4926272 C100.369647,31.9493358 100.591158,31.5643133 100.591158,31.3362488 C100.591158,30.8706173 100.510876,30.4243188 100.350641,29.996698 C100.191717,29.5687495 100.028861,29.3691932 99.8633832,29.3977012 C99.5012981,29.4602879 99.0477907,29.7312782 98.5005671,30.2090339 C97.5194969,31.0301969 96.6449222,31.8585688 95.8758602,32.6944774 C95.1071258,33.5307136 94.4419378,34.3204194 93.878658,35.0635949 C93.3160336,35.807098 92.8566279,36.4090439 92.5004411,36.8684496 C92.1449096,37.3278552 91.9047211,37.5680438 91.7811862,37.5896706 C91.5845789,37.6237491 91.486603,37.4910392 91.486603,37.1915408 C91.486603,36.6554584 92.3008847,35.3424495 93.9304313,33.2534973 C94.1778288,32.9412195 94.3403574,32.7321604 94.4176896,32.6259925 C94.4950218,32.5188415 94.5651451,32.4031709 94.626421,32.278653 C94.6883523,32.1541351 94.7198094,32.0404305 94.7198094,31.936884 C94.7198094,31.6986616 94.618229,31.5397374 94.4176896,31.4610944 C94.2161672,31.3821239 93.9497643,31.3709828 93.6194641,31.4289819 C93.1449853,31.5112293 92.6492073,31.8529983 92.1327855,32.4542888 C91.6166915,33.0552517 91.0022938,33.9652156 90.2902478,35.184836 C89.9071913,35.8401936 89.6525849,36.3392484 89.5228241,36.6816727 C89.4687571,36.8258513 89.4284526,36.9949336 89.3969954,37.1794167 C88.65382,37.9406145 88.0197616,38.5595997 87.4997353,39.0298188 C86.9633252,39.5154387 86.4233106,39.9243818 85.8803468,40.2559927 C85.3386938,40.587276 84.8144078,40.7973181 84.3084718,40.8857913 C83.8238348,40.9696771 83.4306203,40.8674413 83.1311219,40.5784287 C82.8312958,40.290399 82.682202,39.8414791 82.682202,39.2326519 L82.682202,38.845991 C84.1384065,38.0045119 85.3645804,37.1794167 86.3607239,36.3713609 C87.3575227,35.5626497 88.0984045,34.7932599 88.5836967,34.0628639 C89.0686613,33.3331233 89.3121266,32.6423764 89.3121266,31.990951 C89.3121266,31.5469463 89.169914,31.2382729 88.8861442,31.0655862 C88.6020467,30.8925718 88.2176795,30.8483351 87.7320596,30.9325486 C87.1225771,31.0383888 86.4311749,31.3290399 85.6565422,31.8031911 C84.8822373,32.278653 84.1023618,32.9199203 83.3178988,33.7279762 C82.1713508,34.9072921 81.345928,35.9827338 80.8396643,36.9529907 C80.5139516,37.5765634 80.3052202,38.2263504 80.1888942,38.8971089 L80.1888942,38.7444106 C79.5587679,39.2772162 79.0059738,39.5845789 78.5308396,39.6674817 C78.3240743,39.702871 78.1684269,39.6969728 78.0655358,39.6474933 C77.9616616,39.5983414 77.8227258,39.5164217 77.6464346,39.4030449 C78.1117385,38.4861997 78.4662869,37.6817483 78.7090969,36.989363 C78.9519068,36.2969778 79.0734757,35.7182971 79.0734757,35.2539763 C79.0734757,34.6454768 78.8614675,34.3774355 78.4381065,34.4508356 C78.1687546,34.4976936 77.7372016,34.8125929 77.1424646,35.3958612 C76.5474,35.9791294 76.0178711,36.6410405 75.5525672,37.3829053 C75.0869357,38.123787 74.8546114,38.7788168 74.8546114,39.3460288 C74.8546114,39.61407 74.9781463,40.0056462 75.2268545,40.5197742 C74.5977113,41.3114461 74.130769,41.8547375 73.8270108,42.1499761 C73.5225972,42.44587 73.2214604,42.6195397 72.921962,42.6719683 C72.1587982,42.8036952 71.7773801,42.157185 71.7773801,40.7324377 C71.7773801,40.1848864 71.7875381,39.8165755 71.8078542,39.6271772 C78.7454692,31.6917803 82.2142767,26.3719154 82.2142767,23.6665995 C82.2142767,23.0577723 81.9917828,22.7916971 81.5481058,22.8690293 C81.0837849,22.9493106 80.1957755,23.6557861 78.884405,24.9881279 C77.5730346,26.3207975 76.2184105,27.9523101 74.8195498,29.8826658 C73.4206891,31.8136768 72.225317,33.8331611 71.233761,35.9414463 C70.4289819,37.6535679 69.9561415,39.2097144 69.8050815,40.6144733 C69.0802561,41.3560104 68.4589771,41.9622161 67.949109,42.4229325 C67.4126988,42.9092078 66.8723565,43.3174955 66.3297205,43.6487788 C65.7880675,43.981045 65.2637814,44.1910871 64.7575177,44.2785774 C64.2728808,44.3631185 63.8796663,44.2608827 63.5801679,43.97187 C63.2806695,43.6838404 63.1309203,43.2349205 63.1309203,42.6260933 L63.1309203,42.2394324 C64.5871247,41.3979533 65.8142818,40.5725304 66.8100975,39.7648023 C67.8065687,38.9554357 68.5477781,38.1857182 69.032415,37.456633 C69.5180349,36.726237 69.7611726,36.0354901 69.7611726,35.3840647 C69.7611726,34.9403877 69.6186323,34.6317143 69.3348625,34.4586999 C69.0514204,34.2856855 68.6660701,34.2417765 68.1814332,34.32599 C67.5719507,34.4311749 66.8805485,34.7218259 66.1055882,35.1969601 C65.3312832,35.6720944 64.5520631,36.3133617 63.7672725,37.1207622 C62.6207244,38.3004058 61.7946462,39.3755199 61.2887102,40.3457767 C60.7821188,41.3170166 60.5301338,42.3439619 60.5301338,43.428251 C60.5301338,44.6668767 60.7981751,45.5965014 61.3349129,46.2151589 C61.8723061,46.8341441 62.6004083,47.0631916 63.5185643,46.9042674 C64.5727069,46.721095 65.6107932,46.1673178 66.633151,45.242936 C67.6057016,44.3621355 68.6477201,43.1634865 69.7516699,41.6659945 C69.7634663,42.825322 69.9685932,43.7700199 70.3742596,44.4915686 C70.7923777,45.2340887 71.3890807,45.5385023 72.1637134,45.404154 C72.8338164,45.2871726 73.5022811,44.8982179 74.1681244,44.2353238 C74.83364,43.5734126 75.6318655,42.5726817 76.5608348,41.2350969 C76.9429083,41.2816273 77.3049933,41.2760568 77.6461069,41.2167469 C78.2470698,41.1125451 79.0656114,40.6433091 80.0928843,39.8244398 C80.0909183,39.8952184 80.0804325,39.9637033 80.0804325,40.0344819 C80.0804325,41.2734353 80.3491291,42.20306 80.8861946,42.8223729 C81.4226048,43.4403751 82.1510347,43.6704056 83.069846,43.5104983 C84.1236609,43.3279812 85.1614196,42.7742041 86.1834497,41.8491669 C87.166486,40.9598467 88.2196456,39.7471076 89.3367025,38.2276611 C89.3540695,39.0678295 89.4880901,39.7929826 89.7479394,40.3939455 C90.0264664,41.0378343 90.3308799,41.3307791 90.6618355,41.2734353 C90.8777758,41.2364076 91.0920777,41.093212 91.3044136,40.8445038 C91.515111,40.5961233 91.8519648,40.1245936 92.3107151,39.4292592 C92.7701207,38.7349079 93.2016737,38.1024878 93.6040632,37.5313437 C94.0064528,36.9605273 94.4979709,36.3458019 95.0750132,35.687823 C95.9640057,34.6464598 96.7025937,33.9255665 97.2920878,33.52416 C96.8067956,34.4246213 96.3781917,35.2290727 96.0062763,35.9398079 C95.6343609,36.6492325 95.3578,37.1931792 95.1769213,37.5706652 C94.9960426,37.9478235 94.8538301,38.3049933 94.7502836,38.6434855 C94.6473924,38.9813223 94.5956192,39.3158823 94.5956192,39.6458549 C94.5956192,40.7612734 95.0189802,41.2449273 95.8663575,41.0981272 C96.3621355,41.01162 97.0014367,40.5810501 97.7875381,39.803796 C98.5434931,39.05505 99.6199178,37.871802 101.009276,36.2638822 C101.03549,36.7019888 101.085625,37.0716104 101.164596,37.3599677 C101.283871,37.7934868 101.585335,38.2161924 102.070627,38.6284123 C102.897689,39.3086734 103.795856,39.5645905 104.766441,39.3964913 C105.519774,39.2657475 106.418269,38.7771784 107.461271,37.9307842 C108.420387,37.1522194 109.504676,36.0748116 110.700048,34.7270688 C110.699065,34.7867063 110.686941,34.8548635 110.686941,34.9128627 C110.686941,36.8969576 111.089986,37.818718 111.895748,37.6787992 C112.0917,37.6443929 112.298137,37.4900562 112.515716,37.2141507 C112.732312,36.9389005 113.150757,36.3517001 113.769743,35.4528773 C114.390694,34.5537267 115.035566,33.6683387 115.707307,32.7970408 C115.923903,32.5011469 116.193583,32.1423386 116.514052,31.719633 C116.835178,31.2972551 117.202505,30.8824137 117.616364,30.4754367 C118.029894,30.0671489 118.469312,29.6942505 118.934615,29.355103 C117.992867,30.8833968 117.271318,32.1950949 116.769642,33.2901974 C116.267638,34.3859552 116.016964,35.3152522 116.016964,36.0810375 C116.016964,37.032289 116.418698,37.4372999 117.224132,37.2973811 C117.564591,37.2390543 117.980743,37.0168881 118.470295,36.6308825 C118.960502,36.2455322 119.533285,35.7038792 120.188642,35.0055957 C120.804678,34.3489275 121.532453,33.5189171 122.361808,32.5280165 C122.399163,33.0729463 122.521715,33.5870743 122.739621,34.0677791 C123.00373,34.6464598 123.30585,35.102261 123.646636,35.4361657 C123.98775,35.769415 124.270537,35.9158874 124.497946,35.8765659 C124.97308,35.7939909 125.576992,35.3358959 126.310665,34.5022811 C127.042699,33.6683387 128.163033,32.2852066 129.671011,30.3522295 C129.080861,32.0027475 128.784967,33.2348197 128.784967,34.0497568 C128.784967,34.5655232 128.870164,34.9407153 129.04154,35.1730396 C129.21226,35.4073299 129.499635,35.4879389 129.90399,35.4178156 C130.979104,35.2320218 132.73579,33.595594 135.158319,30.5439216 C135.202556,31.6223124 135.398835,32.4945933 135.766163,33.1325839 C136.184609,33.8603584 136.759685,34.1605122 137.493686,34.0330451 C138.809644,33.804653 140.509314,32.1469261 142.587125,29.0828019 C142.710332,29.4422655 142.908578,29.7899327 143.202505,30.1228543 C142.532075,31.891009 142.036297,33.324276 141.716155,34.4226552 C141.396995,35.5213621 141.236761,36.5397878 141.236761,37.4798982 C141.236761,38.4603131 141.406826,39.251985 141.747939,39.8536032 C142.088398,40.4555491 142.460313,40.7216243 142.862375,40.6521564 C143.224132,40.588259 143.725481,40.272049 144.365437,39.7009049 C145.005722,39.1297608 145.657147,38.358405 146.317748,37.3858544 C146.989489,36.4015073 147.484939,35.5177577 147.805082,34.73395 C148.125224,33.9498147 148.331006,33.2194187 148.424722,32.541779 C148.517455,31.8647947 148.563986,31.0557558 148.563986,30.1159731 C149.121695,29.7289844 149.561112,29.3691932 149.880927,29.0343054 C150.201724,28.7004008 150.67096,28.1689058 151.289945,27.4417866 L151.289945,27.4034482 C151.349583,27.3402062 151.408237,27.2759811 151.46722,27.2140499 C151.591082,27.0842891 151.707736,26.9607542 151.81587,26.8444282 C151.924659,26.7274469 152.043606,26.5980138 152.172712,26.4571119 C152.301817,26.3158823 152.438459,26.171376 152.583621,26.0216268 C152.169763,27.1567061 151.882716,27.9994959 151.722154,28.554256 C151.562246,29.1080332 151.481965,29.5756308 151.481965,29.9570489 C151.481965,30.5239332 151.624833,30.9636781 151.908931,31.2749729 C152.193028,31.5865954 152.567893,31.702266 153.033524,31.621657 C154.339979,31.3949033 156.34865,29.5857888 159.052328,26.2146296 C159.051345,26.252968 159.044463,26.2906511 159.044463,26.3293172 C159.044463,27.5682706 159.31316,28.4972399 159.850553,29.1162251 C160.387291,29.7352103 161.115393,29.9645855 162.033877,29.8053336 C163.087364,29.6221612 164.125123,29.0680564 165.148136,28.1440022 C166.169838,27.218965 167.264613,25.9544527 168.431477,24.3498097 L168.431477,23.402818 C167.656517,24.1987498 167.000832,24.8393618 166.464422,25.3243264 C165.927028,25.8099463 165.387342,26.2185617 164.844705,26.5505003 C164.302397,26.8821113 163.778766,27.0921534 163.27283,27.1799713 C162.787538,27.2645124 162.395307,27.1619489 162.095481,26.8729363 C161.795982,26.5849066 161.646233,26.1363144 161.646233,25.5271595 L161.646233,25.5271595 Z" id="Fill-3" fill="#FFFFFE"></path>
            </g>
        </g>
    </g>
</svg>